<svg width="108" height="108" viewBox="0 0 108 108" fill="none" xmlns="http://www.w3.org/2000/svg">
<g filter="url(#filter0_d_0_1)">
<circle cx="54" cy="54" r="42" fill="#E1C8FF"/>
<circle cx="54" cy="54" r="40.5" stroke="white" stroke-width="3"/>
</g>
<path d="M70.2207 34.0466C67.584 32.8715 64.6542 32.453 61.7791 32.8408C58.904 33.2287 56.2041 34.4066 54 36.2348C51.7959 34.4066 49.096 33.2287 46.2209 32.8408C43.3458 32.453 40.416 32.8715 37.7792 34.0466C27.9367 37.8566 26.875 47.0235 26.875 50.7885C26.875 64.1591 35.7584 74.3741 53.2812 81.1466C53.7427 81.3251 54.2573 81.3251 54.7188 81.1466C72.2416 74.3741 81.125 64.1591 81.125 50.7885C81.125 47.0235 80.0632 37.8566 70.2207 34.0466ZM54 77.3816C38.3566 71.1679 30.75 62.4623 30.75 50.7885C30.75 47.7885 31.5754 40.4873 39.2207 37.5285C40.882 36.8527 42.6618 36.4918 44.4636 36.4654C45.9445 36.4791 47.4068 36.7855 48.7608 37.3659C50.1149 37.9463 51.332 38.7883 52.3376 39.8404C52.4917 39.9925 52.6547 40.1358 52.8259 40.2698C53.1633 40.5185 53.5758 40.6533 54 40.6533C54.4242 40.6533 54.8367 40.5185 55.1741 40.2698C55.3453 40.1358 55.5083 39.9925 55.6624 39.8404C57.0186 38.5391 61.1842 34.5904 68.7793 37.5266C76.4246 40.4873 77.25 47.7866 77.25 50.7885C77.25 62.4623 69.6434 71.1679 54 77.3816ZM59.5878 58.4216C60.6408 57.3613 61.3485 56.0247 61.6227 54.5781C61.897 53.1316 61.7258 51.639 61.1303 50.2859C60.5348 48.9328 59.5414 47.779 58.2736 46.968C57.0059 46.157 55.5197 45.7246 54 45.7246C52.4803 45.7246 50.9941 46.157 49.7264 46.968C48.4586 47.779 47.4652 48.9328 46.8697 50.2859C46.2742 51.639 46.103 53.1316 46.3773 54.5781C46.6515 56.0247 47.3592 57.3613 48.4123 58.4216C46.1652 59.6127 44.3845 61.4848 43.3438 63.7504C43.2334 63.9765 43.1709 64.2216 43.16 64.4714C43.149 64.7212 43.1898 64.9706 43.2799 65.205C43.37 65.4393 43.5076 65.6538 43.6847 65.8359C43.8617 66.018 44.0746 66.164 44.3108 66.2653C44.547 66.3665 44.8018 66.4211 45.0601 66.4257C45.3184 66.4303 45.5751 66.3848 45.815 66.292C46.0549 66.1992 46.2732 66.0609 46.457 65.8852C46.6409 65.7096 46.7865 65.5001 46.8855 65.2691C47.4911 63.9288 48.4873 62.7884 49.7523 61.9875C51.0173 61.1867 52.4961 60.7602 54.0077 60.7602C55.5194 60.7602 56.9982 61.1867 58.2632 61.9875C59.5282 62.7884 60.5244 63.9288 61.13 65.2691C61.2828 65.5981 61.5304 65.8774 61.8431 66.0737C62.1559 66.2699 62.5204 66.3746 62.8931 66.3754C63.1668 66.3773 63.4377 66.3223 63.6875 66.2141C64.1515 66.0095 64.5134 65.636 64.6948 65.1748C64.8761 64.7136 64.8623 64.2018 64.6562 63.7504C63.6155 61.4848 61.8348 59.6127 59.5878 58.4216ZM50.125 53.2504C50.125 52.5087 50.3523 51.7837 50.7781 51.167C51.2038 50.5503 51.809 50.0697 52.5171 49.7858C53.2252 49.502 54.0043 49.4277 54.756 49.5724C55.5077 49.7171 56.1981 50.0743 56.74 50.5987C57.282 51.1232 57.651 51.7914 57.8005 52.5188C57.9501 53.2462 57.8733 54.0002 57.58 54.6854C57.2867 55.3707 56.7901 55.9563 56.1528 56.3684C55.5156 56.7804 54.7664 57.0004 54 57.0004C52.9723 57.0004 51.9867 56.6053 51.26 55.902C50.5333 55.1988 50.125 54.2449 50.125 53.2504Z" fill="#8B4BD7"/>
<defs>
<filter id="filter0_d_0_1" x="0" y="0" width="108" height="108" filterUnits="userSpaceOnUse" color-interpolation-filters="sRGB">
<feFlood flood-opacity="0" result="BackgroundImageFix"/>
<feColorMatrix in="SourceAlpha" type="matrix" values="0 0 0 0 0 0 0 0 0 0 0 0 0 0 0 0 0 0 127 0" result="hardAlpha"/>
<feMorphology radius="3" operator="erode" in="SourceAlpha" result="effect1_dropShadow_0_1"/>
<feOffset/>
<feGaussianBlur stdDeviation="7.5"/>
<feComposite in2="hardAlpha" operator="out"/>
<feColorMatrix type="matrix" values="0 0 0 0 0 0 0 0 0 0 0 0 0 0 0 0 0 0 0.25 0"/>
<feBlend mode="normal" in2="BackgroundImageFix" result="effect1_dropShadow_0_1"/>
<feBlend mode="normal" in="SourceGraphic" in2="effect1_dropShadow_0_1" result="shape"/>
</filter>
</defs>
</svg>
