<svg width="108" height="108" viewBox="0 0 108 108" fill="none" xmlns="http://www.w3.org/2000/svg">
<g filter="url(#filter0_d_0_1)">
<circle cx="54" cy="54" r="42" fill="#FFD8EC"/>
<circle cx="54" cy="54" r="40.5" stroke="white" stroke-width="3"/>
</g>
<path d="M40.2484 55.1609C40.1721 54.9887 40.035 54.8558 39.8673 54.7917C39.6995 54.7275 39.5147 54.7373 39.3537 54.8188L32.3843 58.348C32.2233 58.4296 32.0991 58.5763 32.0392 58.7558C31.9792 58.9353 31.9884 59.1329 32.0646 59.3052L38.8985 74.7493C38.9747 74.9216 39.1118 75.0544 39.2796 75.1186C39.4474 75.1827 39.6321 75.173 39.7932 75.0914L46.7625 71.5622C46.9235 71.4806 47.0477 71.334 47.1076 71.1545C47.1676 70.975 47.1585 70.7774 47.0823 70.6051L46.7429 69.8381L47.6119 68.9576C47.7408 68.8208 47.8941 68.7133 48.0628 68.6414C48.2315 68.5695 48.412 68.5348 48.5935 68.5393H60.8259C61.4662 68.5479 62.1004 68.4045 62.6827 68.1195C63.2651 67.8344 63.7811 67.4148 64.1937 66.8908L74.4314 54.2164C74.6652 53.9269 74.8335 53.5835 74.923 53.213C75.0125 52.8425 75.0209 52.4549 74.9474 52.0804C74.874 51.7059 74.7207 51.3546 74.4996 51.0538C74.2785 50.753 73.9954 50.5109 73.6725 50.3463C72.0987 49.5438 69.656 49.515 68.2292 51.0411L62.7349 56.9195C62.438 56.523 62.0617 56.2029 61.6337 55.9829C61.2056 55.7629 60.7368 55.6487 60.2619 55.6487H52.5852C51.0294 54.122 48.822 53.4265 46.3335 53.6864C44.274 53.9162 42.3047 54.7101 40.6156 55.9915L40.2484 55.1609ZM39.8255 73.4847L33.5665 59.3397L39.3214 56.4254L45.5802 70.5705L39.8255 73.4847ZM51.8405 56.8752C51.9029 56.942 51.9769 56.9949 52.0585 57.031C52.14 57.0672 52.2274 57.0857 52.3156 57.0857H60.2619C60.7472 57.0857 61.2125 57.292 61.5557 57.659C61.8988 58.0261 62.0915 58.5239 62.0915 59.043C62.0915 59.5621 61.8988 60.0599 61.5557 60.427C61.2125 60.794 60.7472 61.0002 60.2619 61.0002H53.3997C53.2215 61.0002 53.0506 61.076 52.9246 61.2108C52.7986 61.3455 52.7278 61.5284 52.7278 61.719C52.7278 61.9096 52.7986 62.0924 52.9246 62.2272C53.0506 62.362 53.2215 62.4377 53.3997 62.4377H60.2619C60.7387 62.4381 61.2094 62.3234 61.639 62.1023C62.0686 61.8812 62.446 61.5593 62.7433 61.1606C63.0406 60.7618 63.25 60.2965 63.3559 59.7993C63.4618 59.302 63.4616 58.7856 63.3552 58.2885L69.1796 52.0579C70.1219 51.0497 71.9455 51.0582 73.0947 51.6442C73.2309 51.7136 73.3503 51.8157 73.4436 51.9426C73.5369 52.0695 73.6016 52.2177 73.6326 52.3757C73.6636 52.5337 73.66 52.6972 73.6223 52.8535C73.5845 53.0097 73.5135 53.1546 73.4148 53.2767L63.1771 65.9512C62.8908 66.3193 62.5309 66.6138 62.1238 66.813C61.7168 67.0122 61.2731 67.111 60.8256 67.102H48.5935C47.8829 67.0926 47.1978 67.3846 46.6879 67.9141L46.1379 68.4711L41.2013 57.3148C44.1966 54.8363 49.1947 54.0445 51.8405 56.8752ZM62.3914 39.0454H62.6458L59.902 35.8829L56.5313 38.362C56.4008 38.458 56.2429 38.5016 56.0854 38.4851C55.9279 38.4687 55.7808 38.3933 55.6702 38.2722L51.8209 34.0599C51.7583 33.9926 51.7088 33.9127 51.6752 33.8248C51.6416 33.7369 51.6246 33.6428 51.6252 33.5479C51.6258 33.4529 51.6439 33.3591 51.6786 33.2717C51.7134 33.1843 51.7639 33.1051 51.8274 33.0388C51.8908 32.9724 51.966 32.9201 52.0484 32.885C52.1309 32.8499 52.219 32.8326 52.3077 32.8341C52.3965 32.8356 52.4841 32.8559 52.5654 32.8938C52.6468 32.9318 52.7203 32.9866 52.7818 33.0551L56.2358 36.8349L59.6191 34.3462C59.752 34.2484 59.9134 34.205 60.0738 34.2239C60.2342 34.2429 60.3828 34.323 60.4926 34.4495L63.6033 38.0357V37.7489C63.6033 37.5582 63.674 37.3754 63.8 37.2406C63.926 37.1058 64.0969 37.0301 64.2751 37.0301C64.4533 37.0301 64.6242 37.1058 64.7502 37.2406C64.8762 37.3754 64.947 37.5582 64.947 37.7489V39.7641C64.947 39.9548 64.8762 40.1376 64.7502 40.2724C64.6242 40.4072 64.4533 40.4829 64.2751 40.4829H62.3914C62.2132 40.4829 62.0424 40.4072 61.9164 40.2724C61.7904 40.1376 61.7196 39.9548 61.7196 39.7641C61.7196 39.5735 61.7904 39.3907 61.9164 39.2559C62.0424 39.1211 62.2132 39.0454 62.3914 39.0454ZM49.9451 33.5575V48.2214H51.6295V39.0726C51.6295 38.882 51.7003 38.6992 51.8263 38.5644C51.9523 38.4296 52.1232 38.3539 52.3014 38.3539C52.4796 38.3539 52.6505 38.4296 52.7765 38.5644C52.9025 38.6992 52.9733 38.882 52.9733 39.0726V48.2214H55.4788V40.535C55.4788 40.3444 55.5496 40.1616 55.6756 40.0268C55.8016 39.892 55.9725 39.8162 56.1506 39.8162C56.3288 39.8162 56.4997 39.892 56.6257 40.0268C56.7517 40.1616 56.8225 40.3444 56.8225 40.535V48.2214H59.3279V42.5757C59.3279 42.3851 59.3987 42.2023 59.5247 42.0675C59.6507 41.9327 59.8216 41.857 59.9998 41.857C60.178 41.857 60.3489 41.9327 60.4749 42.0675C60.6009 42.2023 60.6717 42.3851 60.6717 42.5757V48.2214H63.1771V43.9571C63.1771 43.7665 63.2479 43.5837 63.3739 43.4489C63.4999 43.3141 63.6708 43.2384 63.849 43.2384C64.0272 43.2384 64.1981 43.3141 64.3241 43.4489C64.4501 43.5837 64.5209 43.7665 64.5209 43.9571V48.2214H66.877C67.0552 48.2214 67.2261 48.2971 67.3521 48.4319C67.4781 48.5667 67.5489 48.7495 67.5489 48.9402C67.5489 49.1308 67.4781 49.3136 67.3521 49.4484C67.2261 49.5832 67.0552 49.6589 66.877 49.6589H49.9451V52.3893C49.9451 52.58 49.8743 52.7628 49.7483 52.8976C49.6223 53.0324 49.4514 53.1081 49.2733 53.1081C49.0951 53.1081 48.9242 53.0324 48.7982 52.8976C48.6722 52.7628 48.6014 52.58 48.6014 52.3893V49.6589H46.0489C45.8707 49.6589 45.6998 49.5832 45.5738 49.4484C45.4478 49.3136 45.377 49.1308 45.377 48.9402C45.377 48.7495 45.4478 48.5667 45.5738 48.4319C45.6998 48.2971 45.8707 48.2214 46.0489 48.2214H48.6014V33.5575C48.6014 33.3668 48.6722 33.184 48.7982 33.0492C48.9242 32.9144 49.0951 32.8387 49.2733 32.8387C49.4514 32.8387 49.6223 32.9144 49.7483 33.0492C49.8743 33.184 49.9451 33.3668 49.9451 33.5575Z" fill="#DD4A67"/>
<defs>
<filter id="filter0_d_0_1" x="0" y="0" width="108" height="108" filterUnits="userSpaceOnUse" color-interpolation-filters="sRGB">
<feFlood flood-opacity="0" result="BackgroundImageFix"/>
<feColorMatrix in="SourceAlpha" type="matrix" values="0 0 0 0 0 0 0 0 0 0 0 0 0 0 0 0 0 0 127 0" result="hardAlpha"/>
<feMorphology radius="3" operator="erode" in="SourceAlpha" result="effect1_dropShadow_0_1"/>
<feOffset/>
<feGaussianBlur stdDeviation="7.5"/>
<feComposite in2="hardAlpha" operator="out"/>
<feColorMatrix type="matrix" values="0 0 0 0 0 0 0 0 0 0 0 0 0 0 0 0 0 0 0.25 0"/>
<feBlend mode="normal" in2="BackgroundImageFix" result="effect1_dropShadow_0_1"/>
<feBlend mode="normal" in="SourceGraphic" in2="effect1_dropShadow_0_1" result="shape"/>
</filter>
</defs>
</svg>