<svg width="108" height="108" viewBox="0 0 108 108" fill="none" xmlns="http://www.w3.org/2000/svg">
<g filter="url(#filter0_d_0_1)">
<circle cx="54" cy="54" r="42" fill="#C6BFFF"/>
<circle cx="54" cy="54" r="40.5" stroke="white" stroke-width="3"/>
</g>
<path d="M59.0275 51.0625C59.0239 50.7523 58.8934 50.4562 58.6647 50.2394C58.436 50.0226 58.1278 49.9029 57.808 49.9066L44.5426 50.0602C44.2228 50.0639 43.9175 50.1907 43.6938 50.4127C43.4702 50.6347 43.3466 50.9338 43.3502 51.244C43.3538 51.5543 43.4843 51.8504 43.713 52.0672C43.9417 52.2839 44.2499 52.4036 44.5697 52.3999L57.8351 52.2463C57.9934 52.2445 58.1499 52.2124 58.2955 52.152C58.4412 52.0915 58.5731 52.0038 58.6838 51.8938C58.7945 51.7839 58.8819 51.6539 58.9408 51.5113C58.9998 51.3686 59.0292 51.2162 59.0275 51.0625ZM44.6083 55.968C44.2885 55.9717 43.9832 56.0985 43.7596 56.3205C43.5359 56.5425 43.4123 56.8416 43.4159 57.1518C43.4195 57.4621 43.55 57.7582 43.7787 57.975C44.0074 58.1917 44.3156 58.3114 44.6354 58.3077L51.6687 58.2263C51.9886 58.2226 52.2939 58.0958 52.5175 57.8738C52.7411 57.6518 52.8647 57.3527 52.8611 57.0425C52.8575 56.7322 52.727 56.4361 52.4983 56.2194C52.2696 56.0026 51.9615 55.8829 51.6416 55.8866L44.6083 55.968Z" fill="#3023A2"/>
<path d="M66.9742 51.0352C66.6543 51.0389 66.349 51.1657 66.1254 51.3877C65.9018 51.6097 65.7782 51.9087 65.7818 52.219L65.8913 61.6805C65.9001 62.5317 65.5605 63.3518 64.947 63.9608C64.3335 64.5699 63.4963 64.9182 62.6188 64.9294L54.5524 65.0228C54.2908 65.0256 54.0372 65.1111 53.8302 65.2665L46.9241 70.4282C46.8651 70.4752 46.7929 70.5038 46.7169 70.5102C46.6409 70.5167 46.5647 70.5007 46.4983 70.4643C46.4298 70.4335 46.3721 70.3838 46.3326 70.3214C46.293 70.2589 46.2733 70.1866 46.2758 70.1133L46.366 66.3292C46.3694 66.1724 46.3403 66.0165 46.2805 65.8708C46.2206 65.7251 46.1312 65.5926 46.0176 65.481C45.904 65.3695 45.7684 65.2812 45.6189 65.2214C45.4695 65.1616 45.3091 65.1316 45.1474 65.133L39.5452 65.1979C38.6676 65.2074 37.8223 64.8786 37.1948 64.2838C36.5673 63.6891 36.2089 62.8769 36.1983 62.0256L36.0193 46.5575C36.0087 45.7047 36.3473 44.8825 36.9608 44.2712C37.5743 43.6599 38.4125 43.3095 39.2916 43.2969L54.1515 43.1249C54.4713 43.1212 54.7766 42.9943 55.0002 42.7723C55.2239 42.5503 55.3475 42.2513 55.3439 41.941C55.3403 41.6308 55.2098 41.3347 54.9811 41.1179C54.7524 40.9011 54.4442 40.7814 54.1244 40.7851L39.2645 40.9572C37.7459 40.9782 36.2974 41.5827 35.2369 42.6381C34.1763 43.6935 33.5903 45.1135 33.6074 46.5867L33.7865 62.0535C33.8053 63.5251 34.4249 64.929 35.5096 65.9573C36.5942 66.9856 38.0552 67.5544 39.5723 67.5389L43.9257 67.4885L43.8644 70.0658C43.8519 70.5805 43.9906 71.0879 44.2643 71.5288C44.5381 71.9697 44.9355 72.3259 45.4103 72.5556C45.8145 72.7553 46.2626 72.8572 46.7163 72.8525C47.3099 72.8457 47.896 72.653 48.3929 72.2845L54.9815 67.3605L62.6446 67.2718C64.1616 67.2521 65.6091 66.6497 66.6696 65.5965C67.7301 64.5434 68.3171 63.1255 68.3019 61.6539L68.1923 52.1924C68.1909 52.0387 68.1582 51.8868 68.0962 51.7454C68.0342 51.6041 67.944 51.476 67.8309 51.3685C67.7177 51.261 67.5838 51.1762 67.4368 51.119C67.2898 51.0618 67.1326 51.0333 66.9742 51.0352Z" fill="#3023A2"/>
<path d="M73.3646 39.8168C73.2557 39.5003 73.065 39.2161 72.8106 38.9915C72.5563 38.7669 72.2469 38.6092 71.9118 38.5336L68.8213 37.8245L67.1081 35.2313C66.3483 34.0779 64.4001 34.103 63.6685 35.2711L62.0158 37.9033L58.9426 38.6838C58.2624 38.8554 57.7294 39.3478 57.5199 40.0002C57.3103 40.6527 57.4578 41.3517 57.9168 41.8703L59.9861 44.2045L59.7993 47.2799C59.7779 47.6132 59.8448 47.9462 59.9938 48.2471C60.1427 48.5481 60.3686 48.807 60.65 48.9991C60.9303 49.1929 61.257 49.3139 61.5992 49.3507C61.9414 49.3874 62.2876 49.3387 62.605 49.2092L65.5368 48.0208L68.494 49.141C69.1496 49.3908 69.8775 49.294 70.4436 48.887C71.0085 48.4788 71.3118 47.8291 71.2557 47.1473L70.9977 44.077L73.0125 41.6942C73.458 41.1664 73.5905 40.4642 73.3646 39.8168ZM68.8232 42.9595C68.6244 43.1947 68.5279 43.4956 68.5541 43.7985L68.8027 46.7467L65.9626 45.6706C65.6717 45.5598 65.3477 45.5636 65.0595 45.6811L62.2464 46.8226L62.4253 43.8695C62.4429 43.5663 62.3396 43.2682 62.1369 43.0369L60.1503 40.7953L63.1006 40.0448C63.4027 39.9679 63.6624 39.7804 63.8249 39.5216L65.4119 36.9955L67.0569 39.4842C67.226 39.7397 67.4894 39.9212 67.7931 39.9905L70.7599 40.6725L68.8232 42.9595Z" fill="#3023A2"/>
<defs>
<filter id="filter0_d_0_1" x="0" y="0" width="108" height="108" filterUnits="userSpaceOnUse" color-interpolation-filters="sRGB">
<feFlood flood-opacity="0" result="BackgroundImageFix"/>
<feColorMatrix in="SourceAlpha" type="matrix" values="0 0 0 0 0 0 0 0 0 0 0 0 0 0 0 0 0 0 127 0" result="hardAlpha"/>
<feMorphology radius="3" operator="erode" in="SourceAlpha" result="effect1_dropShadow_0_1"/>
<feOffset/>
<feGaussianBlur stdDeviation="7.5"/>
<feComposite in2="hardAlpha" operator="out"/>
<feColorMatrix type="matrix" values="0 0 0 0 0 0 0 0 0 0 0 0 0 0 0 0 0 0 0.25 0"/>
<feBlend mode="normal" in2="BackgroundImageFix" result="effect1_dropShadow_0_1"/>
<feBlend mode="normal" in="SourceGraphic" in2="effect1_dropShadow_0_1" result="shape"/>
</filter>
</defs>
</svg>

