<svg width="108" height="108" viewBox="0 0 108 108" fill="none" xmlns="http://www.w3.org/2000/svg">
<g filter="url(#filter0_d_0_1)">
<circle cx="54" cy="54" r="42" fill="#CBF5FF"/>
<circle cx="54" cy="54" r="40.5" stroke="white" stroke-width="3"/>
</g>
<g clip-path="url(#clip0_0_1)">
<path d="M64.958 43.7603C66.4163 45.4714 68.6086 46.5625 71.0566 46.5625C75.4367 46.5625 79 43.0719 79 38.7812C79 34.4906 75.4367 31 71.0566 31C66.6766 31 63.1133 34.4906 63.1133 38.7812C63.1124 39.9894 63.4005 41.181 63.9546 42.2603H57.2512C57.0481 42.2603 56.8534 42.3393 56.7098 42.48L53.223 45.8956C50.0143 46.4306 47.274 48.3295 45.6487 50.9605H42.2097L39.5259 46.407C43.1503 45.6863 45.8867 42.5411 45.8867 38.7812C45.8867 34.4906 42.3234 31 37.9434 31C33.5633 31 30 34.4906 30 38.7812C30 43.0406 33.512 46.5097 37.848 46.5602L41.1046 52.0856C41.1718 52.1996 41.2684 52.2943 41.3848 52.3601C41.5012 52.426 41.6333 52.4606 41.7677 52.4606H44.8788C44.3546 53.7167 44.0649 55.0901 44.0649 56.5288C44.0649 60.6748 46.4655 64.2813 49.9764 66.0863V69.2327L45.8782 71.5506C45.883 71.4405 45.8868 71.3301 45.8868 71.2189C45.8868 66.9283 42.3235 63.4377 37.9435 63.4377C33.5634 63.4377 30 66.9281 30 71.2188C30 75.5094 33.5633 79 37.9434 79C41.5244 79 44.5584 76.6662 45.5465 73.4701L51.1248 70.3152C51.2412 70.2494 51.3379 70.1547 51.4051 70.0407C51.4723 69.9267 51.5077 69.7973 51.5077 69.6657V66.7335C52.6561 67.1196 53.8621 67.3162 55.0763 67.3153C57.5903 67.3153 59.9098 66.4851 61.7654 65.0907L63.9269 67.1453C63.5944 67.779 63.7054 68.5776 64.2538 69.0989L69.8803 74.4472C70.1967 74.7483 70.6207 74.9164 71.0619 74.9157C71.505 74.9157 71.9478 74.7471 72.28 74.4118L74.3115 72.361C74.9631 71.7033 74.9469 70.6488 74.2754 70.0104L68.6489 64.662C68.4893 64.5096 68.3004 64.3898 68.0931 64.3094C67.8859 64.2291 67.6644 64.1898 67.4416 64.194C67.2397 64.1972 67.04 64.2356 66.8518 64.3075L64.5121 62.0835C65.5118 60.46 66.0877 58.5591 66.0877 56.5289C66.0877 50.7317 61.3949 45.9888 55.5353 45.7523L57.5685 43.7606H64.958V43.7603ZM66.8921 43.5516C67.2817 41.6222 69.0093 40.2094 71.0566 40.2094C73.104 40.2094 74.8316 41.6222 75.2212 43.5516C74.0998 44.4923 72.6453 45.0625 71.0566 45.0625C69.468 45.0625 68.0135 44.4923 66.8921 43.5516ZM71.0567 38.7093C70.0815 38.7093 69.2881 37.9321 69.2881 36.9767C69.2881 36.0214 70.0815 35.2442 71.0567 35.2442C72.032 35.2442 72.8253 36.0214 72.8253 36.9767C72.8253 37.9321 72.032 38.7093 71.0567 38.7093ZM71.0566 32.5C74.5923 32.5 77.4688 35.3177 77.4688 38.7812C77.4688 40.0551 77.0786 41.241 76.4106 42.2321C75.8514 40.8805 74.7795 39.8021 73.4393 39.2099C74.0068 38.629 74.3566 37.8424 74.3566 36.9768C74.3566 35.1944 72.8762 33.7443 71.0567 33.7443C69.2372 33.7443 67.7569 35.1945 67.7569 36.9768C67.7569 37.8424 68.1067 38.629 68.6741 39.2099C67.3338 39.802 66.2619 40.8805 65.7027 42.2322C65.0347 41.241 64.6445 40.0551 64.6445 38.7812C64.6445 35.3177 67.521 32.5 71.0566 32.5ZM37.9435 38.7093C36.9682 38.7093 36.1749 37.9321 36.1749 36.9767C36.1749 36.0214 36.9682 35.2442 37.9435 35.2442C38.9187 35.2442 39.712 36.0214 39.712 36.9767C39.712 37.9321 38.9187 38.7093 37.9435 38.7093ZM37.9434 40.2093C39.9907 40.2093 41.7183 41.6221 42.1079 43.5515C40.9865 44.4923 39.532 45.0625 37.9434 45.0625C36.3547 45.0625 34.9002 44.4923 33.7788 43.5516C34.1685 41.6221 35.896 40.2093 37.9434 40.2093ZM37.9434 32.5C41.479 32.5 44.3555 35.3177 44.3555 38.7812C44.3555 40.0551 43.9653 41.241 43.2973 42.2321C42.7381 40.8805 41.6662 39.8021 40.326 39.2099C40.8935 38.629 41.2433 37.8424 41.2433 36.9768C41.2433 35.1944 39.763 33.7443 37.9435 33.7443C36.1239 33.7443 34.6436 35.1945 34.6436 36.9768C34.6436 37.8424 34.9934 38.629 35.5608 39.2099C34.2205 39.8019 33.1486 40.8804 32.5894 42.2321C31.9214 41.241 31.5312 40.0551 31.5312 38.7812C31.5312 35.3177 34.4077 32.5 37.9434 32.5ZM33.7788 75.9891C34.1684 74.0596 35.896 72.6468 37.9434 72.6468C39.9907 72.6468 41.7182 74.0596 42.1079 75.9891C40.9865 76.9298 39.532 77.5 37.9434 77.5C36.3547 77.5 34.9002 76.9298 33.7788 75.9891ZM37.9435 71.1468C36.9682 71.1468 36.1749 70.3696 36.1749 69.4143C36.1749 68.4589 36.9682 67.6818 37.9435 67.6818C38.9187 67.6818 39.712 68.4589 39.712 69.4143C39.712 70.3696 38.9187 71.1468 37.9435 71.1468ZM43.2974 74.6696C42.7381 73.3179 41.6663 72.2395 40.3261 71.6473C40.8936 71.0664 41.2433 70.2798 41.2433 69.4143C41.2433 67.6318 39.763 66.1818 37.9435 66.1818C36.1239 66.1818 34.6436 67.6319 34.6436 69.4143C34.6436 70.2798 34.9933 71.0664 35.5608 71.6472C34.2205 72.2394 33.1486 73.3178 32.5893 74.6696C31.9214 73.6785 31.5312 72.4926 31.5312 71.2188C31.5312 67.7552 34.4077 64.9375 37.9434 64.9375C41.479 64.9375 44.3555 67.7552 44.3555 71.2188C44.3555 72.4926 43.9653 73.6785 43.2974 74.6696ZM67.4644 65.6936H67.4672C67.499 65.6936 67.5438 65.7016 67.5823 65.7383L73.2087 71.0867C73.2732 71.148 73.2748 71.2532 73.2124 71.3163L71.1809 73.367C71.1499 73.3974 71.1081 73.4148 71.0643 73.4154C71.0205 73.416 70.9782 73.3999 70.9464 73.3705L65.3199 68.0222C65.2889 67.992 65.2712 67.951 65.2705 67.9081C65.2699 67.8652 65.2863 67.8238 65.3164 67.7926L67.3479 65.7417C67.363 65.7265 67.3812 65.7144 67.4012 65.7061C67.4212 65.6978 67.4427 65.6936 67.4644 65.6936ZM65.6738 65.2778L64.9403 66.0183L62.9164 64.0945C63.1632 63.8491 63.3979 63.5924 63.6198 63.3253L65.6738 65.2778ZM64.5563 56.5287C64.5563 61.6493 60.3035 65.8153 55.0762 65.8153C49.8489 65.8153 45.5961 61.6493 45.5961 56.5287C45.5961 51.4081 49.8489 47.242 55.0762 47.242C60.3035 47.242 64.5563 51.4081 64.5563 56.5287ZM47.0362 56.5286C47.0362 60.8714 50.6431 64.4046 55.0763 64.4046C59.5096 64.4046 63.1164 60.8714 63.1164 56.5286C63.1164 52.1858 59.5096 48.6527 55.0763 48.6527C50.6431 48.6527 47.0362 52.1857 47.0362 56.5286ZM61.5851 56.5286C61.5851 60.0443 58.6652 62.9046 55.0762 62.9046C51.4873 62.9046 48.5674 60.0443 48.5674 56.5286C48.5674 53.0129 51.4873 50.1527 55.0762 50.1527C58.6652 50.1527 61.5851 53.0129 61.5851 56.5286ZM56.9601 59.5427V53.1436C56.9601 52.9447 57.0408 52.7539 57.1844 52.6132C57.328 52.4726 57.5227 52.3936 57.7258 52.3936C57.9288 52.3936 58.1236 52.4726 58.2671 52.6132C58.4107 52.7539 58.4914 52.9447 58.4914 53.1436V59.5427C58.4914 59.7417 58.4107 59.9324 58.2671 60.0731C58.1236 60.2137 57.9288 60.2927 57.7258 60.2927C57.5227 60.2927 57.328 60.2137 57.1844 60.0731C57.0408 59.9324 56.9601 59.7417 56.9601 59.5427ZM52.2786 56.8577V59.5427C52.2786 59.7417 52.198 59.9324 52.0544 60.0731C51.9108 60.2137 51.7161 60.2927 51.513 60.2927C51.31 60.2927 51.1152 60.2137 50.9716 60.0731C50.828 59.9324 50.7474 59.7417 50.7474 59.5427V56.8577C50.7474 56.6588 50.828 56.4681 50.9716 56.3274C51.1152 56.1868 51.31 56.1077 51.513 56.1077C51.7161 56.1077 51.9108 56.1868 52.0544 56.3274C52.198 56.4681 52.2786 56.6588 52.2786 56.8577ZM54.6193 54.1387C54.8224 54.1387 55.0171 54.2177 55.1607 54.3584C55.3043 54.499 55.385 54.6898 55.385 54.8887V59.5427C55.385 59.7417 55.3043 59.9324 55.1607 60.0731C55.0171 60.2137 54.8224 60.2927 54.6193 60.2927C54.4163 60.2927 54.2215 60.2137 54.078 60.0731C53.9344 59.9324 53.8537 59.7417 53.8537 59.5427V54.8887C53.8537 54.4746 54.1965 54.1387 54.6193 54.1387Z" fill="#15A8CD"/>
</g>
<defs>
<filter id="filter0_d_0_1" x="0" y="0" width="108" height="108" filterUnits="userSpaceOnUse" color-interpolation-filters="sRGB">
<feFlood flood-opacity="0" result="BackgroundImageFix"/>
<feColorMatrix in="SourceAlpha" type="matrix" values="0 0 0 0 0 0 0 0 0 0 0 0 0 0 0 0 0 0 127 0" result="hardAlpha"/>
<feMorphology radius="3" operator="erode" in="SourceAlpha" result="effect1_dropShadow_0_1"/>
<feOffset/>
<feGaussianBlur stdDeviation="7.5"/>
<feComposite in2="hardAlpha" operator="out"/>
<feColorMatrix type="matrix" values="0 0 0 0 0 0 0 0 0 0 0 0 0 0 0 0 0 0 0.25 0"/>
<feBlend mode="normal" in2="BackgroundImageFix" result="effect1_dropShadow_0_1"/>
<feBlend mode="normal" in="SourceGraphic" in2="effect1_dropShadow_0_1" result="shape"/>
</filter>
<clipPath id="clip0_0_1">
<rect width="49" height="48" fill="white" transform="translate(30 31)"/>
</clipPath>
</defs>
</svg>
