<svg width="108" height="108" viewBox="0 0 108 108" fill="none" xmlns="http://www.w3.org/2000/svg">
<g filter="url(#filter0_d_0_1)">
<circle cx="54" cy="54" r="42" fill="#FFD8EC"/>
<circle cx="54" cy="54" r="40.5" stroke="white" stroke-width="3"/>
</g>
<path d="M62.529 47.1312C61.2164 47.1312 59.9321 47.2973 58.6939 47.6243C58.7429 47.2036 58.7683 46.7766 58.7683 46.3445C58.7683 44.3672 58.2577 42.4779 57.251 40.7293C57.0297 40.3452 56.5002 40.1932 56.0683 40.3897C55.6364 40.5864 55.4653 41.0569 55.6864 41.441C56.5651 42.9671 57.0106 44.6169 57.0106 46.3444C57.0106 52.2882 51.5706 57.1236 44.884 57.1236C43.3252 57.1236 41.8069 56.8642 40.3718 56.3522C40.212 56.2953 40.037 56.2814 39.8683 56.3121C39.6997 56.3428 39.5449 56.4168 39.4232 56.5249L37.5027 58.2322V55.2739C37.5027 55.0405 37.3852 54.8193 37.1824 54.6708C34.3703 52.6131 32.7575 49.5782 32.7575 46.3444C32.7575 40.4007 38.1975 35.5652 44.8841 35.5652C46.498 35.5652 48.0649 35.8422 49.5414 36.3886C50.02 36.5659 50.4853 36.7702 50.9345 37.0005C51.3548 37.216 51.8921 37.0879 52.1347 36.7143C52.3772 36.3407 52.2331 35.8629 51.8127 35.6474C51.2982 35.3837 50.7652 35.1495 50.2169 34.9464C48.5254 34.3204 46.7312 34.0029 44.8842 34.0029C37.2285 34.0029 31 39.5393 31 46.3444C31 49.9223 32.724 53.2873 35.7452 55.6354V60.1179C35.7452 60.2723 35.7968 60.4233 35.8934 60.5518C35.9899 60.6802 36.1272 60.7803 36.2877 60.8394C36.4483 60.8985 36.6249 60.914 36.7954 60.8839C36.9658 60.8538 37.1224 60.7794 37.2453 60.6702L40.2653 57.9857C41.7461 58.4505 43.297 58.6858 44.8842 58.6858C46.3558 58.6858 47.7743 58.4805 49.1063 58.1017C49.0749 58.4354 49.0582 58.7704 49.0582 59.1052C49.0582 60.9338 49.51 62.6893 50.4012 64.3231C50.4732 64.4552 50.5856 64.5665 50.7256 64.6444C50.8655 64.7223 51.0273 64.7636 51.1924 64.7636C51.3211 64.7636 51.4517 64.7384 51.5752 64.6851C52.0118 64.4969 52.1942 64.0297 51.9825 63.6414C51.2082 62.2219 50.8156 60.6957 50.8156 59.1053C50.8156 58.5466 50.8668 57.9872 50.9666 57.4368C54.5893 55.8607 57.3312 52.9233 58.343 49.3788C59.6771 48.9243 61.0829 48.6934 62.5289 48.6934C68.9877 48.6934 74.2424 53.3642 74.2424 59.1053C74.2424 62.2946 72.63 65.2649 69.8189 67.2548C69.7155 67.3279 69.632 67.4209 69.5747 67.5267C69.5173 67.6324 69.4875 67.7484 69.4876 67.8658V71.3288L67.0805 69.1892C66.9656 69.087 66.8211 69.0152 66.663 68.9817C66.5049 68.9482 66.3395 68.9543 66.1851 68.9993C65.0074 69.3429 63.7773 69.5172 62.5289 69.5172C60.743 69.5172 59.0287 69.1694 57.4339 68.4834C56.9973 68.2956 56.4716 68.4579 56.2601 68.8463C56.0487 69.2346 56.2316 69.7017 56.6684 69.8897C58.5038 70.679 60.4756 71.0793 62.5289 71.0793C63.7805 71.0793 65.0167 70.9268 66.2111 70.6254L69.745 73.7667C69.8679 73.8759 70.0245 73.9504 70.1949 73.9805C70.3654 74.0106 70.5421 73.9951 70.7027 73.936C70.8632 73.8768 71.0004 73.7767 71.097 73.6483C71.1936 73.5198 71.2451 73.3688 71.2451 73.2143V68.2347C74.2725 65.9515 75.9998 62.6458 75.9998 59.1052C76 52.5028 69.9569 47.1312 62.529 47.1312Z" fill="#CB4D8D"/>
<defs>
<filter id="filter0_d_0_1" x="0" y="0" width="108" height="108" filterUnits="userSpaceOnUse" color-interpolation-filters="sRGB">
<feFlood flood-opacity="0" result="BackgroundImageFix"/>
<feColorMatrix in="SourceAlpha" type="matrix" values="0 0 0 0 0 0 0 0 0 0 0 0 0 0 0 0 0 0 127 0" result="hardAlpha"/>
<feMorphology radius="3" operator="erode" in="SourceAlpha" result="effect1_dropShadow_0_1"/>
<feOffset/>
<feGaussianBlur stdDeviation="7.5"/>
<feComposite in2="hardAlpha" operator="out"/>
<feColorMatrix type="matrix" values="0 0 0 0 0 0 0 0 0 0 0 0 0 0 0 0 0 0 0.25 0"/>
<feBlend mode="normal" in2="BackgroundImageFix" result="effect1_dropShadow_0_1"/>
<feBlend mode="normal" in="SourceGraphic" in2="effect1_dropShadow_0_1" result="shape"/>
</filter>
</defs>
</svg>
