<svg width="46" height="38" viewBox="0 0 46 38" fill="none" xmlns="http://www.w3.org/2000/svg">
<path fill-rule="evenodd" clip-rule="evenodd" d="M2.00531 0.135254H27.4078C28.2637 0.135254 28.9639 0.835496 28.9639 1.69126V23.2361C28.9639 24.0919 28.2637 24.7922 27.4078 24.7922H2.00531C1.14946 24.7922 0.449219 24.0919 0.449219 23.2361V1.69126C0.449219 0.835496 1.14946 0.135254 2.00531 0.135254Z" fill="#DA8C36"/>
<path fill-rule="evenodd" clip-rule="evenodd" d="M5.49978 16.2494H11.583C11.6843 16.2497 11.7813 16.29 11.8529 16.3616C11.9245 16.4332 11.9648 16.5302 11.9651 16.6315V19.7415C11.9648 19.8427 11.9245 19.9398 11.8529 20.0113C11.7813 20.0829 11.6843 20.1233 11.583 20.1236H5.49978C5.39854 20.1233 5.30152 20.0829 5.22993 20.0113C5.15834 19.9398 5.11798 19.8427 5.11768 19.7415V16.6315C5.11798 16.5302 5.15834 16.4332 5.22993 16.3616C5.30152 16.29 5.39854 16.2497 5.49978 16.2494ZM10.0963 0.135254H19.3169V6.24166C19.3169 6.82304 18.6428 7.14208 18.1932 6.77345L15.1425 4.27238C14.8864 4.06241 14.5267 4.06241 14.2705 4.27238L11.2199 6.77345C10.7703 7.14208 10.0962 6.82304 10.0962 6.24166L10.0963 0.135254Z" fill="#B06328"/>
<path fill-rule="evenodd" clip-rule="evenodd" d="M27.2065 23.7091C27.682 25.4837 26.6191 27.3247 24.8445 27.8003L17.7203 29.7092C15.9457 30.1847 14.1046 29.1218 13.6291 27.3472C13.1536 25.5725 14.2165 23.7315 15.9911 23.256L23.1153 21.3471C24.89 20.8714 26.731 21.9344 27.2065 23.7091ZM23.451 28.7611L20.4793 29.858L22.4711 37.2917C22.5813 37.7031 23.0068 37.9487 23.4182 37.8385L24.9712 37.4224C25.3826 37.3121 25.6282 36.8866 25.518 36.4752L23.451 28.7611Z" fill="#64B5F6"/>
<path d="M38.8839 23.7077C40.2302 22.275 40.1602 20.0223 38.7275 18.676C37.2949 17.3298 35.0422 17.3998 33.6959 18.8324C32.3497 20.265 32.4197 22.5178 33.8523 23.864C35.2849 25.2103 37.5376 25.1403 38.8839 23.7077Z" fill="#64B5F6"/>
<path fill-rule="evenodd" clip-rule="evenodd" d="M22.0038 19.8998L17.5579 21.0912C16.7047 21.3198 16.1952 22.2022 16.4238 23.0554L18.1952 29.6664C18.4238 30.5196 19.3062 31.0291 20.1594 30.8005L24.6054 29.6092L37.3456 30.1779C37.6823 30.166 37.9672 30.0161 38.1675 29.7452C38.368 29.4743 38.428 29.158 38.3408 28.8326L34.2873 13.7048C34.2 13.3794 33.99 13.1355 33.6809 13.0011C33.372 12.8668 33.0502 12.8793 32.7528 13.0374L22.0038 19.8998Z" fill="#64B5F6"/>
<path fill-rule="evenodd" clip-rule="evenodd" d="M22.0038 19.8998L17.5579 21.0911C16.7047 21.3198 16.1952 22.2021 16.4238 23.0554L18.1952 29.6664C18.4238 30.5196 19.3062 31.029 20.1595 30.8005L24.6054 29.6092C23.7381 26.3728 22.8709 23.1363 22.0038 19.8998ZM32.1538 12.1421C33.1304 11.8803 34.1434 12.4652 34.4052 13.4418L38.5743 29.0012C38.836 29.9778 38.251 30.9909 37.2745 31.2526C36.2979 31.5144 35.2848 30.9294 35.0231 29.9528L30.854 14.3934C30.5923 13.4168 31.1772 12.4037 32.1538 12.1421ZM44.6472 18.2932C44.7387 18.2675 44.8344 18.2602 44.9287 18.2717C45.0231 18.2833 45.1142 18.3134 45.1968 18.3605C45.2794 18.4075 45.3519 18.4705 45.4099 18.5458C45.468 18.621 45.5105 18.7071 45.5351 18.7989C45.5596 18.8908 45.5657 18.9866 45.5529 19.0808C45.5401 19.175 45.5087 19.2657 45.4606 19.3477C45.4125 19.4296 45.3486 19.5012 45.2725 19.5583C45.1965 19.6154 45.1099 19.6568 45.0178 19.6801L42.7445 20.2893C42.6529 20.315 42.5572 20.3223 42.4629 20.3108C42.3685 20.2992 42.2774 20.2691 42.1948 20.222C42.1122 20.175 42.0398 20.112 41.9817 20.0367C41.9236 19.9614 41.8811 19.8754 41.8565 19.7836C41.832 19.6917 41.826 19.5959 41.8387 19.5017C41.8515 19.4075 41.8829 19.3168 41.931 19.2348C41.9791 19.1528 42.0431 19.0812 42.1191 19.0242C42.1951 18.9671 42.2817 18.9257 42.3738 18.9024L44.6472 18.2932ZM45.0177 22.7637C45.1098 22.787 45.1964 22.8284 45.2725 22.8855C45.3485 22.9425 45.4124 23.0142 45.4605 23.0961C45.5086 23.1781 45.54 23.2688 45.5528 23.363C45.5656 23.4572 45.5595 23.553 45.535 23.6449C45.5104 23.7367 45.4679 23.8228 45.4098 23.898C45.3518 23.9733 45.2793 24.0363 45.1967 24.0833C45.1141 24.1304 45.023 24.1605 44.9286 24.1721C44.8343 24.1836 44.7386 24.1763 44.6471 24.1506L42.3738 23.5414C42.1921 23.4903 42.0378 23.3697 41.9444 23.2057C41.851 23.0417 41.8259 22.8474 41.8746 22.6651C41.9234 22.4827 42.0419 22.3269 42.2047 22.2313C42.3675 22.1358 42.5614 22.1082 42.7444 22.1545L45.0177 22.7637ZM42.089 14.607C42.1558 14.5403 42.235 14.4873 42.3222 14.4512C42.4094 14.4151 42.5028 14.3965 42.5972 14.3965C42.6916 14.3965 42.785 14.4151 42.8722 14.4512C42.9594 14.4873 43.0386 14.5403 43.1054 14.607C43.1721 14.6737 43.225 14.753 43.2612 14.8402C43.2973 14.9273 43.3159 15.0208 43.3159 15.1152C43.3159 15.2095 43.2973 15.303 43.2612 15.3902C43.225 15.4774 43.1721 15.5566 43.1054 15.6233L41.4412 17.2875C41.3745 17.3542 41.2952 17.4072 41.208 17.4433C41.1208 17.4794 41.0274 17.498 40.933 17.498C40.8386 17.498 40.7452 17.4794 40.658 17.4433C40.5708 17.4072 40.4916 17.3542 40.4249 17.2875C40.3581 17.2208 40.3052 17.1416 40.2691 17.0544C40.2329 16.9672 40.2144 16.8737 40.2144 16.7793C40.2144 16.685 40.2329 16.5915 40.2691 16.5043C40.3052 16.4171 40.3581 16.3379 40.4249 16.2712L42.089 14.607Z" fill="#FFDA2D"/>
</svg>
