<svg width="36" height="46" viewBox="0 0 36 46" fill="none" xmlns="http://www.w3.org/2000/svg">
<path d="M2.9187 36.8788V29.5207C2.9187 27.3365 4.22781 25.3659 6.24103 24.5184L12.7501 21.6884C13.3587 21.4236 13.8767 20.9868 14.2405 20.4318C14.6043 19.8767 14.798 19.2275 14.798 18.5638V17.9344H21.2032V18.5315C21.2032 19.1982 21.3988 19.8502 21.7658 20.4069C22.1327 20.9635 22.6549 21.4003 23.2676 21.6631L29.8539 24.486C31.8168 25.3556 33.0825 27.3011 33.0825 29.4482V36.8788L18.0006 32.7757L2.9187 36.8788Z" fill="#FD8087"/>
<path d="M14.7981 17.9344V18.5638C14.7981 19.2275 14.6043 19.8767 14.2405 20.4318C13.8767 20.9868 13.3587 21.4236 12.7502 21.6884L12.75 21.6885L17.5416 24.9344C17.7439 25.0715 17.9838 25.1424 18.2281 25.1375C18.4724 25.1326 18.7091 25.052 18.9057 24.907L23.2678 21.6883L23.2844 21.6703L23.2677 21.6631C22.655 21.4003 22.1329 20.9635 21.7659 20.4069C21.399 19.8502 21.2034 19.1982 21.2033 18.5315V17.9344H14.7981Z" fill="#FFCEBF"/>
<path d="M24.4019 10.3965H11.5995V4.36973C11.5995 1.95635 13.5558 0 15.9691 0H20.0321C22.4454 0 24.4019 1.95635 24.4019 4.36973V10.3965Z" fill="#C59191"/>
<path d="M21.2032 18.5315V17.9344H14.798V18.5638C14.798 18.9342 14.7361 19.2941 14.6237 19.6339C15.7949 20.9265 17.4867 21.7384 19.3683 21.7384C20.3868 21.7394 21.3907 21.4962 22.2958 21.0292C21.6124 20.3956 21.2032 19.4971 21.2032 18.5315Z" fill="#FFB09E"/>
<path d="M24.4019 7.33338V12.6019C24.4019 16.1372 21.5359 19.0031 18.0007 19.0031C14.4654 19.0031 11.5995 16.1372 11.5995 12.6019V9.3342C11.5995 7.8127 13.1391 6.77464 14.5496 7.34506L17.6114 8.58329C18.4678 8.92964 19.3922 9.07493 20.3136 9.00797C21.2349 8.94101 22.1287 8.66359 22.926 8.19705L24.4019 7.33338Z" fill="#FFCEBF"/>
<path d="M24.4018 9.93347C24.3797 9.97796 24.3625 10.0247 24.3505 10.0729C24.1758 10.782 23.6906 12.1185 22.4054 13.1006C21.8065 13.5582 21.1199 13.8764 20.3649 14.0464C20.1879 14.0863 20.0341 14.1947 19.9371 14.348C19.8401 14.5013 19.808 14.6868 19.8479 14.8638C19.8877 15.0407 19.9962 15.1946 20.1495 15.2916C20.3028 15.3885 20.4883 15.4206 20.6652 15.3808C21.6141 15.1671 22.479 14.7656 23.2358 14.1873C23.6641 13.86 24.0498 13.4803 24.3839 13.0572C24.3945 12.9067 24.4017 12.7552 24.4017 12.6019V9.93347H24.4018Z" fill="#7A6D79"/>
<path d="M19.8201 15.8062H18.3865C17.734 15.8062 17.2051 15.2772 17.2051 14.6248C17.2051 13.9723 17.7341 13.4434 18.3865 13.4434H19.8201C20.4726 13.4434 21.0015 13.9724 21.0015 14.6248C21.0016 15.2773 20.4726 15.8062 19.8201 15.8062Z" fill="#685E68"/>
<path d="M35.0045 46H29.1361C29.0999 46 29.0641 45.9928 29.0308 45.9787C28.9975 45.9646 28.9674 45.944 28.9422 45.918C28.9171 45.892 28.8975 45.8612 28.8845 45.8274C28.8716 45.7936 28.8655 45.7576 28.8668 45.7215C28.9012 44.8094 28.8359 43.521 28.3815 42.0689C27.6798 39.8266 26.4132 38.3542 25.6897 37.627L30.2185 33.0981C31.3896 34.2781 33.4015 36.632 34.5081 40.1972C35.188 42.3876 35.3086 44.3343 35.274 45.7381C35.2722 45.8083 35.243 45.875 35.1926 45.9239C35.1423 45.9729 35.0747 46.0002 35.0045 46Z" fill="#7ACAA6"/>
<path d="M30.2186 33.098L25.6898 37.6269C23.7221 35.6592 21.0041 34.442 18.0006 34.442V28.0376C22.772 28.0376 27.0912 29.9716 30.2186 33.098Z" fill="#FEE97D"/>
<path d="M18.0006 28.0376V34.442C14.9971 34.442 12.2791 35.6592 10.3114 37.6269L5.78259 33.098C8.90996 29.9716 13.2292 28.0376 18.0006 28.0376Z" fill="#FECA9C"/>
<path d="M10.3114 37.627C9.5863 38.3574 8.32301 39.8299 7.61962 42.0689C7.16366 43.5202 7.09529 44.8085 7.12737 45.7221C7.12858 45.7582 7.12252 45.7942 7.10953 45.8279C7.09654 45.8616 7.07689 45.8923 7.05176 45.9182C7.02663 45.9442 6.99652 45.9648 6.96325 45.9788C6.92998 45.9929 6.89422 46.0001 6.8581 46H0.99535C0.925035 46.0001 0.857448 45.9728 0.807044 45.9238C0.75664 45.8747 0.727422 45.8079 0.725639 45.7376C0.691498 44.3336 0.812787 42.3872 1.4929 40.1972C2.59996 36.6326 4.61111 34.2787 5.78249 33.0981L10.3114 37.627Z" fill="#FE646F"/>
<path d="M15.2652 28.7215C16.1961 28.7215 17.1095 28.7961 18.0006 28.9379V28.0377C16.054 28.0377 14.1827 28.3598 12.4369 28.9533C13.3718 28.7991 14.3177 28.7216 15.2652 28.7215Z" fill="#FDB97E"/>
<path d="M28.465 34.8517L30.2186 33.098C27.0912 29.9715 22.772 28.0376 18.0006 28.0376V28.9377C22.1763 29.602 25.8529 31.7621 28.465 34.8517Z" fill="#FEDF30"/>
<path d="M34.5083 40.1971C33.4016 36.6318 31.3898 34.2779 30.2187 33.098L28.4651 34.8517C31.0092 37.8608 32.5438 41.7509 32.5438 45.9999H35.0047C35.1508 45.9999 35.2707 45.884 35.2743 45.738C35.3088 44.3342 35.1882 42.3875 34.5083 40.1971Z" fill="#57BE92"/>
<path d="M31.4157 37.2908C31.3239 37.1344 31.1737 37.0208 30.9982 36.9751C30.8227 36.9294 30.6363 36.9552 30.4798 37.0469C30.3921 37.0983 20.358 42.9756 20.2859 43.0365C19.7014 42.4506 18.8937 42.0875 18.0006 42.0875C16.6885 42.0875 15.5597 42.8699 15.0546 43.9932C14.814 44.5284 14.7181 45.1615 14.8032 45.7675C14.8221 45.9015 14.939 46 15.0743 46H20.9271C21.0624 46 21.1793 45.9015 21.1981 45.7675C21.2731 45.2346 21.2074 44.6672 21.0223 44.1782C21.0585 44.1609 31.1343 38.2488 31.172 38.2267C31.3284 38.1349 31.442 37.9847 31.4877 37.8092C31.5333 37.6337 31.5075 37.4472 31.4157 37.2908Z" fill="#B5ADB6"/>
<path d="M20.9466 43.9932C20.4415 42.8699 19.3127 42.0875 18.0006 42.0875C17.528 42.0869 17.061 42.1905 16.6329 42.3909C17.3334 42.7195 17.8933 43.2878 18.2112 43.9932C18.3981 44.4092 18.4944 44.8602 18.4939 45.3162C18.4939 45.4692 18.4834 45.6199 18.4626 45.7675C18.4437 45.9015 18.3268 46 18.1915 46H20.9269C21.0622 46 21.1791 45.9015 21.198 45.7675C21.2187 45.6199 21.2293 45.4692 21.2293 45.3162C21.2293 44.8448 21.1281 44.3971 20.9466 43.9932Z" fill="#A79BA7"/>
</svg>
