<svg width="41" height="41" viewBox="0 0 41 41" fill="none" xmlns="http://www.w3.org/2000/svg">
<path d="M11.3866 22.7732C17.6753 22.7732 22.7732 17.6753 22.7732 11.3866C22.7732 5.09796 17.6753 0 11.3866 0C5.09796 0 0 5.09796 0 11.3866C0 17.6753 5.09796 22.7732 11.3866 22.7732Z" fill="#EE596B"/>
<path d="M13.188 22.6316C12.5924 22.7262 11.9903 22.7737 11.3872 22.7737C5.09835 22.7737 0 17.6754 0 11.3865C0 5.09772 5.09835 0.000488281 11.3872 0.000488281C11.9999 0.000488281 12.6009 0.0494039 13.188 0.142592C7.75533 1.00578 3.60279 5.71041 3.60279 11.3865C3.60279 17.0627 7.75533 21.7685 13.188 22.6316Z" fill="#ED3A4F"/>
<path d="M15.8142 12.6257C16.5902 12.6257 17.2192 11.5804 17.2192 10.2909C17.2192 9.00139 16.5902 7.95605 15.8142 7.95605C15.0382 7.95605 14.4092 9.00139 14.4092 10.2909C14.4092 11.5804 15.0382 12.6257 15.8142 12.6257Z" fill="#21386B"/>
<path d="M6.95922 12.6257C7.7352 12.6257 8.36425 11.5804 8.36425 10.2909C8.36425 9.00139 7.7352 7.95605 6.95922 7.95605C6.18325 7.95605 5.5542 9.00139 5.5542 10.2909C5.5542 11.5804 6.18325 12.6257 6.95922 12.6257Z" fill="#21386B"/>
<path d="M15.106 16.7094C15.0188 16.7096 14.9326 16.6912 14.853 16.6556C14.7735 16.62 14.7023 16.5679 14.6443 16.5027C13.816 15.5745 12.6286 15.0421 11.3866 15.0421C10.1447 15.0421 8.95724 15.5745 8.12888 16.5027C8.01965 16.6251 7.86627 16.6991 7.70248 16.7084C7.53869 16.7177 7.37792 16.6616 7.25552 16.5524C7.13313 16.4431 7.05913 16.2898 7.04983 16.126C7.04052 15.9622 7.09665 15.8014 7.20589 15.679C8.26874 14.488 9.79249 13.8049 11.3866 13.8049C12.9807 13.8049 14.5046 14.488 15.5673 15.679C15.6468 15.768 15.6988 15.8782 15.7171 15.9961C15.7354 16.114 15.7192 16.2347 15.6704 16.3436C15.6217 16.4526 15.5425 16.5451 15.4423 16.61C15.3422 16.6749 15.2254 16.7094 15.106 16.7094Z" fill="#21386B"/>
<path d="M14.1269 40.9301C20.4155 40.9301 25.5135 35.8321 25.5135 29.5435C25.5135 23.2548 20.4155 18.1569 14.1269 18.1569C7.8382 18.1569 2.74023 23.2548 2.74023 29.5435C2.74023 35.8321 7.8382 40.9301 14.1269 40.9301Z" fill="#F9DA41"/>
<path d="M15.9282 40.7885C15.3326 40.8831 14.7305 40.9306 14.1274 40.9306C7.83859 40.9306 2.74023 35.8322 2.74023 29.5434C2.74023 23.2546 7.83859 18.1573 14.1274 18.1573C14.7401 18.1573 15.3412 18.2063 15.9282 18.2995C10.4956 19.1626 6.34302 23.8673 6.34302 29.5434C6.34302 35.2195 10.4956 39.9254 15.9282 40.7885Z" fill="#EDC932"/>
<path d="M18.5711 25.8928C17.7935 25.8928 17.1609 26.9441 17.1609 28.2364C17.1609 29.5286 17.7935 30.5799 18.5711 30.5799C19.3487 30.5799 19.9813 29.5286 19.9813 28.2364C19.9813 26.9441 19.3488 25.8928 18.5711 25.8928ZM9.68269 25.8928C8.90508 25.8928 8.27246 26.9441 8.27246 28.2364C8.27246 29.5286 8.90508 30.5799 9.68269 30.5799C10.4603 30.5799 11.0929 29.5286 11.0929 28.2364C11.0929 26.9441 10.4603 25.8928 9.68269 25.8928ZM19.191 33.4832H9.06288C8.89883 33.4832 8.74151 33.418 8.62551 33.302C8.50951 33.186 8.44435 33.0287 8.44435 32.8646C8.44435 32.7006 8.50951 32.5433 8.62551 32.4273C8.74151 32.3113 8.89883 32.2461 9.06288 32.2461H19.191C19.355 32.2461 19.5123 32.3113 19.6283 32.4273C19.7443 32.5433 19.8095 32.7006 19.8095 32.8646C19.8095 33.0287 19.7443 33.186 19.6283 33.302C19.5123 33.418 19.355 33.4832 19.191 33.4832Z" fill="#21386B"/>
<path d="M29.6034 29.7558C35.8921 29.7558 40.99 24.6578 40.99 18.3692C40.99 12.0805 35.8921 6.98254 29.6034 6.98254C23.3148 6.98254 18.2168 12.0805 18.2168 18.3692C18.2168 24.6578 23.3148 29.7558 29.6034 29.7558Z" fill="#78D0B1"/>
<path d="M31.4048 29.6143C30.8092 29.7089 30.2071 29.7564 29.604 29.7564C23.3152 29.7564 18.2168 24.658 18.2168 18.3692C18.2168 12.0804 23.3152 6.98315 29.6041 6.98315C30.2167 6.98315 30.8178 7.03207 31.4049 7.12526C25.9722 7.98837 21.8197 12.6931 21.8197 18.3692C21.8197 24.0453 25.9721 28.7512 31.4048 29.6143Z" fill="#66B49D"/>
<path d="M33.941 14.8676C33.1819 14.8676 32.5644 15.8937 32.5644 17.155C32.5644 18.4163 33.1819 19.4424 33.941 19.4424C34.7 19.4424 35.3176 18.4163 35.3176 17.155C35.3175 15.8937 34.7 14.8676 33.941 14.8676ZM25.2663 14.8676C24.5072 14.8676 23.8896 15.8937 23.8896 17.155C23.8896 18.4163 24.5072 19.4424 25.2663 19.4424C26.0253 19.4424 26.6429 18.4163 26.6429 17.155C26.6429 15.8937 26.0253 14.8676 25.2663 14.8676ZM29.6036 25.3007C27.3852 25.3007 25.3947 23.9792 24.5325 21.9342C24.4713 21.7835 24.4719 21.6148 24.5342 21.4645C24.5965 21.3142 24.7154 21.1946 24.8653 21.1314C25.0152 21.0682 25.184 21.0666 25.335 21.1269C25.4861 21.1872 25.6073 21.3046 25.6725 21.4536C26.3409 23.0391 27.8839 24.0636 29.6036 24.0636C31.3232 24.0636 32.8663 23.0391 33.5348 21.4536C33.5663 21.3788 33.6123 21.3109 33.6701 21.2538C33.7279 21.1967 33.7964 21.1516 33.8716 21.121C33.9469 21.0904 34.0274 21.0749 34.1086 21.0754C34.1898 21.0759 34.2702 21.0924 34.345 21.124C34.4199 21.1555 34.4878 21.2015 34.5449 21.2593C34.6019 21.3171 34.6471 21.3856 34.6777 21.4608C34.7083 21.536 34.7238 21.6166 34.7233 21.6978C34.7228 21.779 34.7063 21.8594 34.6747 21.9342C33.8125 23.9792 31.8219 25.3007 29.6036 25.3007Z" fill="#21386B"/>
</svg>
