<svg width="44" height="44" viewBox="0 0 44 44" fill="none" xmlns="http://www.w3.org/2000/svg">
<path d="M21.4413 22.4077C20.372 22.4076 19.3463 22.8312 18.5886 23.5857C17.8309 24.3402 17.4029 25.3641 17.3983 26.4333H25.4843C25.4797 25.3641 25.0517 24.3402 24.294 23.5857C23.5363 22.8312 22.5106 22.4076 21.4413 22.4077Z" fill="#283845"/>
<path d="M21.372 22.4727C22.4872 22.4727 23.3913 21.5686 23.3913 20.4534C23.3913 19.3381 22.4872 18.434 21.372 18.434C20.2567 18.434 19.3527 19.3381 19.3527 20.4534C19.3527 21.5686 20.2567 22.4727 21.372 22.4727Z" fill="#283845"/>
<path d="M25.7053 24.5007H31.226C31.2268 23.6538 30.9444 22.8309 30.4237 22.163C29.9029 21.495 29.1738 21.0204 28.3522 20.8147C27.5307 20.6089 26.6639 20.6838 25.8898 21.0274C25.1157 21.3711 24.4788 21.9637 24.0803 22.7111C24.7623 23.1633 25.3208 23.7784 25.7053 24.5007Z" fill="#384F5E"/>
<path d="M27.3476 20.8174C28.3958 20.8174 29.2456 19.9676 29.2456 18.9194C29.2456 17.8711 28.3958 17.0214 27.3476 17.0214C26.2994 17.0214 25.4496 17.8711 25.4496 18.9194C25.4496 19.9676 26.2994 20.8174 27.3476 20.8174Z" fill="#384F5E"/>
<path d="M19.1143 22.4684C18.6704 21.7836 18.0176 21.2602 17.2527 20.9756C16.4878 20.6911 15.6516 20.6606 14.8681 20.8887C14.0846 21.1168 13.3954 21.5914 12.9028 22.242C12.4102 22.8926 12.1403 23.6847 12.1333 24.5007H17.082C17.543 23.6368 18.2504 22.9294 19.1143 22.4684Z" fill="#384F5E"/>
<path d="M15.8252 20.7784C16.8735 20.7784 17.7232 19.9286 17.7232 18.8804C17.7232 17.8321 16.8735 16.9824 15.8252 16.9824C14.777 16.9824 13.9272 17.8321 13.9272 18.8804C13.9272 19.9286 14.777 20.7784 15.8252 20.7784Z" fill="#384F5E"/>
<path d="M34.7837 21.6667L35.5854 21.2333H42.6444L43.3334 21.6667C43.3334 24.512 42.7729 27.3294 41.6841 29.9581C40.5952 32.5869 38.9993 34.9754 36.9873 36.9873C34.9754 38.9993 32.5869 40.5952 29.9582 41.6841C27.3294 42.7729 24.512 43.3333 21.6667 43.3333H21.5497V34.7793C23.2677 34.7754 24.9681 34.433 26.5538 33.7719C28.1395 33.1108 29.5794 32.1438 30.7914 30.9262C32.0034 29.7085 32.9637 28.2641 33.6175 26.6754C34.2712 25.0866 34.6057 23.3847 34.6017 21.6667H34.7837Z" fill="#B8B08D"/>
<path d="M34.7837 21.6667H43.3334C43.3334 18.8214 42.7729 16.0039 41.6841 13.3752C40.5952 10.7465 38.9993 8.35796 36.9873 6.34602C34.9754 4.33408 32.5869 2.73813 29.9582 1.64928C27.3294 0.560425 24.512 0 21.6667 0H21.5497V8.554C23.2677 8.55798 24.9681 8.9003 26.5538 9.56143C28.1395 10.2226 29.5794 11.1895 30.7914 12.4072C32.0034 13.6248 32.9637 15.0692 33.6175 16.658C34.2712 18.2467 34.6057 19.9487 34.6017 21.6667H34.7837Z" fill="#F2D492"/>
<path d="M21.554 0V8.554C19.8366 8.55855 18.1369 8.90132 16.5519 9.56276C14.9669 10.2242 13.5278 11.1913 12.3166 12.409C11.1054 13.6266 10.1459 15.0708 9.49289 16.6593C8.83987 18.2477 8.50611 19.9492 8.51067 21.6667H0C0 15.9203 2.28273 10.4093 6.34602 6.34602C10.4093 2.28273 15.9203 0 21.6667 0" fill="#F29559"/>
</svg>
