<svg width="44" height="44" viewBox="0 0 44 44" fill="none" xmlns="http://www.w3.org/2000/svg">
<g clip-path="url(#clip0_176_1988)">
<path d="M18.1952 7.86509L17.8147 7.62781C17.5351 7.58483 17.2526 7.56365 16.9697 7.56448H12.3196C9.2161 7.56448 6.7002 10.0804 6.7002 13.1839V17.5251H18.1952V7.86509Z" fill="#D5985C"/>
<path d="M17.8145 7.62787V17.5252H22.589V13.184C22.589 10.3676 20.5171 8.03547 17.8145 7.62787Z" fill="#C38959"/>
<path d="M21.5937 43.9851C23.1144 43.9851 24.347 42.7525 24.347 41.2318V36.8285C24.347 34.1663 22.5637 31.834 19.9946 31.1361L13.0725 29.2558H11.2747L4.35248 31.1361C1.78329 31.834 0 34.1663 0 36.8285V41.2318C0 42.7525 1.23269 43.9851 2.75335 43.9851H21.5937Z" fill="#95D6A4"/>
<path d="M24.9366 31.1361L18.0145 29.2557H12.4136L19.3358 31.1361C21.9049 31.834 23.6881 34.1663 23.6881 36.8285V41.2318C23.6881 42.7525 22.4555 43.9852 20.9348 43.9852H26.5357C28.0563 43.9852 29.289 42.7525 29.289 41.2318V36.8285C29.289 34.1663 27.5058 31.834 24.9366 31.1361Z" fill="#78C2A4"/>
<path d="M18.0142 29.2557V25.7066H11.2744V29.2557C11.2744 31.1169 14.6444 31.8572 14.6444 31.8572C14.6444 31.8572 18.0142 31.1169 18.0142 29.2557Z" fill="#FFDDCE"/>
<path d="M14.6447 31.8572L16.3401 33.3236C16.5948 33.5438 16.9206 33.6646 17.2573 33.6636C17.594 33.6625 17.919 33.5397 18.1724 33.3179L21.6752 30.2501L20.6304 28.6878C20.2692 28.1477 19.5249 28.029 19.0136 28.4301L14.6447 31.8572ZM14.6447 31.8572L12.9493 33.3236C12.6946 33.5438 12.3689 33.6646 12.0321 33.6636C11.6954 33.6625 11.3704 33.5397 11.1171 33.3179L7.61426 30.2501L8.659 28.6878C9.0202 28.1477 9.76459 28.029 10.2758 28.4301L14.6447 31.8572Z" fill="#B3E59F"/>
<path d="M4.20557 43.9852H5.53347V40.1359C5.53347 39.9598 5.46352 39.791 5.33901 39.6665C5.21449 39.5419 5.04561 39.472 4.86952 39.472C4.69343 39.472 4.52455 39.5419 4.40003 39.6665C4.27552 39.791 4.20557 39.9598 4.20557 40.1359V43.9852Z" fill="#78C2A4"/>
<path d="M24.4193 39.472C24.2432 39.472 24.0744 39.5419 23.9498 39.6665C23.8253 39.791 23.7554 39.9598 23.7554 40.1359V43.9852H25.0834V40.1359C25.0833 39.9598 25.0134 39.791 24.8888 39.6664C24.7643 39.5419 24.5954 39.472 24.4193 39.472Z" fill="#66B394"/>
<path d="M36.4589 0.0148926H27.8456C26.6305 0.0148926 25.6455 0.999908 25.6455 2.21498V10.8031C25.6455 12.0181 26.6305 13.0031 27.8456 13.0031H29.0111L29.6485 13.3061H33.0287L33.7448 13.0031H36.4588C37.6738 13.0031 38.6587 12.018 38.6587 10.8031V2.21498C38.6588 0.999908 37.6739 0.0149785 36.4589 0.0148926Z" fill="#B1E4F9"/>
<path d="M29.1841 13.4811L28.2478 17.8468C28.1956 18.0899 28.4923 18.2512 28.6681 18.0753L33.3781 13.3583C33.4905 13.2457 33.624 13.1564 33.771 13.0954C33.918 13.0344 34.0756 13.0031 34.2348 13.0031H28.7978C29.0493 13.0031 29.2369 13.2351 29.1841 13.4811ZM41.7998 0.0148926H36.2222C37.4373 0.0148926 38.4223 0.999908 38.4223 2.21498V10.8031C38.4223 12.0181 37.4373 13.0031 36.2222 13.0031H41.7998C43.0149 13.0031 43.9999 12.0181 43.9999 10.8031V2.21498C43.9999 0.999908 43.0149 0.0148926 41.7998 0.0148926Z" fill="#90D8F9"/>
<path d="M39.8403 4.9501H29.8573C29.7701 4.9501 29.6838 4.93293 29.6032 4.89956C29.5227 4.86619 29.4495 4.81729 29.3878 4.75563C29.3262 4.69398 29.2773 4.62078 29.2439 4.54023C29.2105 4.45967 29.1934 4.37334 29.1934 4.28615C29.1934 4.19895 29.2105 4.11262 29.2439 4.03206C29.2773 3.95151 29.3262 3.87831 29.3878 3.81666C29.4495 3.75501 29.5227 3.7061 29.6032 3.67273C29.6838 3.63937 29.7701 3.62219 29.8573 3.62219H39.8402C40.0163 3.62218 40.1852 3.69212 40.3097 3.81663C40.4343 3.94114 40.5042 4.11001 40.5042 4.2861C40.5042 4.46219 40.4343 4.63108 40.3098 4.7556C40.1853 4.88012 40.0164 4.95009 39.8403 4.9501ZM39.8403 9.05972H29.8573C29.6812 9.05972 29.5123 8.98976 29.3878 8.86525C29.2633 8.74073 29.1934 8.57185 29.1934 8.39576C29.1934 8.21967 29.2633 8.05079 29.3878 7.92628C29.5123 7.80176 29.6812 7.73181 29.8573 7.73181H39.8402C40.0163 7.7318 40.1852 7.80174 40.3097 7.92625C40.4343 8.05075 40.5042 8.21963 40.5042 8.39572C40.5042 8.57181 40.4343 8.74069 40.3098 8.86522C40.1853 8.98974 40.0164 9.0597 39.8403 9.05972Z" fill="#F0F7FF"/>
<path d="M9.44321 17.0692H6.90779C6.33657 17.0692 5.87354 17.5322 5.87354 18.1035V19.2922C5.87354 19.8633 6.33657 20.3264 6.90779 20.3264H9.44321V17.0692Z" fill="#FFDDCE"/>
<path d="M22.3811 17.0692H19.8457V20.3263H22.3811C22.9523 20.3263 23.4154 19.8633 23.4154 19.2921V18.1034C23.4153 17.5322 22.9523 17.0692 22.3811 17.0692Z" fill="#FFCBBE"/>
<path d="M18.1951 20.3901V13.0207C18.127 13.039 18.0598 13.061 17.9951 13.09C16.9414 13.5628 15.7996 13.8073 14.6446 13.8073C13.4896 13.8073 12.3478 13.5628 11.2941 13.09C11.1223 13.0129 10.9362 12.9731 10.7479 12.9731C10.0113 12.9731 9.4141 13.5703 9.4141 14.3069V15.7074C9.4141 16.4596 8.80437 17.0693 8.05225 17.0693V20.2252C8.05225 23.5295 10.4834 26.2656 13.6544 26.7433C16.2955 25.839 18.1951 23.3374 18.1951 20.3901Z" fill="#FFDDCE"/>
<path d="M19.8748 15.7073V14.3068C19.8748 13.5701 19.2776 12.973 18.541 12.973C18.3528 12.973 18.1666 13.0128 17.9948 13.0899C17.9349 13.1168 17.8747 13.1427 17.8143 13.168V20.2251C17.8143 23.2739 15.7441 25.8381 12.9331 26.5917C13.4912 26.7415 14.0665 26.8174 14.6443 26.8173C18.2851 26.8173 21.2366 23.8659 21.2366 20.2251V17.0692C20.4845 17.0692 19.8748 16.4594 19.8748 15.7073Z" fill="#FFCBBE"/>
</g>
<defs>
<clipPath id="clip0_176_1988">
<rect width="44" height="44" fill="white"/>
</clipPath>
</defs>
</svg>
