<svg width="44" height="44" viewBox="0 0 44 44" fill="none" xmlns="http://www.w3.org/2000/svg">
<path d="M42.5562 36.7812C42.4187 36.5062 42.1437 36.3687 41.7999 36.3687L39.9436 37.4C39.3937 32.8625 35.5437 29.3562 30.9374 29.3562H11.9624C9.2124 29.3562 6.80615 27.7062 5.84365 25.1625C6.5999 24.6125 7.08115 23.7188 7.08115 22.825C7.08115 21.2438 5.7749 19.9375 4.19365 19.9375C2.6124 19.9375 1.30615 21.2438 1.30615 22.825C1.30615 24.0625 2.13115 25.1625 3.2999 25.575C4.46865 29.3562 8.04365 31.9687 11.9624 31.9687H30.9374C34.0999 31.9687 36.8499 34.3062 37.3999 37.4L35.7499 36.3687H35.6124C35.2687 36.3687 34.9937 36.5062 34.8562 36.7812C34.7187 37.0562 34.7187 37.4 34.8562 37.675L38.0187 42.7625C38.1562 43.0375 38.4312 43.175 38.7749 43.175C39.1187 43.175 39.3937 43.0375 39.5312 42.7625L42.6249 37.7437C42.6937 37.4 42.6937 37.0562 42.5562 36.7812Z" fill="#2D78BD"/>
<path d="M23.2375 16.0875C23.2375 15.4687 22.825 15.0562 22.2063 15.0562H19.4563C18.8375 15.0562 18.425 15.4687 18.425 16.0875V25.4375C18.425 26.0562 18.8375 26.4688 19.4563 26.4688H22.0688C22.7563 26.4688 23.1688 26.0563 23.1688 25.3688V20.7625C23.2375 19.25 23.2375 17.6687 23.2375 16.0875ZM15.8813 11.3438C15.8813 10.725 15.4688 10.3125 14.85 10.3125H12.1C11.4813 10.3125 11.0688 10.725 11.0688 11.3438C11.0688 14.4375 11 22.3437 11 25.5062C11 26.125 11.4125 26.5375 12.0313 26.5375H14.6437C15.3312 26.5375 15.7438 26.125 15.7438 25.4375V20.8312C15.8125 19.25 15.8813 12.925 15.8813 11.3438ZM30.7313 23.1688V20.9C30.7313 20.2812 30.3188 19.8687 29.7 19.8687H27.0188C26.4 19.8687 25.9875 20.2812 25.9875 20.9V25.5062C25.9875 26.1937 26.4 26.5375 27.0188 26.5375H29.6313C30.3188 26.5375 30.6625 26.125 30.7313 25.4375V23.1688Z" fill="#2D3E50"/>
<path d="M30.7997 9.07499C30.181 8.59374 29.4935 8.31874 28.806 8.04374C28.1872 7.76874 27.706 7.56249 27.2935 7.28749C26.6747 6.87499 26.606 6.25624 26.6747 5.84374C26.7435 5.29374 27.156 4.88124 27.706 4.67499C28.3247 4.46874 28.9435 4.53749 29.5622 4.60624C30.1122 4.67499 30.5935 4.88124 31.006 5.15624L31.2122 5.22499L31.4185 4.74374C31.556 4.39999 31.6247 4.12499 31.7622 3.84999C31.831 3.71249 31.6935 3.50624 31.6247 3.43749L31.4185 3.29999C31.1435 3.16249 30.8685 3.02499 30.5935 2.95624C30.2497 2.88749 29.9747 2.81874 29.631 2.74999C29.5622 2.74999 29.4247 2.74999 29.356 2.68124V0.893738H27.7747V2.88749H27.6372C27.0185 3.02499 26.4685 3.29999 25.9872 3.64374C25.231 4.26249 24.7497 5.15624 24.7497 6.18749C24.7497 7.14999 25.1622 7.97499 25.8497 8.59374C26.3997 9.07499 27.0185 9.41874 27.981 9.76249C28.5997 10.0375 29.1497 10.2437 29.631 10.6562C30.181 11.0687 30.456 11.7562 30.3872 12.375C30.3185 12.9937 29.906 13.475 29.2872 13.75C29.0122 13.8875 28.6685 13.9562 28.256 13.9562C27.3622 14.025 26.5372 13.75 25.6435 13.2687L25.1622 12.9937L24.7497 13.5437C24.681 13.8187 24.5435 14.0937 24.4747 14.3C24.406 14.5062 24.4747 14.6437 24.6122 14.7812C25.0935 15.0562 25.6435 15.2625 26.2622 15.4C26.5372 15.4687 26.881 15.4687 27.156 15.5375C27.2247 15.5375 27.3622 15.5375 27.431 15.6062V17.6H29.081V15.5375C29.1497 15.5375 29.2185 15.4687 29.2872 15.4687C29.5622 15.4 29.7685 15.3312 29.9747 15.2625C31.281 14.7125 31.9685 13.8187 32.1747 12.5125C32.4497 11 31.9685 9.89999 30.7997 9.07499Z" fill="#2D78BD"/>
</svg>
