<svg width="40" height="40" viewBox="0 0 40 40" fill="none" xmlns="http://www.w3.org/2000/svg">
<g clip-path="url(#clip0_181_2083)">
<path d="M39.3332 29.3329H37.3334V23.3329C37.3334 22.9649 37.0346 22.6664 36.6666 22.6664H31.3333C31.1565 22.6664 30.987 22.7367 30.8621 22.8616C30.7371 22.9866 30.6669 23.1561 30.6669 23.3329V29.3329H27.9998V11.3332C27.9998 10.9651 27.7014 10.6663 27.3334 10.6663H22.0002C21.6321 10.6663 21.3333 10.9651 21.3333 11.3332V29.3329H18.6667V19.3329C18.6667 18.9648 18.3679 18.6664 17.9998 18.6664H12.6666C12.4899 18.6664 12.3204 18.7366 12.1954 18.8616C12.0704 18.9866 12.0002 19.156 12.0002 19.3328V29.3328H9.3332V7.33318C9.3332 6.96521 9.03477 6.66638 8.66672 6.66638H3.33344C2.96539 6.66638 2.66664 6.96513 2.66664 7.33318V29.333H0.666797C0.298828 29.333 0 29.6318 0 29.9998C0 30.3679 0.29875 30.6663 0.666797 30.6663H39.3332C39.7012 30.6663 40 30.3679 40 29.9999C40 29.6318 39.7012 29.333 39.3332 29.333V29.3329Z" fill="#0051FA"/>
<path d="M14.8314 11.7722C15.0847 12.0615 15.5815 12.0615 15.8348 11.7722L24.6748 1.66958L35.8309 14.0002H33.3327C32.9649 14.0002 32.6662 14.299 32.6662 14.667C32.6662 15.0347 32.9649 15.3336 33.3327 15.3336H37.0902C37.3516 15.3336 37.6049 15.3341 37.8041 15.1287C38.0123 14.9148 37.9988 14.6362 37.9988 14.3628V10.6668C37.9988 10.299 37.7001 10.0003 37.332 10.0003C36.9643 10.0003 36.6655 10.299 36.6655 10.6668V12.9363L25.1595 0.219819C25.0323 0.0791941 24.8568 0.0236472 24.6597 0.000444067C24.5656 0.00106301 24.4727 0.0216484 24.3872 0.0608393C24.3016 0.10003 24.2254 0.156934 24.1634 0.227788L15.3316 10.3211L6.50016 0.22771C6.25751 -0.0490872 5.8361 -0.0777591 5.55954 0.164897C5.42641 0.281285 5.34495 0.445769 5.33306 0.622195C5.32116 0.798622 5.3798 0.972552 5.4961 1.10576L14.8314 11.7722Z" fill="#80A9FF"/>
</g>
<defs>
<clipPath id="clip0_181_2083">
<rect width="40" height="40" fill="white"/>
</clipPath>
</defs>
</svg>
