<svg width="50" height="50" viewBox="0 0 50 50" fill="none" xmlns="http://www.w3.org/2000/svg">
<g clip-path="url(#clip0_173_39)">
<path d="M25 44.5737C32.812 44.5737 39.1449 38.2409 39.1449 30.4289C39.1449 22.6169 32.812 16.2841 25 16.2841C17.1881 16.2841 10.8552 22.6169 10.8552 30.4289C10.8552 38.2409 17.1881 44.5737 25 44.5737Z" fill="#DA387D"/>
<path d="M29.2267 16.9265C32.7962 19.4942 35.1206 23.6841 35.1206 28.4168C35.1206 36.2289 28.7878 42.5617 20.9758 42.5617C19.5035 42.5617 18.0838 42.3367 16.7491 41.9193C19.0715 43.5898 21.9208 44.5737 25 44.5737C32.812 44.5737 39.1448 38.2409 39.1448 30.4289C39.1448 24.0893 34.974 18.7238 29.2267 16.9265Z" fill="#D80A61"/>
<path d="M32.3089 38.3257C32.1174 38.3259 31.9277 38.2883 31.7508 38.2151C31.5739 38.1418 31.4132 38.0342 31.2779 37.8986C29.6011 36.2217 27.3715 35.2982 25 35.2982C22.6285 35.2982 20.3989 36.2217 18.7221 37.8986C18.1526 38.4681 17.2296 38.4681 16.6602 37.8986C16.0908 37.3293 16.0908 36.4062 16.6602 35.8367C18.8878 33.6091 21.8496 32.3823 24.9999 32.3823C28.1502 32.3823 31.1121 33.6091 33.3396 35.8367C33.909 36.4062 33.909 37.3292 33.3396 37.8986C33.2045 38.0342 33.0438 38.1418 32.8669 38.215C32.69 38.2883 32.5004 38.3259 32.3089 38.3257Z" fill="#B10A4F"/>
<path d="M32.3089 38.3256C32.682 38.3256 33.0552 38.1833 33.3399 37.8987C33.9092 37.3293 33.9092 36.4062 33.3399 35.8368C33.2738 35.7707 33.207 35.7054 33.1394 35.6409C32.6373 36.4841 32.0492 37.2731 31.3844 37.9951C31.6449 38.2092 31.9717 38.3261 32.3089 38.3256Z" fill="#A20847"/>
<path d="M17.385 25.7346L20.6014 26.5964V26.3713C20.6014 25.5686 21.2294 24.88 22.032 24.8652C22.8496 24.8502 23.5173 25.5087 23.5173 26.323V27.419C23.5173 28.1388 23.1993 28.8333 22.6244 29.2665C22.2301 29.5636 21.7616 29.7184 21.2823 29.7184C21.0874 29.7184 20.8909 29.6928 20.6967 29.6408L16.6303 28.5512C15.8526 28.3428 15.391 27.5433 15.5994 26.7655C15.8077 25.9877 16.6073 25.5262 17.385 25.7346ZM32.6151 25.7346L29.3987 26.5964V26.3713C29.3987 25.5686 28.7706 24.88 27.9681 24.8652C27.1504 24.8502 26.4828 25.5087 26.4828 26.323V27.419C26.4828 28.1388 26.8008 28.8333 27.3757 29.2665C27.77 29.5636 28.2385 29.7184 28.7178 29.7184C28.9126 29.7184 29.1092 29.6928 29.3034 29.6408L33.3698 28.5512C34.1475 28.3428 34.6091 27.5433 34.4007 26.7655C34.1923 25.9877 33.3928 25.5262 32.6151 25.7346Z" fill="#B10A4F"/>
<path d="M42.6797 12.7494C41.1127 11.1824 39.3743 9.84905 37.5068 8.76672L34.1649 11.7268L33.8339 15.1285C39.0148 18.1314 42.5385 23.6898 42.6675 30.0664C42.6716 30.2684 42.8386 30.429 43.0407 30.429H49.6263C49.8338 30.429 50.0032 30.2599 50.0001 30.0525C49.9042 23.5149 47.3133 17.3829 42.6797 12.7494Z" fill="#B3E59F"/>
<path d="M12.4933 8.76672C10.6258 9.84905 8.88744 11.1824 7.32045 12.7494C6.33029 13.7388 5.42386 14.8085 4.61049 15.9477L3.70981 18.6823L2.256 20.012C0.827286 23.1273 0.0517001 26.531 3.997e-05 30.0525C-0.00298737 30.2599 0.166349 30.429 0.37377 30.429H6.95942C7.16147 30.429 7.32856 30.2684 7.33266 30.0664C7.46166 23.6898 10.9853 18.1315 16.1663 15.1286L15.718 11.5339L12.4933 8.76672Z" fill="#DA387D"/>
<path d="M3.21414 14.4744L0.290117 19.5391C0.150957 19.7801 0.331328 20.0801 0.609453 20.0703L6.11971 19.8752C6.38123 19.8659 6.54275 19.5861 6.4201 19.355L3.83387 14.4853C3.7033 14.2395 3.3533 14.2334 3.21414 14.4744Z" fill="#F6F9F9"/>
<path d="M25 5.42627C20.5377 5.42627 16.2537 6.5874 12.4933 8.7667L16.1662 15.1285C18.7665 13.6214 21.7843 12.758 24.9999 12.758C28.2156 12.758 31.2333 13.6215 33.8336 15.1285L37.5066 8.7667C33.7463 6.5874 29.4623 5.42627 25 5.42627Z" fill="#FFE07D"/>
</g>
<defs>
<clipPath id="clip0_173_39">
<rect width="50" height="50" fill="white"/>
</clipPath>
</defs>
</svg>
