<svg width="45" height="49" viewBox="0 0 45 49" fill="none" xmlns="http://www.w3.org/2000/svg">
<path d="M24.6086 38.725L22.5177 40.8159C21.9399 41.3937 21.0047 41.3937 20.4269 40.8159C19.8491 40.238 19.8491 39.3028 20.4269 38.725L22.5177 36.6342C23.0946 36.0574 23.0946 35.1202 22.5177 34.5434L20.5954 32.621C20.0175 32.0431 20.0175 31.1079 20.5954 30.5302C21.1732 29.9523 22.1084 29.9523 22.6862 30.5302L24.6086 32.4526C26.3381 34.1819 26.3381 36.9955 24.6086 38.725Z" fill="#713708"/>
<path d="M27.7449 48.1339C26.5901 49.2886 24.7179 49.2886 23.5632 48.1339L13.1089 37.6796L17.2905 33.4978L27.7449 43.9521C28.8997 45.1069 28.8997 46.9791 27.7449 48.1339Z" fill="#994C0F"/>
<path d="M13.0251 25.0506L19.5069 31.5324L19.3814 35.5886L12.0634 42.9067C10.328 44.6421 7.48438 44.6003 5.74899 42.8648L1.56725 38.683C-0.147275 36.9685 -0.126412 34.1876 1.60916 32.4523L8.9272 25.1342L13.0251 25.0506Z" fill="#FE318F"/>
<path d="M16.2452 28.2707L19.507 31.5325L19.3815 35.5887L12.0634 42.9068C10.3281 44.6422 7.48444 44.6004 5.74905 42.8649L3.69995 40.8158L16.2452 28.2707Z" fill="#FD0F7F"/>
<path d="M31.3998 5.91426C30.5842 5.91522 29.9216 5.25267 29.9216 4.43603L29.9207 1.47842C29.9205 0.661597 30.5821 1.03549e-06 31.3989 1.03549e-06C32.2146 -0.000955996 32.8771 0.661597 32.8771 1.47823L32.8781 4.43584C32.8782 5.25267 32.2167 5.91426 31.3998 5.91426ZM43.2274 14.7852L40.2698 14.7842C39.4531 14.7842 38.7904 14.1217 38.7916 13.306C38.7916 12.4893 39.4532 11.8278 40.2698 11.8278L43.2274 11.8287C44.0441 11.8287 44.7068 12.4913 44.7056 13.3069C44.7056 14.1236 44.0441 14.7852 43.2274 14.7852ZM41.3356 3.18022C41.921 3.76563 41.9211 4.68563 41.3356 5.27104L38.1993 8.40733C37.6137 8.99284 36.6938 8.99274 36.1084 8.40733C35.5229 7.82182 35.5229 6.90192 36.1084 6.3165L39.2447 3.18022C39.8301 2.5947 40.75 2.5947 41.3356 3.18022Z" fill="#1BD9DE"/>
<path d="M23.5632 6.3165L38.1992 20.9526C38.6175 21.3708 39.1401 25.7824 39.6837 25.8662L35.5648 26.7235C29.4594 27.9361 23.6678 31.3025 19.737 35.2333L19.3815 35.5887L8.927 25.1343L9.28244 24.7789C13.4225 20.6389 16.475 15.1607 17.7295 8.88823L18.5867 4.60197L23.5632 6.3165Z" fill="#CAE8F9"/>
<path d="M12.0633 32.4524C12.6487 33.0378 12.6488 33.9578 12.0633 34.5432L9.97246 36.6341C9.38695 37.2196 8.46696 37.2195 7.88164 36.6341C7.29613 36.0486 7.29613 35.1287 7.88164 34.5433L9.97246 32.4525C10.558 31.8669 11.4779 31.8669 12.0633 32.4524Z" fill="#E1E4FB"/>
<path d="M30.8812 13.6345L38.1992 20.9526C38.6175 21.3708 39.1401 25.7824 39.6837 25.8662L35.5648 26.7235C29.4594 27.9361 23.6678 31.3025 19.7369 35.2333L19.3815 35.5887L14.1543 30.3615L30.8812 13.6345Z" fill="#B7E0F6"/>
<path d="M12.0632 32.4524C12.6487 33.0378 12.6488 33.9578 12.0632 34.5432L9.97242 36.6341C9.38691 37.2196 8.46691 37.2195 7.88159 36.6341L12.0632 32.4524Z" fill="#C5C9F7"/>
<path d="M23.5632 2.13486L42.381 20.9527C43.531 22.1026 43.531 23.9845 42.381 25.1344C42.2555 25.2599 42.0883 25.3434 41.9209 25.4271C41.2518 25.8872 40.4574 26.0544 39.6836 25.8662C39.1401 25.7826 38.6174 25.5526 38.1992 25.1344L19.3814 6.31651C18.9003 5.83551 18.6705 5.22923 18.5867 4.60199C18.5032 3.97475 18.6287 3.34732 18.9423 2.78296C19.0886 2.55289 19.1931 2.32301 19.3814 2.13476C20.5313 0.984889 22.4132 0.984889 23.5632 2.13486Z" fill="#FE318F"/>
<path d="M32.972 11.5437L42.3809 20.9526C43.5308 22.1025 43.5308 23.9844 42.3809 25.1343C42.2554 25.2598 42.0881 25.3433 41.9207 25.427C41.2517 25.8871 40.4572 26.0543 39.6835 25.8661C39.14 25.7825 38.6172 25.5525 38.199 25.1343L28.7902 15.7255L32.972 11.5437Z" fill="#FD0F7F"/>
</svg>
