  <svg width="48" height="48" viewBox="0 0 48 48" fill="none" xmlns="http://www.w3.org/2000/svg">
<g clip-path="url(#clip0_4_1861)">
<path d="M13.334 26.7026C20.6981 26.7026 26.6679 20.7328 26.6679 13.3687C26.6679 6.00452 20.6981 0.0346985 13.334 0.0346985C5.96982 0.0346985 0 6.00452 0 13.3687C0 20.7328 5.96982 26.7026 13.334 26.7026Z" fill="#EE596B"/>
<path d="M15.4434 26.5368C14.746 26.6476 14.0408 26.7033 13.3346 26.7032C5.97028 26.7032 0 20.733 0 13.3686C0 6.00428 5.97028 0.0353088 13.3346 0.0353088C14.0521 0.0353088 14.756 0.0925901 15.4434 0.201715C9.08166 1.21253 4.21894 6.72175 4.21894 13.3686C4.21894 20.0155 9.08166 25.5261 15.4434 26.5368Z" fill="#ED3A4F"/>
<path d="M18.5187 14.8196C19.4274 14.8196 20.164 13.5955 20.164 12.0855C20.164 10.5755 19.4274 9.35138 18.5187 9.35138C17.61 9.35138 16.8734 10.5755 16.8734 12.0855C16.8734 13.5955 17.61 14.8196 18.5187 14.8196Z" fill="#21386B"/>
<path d="M8.14922 14.8196C9.0579 14.8196 9.79453 13.5955 9.79453 12.0855C9.79453 10.5755 9.0579 9.35138 8.14922 9.35138C7.24054 9.35138 6.50391 10.5755 6.50391 12.0855C6.50391 13.5955 7.24054 14.8196 8.14922 14.8196Z" fill="#21386B"/>
<path d="M17.6894 19.6019C17.5873 19.602 17.4864 19.5805 17.3932 19.5388C17.3 19.4971 17.2167 19.4361 17.1488 19.3598C16.1788 18.2728 14.7883 17.6494 13.3339 17.6494C11.8796 17.6494 10.4891 18.2728 9.51903 19.3598C9.39112 19.5032 9.21151 19.5898 9.01971 19.6007C8.82792 19.6116 8.63964 19.5459 8.49632 19.418C8.35299 19.2901 8.26634 19.1104 8.25544 18.9186C8.24454 18.7268 8.31028 18.5386 8.43819 18.3952C9.68282 17.0005 11.4672 16.2007 13.3339 16.2007C15.2007 16.2007 16.9851 17.0005 18.2296 18.3952C18.3227 18.4995 18.3836 18.6285 18.405 18.7665C18.4265 18.9046 18.4075 19.046 18.3504 19.1735C18.2933 19.3011 18.2005 19.4094 18.0832 19.4854C17.9659 19.5614 17.8292 19.6019 17.6894 19.6019Z" fill="#21386B"/>
<path d="M16.5427 47.9647C23.9069 47.9647 29.8767 41.9948 29.8767 34.6307C29.8767 27.2665 23.9069 21.2967 16.5427 21.2967C9.17856 21.2967 3.20874 27.2665 3.20874 34.6307C3.20874 41.9948 9.17856 47.9647 16.5427 47.9647Z" fill="#F9DA41"/>
<path d="M18.6522 47.7989C17.9547 47.9097 17.2496 47.9654 16.5434 47.9653C9.17902 47.9653 3.20874 41.9951 3.20874 34.6307C3.20874 27.2664 9.17902 21.2974 16.5434 21.2974C17.2608 21.2974 17.9647 21.3547 18.6522 21.4638C12.2904 22.4745 7.42768 27.9838 7.42768 34.6307C7.42768 41.2776 12.2904 46.7882 18.6522 47.7989Z" fill="#EDC932"/>
<path d="M21.747 30.3557C20.8364 30.3557 20.0956 31.5868 20.0956 33.1001C20.0956 34.6133 20.8364 35.8444 21.747 35.8444C22.6576 35.8444 23.3984 34.6133 23.3984 33.1001C23.3984 31.5868 22.6577 30.3557 21.747 30.3557ZM11.3385 30.3557C10.4279 30.3557 9.68713 31.5868 9.68713 33.1001C9.68713 34.6133 10.4279 35.8444 11.3385 35.8444C12.2491 35.8444 12.9899 34.6133 12.9899 33.1001C12.9899 31.5868 12.2491 30.3557 11.3385 30.3557ZM22.4729 39.2442H10.6127C10.4206 39.2442 10.2364 39.1678 10.1006 39.032C9.96473 38.8962 9.88841 38.7119 9.88841 38.5198C9.88841 38.3277 9.96473 38.1435 10.1006 38.0077C10.2364 37.8718 10.4206 37.7955 10.6127 37.7955H22.4729C22.665 37.7955 22.8493 37.8718 22.9851 38.0077C23.1209 38.1435 23.1973 38.3277 23.1973 38.5198C23.1973 38.7119 23.1209 38.8962 22.9851 39.032C22.8493 39.1678 22.665 39.2442 22.4729 39.2442Z" fill="#21386B"/>
<path d="M34.666 34.8793C42.0301 34.8793 48 28.9095 48 21.5454C48 14.1812 42.0301 8.2114 34.666 8.2114C27.3019 8.2114 21.332 14.1812 21.332 21.5454C21.332 28.9095 27.3019 34.8793 34.666 34.8793Z" fill="#78D0B1"/>
<path d="M36.7755 34.7136C36.078 34.8244 35.3729 34.88 34.6667 34.88C27.3023 34.88 21.332 28.9097 21.332 21.5453C21.332 14.181 27.3024 8.21204 34.6667 8.21204C35.3842 8.21204 36.0881 8.26932 36.7756 8.37844C30.4138 9.38916 25.5511 14.8985 25.5511 21.5453C25.5511 28.1922 30.4137 33.7029 36.7755 34.7136Z" fill="#66B49D"/>
<path d="M39.7452 17.4448C38.8563 17.4448 38.1331 18.6464 38.1331 20.1234C38.1331 21.6005 38.8563 22.8021 39.7452 22.8021C40.634 22.8021 41.3572 21.6005 41.3572 20.1234C41.3571 18.6464 40.634 17.4448 39.7452 17.4448ZM29.5869 17.4448C28.698 17.4448 27.9749 18.6464 27.9749 20.1234C27.9749 21.6005 28.698 22.8021 29.5869 22.8021C30.4757 22.8021 31.1989 21.6005 31.1989 20.1234C31.1989 18.6464 30.4757 17.4448 29.5869 17.4448ZM34.666 29.6622C32.0683 29.6622 29.7374 28.1148 28.7277 25.72C28.656 25.5436 28.6567 25.346 28.7296 25.17C28.8026 24.994 28.9419 24.8539 29.1174 24.7799C29.2929 24.7059 29.4905 24.704 29.6674 24.7746C29.8443 24.8453 29.9863 24.9827 30.0626 25.1573C30.8453 27.0139 32.6522 28.2136 34.666 28.2136C36.6797 28.2136 38.4867 27.0139 39.2695 25.1573C39.3064 25.0696 39.3603 24.9901 39.428 24.9232C39.4956 24.8564 39.5758 24.8036 39.6639 24.7677C39.752 24.7319 39.8464 24.7137 39.9415 24.7143C40.0366 24.7149 40.1307 24.7342 40.2183 24.7712C40.306 24.8081 40.3855 24.862 40.4523 24.9297C40.5192 24.9974 40.572 25.0776 40.6079 25.1657C40.6437 25.2538 40.6619 25.3481 40.6613 25.4432C40.6607 25.5383 40.6413 25.6324 40.6044 25.72C39.5947 28.1148 37.2637 29.6622 34.666 29.6622Z" fill="#21386B"/>
</g>
<defs>
<clipPath id="clip0_4_1861">
<rect width="48" height="48" fill="white"/>
</clipPath>
</defs>
</svg>