<svg width="44" height="44" viewBox="0 0 44 44" fill="none" xmlns="http://www.w3.org/2000/svg">
<path d="M30.7094 38.6723V41.9902C30.7094 42.3202 30.5783 42.6367 30.345 42.8701C30.1116 43.1034 29.7952 43.2345 29.4652 43.2345H14.5347C14.3713 43.2345 14.2095 43.2023 14.0586 43.1398C13.9076 43.0772 13.7705 42.9856 13.6549 42.8701C13.5394 42.7545 13.4477 42.6173 13.3852 42.4664C13.3227 42.3154 13.2905 42.1536 13.2905 41.9902V38.6723C13.2905 35.6765 14.8109 33.029 17.1207 31.4612C18.43 32.5944 20.1364 33.2808 21.9998 33.2808C23.8632 33.2808 25.5696 32.5944 26.8789 31.4612C29.1888 33.029 30.7094 35.6765 30.7094 38.6723ZM22 20.8387C19.2558 20.8387 17.0231 23.0713 17.0231 25.8155C17.0231 28.5598 19.2557 30.7924 22 30.7924C24.7442 30.7924 26.9768 28.5598 26.9768 25.8155C26.9768 23.0713 24.7441 20.8387 22 20.8387ZM11.196 13.4418L13.3441 11.3479C13.5104 11.1859 13.628 10.9805 13.6837 10.7551C13.7394 10.5297 13.7309 10.2932 13.6591 10.0724C13.5874 9.85158 13.4553 9.65523 13.2777 9.50558C13.1002 9.35593 12.8844 9.25895 12.6546 9.2256L9.68598 8.7943L8.35848 6.10428C8.25572 5.89611 8.09678 5.72084 7.89961 5.59829C7.70244 5.47573 7.47492 5.41079 7.24276 5.41079C7.01061 5.41079 6.78309 5.47573 6.58592 5.59829C6.38876 5.72084 6.22981 5.89611 6.12705 6.10428L4.79955 8.7943L1.83095 9.2256C1.60114 9.2589 1.38524 9.35586 1.20769 9.5055C1.03013 9.65515 0.897997 9.8515 0.826249 10.0723C0.754502 10.2932 0.746001 10.5297 0.801709 10.7551C0.857417 10.9806 0.975109 11.1859 1.14147 11.3479L3.28952 13.4418L2.78242 16.3983C2.74324 16.6271 2.76885 16.8623 2.85634 17.0774C2.94384 17.2924 3.08974 17.4786 3.27754 17.6151C3.46535 17.7515 3.68758 17.8327 3.91912 17.8495C4.15066 17.8662 4.38226 17.8179 4.58776 17.7099L7.24291 16.3141L9.89805 17.7099C10.0765 17.8038 10.2752 17.8529 10.4769 17.8528C10.6581 17.8528 10.8371 17.8133 11.0014 17.7369C11.1658 17.6605 11.3114 17.5492 11.4282 17.4106C11.5451 17.2721 11.6302 17.1097 11.6777 16.9348C11.7252 16.7599 11.7339 16.5768 11.7033 16.3982L11.196 13.4418ZM15.8987 6.70264L18.0467 8.79655L17.5396 11.753C17.5004 11.9819 17.526 12.2171 17.6135 12.4321C17.701 12.6471 17.8469 12.8334 18.0347 12.9698C18.2225 13.1063 18.4448 13.1875 18.6763 13.2042C18.9078 13.221 19.1395 13.1726 19.345 13.0647L22 11.6688L24.6551 13.0647C24.8336 13.1586 25.0322 13.2076 25.2339 13.2075C25.4151 13.2076 25.5942 13.168 25.7585 13.0916C25.9228 13.0153 26.0685 12.9039 26.1853 12.7654C26.3021 12.6268 26.3872 12.4644 26.4347 12.2895C26.4822 12.1147 26.491 11.9315 26.4603 11.7529L25.9532 8.79641L28.1012 6.7025C28.2676 6.54047 28.3852 6.33514 28.4409 6.10973C28.4966 5.88432 28.488 5.64782 28.4163 5.427C28.3446 5.20617 28.2125 5.00983 28.0349 4.86018C27.8574 4.71053 27.6415 4.61354 27.4118 4.58019L24.4432 4.14889L23.1157 1.45888C23.0129 1.25071 22.854 1.07544 22.6568 0.952882C22.4596 0.830329 22.2321 0.765381 22 0.765381C21.7678 0.765381 21.5403 0.830329 21.3431 0.952882C21.1459 1.07544 20.987 1.25071 20.8842 1.45888L19.5567 4.14889L16.5881 4.58019C16.3583 4.61352 16.1424 4.7105 15.9649 4.86016C15.7873 5.00982 15.6552 5.20619 15.5835 5.42704C15.5117 5.64789 15.5032 5.88441 15.5589 6.10984C15.6146 6.33528 15.7323 6.54062 15.8987 6.70264ZM34.102 17.6268L36.7571 16.231L39.4123 17.6268C39.5908 17.7207 39.7894 17.7698 39.9911 17.7697C40.1723 17.7697 40.3513 17.7302 40.5157 17.6538C40.68 17.5774 40.8257 17.4661 40.9425 17.3275C41.0593 17.189 41.1444 17.0266 41.1919 16.8517C41.2394 16.6768 41.2481 16.4937 41.2175 16.3151L40.7104 13.3586L42.8584 11.2647C43.0247 11.1026 43.1424 10.8973 43.1981 10.6719C43.2537 10.4465 43.2452 10.21 43.1735 9.98915C43.1017 9.76833 42.9696 9.57198 42.7921 9.42233C42.6146 9.27268 42.3987 9.17569 42.169 9.14234L39.2004 8.71105L37.8729 6.02103C37.7701 5.81286 37.6111 5.63759 37.414 5.51504C37.2168 5.39249 36.9893 5.32754 36.7571 5.32754C36.525 5.32754 36.2975 5.39249 36.1003 5.51504C35.9031 5.63759 35.7442 5.81286 35.6414 6.02103L34.3139 8.71105L31.3453 9.14234C31.1155 9.17564 30.8996 9.2726 30.7221 9.42225C30.5445 9.57189 30.4124 9.76825 30.3406 9.9891C30.2689 10.2099 30.2604 10.4465 30.3161 10.6719C30.3718 10.8973 30.4895 11.1027 30.6558 11.2647L32.8039 13.3586L32.2968 16.3151C32.2576 16.5439 32.2832 16.7791 32.3707 16.9941C32.4581 17.2091 32.604 17.3954 32.7918 17.5318C32.9796 17.6683 33.2018 17.7495 33.4334 17.7663C33.6649 17.7831 33.8965 17.7348 34.102 17.6268ZM36.8474 26.2303C34.786 26.2303 33.1148 27.9014 33.1148 29.9629C33.1148 32.0243 34.786 33.6955 36.8474 33.6955C38.9088 33.6955 40.58 32.0243 40.58 29.9629C40.58 27.9014 38.9088 26.2303 36.8474 26.2303ZM7.06952 33.6955C9.13094 33.6955 10.8021 32.0243 10.8021 29.9629C10.8021 27.9014 9.13094 26.2303 7.06952 26.2303C5.00809 26.2303 3.33691 27.9014 3.33691 29.9629C3.33691 32.0243 5.00809 33.6955 7.06952 33.6955ZM39.5601 35.5607C38.7398 35.9598 37.8193 36.1838 36.8474 36.1838C35.8756 36.1838 34.955 35.9598 34.1348 35.5607C33.7115 35.7662 33.313 36.019 32.9468 36.3143C33.1138 37.0892 33.198 37.8796 33.1979 38.6722V41.9901C33.1979 42.4262 33.1227 42.845 32.9847 43.2343H41.8244C42.1544 43.2343 42.4709 43.1033 42.7042 42.8699C42.9376 42.6366 43.0687 42.3201 43.0687 41.9901V41.1607C43.0684 38.6974 41.6367 36.5686 39.5601 35.5607ZM11.0409 36.3721C10.6555 36.052 10.2329 35.7796 9.78217 35.5607C8.96191 35.9598 8.04138 36.1838 7.06952 36.1838C6.09766 36.1838 5.17712 35.9598 4.35686 35.5607C2.28025 36.5686 0.848546 38.6974 0.848546 41.1607V41.9901C0.848546 42.3201 0.979637 42.6366 1.21298 42.8699C1.44632 43.1033 1.7628 43.2343 2.0928 43.2343H11.0155C10.8739 42.8348 10.8018 42.414 10.8023 41.9901V38.6722C10.8021 37.8993 10.8821 37.1285 11.0409 36.3721Z" fill="url(#paint0_linear_4_1881)"/>
<defs>
<linearGradient id="paint0_linear_4_1881" x1="22" y1="43.2343" x2="22" y2="-2.67156" gradientUnits="userSpaceOnUse">
<stop stop-color="#FFA68D"/>
<stop offset="1" stop-color="#FD3A84"/>
</linearGradient>
</defs>
</svg>
