<svg width="43" height="30" viewBox="0 0 43 30" fill="none" xmlns="http://www.w3.org/2000/svg">
<path d="M42.357 29.25H38.1784V25.0714H42.357V29.25ZM36.0891 29.25H31.9106V20.8929H36.0891V29.25ZM29.8213 29.25H25.6427V16.7143H29.8213V29.25ZM23.5534 29.25H19.3749V12.5357H23.5534V29.25ZM17.2856 29.25H13.107V8.35714H17.2856V29.25ZM11.0177 29.25H6.83915V4.17857H11.0177V29.25ZM4.74986 29.25H0.571289V0H4.74986V29.25Z" fill="#F44336"/>
<path d="M38.2002 5.84778L41.1084 13.7526L32.7314 14.6259L38.2002 5.84778Z" fill="#B71C1C"/>
<path d="M20.7026 2.2616L21.8079 0.487793L38.3487 10.7942L37.2435 12.568L20.7026 2.2616Z" fill="#B71C1C"/>
</svg>
