<svg width="41" height="41" viewBox="0 0 41 41" fill="none" xmlns="http://www.w3.org/2000/svg">
<path d="M33.0625 24.4375C37.032 24.4375 40.25 21.2195 40.25 17.25C40.25 13.2805 37.032 10.0625 33.0625 10.0625C29.093 10.0625 25.875 13.2805 25.875 17.25C25.875 21.2195 29.093 24.4375 33.0625 24.4375Z" fill="#C80A50"/>
<path d="M7.1875 24.4375C11.157 24.4375 14.375 21.2195 14.375 17.25C14.375 13.2805 11.157 10.0625 7.1875 10.0625C3.21795 10.0625 0 13.2805 0 17.25C0 21.2195 3.21795 24.4375 7.1875 24.4375Z" fill="#00A0C8"/>
<path d="M20.125 14.375C24.0945 14.375 27.3125 11.157 27.3125 7.1875C27.3125 3.21795 24.0945 0 20.125 0C16.1555 0 12.9375 3.21795 12.9375 7.1875C12.9375 11.157 16.1555 14.375 20.125 14.375Z" fill="#FAB400"/>
<path d="M25.875 23H14.375C12.7894 23 11.5 24.2894 11.5 25.875V34.5C11.5 36.0856 12.7894 37.375 14.375 37.375H17.6094L19.55 39.9625C19.6168 40.052 19.7035 40.1247 19.8033 40.1748C19.9032 40.2249 20.0133 40.251 20.125 40.251C20.2367 40.251 20.3468 40.2249 20.4467 40.1748C20.5465 40.1247 20.6332 40.052 20.7 39.9625L22.6406 37.375H25.875C27.4606 37.375 28.75 36.0856 28.75 34.5V25.875C28.75 24.2894 27.4606 23 25.875 23Z" fill="#0A5078"/>
<path d="M18.6876 33.0625C18.4988 33.0628 18.3118 33.0257 18.1374 32.9534C17.9629 32.8812 17.8045 32.7751 17.6713 32.6413L16.2338 31.2038C16.0965 31.0712 15.987 30.9126 15.9116 30.7372C15.8363 30.5619 15.7966 30.3732 15.795 30.1824C15.7933 29.9915 15.8297 29.8022 15.902 29.6255C15.9742 29.4489 16.081 29.2884 16.216 29.1534C16.3509 29.0184 16.5114 28.9117 16.6881 28.8394C16.8648 28.7671 17.054 28.7308 17.2449 28.7324C17.4358 28.7341 17.6244 28.7737 17.7998 28.8491C17.9752 28.9244 18.1338 29.0339 18.2664 29.1712L18.6876 29.5924L21.9838 26.2962C22.1164 26.1589 22.275 26.0494 22.4504 25.9741C22.6258 25.8987 22.8144 25.8591 23.0053 25.8574C23.1961 25.8558 23.3854 25.8921 23.5621 25.9644C23.7387 26.0367 23.8992 26.1434 24.0342 26.2784C24.1692 26.4134 24.2759 26.5739 24.3482 26.7505C24.4205 26.9272 24.4569 27.1165 24.4552 27.3074C24.4535 27.4982 24.4139 27.6869 24.3385 27.8622C24.2632 28.0376 24.1537 28.1962 24.0164 28.3288L19.7039 32.6413C19.5706 32.7751 19.4122 32.8812 19.2378 32.9534C19.0634 33.0257 18.8764 33.0628 18.6876 33.0625Z" fill="#00325A"/>
<path d="M18.6876 33.7813C18.4988 33.7815 18.3118 33.7445 18.1374 33.6722C17.9629 33.5999 17.8045 33.4938 17.6713 33.3601L16.2338 31.9226C16.0965 31.79 15.987 31.6314 15.9116 31.456C15.8363 31.2806 15.7966 31.092 15.795 30.9011C15.7933 30.7102 15.8297 30.5209 15.902 30.3443C15.9742 30.1676 16.081 30.0071 16.216 29.8721C16.3509 29.7372 16.5114 29.6304 16.6881 29.5582C16.8648 29.4859 17.054 29.4495 17.2449 29.4512C17.4358 29.4528 17.6244 29.4925 17.7998 29.5678C17.9752 29.6432 18.1338 29.7527 18.2664 29.89L18.6876 30.3112L21.9838 27.015C22.1164 26.8777 22.275 26.7682 22.4504 26.6928C22.6258 26.6175 22.8144 26.5778 23.0053 26.5762C23.1961 26.5745 23.3854 26.6109 23.5621 26.6832C23.7387 26.7554 23.8992 26.8622 24.0342 26.9971C24.1692 27.1321 24.2759 27.2926 24.3482 27.4693C24.4205 27.6459 24.4569 27.8352 24.4552 28.0261C24.4535 28.217 24.4139 28.4056 24.3385 28.581C24.2632 28.7564 24.1537 28.915 24.0164 29.0476L19.7039 33.3601C19.5706 33.4938 19.4122 33.5999 19.2378 33.6722C19.0634 33.7445 18.8764 33.7815 18.6876 33.7813Z" fill="#00A0C8"/>
<path d="M17.25 7.1875C18.0439 7.1875 18.6875 6.54391 18.6875 5.75C18.6875 4.95609 18.0439 4.3125 17.25 4.3125C16.4561 4.3125 15.8125 4.95609 15.8125 5.75C15.8125 6.54391 16.4561 7.1875 17.25 7.1875Z" fill="#0A5078"/>
<path d="M23 7.1875C23.7939 7.1875 24.4375 6.54391 24.4375 5.75C24.4375 4.95609 23.7939 4.3125 23 4.3125C22.2061 4.3125 21.5625 4.95609 21.5625 5.75C21.5625 6.54391 22.2061 7.1875 23 7.1875Z" fill="#0A5078"/>
<path d="M20.8438 11.5H19.4062C18.8344 11.5 18.2859 11.2728 17.8816 10.8684C17.4772 10.4641 17.25 9.91562 17.25 9.34375C17.25 9.15313 17.3257 8.97031 17.4605 8.83552C17.5953 8.70072 17.7781 8.625 17.9688 8.625H22.2812C22.4719 8.625 22.6547 8.70072 22.7895 8.83552C22.9243 8.97031 23 9.15313 23 9.34375C23 9.91562 22.7728 10.4641 22.3684 10.8684C21.9641 11.2728 21.4156 11.5 20.8438 11.5Z" fill="#0A5078"/>
<path d="M22.2812 8.625H17.9688C17.7781 8.625 17.5953 8.70072 17.4605 8.83552C17.3257 8.97031 17.25 9.15313 17.25 9.34375C17.25 9.59603 17.2938 9.83753 17.3729 10.0625H22.8764C22.9562 9.83753 23 9.59603 23 9.34375C23 9.15313 22.9243 8.97031 22.7895 8.83552C22.6547 8.70072 22.4719 8.625 22.2812 8.625Z" fill="#F0F0F0"/>
<path d="M5.74989 16.5312C5.65549 16.5313 5.56201 16.5128 5.4748 16.4766C5.3876 16.4405 5.30839 16.3875 5.24174 16.3206C4.56395 15.6443 4.06083 15.6443 3.38305 16.3206C3.24828 16.4554 3.06549 16.5311 2.87489 16.5311C2.6843 16.5311 2.50151 16.4554 2.36674 16.3206C2.23196 16.1859 2.15625 16.0031 2.15625 15.8125C2.15625 15.6219 2.23196 15.4391 2.36674 15.3043C3.6037 14.0673 5.02108 14.0673 6.25805 15.3043C6.35889 15.4047 6.42763 15.5328 6.45555 15.6723C6.48347 15.8118 6.46931 15.9565 6.41486 16.0879C6.36041 16.2194 6.26814 16.3317 6.14974 16.4106C6.03135 16.4896 5.89218 16.5315 5.74989 16.5312ZM7.18739 21.5603C6.52327 21.5603 5.85986 21.2513 5.24174 20.6331C5.175 20.5664 5.12207 20.4872 5.08595 20.4C5.04984 20.3128 5.03125 20.2193 5.03125 20.125C5.03125 20.0306 5.04984 19.9371 5.08595 19.85C5.12207 19.7628 5.175 19.6835 5.24174 19.6168C5.30847 19.5501 5.38769 19.4971 5.47488 19.461C5.56207 19.4249 5.65552 19.4063 5.74989 19.4063C5.84426 19.4063 5.93771 19.4249 6.0249 19.461C6.11209 19.4971 6.19132 19.5501 6.25805 19.6168C6.93583 20.2932 7.43895 20.2932 8.11673 19.6168C8.18347 19.5501 8.26269 19.4971 8.34988 19.461C8.43707 19.4249 8.53052 19.4063 8.62489 19.4063C8.71926 19.4063 8.81271 19.4249 8.8999 19.461C8.98709 19.4971 9.06632 19.5501 9.13305 19.6168C9.19978 19.6835 9.25272 19.7628 9.28883 19.85C9.32495 19.9371 9.34353 20.0306 9.34353 20.125C9.34353 20.2193 9.32495 20.3128 9.28883 20.4C9.25272 20.4872 9.19978 20.5664 9.13305 20.6331C8.51492 21.2513 7.85152 21.5603 7.18739 21.5603ZM11.4999 16.5312C11.4055 16.5313 11.312 16.5128 11.2248 16.4766C11.1376 16.4405 11.0584 16.3875 10.9917 16.3206C10.314 15.6443 9.81083 15.6443 9.13305 16.3206C9.06632 16.3874 8.98709 16.4403 8.8999 16.4764C8.81271 16.5125 8.71926 16.5311 8.62489 16.5311C8.53052 16.5311 8.43707 16.5125 8.34988 16.4764C8.26269 16.4403 8.18347 16.3874 8.11673 16.3206C8.05 16.2539 7.99707 16.1747 7.96095 16.0875C7.92484 16.0003 7.90625 15.9068 7.90625 15.8125C7.90625 15.7181 7.92484 15.6246 7.96095 15.5375C7.99707 15.4503 8.05 15.371 8.11673 15.3043C9.3537 14.0673 10.7711 14.0673 12.008 15.3043C12.1089 15.4047 12.1776 15.5328 12.2056 15.6723C12.2335 15.8118 12.2193 15.9565 12.1649 16.0879C12.1104 16.2194 12.0181 16.3317 11.8997 16.4106C11.7814 16.4896 11.6422 16.5315 11.4999 16.5312Z" fill="#0A5078"/>
<path d="M30.1874 16.5291C29.5233 16.5291 28.8599 16.22 28.2417 15.6019C28.175 15.5352 28.1221 15.456 28.086 15.3688C28.0498 15.2816 28.0313 15.1881 28.0312 15.0938C28.0312 14.9994 28.0498 14.9059 28.086 14.8188C28.1221 14.7316 28.175 14.6523 28.2417 14.5856C28.3085 14.5189 28.3877 14.4659 28.4749 14.4298C28.5621 14.3937 28.6555 14.3751 28.7499 14.3751C28.8443 14.3751 28.9377 14.3937 29.0249 14.4298C29.1121 14.4659 29.1913 14.5189 29.258 14.5856C29.9358 15.262 30.439 15.262 31.1167 14.5856C31.1835 14.5189 31.2627 14.4659 31.3499 14.4298C31.4371 14.3937 31.5305 14.3751 31.6249 14.3751C31.7193 14.3751 31.8127 14.3937 31.8999 14.4298C31.9871 14.4659 32.0663 14.5189 32.133 14.5856C32.1998 14.6523 32.2527 14.7316 32.2888 14.8188C32.3249 14.9059 32.3435 14.9994 32.3435 15.0938C32.3435 15.1881 32.3249 15.2816 32.2888 15.3688C32.2527 15.456 32.1998 15.5352 32.133 15.6019C31.5149 16.22 30.8515 16.5291 30.1874 16.5291ZM35.9374 16.5291C35.2733 16.5291 34.6099 16.22 33.9917 15.6019C33.925 15.5352 33.8721 15.456 33.836 15.3688C33.7998 15.2816 33.7812 15.1881 33.7812 15.0938C33.7812 14.9994 33.7998 14.9059 33.836 14.8188C33.8721 14.7316 33.925 14.6523 33.9917 14.5856C34.0585 14.5189 34.1377 14.4659 34.2249 14.4298C34.3121 14.3937 34.4055 14.3751 34.4999 14.3751C34.5943 14.3751 34.6877 14.3937 34.7749 14.4298C34.8621 14.4659 34.9413 14.5189 35.008 14.5856C35.6858 15.262 36.189 15.262 36.8667 14.5856C36.9335 14.5189 37.0127 14.4659 37.0999 14.4298C37.1871 14.3937 37.2805 14.3751 37.3749 14.3751C37.4693 14.3751 37.5627 14.3937 37.6499 14.4298C37.7371 14.4659 37.8163 14.5189 37.883 14.5856C37.9498 14.6523 38.0027 14.7316 38.0388 14.8188C38.0749 14.9059 38.0935 14.9994 38.0935 15.0938C38.0935 15.1881 38.0749 15.2816 38.0388 15.3688C38.0027 15.456 37.9498 15.5352 37.883 15.6019C37.2649 16.22 36.6015 16.5291 35.9374 16.5291ZM33.0624 21.5625C32.6811 21.5625 32.3155 21.4111 32.0459 21.1415C31.7763 20.8719 31.6249 20.5063 31.6249 20.125V18.6875H34.4999V20.125C34.4999 20.5063 34.3484 20.8719 34.0789 21.1415C33.8093 21.4111 33.4436 21.5625 33.0624 21.5625Z" fill="#00325A"/>
</svg>
