<svg width="42" height="42" viewBox="0 0 42 42" fill="none" xmlns="http://www.w3.org/2000/svg">
<g clip-path="url(#clip0_175_7)">
<path d="M39.8422 0H20.2174C20.1502 0 20.0857 0.0267141 20.0381 0.0742656C19.9906 0.121817 19.9639 0.186311 19.9639 0.253559V7.48757C20.0109 7.53203 20.0585 7.57559 20.1045 7.62152C22.8388 10.3559 22.8388 14.8051 20.1045 17.5394C20.0585 17.5854 20.0108 17.6288 19.9639 17.6734V24.0589H33.1187C33.1813 24.0589 33.2431 24.0732 33.2992 24.1007C33.3554 24.1283 33.4046 24.1683 33.4429 24.2178L36.537 28.2093H39.8423C39.9095 28.2093 39.974 28.1826 40.0215 28.1351C40.0691 28.0875 40.0958 28.023 40.0958 27.9558V0.253559C40.0958 0.18631 40.069 0.121829 40.0215 0.0742846C39.9739 0.0267402 39.9094 2.17282e-05 39.8422 0Z" fill="#EAF6FF"/>
<path d="M30.4406 30.1876C30.403 30.1874 30.3659 30.1788 30.3322 30.1622C30.2984 30.1457 30.2688 30.1217 30.2457 30.0921L25.67 24.1889L25.4017 23.9768L25.3197 24.3551V41.6474L25.4017 42H33.0314C33.1186 42 33.2022 41.9653 33.2638 41.9037C33.3254 41.8421 33.3601 41.7585 33.3601 41.6713V30.2696L33.2563 30.1876H30.4406Z" fill="#EA9B58"/>
<path d="M20.2174 0C20.1502 0 20.0857 0.0267141 20.0381 0.0742656C19.9906 0.121817 19.9639 0.186311 19.9639 0.253559V7.48757C20.0109 7.53203 20.0585 7.57559 20.1045 7.62152C22.8388 10.3559 22.8388 14.8051 20.1045 17.5394C20.0585 17.5854 20.0108 17.6288 19.9639 17.6734V24.0589H23.9387V0.253559C23.9387 0.186311 23.9654 0.121817 24.013 0.0742656C24.0605 0.0267141 24.125 0 24.1923 0L20.2174 0Z" fill="#D8ECFE"/>
<path d="M26.5285 8.71833C26.4659 8.66724 26.3939 8.62898 26.3165 8.60573C26.2391 8.58248 26.1579 8.5747 26.0775 8.58284C25.9972 8.59097 25.9192 8.61486 25.848 8.65314C25.7769 8.69142 25.7139 8.74334 25.6629 8.80594L24.7375 9.93945L24.1973 9.39919C24.0819 9.28381 23.9254 9.21898 23.7622 9.21898C23.5991 9.21898 23.4426 9.28381 23.3272 9.39919C23.2118 9.51457 23.147 9.67106 23.147 9.83424C23.147 9.99742 23.2118 10.1539 23.3272 10.2693L24.3487 11.2907C24.4095 11.3516 24.4824 11.399 24.5627 11.4299C24.643 11.4608 24.7289 11.4745 24.8148 11.4701C24.9007 11.4658 24.9847 11.4435 25.0615 11.4046C25.1382 11.3658 25.2059 11.3113 25.2603 11.2446L26.616 9.58384C26.6671 9.52128 26.7054 9.44926 26.7286 9.3719C26.7519 9.29453 26.7597 9.21334 26.7516 9.13296C26.7435 9.05259 26.7196 8.9746 26.6813 8.90345C26.643 8.83231 26.5911 8.7694 26.5285 8.71833ZM28.4525 10.7913H36.2971C36.6369 10.7913 36.9124 10.516 36.9124 10.1761C36.9124 9.83625 36.6369 9.56087 36.2971 9.56087H28.4525C28.1127 9.56087 27.8373 9.83625 27.8373 10.1761C27.8373 10.516 28.1127 10.7913 28.4525 10.7913ZM26.5285 12.3634C26.4659 12.3123 26.3939 12.274 26.3165 12.2508C26.2391 12.2275 26.1579 12.2198 26.0775 12.2279C25.9972 12.236 25.9192 12.2599 25.848 12.2982C25.7769 12.3365 25.7139 12.3884 25.6629 12.451L24.7376 13.5845L24.1974 13.0442C24.0813 12.932 23.9259 12.8699 23.7645 12.8713C23.6031 12.8727 23.4487 12.9374 23.3346 13.0515C23.2205 13.1656 23.1558 13.32 23.1544 13.4814C23.1531 13.6428 23.2152 13.7982 23.3273 13.9143L24.3489 14.9358C24.4097 14.9966 24.4826 15.0439 24.5629 15.0748C24.6432 15.1057 24.729 15.1194 24.8149 15.115C24.9008 15.1107 24.9848 15.0884 25.0616 15.0496C25.1383 15.0108 25.2061 14.9563 25.2605 14.8897L26.6161 13.2289C26.6672 13.1663 26.7055 13.0943 26.7287 13.0169C26.752 12.9396 26.7597 12.8584 26.7516 12.778C26.7435 12.6976 26.7196 12.6196 26.6813 12.5485C26.643 12.4774 26.5911 12.4145 26.5285 12.3634ZM36.2971 13.2058H28.4525C28.1127 13.2058 27.8373 13.4812 27.8373 13.8211C27.8373 14.1609 28.1127 14.4363 28.4525 14.4363H36.2971C36.6369 14.4363 36.9124 14.1609 36.9124 13.8211C36.9124 13.4812 36.637 13.2058 36.2971 13.2058ZM26.5285 16.0084C26.4659 15.9573 26.3939 15.919 26.3165 15.8958C26.2391 15.8725 26.1579 15.8647 26.0775 15.8729C25.9972 15.881 25.9192 15.9049 25.848 15.9432C25.7769 15.9815 25.7139 16.0334 25.6629 16.096L24.7376 17.2295L24.1974 16.6891C24.0813 16.577 23.9259 16.5149 23.7645 16.5163C23.6031 16.5176 23.4487 16.5823 23.3346 16.6965C23.2205 16.8106 23.1558 16.965 23.1544 17.1264C23.1531 17.2878 23.2152 17.4432 23.3273 17.5592L24.3489 18.5808C24.4097 18.6416 24.4826 18.6889 24.5629 18.7198C24.6432 18.7506 24.729 18.7643 24.8149 18.76C24.9008 18.7557 24.9848 18.7334 25.0616 18.6946C25.1383 18.6557 25.2061 18.6013 25.2605 18.5347L26.6161 16.8739C26.6672 16.8113 26.7055 16.7393 26.7287 16.6619C26.752 16.5845 26.7597 16.5033 26.7516 16.423C26.7435 16.3426 26.7196 16.2646 26.6813 16.1935C26.643 16.1223 26.5911 16.0594 26.5285 16.0084ZM36.2971 16.8509H28.4525C28.1127 16.8509 27.8373 17.1263 27.8373 17.4661C27.8373 17.806 28.1127 18.0814 28.4525 18.0814H36.2971C36.6369 18.0814 36.9124 17.806 36.9124 17.4661C36.9124 17.1263 36.637 16.8509 36.2971 16.8509ZM26.5285 19.6534C26.4021 19.5503 26.2399 19.5015 26.0775 19.518C25.9152 19.5344 25.766 19.6146 25.6629 19.741L24.7376 20.8745L24.1974 20.3342C24.0813 20.222 23.9259 20.1599 23.7645 20.1613C23.6031 20.1627 23.4487 20.2274 23.3346 20.3415C23.2205 20.4557 23.1558 20.6101 23.1544 20.7714C23.1531 20.9328 23.2152 21.0883 23.3273 21.2043L24.3489 22.2258C24.4097 22.2866 24.4826 22.334 24.5629 22.3648C24.6432 22.3957 24.729 22.4094 24.8149 22.4051C24.9008 22.4007 24.9848 22.3784 25.0616 22.3396C25.1383 22.3008 25.2061 22.2463 25.2605 22.1797L26.6161 20.5189C26.6672 20.4564 26.7055 20.3843 26.7287 20.307C26.752 20.2296 26.7597 20.1484 26.7516 20.068C26.7435 19.9877 26.7196 19.9097 26.6813 19.8385C26.643 19.7674 26.5911 19.7045 26.5285 19.6534ZM36.2971 20.4959H28.4525C28.1127 20.4959 27.8373 20.7713 27.8373 21.1111C27.8373 21.451 28.1127 21.7264 28.4525 21.7264H36.2971C36.6369 21.7264 36.9124 21.451 36.9124 21.1111C36.9124 20.7713 36.637 20.4959 36.2971 20.4959Z" fill="#8AC9FE"/>
<path d="M36.5116 6.26304H23.548C23.5147 6.26304 23.4817 6.25649 23.451 6.24374C23.4202 6.231 23.3922 6.21232 23.3687 6.18878C23.3452 6.16523 23.3265 6.13728 23.3137 6.10652C23.301 6.07575 23.2944 6.04278 23.2944 6.00949V3.74001C23.2944 3.70671 23.301 3.67374 23.3137 3.64298C23.3265 3.61221 23.3452 3.58426 23.3687 3.56072C23.3922 3.53717 23.4202 3.51849 23.451 3.50575C23.4817 3.49301 23.5147 3.48645 23.548 3.48645H36.5116C36.5789 3.48645 36.6434 3.51316 36.6909 3.56072C36.7385 3.60827 36.7652 3.67276 36.7652 3.74001V6.00957C36.7652 6.04286 36.7586 6.07583 36.7459 6.10659C36.7332 6.13735 36.7145 6.16529 36.6909 6.18883C36.6674 6.21237 36.6394 6.23104 36.6087 6.24377C36.5779 6.25651 36.5449 6.26305 36.5116 6.26304Z" fill="#4FC123"/>
<path d="M26.155 6.00957V3.74001C26.155 3.67276 26.1817 3.60827 26.2293 3.56072C26.2768 3.51316 26.3413 3.48645 26.4086 3.48645H23.548C23.5147 3.48645 23.4817 3.49301 23.451 3.50575C23.4202 3.51849 23.3922 3.53717 23.3687 3.56072C23.3452 3.58426 23.3265 3.61221 23.3137 3.64298C23.301 3.67374 23.2944 3.70671 23.2944 3.74001V6.00957C23.2944 6.04287 23.301 6.07584 23.3137 6.1066C23.3265 6.13736 23.3452 6.16532 23.3687 6.18886C23.3922 6.21241 23.4202 6.23108 23.451 6.24383C23.4817 6.25657 23.5147 6.26313 23.548 6.26313H26.4086C26.3413 6.2631 26.2769 6.23638 26.2293 6.18884C26.1818 6.14129 26.155 6.07681 26.155 6.00957Z" fill="#47A920"/>
<path d="M25.4017 23.9768V42.0001H28.6057V28.1104L25.4017 23.9768Z" fill="#D88A55"/>
<path d="M25.2364 24.0588L20.6561 30.0902C20.633 30.1204 20.6033 30.1449 20.5692 30.1618C20.5351 30.1787 20.4977 30.1875 20.4596 30.1876H10.8146L10.6219 30.2697V41.6714C10.6219 41.7585 10.6566 41.8421 10.7182 41.9038C10.7799 41.9654 10.8635 42.0001 10.9506 42.0001H25.4017V23.9768L25.2364 24.0588Z" fill="#F6A96C"/>
<path d="M14.2394 41.6713V30.2697H10.6219V41.6713C10.6219 41.7585 10.6566 41.8421 10.7182 41.9038C10.7799 41.9654 10.8635 42 10.9506 42H14.5681C14.525 42 14.4822 41.9915 14.4424 41.975C14.4025 41.9585 14.3662 41.9343 14.3357 41.9038C14.3052 41.8732 14.281 41.837 14.2645 41.7971C14.2479 41.7572 14.2394 41.7145 14.2394 41.6713Z" fill="#EA9B58"/>
<path d="M25.4017 23.9768L30.1809 30.1424C30.2116 30.182 30.251 30.2141 30.296 30.2361C30.341 30.2582 30.3905 30.2697 30.4407 30.2697H37.5672C37.8405 30.2697 37.9944 29.9556 37.827 29.7397L33.4832 24.1357C33.4449 24.0862 33.3957 24.0462 33.3395 24.0187C33.2833 23.9911 33.2216 23.9768 33.159 23.9768H25.4017Z" fill="#FED2A4"/>
<path d="M33.0468 30.1424L28.2676 23.9768H25.4016L30.1808 30.1424C30.2115 30.182 30.2509 30.2141 30.2959 30.2361C30.3409 30.2582 30.3904 30.2697 30.4405 30.2697H33.3066C33.2564 30.2697 33.2069 30.2582 33.1619 30.2361C33.1169 30.2141 33.0775 30.182 33.0468 30.1424Z" fill="#FFBD86"/>
<path d="M20.4597 30.2697H6.50541C6.23365 30.2697 6.07934 29.9586 6.24365 29.7422L10.4989 24.1389C10.5372 24.0885 10.5866 24.0477 10.6433 24.0196C10.6999 23.9914 10.7623 23.9768 10.8256 23.9768H25.4017L20.7214 30.1397C20.6908 30.1801 20.6512 30.2129 20.6058 30.2354C20.5604 30.2579 20.5104 30.2697 20.4597 30.2697Z" fill="#FED2A4"/>
<path d="M9.82809 29.7422L14.2064 23.9768H10.8254C10.7622 23.9768 10.6998 23.9914 10.6431 24.0196C10.5864 24.0477 10.537 24.0885 10.4988 24.1389L6.24357 29.7422C6.07918 29.9586 6.23356 30.2697 6.50533 30.2697H10.0898C9.81808 30.2697 9.66378 29.9586 9.82809 29.7422Z" fill="#FFBD86"/>
<path d="M10.1865 17.5393C9.93657 17.2894 9.70582 17.021 9.49619 16.7365L7.59192 18.6407L9.08505 20.1339L10.9888 18.2301C10.7046 18.0201 10.4364 17.7892 10.1865 17.5393Z" fill="#CBC4CC"/>
<path d="M2.42391 25.302C3.11658 25.9947 4.23967 25.9947 4.93243 25.302L9.36868 20.8657C9.40572 20.8287 9.43509 20.7847 9.45514 20.7363C9.47518 20.6879 9.4855 20.6361 9.4855 20.5837C9.4855 20.5313 9.47518 20.4795 9.45514 20.4311C9.43509 20.3827 9.40572 20.3387 9.36868 20.3017L7.42429 18.3573C7.38726 18.3203 7.34329 18.2909 7.2949 18.2708C7.24651 18.2508 7.19465 18.2405 7.14227 18.2405C7.08989 18.2405 7.03803 18.2508 6.98964 18.2708C6.94125 18.2909 6.89728 18.3203 6.86024 18.3573L2.42399 22.7935C1.73124 23.4862 1.73124 24.6093 2.42391 25.302Z" fill="#7A6D79"/>
<path d="M2.42395 24.9615L6.8602 20.5253C6.89724 20.4882 6.94121 20.4588 6.9896 20.4388C7.03799 20.4188 7.08985 20.4084 7.14223 20.4084C7.1946 20.4084 7.24647 20.4188 7.29486 20.4388C7.34325 20.4588 7.38721 20.4882 7.42425 20.5253L8.56662 21.6677L9.36864 20.8657C9.44344 20.7909 9.48546 20.6894 9.48546 20.5836C9.48546 20.4778 9.44344 20.3764 9.36864 20.3016L7.42425 18.3572C7.38721 18.3201 7.34325 18.2908 7.29486 18.2707C7.24647 18.2507 7.1946 18.2404 7.14223 18.2404C7.08985 18.2404 7.03799 18.2507 6.9896 18.2707C6.94121 18.2908 6.89724 18.3201 6.8602 18.3572L2.42395 22.7934C1.78526 23.4321 1.73694 24.4359 2.27613 25.1317C2.32179 25.072 2.37117 25.0151 2.42395 24.9615Z" fill="#685E68"/>
<path d="M15.1455 19.6754C19.0639 19.6754 22.2405 16.4989 22.2405 12.5804C22.2405 8.66191 19.0639 5.48535 15.1455 5.48535C11.227 5.48535 8.05042 8.66191 8.05042 12.5804C8.05042 16.4989 11.227 19.6754 15.1455 19.6754Z" fill="#0593FC"/>
<path d="M12.9034 16.6489C12.5206 16.4381 12.1696 16.1743 11.8606 15.8653C10.0464 14.0511 10.0464 11.1097 11.8606 9.29554C12.1696 8.98659 12.5206 8.72281 12.9034 8.51197C13.1402 8.17341 13.406 7.85606 13.6978 7.56353C14.6253 6.63608 15.746 6.02068 16.9301 5.71413C14.5767 5.1048 11.9718 5.7202 10.1285 7.56353C7.35772 10.3344 7.35772 14.8267 10.1285 17.5974C11.9718 19.4408 14.5767 20.0561 16.9301 19.4468C15.746 19.1403 14.6253 18.5249 13.6978 17.5974C13.406 17.3049 13.1402 16.9875 12.9034 16.6489Z" fill="#0182FC"/>
<path d="M15.1455 17.226C17.7112 17.226 19.7911 15.1461 19.7911 12.5804C19.7911 10.0147 17.7112 7.93481 15.1455 7.93481C12.5798 7.93481 10.4999 10.0147 10.4999 12.5804C10.4999 15.1461 12.5798 17.226 15.1455 17.226Z" fill="white"/>
<path d="M14.6752 15.8654C12.861 14.0512 12.861 11.1098 14.6752 9.29559C15.2002 8.76957 15.8443 8.37783 16.5528 8.15356C14.9518 7.64603 13.1303 8.02591 11.8607 9.29559C10.0464 11.1098 10.0464 14.0512 11.8607 15.8654C13.1303 17.1351 14.9518 17.5149 16.5528 17.0074C15.8443 16.7832 15.2002 16.3914 14.6752 15.8654Z" fill="#F3F0F3"/>
<path d="M15.1455 17.8412C13.7403 17.8412 12.4192 17.2939 11.4255 16.3004C10.4319 15.3067 9.88464 13.9856 9.88464 12.5804C9.88464 11.1752 10.4319 9.8541 11.4255 8.86037C12.4192 7.86681 13.7403 7.31958 15.1455 7.31958C16.5507 7.31958 17.8718 7.86681 18.8654 8.86037C19.8591 9.85402 20.4063 11.1752 20.4063 12.5804C20.4063 13.9856 19.8591 15.3067 18.8654 16.3004C17.8718 17.294 16.5507 17.8412 15.1455 17.8412ZM12.2956 9.73056C11.5345 10.4917 11.1152 11.5038 11.1152 12.5804C11.1152 13.6569 11.5345 14.669 12.2956 15.4302C13.0569 16.1914 14.069 16.6107 15.1456 16.6107C16.2221 16.6107 17.2341 16.1915 17.9954 15.4302C18.7566 14.669 19.1759 13.6569 19.1759 12.5804C19.1759 11.5038 18.7566 10.4917 17.9954 9.73056C17.2341 8.96931 16.222 8.55005 15.1456 8.55005C14.0691 8.55005 13.0568 8.96931 12.2956 9.73056Z" fill="#0172FB"/>
</g>
<defs>
<clipPath id="clip0_175_7">
<rect width="42" height="42" fill="white"/>
</clipPath>
</defs>
</svg>
