<svg width="44" height="44" viewBox="0 0 44 44" fill="none" xmlns="http://www.w3.org/2000/svg">
<path d="M8.63292 32.2042C7.49631 32.2042 6.38522 32.5413 5.44017 33.1727C4.49511 33.8042 3.75852 34.7017 3.32356 35.7518C2.8886 36.8019 2.77479 37.9574 2.99653 39.0722C3.21828 40.187 3.76561 41.2109 4.56931 42.0146C5.37302 42.8184 6.397 43.3657 7.51178 43.5874C8.62655 43.8092 9.78204 43.6954 10.8321 43.2604C11.8822 42.8254 12.7798 42.0889 13.4112 41.1438C14.0427 40.1987 14.3797 39.0876 14.3797 37.951C14.3797 36.4269 13.7743 34.9652 12.6965 33.8874C11.6188 32.8097 10.1571 32.2042 8.63292 32.2042ZM5.44017 37.169C5.44017 37.3092 5.38449 37.4436 5.28537 37.5427C5.18626 37.6418 5.05183 37.6975 4.91166 37.6975C4.77149 37.6975 4.63706 37.6418 4.53794 37.5427C4.43882 37.4436 4.38314 37.3092 4.38314 37.169C4.38314 36.704 4.56788 36.258 4.89672 35.9291C5.22556 35.6003 5.67156 35.4155 6.13661 35.4155C6.60166 35.4155 7.04766 35.6003 7.3765 35.9291C7.70534 36.258 7.89008 36.704 7.89008 37.169C7.89008 37.3091 7.83441 37.4435 7.73533 37.5426C7.63625 37.6417 7.50186 37.6973 7.36174 37.6973C7.22161 37.6973 7.08722 37.6417 6.98814 37.5426C6.88906 37.4435 6.83339 37.3091 6.83339 37.169C6.82935 36.9869 6.75418 36.8137 6.62398 36.6863C6.49378 36.559 6.3189 36.4877 6.13678 36.4877C5.95467 36.4877 5.77979 36.559 5.64959 36.6863C5.51939 36.8137 5.44422 36.9869 5.44017 37.169ZM10.945 40.4195C10.7577 40.879 10.4376 41.2723 10.0258 41.5492C9.61398 41.826 9.12899 41.9739 8.63275 41.9739C8.13651 41.9739 7.65153 41.826 7.23969 41.5492C6.82786 41.2723 6.50785 40.879 6.32052 40.4195C6.27761 40.3163 6.26078 40.2041 6.27153 40.0928C6.28228 39.9815 6.32027 39.8746 6.38215 39.7815C6.44403 39.6884 6.52788 39.612 6.62631 39.559C6.72473 39.506 6.8347 39.478 6.94649 39.4776H10.319C10.4308 39.4781 10.5407 39.5061 10.6391 39.5591C10.7375 39.6121 10.8213 39.6886 10.8831 39.7817C10.9449 39.8748 10.9829 39.9816 10.9936 40.0929C11.0044 40.2041 10.9879 40.3163 10.945 40.4195ZM12.354 37.6973C12.2139 37.6973 12.0795 37.6417 11.9804 37.5426C11.8813 37.4435 11.8257 37.3091 11.8257 37.169C11.8216 36.9869 11.7465 36.8137 11.6163 36.6863C11.4861 36.559 11.3112 36.4877 11.1291 36.4877C10.9469 36.4877 10.7721 36.559 10.6419 36.6863C10.5117 36.8137 10.4365 36.9869 10.4325 37.169C10.4325 37.3092 10.3768 37.4436 10.2777 37.5427C10.1785 37.6418 10.0441 37.6975 9.90394 37.6975C9.76377 37.6975 9.62934 37.6418 9.53022 37.5427C9.43111 37.4436 9.37542 37.3092 9.37542 37.169C9.37542 36.704 9.56016 36.258 9.889 35.9291C10.2178 35.6003 10.6638 35.4155 11.1289 35.4155C11.5939 35.4155 12.0399 35.6003 12.3688 35.9291C12.6976 36.258 12.8824 36.704 12.8824 37.169C12.8824 37.3091 12.8267 37.4435 12.7276 37.5426C12.6285 37.6417 12.4941 37.6973 12.354 37.6973ZM35.367 32.2042C34.2304 32.2042 33.1193 32.5413 32.1743 33.1727C31.2292 33.8042 30.4926 34.7017 30.0577 35.7518C29.6227 36.8019 29.5089 37.9574 29.7307 39.0722C29.9524 40.187 30.4997 41.2109 31.3034 42.0146C32.1071 42.8184 33.1311 43.3657 34.2459 43.5874C35.3607 43.8092 36.5162 43.6954 37.5663 43.2604C38.6163 42.8254 39.5139 42.0889 40.1453 41.1438C40.7768 40.1987 41.1139 39.0876 41.1139 37.951C41.1139 36.4269 40.5084 34.9652 39.4307 33.8874C38.3529 32.8097 36.8912 32.2042 35.367 32.2042ZM31.1176 35.9442C31.1176 35.8041 31.1733 35.6696 31.2724 35.5705C31.3715 35.4714 31.506 35.4157 31.6461 35.4157C31.7863 35.4157 31.9207 35.4714 32.0198 35.5705C32.119 35.6696 32.1746 35.8041 32.1746 35.9442C32.1746 36.1289 32.248 36.3061 32.3786 36.4367C32.5092 36.5673 32.6864 36.6407 32.8711 36.6407C33.0558 36.6407 33.2329 36.5673 33.3635 36.4367C33.4941 36.3061 33.5675 36.1289 33.5675 35.9442C33.5675 35.8041 33.6232 35.6696 33.7223 35.5705C33.8214 35.4714 33.9559 35.4157 34.096 35.4157C34.2362 35.4157 34.3706 35.4714 34.4697 35.5705C34.5689 35.6696 34.6245 35.8041 34.6245 35.9442C34.6245 36.4093 34.4398 36.8553 34.111 37.1841C33.7821 37.513 33.3361 37.6977 32.8711 37.6977C32.406 37.6977 31.96 37.513 31.6312 37.1841C31.3024 36.8553 31.1176 36.4093 31.1176 35.9442ZM37.0535 41.4449H33.6806C33.5688 41.4445 33.4588 41.4165 33.3604 41.3634C33.262 41.3104 33.1782 41.2339 33.1163 41.1408C33.0545 41.0476 33.0165 40.9407 33.0058 40.8294C32.9951 40.7181 33.012 40.6059 33.055 40.5027C33.2424 40.0433 33.5624 39.6501 33.9742 39.3733C34.386 39.0966 34.8709 38.9488 35.367 38.9488C35.8632 38.9488 36.3481 39.0966 36.7599 39.3733C37.1717 39.6501 37.4917 40.0433 37.6791 40.5027C37.7221 40.6059 37.739 40.7182 37.7283 40.8295C37.7175 40.9408 37.6796 41.0478 37.6177 41.1409C37.5558 41.2341 37.4719 41.3105 37.3735 41.3636C37.275 41.4166 37.1653 41.4445 37.0535 41.4449ZM37.8634 37.6973C37.3985 37.6969 36.9528 37.5121 36.6241 37.1834C36.2954 36.8547 36.1104 36.4091 36.1099 35.9442C36.1099 35.8041 36.1656 35.6696 36.2647 35.5705C36.3638 35.4714 36.4982 35.4157 36.6384 35.4157C36.7786 35.4157 36.913 35.4714 37.0121 35.5705C37.1112 35.6696 37.1669 35.8041 37.1669 35.9442C37.1669 36.1289 37.2403 36.3061 37.3709 36.4367C37.5015 36.5673 37.6787 36.6407 37.8634 36.6407C38.0481 36.6407 38.2252 36.5673 38.3558 36.4367C38.4864 36.3061 38.5598 36.1289 38.5598 35.9442C38.5598 35.8041 38.6155 35.6696 38.7146 35.5705C38.8137 35.4714 38.9481 35.4157 39.0883 35.4157C39.2285 35.4157 39.3629 35.4714 39.462 35.5705C39.5611 35.6696 39.6168 35.8041 39.6168 35.9442C39.6163 36.4091 39.4314 36.8547 39.1026 37.1834C38.7739 37.5121 38.3282 37.6969 37.8634 37.6973ZM22 32.2042C20.8634 32.2042 19.7523 32.5413 18.8072 33.1727C17.8622 33.8042 17.1256 34.7017 16.6906 35.7518C16.2557 36.8019 16.1419 37.9574 16.3636 39.0722C16.5853 40.187 17.1327 41.2109 17.9364 42.0146C18.7401 42.8184 19.7641 43.3657 20.8788 43.5874C21.9936 43.8092 23.1491 43.6954 24.1992 43.2604C25.2493 42.8254 26.1468 42.0889 26.7783 41.1438C27.4098 40.1987 27.7468 39.0876 27.7468 37.951C27.7468 37.1964 27.5982 36.4491 27.3093 35.7518C27.0205 35.0546 26.5972 34.4211 26.0636 33.8874C25.53 33.3538 24.8964 32.9305 24.1992 32.6417C23.502 32.3529 22.7547 32.2042 22 32.2042ZM18.1551 36.4513C18.1551 36.1571 18.2424 35.8695 18.4058 35.6249C18.5693 35.3803 18.8016 35.1896 19.0733 35.0771C19.3451 34.9645 19.6442 34.935 19.9327 34.9924C20.2213 35.0498 20.4863 35.1915 20.6943 35.3995C20.9023 35.6075 21.044 35.8725 21.1014 36.1611C21.1588 36.4496 21.1293 36.7487 21.0167 37.0205C20.9042 37.2922 20.7135 37.5246 20.4689 37.688C20.2243 37.8514 19.9367 37.9387 19.6425 37.9387C19.2481 37.9387 18.8697 37.782 18.5908 37.503C18.3119 37.2241 18.1551 36.8457 18.1551 36.4513ZM23.4633 40.9389H20.5366C20.3384 40.9389 20.1482 40.8601 20.008 40.7199C19.8678 40.5797 19.789 40.3895 19.789 40.1913C19.789 39.993 19.8678 39.8028 20.008 39.6626C20.1482 39.5224 20.3384 39.4436 20.5366 39.4436H23.4633C23.5615 39.4436 23.6587 39.4629 23.7494 39.5005C23.8402 39.5381 23.9226 39.5932 23.992 39.6626C24.0614 39.732 24.1165 39.8144 24.1541 39.9051C24.1916 39.9958 24.211 40.0931 24.211 40.1913C24.211 40.2894 24.1916 40.3867 24.1541 40.4774C24.1165 40.5681 24.0614 40.6505 23.992 40.7199C23.9226 40.7894 23.8402 40.8444 23.7494 40.882C23.6587 40.9196 23.5615 40.9389 23.4633 40.9389ZM24.3574 37.9387C24.0632 37.9387 23.7757 37.8514 23.5311 37.688C23.2865 37.5246 23.0958 37.2922 22.9832 37.0205C22.8707 36.7487 22.8412 36.4496 22.8986 36.1611C22.956 35.8725 23.0977 35.6075 23.3057 35.3995C23.5137 35.1915 23.7787 35.0498 24.0672 34.9924C24.3558 34.935 24.6548 34.9645 24.9266 35.0771C25.1984 35.1896 25.4307 35.3803 25.5942 35.6249C25.7576 35.8695 25.8448 36.1571 25.8448 36.4513C25.8448 36.8457 25.6881 37.2241 25.4092 37.503C25.1302 37.782 24.7519 37.9387 24.3574 37.9387Z" fill="#2B79C2"/>
<path d="M11.9408 29.9856V3.6104C11.9408 3.17595 11.8552 2.74577 11.6889 2.34441C11.5226 1.94305 11.2788 1.57838 10.9716 1.27121C10.6644 0.964044 10.2997 0.720398 9.89826 0.554184C9.49687 0.387971 9.06667 0.302445 8.63222 0.30249C7.75482 0.30249 6.91336 0.651037 6.29294 1.27145C5.67252 1.89187 5.32397 2.73334 5.32397 3.61074V29.986C6.3721 29.5484 7.49661 29.3231 8.6324 29.3231C9.76819 29.3231 10.8927 29.5481 11.9408 29.9856ZM25.3082 29.9856V12.1179C25.3082 11.6834 25.2226 11.2532 25.0564 10.8518C24.8901 10.4504 24.6464 10.0857 24.3391 9.77846C24.0319 9.47125 23.6672 9.22758 23.2657 9.06134C22.8643 8.89511 22.4341 8.80957 21.9996 8.80962C21.1222 8.80962 20.2808 9.15816 19.6603 9.77858C19.0399 10.399 18.6914 11.2405 18.6914 12.1179V29.986C19.7395 29.5484 20.864 29.3231 21.9998 29.3231C23.1356 29.3231 24.2601 29.5481 25.3082 29.9856ZM38.6753 29.9856V20.6253C38.6753 20.1909 38.5898 19.7606 38.4236 19.3592C38.2573 18.9578 38.0136 18.5931 37.7064 18.2858C37.3992 17.9786 37.0345 17.7349 36.6331 17.5686C36.2317 17.4023 35.8015 17.3167 35.367 17.3167C34.9326 17.3167 34.5023 17.4023 34.1009 17.5686C33.6995 17.7349 33.3348 17.9786 33.0276 18.2858C32.7204 18.5931 32.4767 18.9578 32.3105 19.3592C32.1443 19.7606 32.0587 20.1909 32.0588 20.6253V29.9856C33.1069 29.5481 34.2314 29.3228 35.3672 29.3228C36.503 29.3228 37.6272 29.5481 38.6753 29.9856Z" fill="#3B4551"/>
</svg>
