<svg width="43" height="42" viewBox="0 0 43 42" fill="none" xmlns="http://www.w3.org/2000/svg">
<path d="M9.38702 32.6425L4.19571 37.8329C-1.39857 32.2133 -1.39857 23.1086 4.19571 17.5012L10.3669 11.3309L15.5626 16.5275L9.56971 22.5204C6.92904 25.1602 6.59775 29.4625 9.05486 32.2876C9.165 32.41 9.26989 32.5263 9.38615 32.6425H9.38702Z" fill="#F34624"/>
<path d="M30.6988 31.6618L24.7793 37.5812C19.1632 43.1973 9.91081 43.547 4.19678 37.8329L9.38722 32.6425C12.138 35.3819 16.5872 35.3819 19.3319 32.6364L25.5031 26.4661L30.6988 31.6618Z" fill="#00AEFF"/>
<path d="M30.6986 31.6566L32.571 29.7842C32.8461 29.5089 33.0007 29.1355 33.0007 28.7462C33.0007 28.357 32.8461 27.9836 32.571 27.7082L29.4565 24.5938C29.1812 24.3186 28.8078 24.1641 28.4185 24.1641C28.0292 24.1641 27.6559 24.3186 27.3805 24.5938L25.5082 26.4661L30.6986 31.6566ZM15.5635 16.5223L17.4358 14.6491C17.711 14.3737 17.8656 14.0004 17.8656 13.6111C17.8656 13.2218 17.711 12.8485 17.4358 12.5731L14.3214 9.45866C14.046 9.1835 13.6727 9.02893 13.2834 9.02893C12.8941 9.02893 12.5207 9.1835 12.2454 9.45866L10.373 11.3319L15.5635 16.5223Z" fill="#EDEDED"/>
<path d="M30.4986 5.6109C30.3382 5.77103 30.1478 5.898 29.9383 5.98455C29.7288 6.0711 29.5043 6.11555 29.2777 6.11534C29.051 6.11514 28.8266 6.07029 28.6173 5.98337C28.408 5.89644 28.2178 5.76913 28.0577 5.60871C27.8975 5.4483 27.7706 5.25791 27.684 5.04842C27.5975 4.83894 27.553 4.61445 27.5532 4.38779C27.5534 4.16113 27.5983 3.93673 27.6852 3.7274C27.7721 3.51806 27.8994 3.3279 28.0599 3.16777C28.3838 2.84437 28.823 2.66292 29.2808 2.66333C29.7385 2.66374 30.1774 2.84598 30.5008 3.16996C30.8242 3.49394 31.0056 3.93312 31.0052 4.39088C31.0048 4.84865 30.8226 5.2875 30.4986 5.6109Z" fill="#FFC536"/>
<path d="M28.9792 9.70527C28.89 10.193 28.4285 10.5164 27.9364 10.4631C26.7262 10.3332 25.5973 9.792 24.738 8.92994C23.8776 8.07137 23.3377 6.94369 23.2084 5.73508C23.155 5.24296 23.4793 4.78144 23.9662 4.69228C24.6522 4.56583 25.3587 4.60801 26.0248 4.8152C26.6909 5.02238 27.2966 5.38836 27.7899 5.88161C28.2831 6.37487 28.6491 6.98062 28.8563 7.64671C29.0635 8.3128 29.1057 9.01926 28.9792 9.70527Z" fill="#17BE66"/>
<path d="M38.8565 13.9681C38.6961 14.1282 38.5057 14.2552 38.2962 14.3417C38.0867 14.4283 37.8623 14.4727 37.6356 14.4725C37.4089 14.4723 37.1845 14.4275 36.9752 14.3405C36.7659 14.2536 36.5757 14.1263 36.4156 13.9659C36.2554 13.8055 36.1285 13.6151 36.0419 13.4056C35.9554 13.1961 35.9109 12.9716 35.9111 12.745C35.9113 12.5183 35.9562 12.2939 36.0431 12.0846C36.13 11.8752 36.2573 11.6851 36.4178 11.525C36.7417 11.2016 37.1809 11.0201 37.6387 11.0205C38.0965 11.0209 38.5353 11.2032 38.8587 11.5271C39.1821 11.8511 39.3636 12.2903 39.3631 12.7481C39.3627 13.2058 39.1805 13.6447 38.8565 13.9681Z" fill="#FFC536"/>
<path d="M37.3376 18.0634C37.2484 18.5503 36.7869 18.8746 36.2948 18.8213C35.0846 18.6913 33.9557 18.1502 33.0964 17.2881C32.236 16.4295 31.6961 15.3018 31.5668 14.0932C31.5134 13.6002 31.8377 13.1387 32.3246 13.0504C33.0106 12.924 33.7171 12.9662 34.3832 13.1734C35.0493 13.3805 35.655 13.7465 36.1483 14.2398C36.6415 14.733 37.0075 15.3388 37.2147 16.0049C37.4219 16.671 37.4641 17.3774 37.3376 18.0634Z" fill="#17BE66"/>
<path d="M41.5191 2.94744C41.3587 3.10757 41.1683 3.23454 40.9588 3.32109C40.7493 3.40764 40.5249 3.45209 40.2982 3.45188C40.0715 3.45168 39.8471 3.40684 39.6378 3.31991C39.4285 3.23298 39.2383 3.10567 39.0782 2.94526C38.918 2.78484 38.7911 2.59445 38.7045 2.38496C38.618 2.17548 38.5735 1.951 38.5737 1.72433C38.5739 1.49767 38.6188 1.27327 38.7057 1.06394C38.7926 0.854606 38.9199 0.664447 39.0804 0.504316C39.4045 0.180917 39.8437 -0.000490791 40.3016 9.97309e-07C40.7594 0.000492786 41.1983 0.182843 41.5217 0.506938C41.8451 0.831032 42.0265 1.27032 42.026 1.72817C42.0256 2.18602 41.8432 2.62404 41.5191 2.94744Z" fill="#FFC536"/>
<path d="M40.0002 7.04268C39.911 7.53043 39.4495 7.85385 38.9574 7.80053C37.7472 7.67059 36.6183 7.1294 35.759 6.26734C34.8986 5.40877 34.3587 4.28109 34.2294 3.07249C34.176 2.58037 34.5003 2.11884 34.9872 2.02968C35.6732 1.90323 36.3797 1.94542 37.0458 2.1526C37.7119 2.35978 38.3176 2.72576 38.8109 3.21902C39.3041 3.71227 39.6701 4.31802 39.8773 4.98411C40.0845 5.6502 40.1267 6.35667 40.0002 7.04268Z" fill="#17BE66"/>
<path d="M18.2164 21.4539L22.2775 19.1865L19.74 17.6428C19.6476 17.5867 19.5739 17.5045 19.5281 17.4066C19.4823 17.3086 19.4665 17.1994 19.4827 17.0925C19.4988 16.9856 19.5462 16.8859 19.6189 16.8059C19.6916 16.7259 19.7864 16.6691 19.8912 16.6428L28.1349 14.5616C28.7162 14.4147 29.0772 15.1735 28.5973 15.5319L24.9199 18.2748L27.0877 19.586C27.1815 19.6424 27.2562 19.7256 27.3023 19.8249C27.3484 19.9242 27.3636 20.0351 27.3461 20.1431C27.3286 20.2512 27.2792 20.3515 27.2042 20.4312C27.1291 20.5109 27.0319 20.5663 26.9251 20.5903L18.6036 22.4679C17.9874 22.6077 17.664 21.7634 18.2164 21.4539Z" fill="#FFC536"/>
</svg>
