<svg width="48" height="48" viewBox="0 0 48 48" fill="none" xmlns="http://www.w3.org/2000/svg">
<path d="M12.55 11.85L8.75006 9H1.5V7.5H9C9.16228 7.50001 9.32017 7.55265 9.45 7.65L13.4499 10.65L12.55 11.85ZM1.5 3.75H3V5.25H1.5V3.75ZM4.5 3.75H8.25V5.25H4.5V3.75ZM12 42.75H1.5V41.25H11.6894L15.0887 37.8506L16.1493 38.9114L12.5303 42.5303C12.4607 42.6 12.378 42.6552 12.287 42.6929C12.196 42.7306 12.0985 42.75 12 42.75Z" fill="#A2B8E0"/>
<path d="M42 24C42 33.9412 33.9412 42 24 42C14.0588 42 6 33.9412 6 24C6 14.0588 14.0588 6 24 6V13.5C21.9233 13.5 19.8932 14.1158 18.1665 15.2696C16.4398 16.4233 15.094 18.0632 14.2993 19.9818C13.5045 21.9004 13.2966 24.0116 13.7018 26.0485C14.1069 28.0853 15.1069 29.9562 16.5754 31.4246C18.0438 32.8931 19.9148 33.8931 21.9516 34.2982C23.9884 34.7034 26.0996 34.4955 28.0182 33.7007C29.9368 32.906 31.5767 31.5602 32.7304 29.8335C33.8842 28.1068 34.5 26.0767 34.5 24H42Z" fill="#FAC623"/>
<path d="M24 34.5V42C14.0588 42 6 33.9412 6 24H13.5C13.4999 25.3789 13.7715 26.7443 14.2991 28.0182C14.8268 29.2922 15.6002 30.4497 16.5752 31.4248C17.5503 32.3998 18.7078 33.1732 19.9818 33.7009C21.2557 34.2285 22.6211 34.5001 24 34.5Z" fill="#EDA600"/>
<path d="M45.75 20.25H38.25C38.2501 18.8711 37.9785 17.5057 37.4509 16.2318C36.9232 14.9578 36.1498 13.8003 35.1748 12.8252C34.1997 11.8502 33.0422 11.0768 31.7682 10.5491C30.4943 10.0215 29.1289 9.74994 27.75 9.75V2.25C37.6912 2.25 45.75 10.3088 45.75 20.25Z" fill="#F6BB00"/>
<path d="M45.75 42.75H36C35.8377 42.75 35.6798 42.6974 35.55 42.6L31.5457 39.5968L32.4458 38.3969L36.2498 41.25H45.75V42.75ZM44.25 45H45.75V46.5H44.25V45ZM36.75 45H42.75V46.5H36.75V45ZM1.5 45H3V46.5H1.5V45ZM4.5 45H10.5V46.5H4.5V45Z" fill="#A2B8E0"/>
<path d="M24 27V17.25H27V27H24Z" fill="#517EF7"/>
<path d="M21 27V20.25H24V27H21Z" fill="#486BE0"/>
<path d="M18 27V22.5H21V27H18Z" fill="#3B57C4"/>
<path d="M27 27V15H30V27H27Z" fill="#548AFF"/>
<path d="M21.75 28.5H23.25V30H21.75V28.5ZM18.75 28.5H20.25V30H18.75V28.5ZM24.75 28.5H26.25V30H24.75V28.5ZM27.75 28.5H29.25V30H27.75V28.5Z" fill="#A2B8E0"/>
<path d="M42 24C42 33.9412 33.9412 42 24 42V34.5C25.3789 34.5001 26.7443 34.2285 28.0182 33.7009C29.2922 33.1732 30.4497 32.3998 31.4248 31.4248C32.3998 30.4497 33.1732 29.2922 33.7009 28.0182C34.2285 26.7443 34.5001 25.3789 34.5 24H42Z" fill="#DE9400"/>
</svg>
