<svg width="42" height="42" viewBox="0 0 42 42" fill="none" xmlns="http://www.w3.org/2000/svg">
<path d="M7.13753 21.9344C9.57809 21.9344 11.5566 19.9559 11.5566 17.5153C11.5566 15.0748 9.57809 13.0963 7.13753 13.0963C4.69697 13.0963 2.71851 15.0748 2.71851 17.5153C2.71851 19.9559 4.69697 21.9344 7.13753 21.9344Z" fill="#DFDFDF"/>
<path d="M20.8839 15.2482C22.6097 13.5225 22.6097 10.7245 20.8839 8.99875C19.1582 7.27302 16.3602 7.27302 14.6345 8.99875C12.9088 10.7245 12.9088 13.5225 14.6345 15.2482C16.3602 16.9739 19.1582 16.9739 20.8839 15.2482Z" fill="#DFDFDF"/>
<path d="M29.226 17.7893C31.6666 17.7893 33.6451 15.8108 33.6451 13.3703C33.6451 10.9297 31.6666 8.95123 29.226 8.95123C26.7855 8.95123 24.807 10.9297 24.807 13.3703C24.807 15.8108 26.7855 17.7893 29.226 17.7893Z" fill="#DFDFDF"/>
<path d="M38.2561 3.31488H33.4794C32.9134 3.31488 32.454 3.77426 32.454 4.34027C32.454 4.90629 32.9134 5.36566 33.4794 5.36566H35.7812L28.8487 12.2981L17.8738 11.1046C17.676 11.083 17.4762 11.1195 17.2987 11.2096L6.67403 16.6007C6.16872 16.8566 5.96774 17.4743 6.22368 17.9788C6.40415 18.3348 6.76509 18.5407 7.13915 18.5407C7.29501 18.5407 7.45333 18.5046 7.60263 18.4291L17.955 13.175L29.1161 14.3891C29.2686 14.4057 29.4229 14.3878 29.5676 14.3368C29.7122 14.2859 29.8436 14.2031 29.952 14.0946L37.2315 6.81515V9.11695C37.2315 9.68297 37.6909 10.1423 38.2569 10.1423C38.8229 10.1423 39.2823 9.68297 39.2823 9.11695V4.34027C39.2823 3.77426 38.8229 3.31488 38.2569 3.31488H38.2561Z" fill="#0068C0"/>
<path d="M7.13753 23.2911C4.70038 23.2911 2.71851 25.2738 2.71851 27.7101V34.8354C2.71851 37.2725 4.7012 39.2544 7.13753 39.2544C9.57386 39.2544 11.5566 37.2717 11.5566 34.8354V27.7101C11.5566 25.273 9.57386 23.2911 7.13753 23.2911ZM17.7622 18.4225C15.3251 18.4225 13.3432 20.4052 13.3432 22.8416V34.8354C13.3432 37.2725 15.3259 39.2544 17.7622 39.2544C20.1985 39.2544 22.1812 37.2717 22.1812 34.8354V22.8416C22.1812 20.4044 20.1985 18.4225 17.7622 18.4225ZM29.0825 19.9746H29.3688C31.7289 19.9746 33.6451 21.8908 33.6451 24.2509V34.9797C33.6451 37.3398 31.7289 39.256 29.3688 39.256H29.0825C26.7225 39.256 24.8062 37.3398 24.8062 34.9797V24.2509C24.8062 21.8908 26.7225 19.9746 29.0825 19.9746Z" fill="#0068C0"/>
</svg>
