<?xml version="1.0" encoding="utf-8"?>
<!-- Generator: Adobe Illustrator 27.0.1, SVG Export Plug-In . SVG Version: 6.00 Build 0)  -->
<svg version="1.1"
	 id="svg2" xmlns:svg="http://www.w3.org/2000/svg" xmlns:cc="http://creativecommons.org/ns#" xmlns:dc="http://purl.org/dc/elements/1.1/" xmlns:rdf="http://www.w3.org/1999/02/22-rdf-syntax-ns#" xmlns:inkscape="http://www.inkscape.org/namespaces/inkscape" xmlns:sodipodi="http://sodipodi.sourceforge.net/DTD/sodipodi-0.dtd"
	 xmlns="http://www.w3.org/2000/svg" xmlns:xlink="http://www.w3.org/1999/xlink" x="0px" y="0px" viewBox="0 0 834.7 362.7"
	 style="enable-background:new 0 0 834.7 362.7;" xml:space="preserve">
<style type="text/css">
	.st0{fill:url(#path88_00000105415322921137743420000009504319187184817849_);}
</style>
<sodipodi:namedview  bordercolor="#666666" borderopacity="1" gridtolerance="10" guidetolerance="10" id="namedview4" inkscape:pageopacity="0" inkscape:pageshadow="2" inkscape:window-height="480" inkscape:window-width="640" objecttolerance="10" pagecolor="#ffffff">
	</sodipodi:namedview>
<g id="g10" transform="matrix(1.3333333,0,0,-1.3333333,0,362.66667)" inkscape:groupmode="layer" inkscape:label="QualtricsXM_RBG">
	<g id="g62">
		<g id="g64">
			<g id="g70">
				<g id="g72">
					
						<linearGradient id="path88_00000183238910642743944360000005939951918127985582_" gradientUnits="userSpaceOnUse" x1="176.6839" y1="100.3816" x2="182.4739" y2="100.3816" gradientTransform="matrix(92.6234 -66.983 -66.983 -92.6234 -9519.1455 21399.3164)">
						<stop  offset="0" style="stop-color:#21DBAA"/>
						<stop  offset="0.2538" style="stop-color:#00B4EF"/>
						<stop  offset="0.3091" style="stop-color:#00B4EF"/>
						<stop  offset="0.3765" style="stop-color:#00B4EF"/>
						<stop  offset="0.6459" style="stop-color:#0768DD"/>
						<stop  offset="1" style="stop-color:#5F1AE5"/>
					</linearGradient>
					<path id="path88" style="fill:url(#path88_00000183238910642743944360000005939951918127985582_);" d="M469.6,269.3L414.2,73.2
						h-0.7L354,269.3h-69.5h-6.4H224l-45-80l-47.7,80H64.5l77.8-125.8L56.9,2.7h63.3l54.4,92.8L231,2.7h48h16.7h35.6v183.9h0.7
						c1.4-7.7,2.7-14.3,3.9-19.8l0,0c1.2-5.5,2.4-10.6,3.6-15.2l0,0c1.2-4.7,2.4-9.1,3.8-13.3l0,0c1.3-4.2,2.7-8.8,4.1-13.8l0,0
						L386.8,2.7h53l38.9,121.7c2.9,9.8,5.5,19.2,8,28.3l0,0c2.5,9.1,4.6,19.4,6.4,30.8l0,0h0.7V2.7H549v266.7L469.6,269.3z
						 M206.9,143.7l69.2,114.9V31L206.9,143.7z"/>
				</g>
			</g>
		</g>
	</g>
</g>
</svg>
