<?xml version="1.0" encoding="utf-8"?>
<!-- Generator: Adobe Illustrator 27.0.1, SVG Export Plug-In . SVG Version: 6.00 Build 0)  -->
<svg version="1.1" id="Layer_1" xmlns="http://www.w3.org/2000/svg" xmlns:xlink="http://www.w3.org/1999/xlink" x="0px" y="0px"
	 width="150px" height="100px" viewBox="0 0 150 100" style="enable-background:new 0 0 150 100;" xml:space="preserve">
<style type="text/css">
	.st0{fill:#00A1E0;}
	.st1{fill:#FFFFFF;}
</style>
<path class="st0" d="M66.6,23.4c3.1-3.3,7.3-5.3,12.1-5.3c6.3,0,11.8,3.6,14.7,8.9c2.5-1.1,5.3-1.8,8.3-1.8
	c11.4,0,20.5,9.5,20.5,21.2s-9.2,21.1-20.5,21.1c-1.4,0-2.8-0.1-4-0.4c-2.6,4.7-7.5,7.9-13.1,7.9c-2.4,0-4.6-0.6-6.6-1.6
	c-2.6,6.2-8.7,10.7-15.7,10.7c-7.3,0-13.7-4.7-16.1-11.5c-1,0.2-2.1,0.4-3.3,0.4c-8.8,0-15.9-7.4-15.9-16.4c0-6,3.2-11.4,8-14.2
	c-1-2.3-1.5-4.8-1.5-7.5C33.4,24.4,41.7,16,51.9,16C57.7,16,63.1,18.8,66.6,23.4"/>
<path class="st1" d="M40.8,51.4l0.4-1.1c0.1-0.2,0.2-0.1,0.3-0.1l0.3,0.2c1.1,0.8,2.2,0.8,2.5,0.8c0.8,0,1.4-0.4,1.4-1.1V50
	c0-0.7-0.8-0.9-1.7-1.2l-0.3-0.1c-1.2-0.4-2.7-0.9-2.7-2.6v-0.1c0-1.6,1.2-2.7,3.1-2.7h0.2c1,0,2.1,0.3,2.8,0.8
	c0.1,0.1,0.1,0.1,0.1,0.2l-0.4,1.1c-0.1,0.2-0.3,0.1-0.3,0.1c-0.7-0.4-1.7-0.6-2.5-0.6c-0.8,0-1.2,0.4-1.2,1V46
	c0,0.6,0.8,0.9,1.8,1.2l0.2,0.1c1.2,0.4,2.6,1,2.6,2.6v0.1c0,1.7-1.2,2.8-3.1,2.8c-1,0-1.9-0.1-2.8-0.7c-0.2-0.1-0.3-0.2-0.6-0.4
	C40.8,51.5,40.7,51.5,40.8,51.4L40.8,51.4z M69.3,51.4l0.4-1.1c0.1-0.2,0.2-0.1,0.3-0.1l0.3,0.2c1.1,0.8,2.2,0.8,2.5,0.8
	c0.8,0,1.4-0.4,1.4-1.1V50c0-0.7-0.8-0.9-1.7-1.2l-0.2-0.1c-1.2-0.4-2.7-0.9-2.7-2.6v-0.1c0-1.6,1.2-2.7,3.1-2.7h0.1
	c1,0,2.1,0.3,2.8,0.8c0.1,0.1,0.1,0.1,0.1,0.2l-0.4,1.1c-0.1,0.2-0.3,0.1-0.3,0.1c-0.7-0.4-1.7-0.6-2.5-0.6c-0.8,0-1.2,0.4-1.2,1V46
	c0,0.6,0.8,0.9,1.8,1.2l0.2,0.1c1.2,0.4,2.6,1,2.6,2.6v0.1c0,1.7-1.2,2.8-3.1,2.8c-1,0-1.9-0.1-2.8-0.7c-0.2-0.1-0.3-0.2-0.6-0.4
	C69.4,51.5,69.3,51.5,69.3,51.4L69.3,51.4z M90.6,46.2c0.1,0.6,0.3,1.1,0.3,1.8s-0.1,1.2-0.3,1.8c-0.1,0.6-0.4,1.1-0.8,1.4
	c-0.3,0.4-0.8,0.8-1.2,1c-0.5,0.2-1.1,0.4-1.7,0.4c-0.7,0-1.2-0.1-1.7-0.4c-0.5-0.2-0.9-0.6-1.2-1c-0.3-0.4-0.6-0.9-0.8-1.4
	c-0.1-0.6-0.3-1.1-0.3-1.8s0.1-1.2,0.3-1.8c0.1-0.6,0.4-1.1,0.8-1.4c0.3-0.4,0.8-0.8,1.2-1c0.6-0.2,1.2-0.4,1.7-0.4
	c0.7,0,1.2,0.1,1.7,0.4c0.5,0.2,0.9,0.6,1.2,1C90.1,45.2,90.4,45.7,90.6,46.2z M88.9,48c0-1-0.2-1.7-0.5-2.3
	c-0.3-0.5-0.9-0.8-1.6-0.8c-0.8,0-1.2,0.3-1.6,0.8c-0.3,0.5-0.5,1.3-0.5,2.3s0.2,1.7,0.5,2.3c0.3,0.5,0.8,0.8,1.6,0.8
	s1.2-0.3,1.6-0.8C88.8,49.7,88.9,49,88.9,48z M103.9,50.8l0.4,1.1c0.1,0.1-0.1,0.2-0.1,0.2c-0.6,0.3-1.5,0.4-2.3,0.4
	c-1.4,0-2.5-0.4-3.2-1.2c-0.8-0.9-1.1-1.9-1.1-3.3c0-0.6,0.1-1.2,0.3-1.8c0.2-0.6,0.4-1.1,0.8-1.4c0.3-0.4,0.8-0.8,1.3-1
	c0.6-0.3,1.2-0.4,1.8-0.4c0.4,0,0.8,0,1.2,0.1s0.9,0.2,1.1,0.3c0.1,0,0.1,0.1,0.1,0.2l-0.4,1.1c-0.1,0.2-0.2,0.1-0.2,0.1
	c-0.6-0.2-1-0.3-1.7-0.3c-0.8,0-1.4,0.3-1.8,0.9c-0.4,0.5-0.6,1.2-0.6,2.2c0,1.1,0.3,1.8,0.7,2.3c0.4,0.5,1,0.7,1.9,0.7
	c0.3,0,0.6-0.1,0.9-0.1c0.3-0.1,0.5-0.1,0.8-0.2C103.7,50.7,103.9,50.7,103.9,50.8L103.9,50.8z M112.3,45.9c0.3,1.3,0.2,2.3,0.1,2.4
	c0,0.1-0.1,0.1-0.1,0.1h-5.5c0.1,0.9,0.2,1.4,0.7,1.8c0.4,0.4,1,0.7,1.9,0.7c1.3,0,1.9-0.3,2.3-0.4c0,0,0.1-0.1,0.2,0.1l0.3,1.1
	c0.1,0.2,0,0.2-0.1,0.3c-0.3,0.2-1.2,0.6-2.8,0.6c-0.8,0-1.5-0.1-2-0.4c-0.6-0.2-1-0.5-1.4-0.9s-0.6-0.9-0.8-1.4
	c-0.2-0.6-0.3-1.1-0.3-1.8s0.1-1.2,0.3-1.8c0.1-0.6,0.4-1.1,0.8-1.4c0.3-0.4,0.8-0.8,1.2-1c0.5-0.3,1.1-0.4,1.8-0.4
	c0.6,0,1.1,0.1,1.6,0.4c0.3,0.1,0.7,0.4,1,0.9C111.8,44.9,112.1,45.4,112.3,45.9L112.3,45.9z M106.8,47.1h4c-0.1-0.5-0.1-1-0.3-1.3
	c-0.3-0.5-0.8-0.9-1.5-0.9c-0.7,0-1.2,0.3-1.6,0.9C107,46.1,106.9,46.6,106.8,47.1L106.8,47.1z M68,45.9c0.3,1.3,0.2,2.3,0.2,2.4
	c0,0.1-0.1,0.1-0.1,0.1h-5.5c0.1,0.9,0.2,1.4,0.7,1.8c0.4,0.4,1,0.7,1.9,0.7c1.3,0,1.9-0.3,2.3-0.4c0,0,0.1-0.1,0.2,0.1l0.3,1.1
	c0.1,0.2,0,0.2-0.1,0.3c-0.3,0.2-1.2,0.6-2.8,0.6c-0.8,0-1.5-0.1-2-0.4c-0.6-0.2-1-0.5-1.4-0.9c-0.3-0.4-0.6-0.9-0.8-1.4
	c-0.2-0.6-0.3-1.1-0.3-1.8s0.1-1.2,0.3-1.8c0.1-0.6,0.4-1.1,0.8-1.4c0.3-0.4,0.8-0.8,1.2-1c0.5-0.3,1.1-0.4,1.8-0.4
	c0.6,0,1.1,0.1,1.6,0.4c0.3,0.1,0.7,0.4,1,0.9C67.5,44.9,68,45.4,68,45.9L68,45.9z M62.6,47.1h4c-0.1-0.5-0.1-1-0.3-1.3
	c-0.3-0.5-0.8-0.9-1.5-0.9c-0.8,0-1.2,0.3-1.6,0.9C62.8,46.1,62.7,46.6,62.6,47.1z M52.8,46.8l0.9,0.1v-0.2c0-0.8-0.1-1.1-0.4-1.3
	c-0.3-0.2-0.8-0.4-1.4-0.4c0,0-1.4,0-2.4,0.6c-0.1,0.1-0.1,0.1-0.1,0.1s-0.1,0.1-0.2-0.1l-0.4-1.1c-0.1-0.1,0.1-0.2,0.1-0.2
	c0.5-0.4,1.7-0.6,1.7-0.6c0.4-0.1,1-0.1,1.5-0.1c1.1,0,1.9,0.3,2.5,0.8s0.9,1.3,0.9,2.5v5.2c0,0,0,0.1-0.1,0.2c0,0-0.2,0.1-0.4,0.1
	l-1.4,0.3c-0.6,0.1-1.1,0.1-1.7,0.1s-1-0.1-1.5-0.1c-0.4-0.1-0.8-0.3-1.1-0.5s-0.6-0.5-0.8-0.9c-0.2-0.4-0.3-0.8-0.3-1.3
	s0.1-0.9,0.3-1.3c0.2-0.4,0.5-0.7,0.8-0.9c0.3-0.3,0.8-0.4,1.1-0.6c0.4-0.1,0.9-0.2,1.4-0.2L52.8,46.8L52.8,46.8z M50.6,50.7
	c0,0,0.5,0.4,1.6,0.4c0.8-0.1,1.5-0.2,1.5-0.2v-2.6c0,0-0.7-0.1-1.5-0.1c-1.1,0-1.6,0.4-1.6,0.4c-0.3,0.2-0.5,0.6-0.5,1.1
	c0,0.3,0.1,0.5,0.2,0.8C50.3,50.5,50.4,50.6,50.6,50.7z M97.4,43.9c-0.1,0.1-0.3,0.9-0.4,1.2c-0.1,0.1-0.1,0.1-0.2,0.1
	c0,0-0.3-0.1-0.6-0.1s-0.5,0.1-0.8,0.1c-0.3,0.1-0.5,0.2-0.7,0.4s-0.3,0.5-0.5,0.9C94,47,94,47.5,94,48.1v4.2c0,0.1-0.1,0.2-0.2,0.2
	h-1.5c-0.1,0-0.2-0.1-0.2-0.2v-8.5c0-0.1,0.1-0.2,0.1-0.2h1.4c0.1,0,0.1,0.1,0.1,0.2v0.7c0.2-0.3,0.6-0.6,0.9-0.7s0.8-0.3,1.4-0.2
	c0.3,0.1,0.8,0.1,0.9,0.1C97.3,43.7,97.4,43.8,97.4,43.9L97.4,43.9z M83.8,40c0.1,0,0.1,0.1,0.1,0.2l-0.4,1.2
	c-0.1,0.1-0.1,0.1-0.3,0.1c-0.1,0-0.1-0.1-0.3-0.1c-0.1-0.1-0.3-0.1-0.4-0.1c-0.2,0-0.4,0.1-0.6,0.1c-0.1,0-0.3,0.1-0.5,0.3
	c-0.1,0.1-0.3,0.4-0.4,0.6c-0.2,0.6-0.3,1.2-0.3,1.3h1.7c0.1,0,0.2,0.1,0.2,0.2l-0.2,1.1c-0.1,0.2-0.2,0.1-0.2,0.1h-1.8l-1.2,7.2
	c-0.1,0.8-0.3,1.4-0.5,1.9c-0.2,0.5-0.4,0.9-0.8,1.3c-0.3,0.4-0.6,0.6-1,0.7c-0.3,0.1-0.8,0.2-1.4,0.2c-0.3,0-0.5,0-0.8-0.1
	c-0.2,0-0.3-0.1-0.5-0.1c-0.1,0-0.1-0.1-0.1-0.2l0.4-1.1c0.1-0.1,0.2-0.1,0.2-0.1l0.3,0.1c0.1,0.1,0.3,0.1,0.4,0.1
	c0.3,0,0.5-0.1,0.7-0.1c0.2-0.1,0.3-0.2,0.5-0.4c0.1-0.2,0.3-0.4,0.4-0.8c0.1-0.4,0.3-0.9,0.3-1.4l1.2-7.1h-1.2
	c-0.1,0-0.2-0.1-0.2-0.2l0.2-1.1c0.1-0.2,0.2-0.1,0.2-0.1H79l0.1-0.4c0.2-1.1,0.6-2,1.1-2.6c0.6-0.6,1.4-0.9,2.4-0.9
	c0.3,0,0.6,0.1,0.8,0.1C83.4,39.9,83.6,40,83.8,40L83.8,40z M59.1,52.2c0,0.1-0.1,0.2-0.1,0.2h-1.5c-0.1,0-0.1-0.1-0.1-0.2V40.1
	c0-0.1,0.1-0.2,0.1-0.2h1.5c0.1,0,0.1,0.1,0.1,0.2V52.2z"/>
</svg>
