<?xml version="1.0" encoding="utf-8"?>
<!-- Generator: Adobe Illustrator 27.0.1, SVG Export Plug-In . SVG Version: 6.00 Build 0)  -->
<svg version="1.1" id="Layer_1" xmlns="http://www.w3.org/2000/svg" xmlns:xlink="http://www.w3.org/1999/xlink" x="0px" y="0px"
	 viewBox="0 0 84 61" style="enable-background:new 0 0 84 61;" xml:space="preserve">
<style type="text/css">
	.st0{fill:#8DB849;}
	.st1{fill:#5A863E;}
	.st2{fill:#FFFFFE;}
</style>
<path class="st0" d="M41.4,2.5c0.4,0,0.6,0.2,1.1,0.4C39.9,4,37.3,6.8,36,12.9l-4.7,1.3C32.8,9.8,35.8,2.5,41.4,2.5z M43.7,4.7
	c0.4,1.3,0.9,2.8,0.9,5.2c0,0.2,0,0.2,0,0.4L38.4,12C39.7,7.5,41.8,5.6,43.7,4.7z M49.3,8.6l-2.8,0.9c0-0.2,0-0.4,0-0.6
	c0-1.9-0.2-3.4-0.6-4.7C47.4,4.5,48.7,6.4,49.3,8.6z M63.3,12c0-0.2-0.2-0.4-0.4-0.4c-0.4,0-4.9-0.4-4.9-0.4s-3.2-3.2-3.6-3.4
	c-0.4-0.4-1.1-0.2-1.3-0.2c0,0-0.6,0.2-1.7,0.6c-1.1-3-3-5.8-6.2-5.8h-0.2C44,1,42.7,0.6,41.6,0.6C33.9,0.4,30.2,10.1,28.9,15
	c-1.7,0.4-3.4,1.1-5.4,1.7c-1.7,0.4-1.7,0.6-1.9,2.1c-0.2,1.1-4.5,35-4.5,35l34.1,6.4l18.5-4.1C69.7,56.2,63.3,12.4,63.3,12z"/>
<path class="st1" d="M62.6,11.6c-0.2,0-4.7-0.4-4.7-0.4s-3.2-3.2-3.6-3.4c-0.2-0.2-0.2-0.2-0.4-0.2l-2.6,52.8l18.5-4.1
	c0,0-6.4-43.8-6.4-44.2C63.3,11.8,62.9,11.6,62.6,11.6"/>
<path class="st2" d="M45,21.9l-2.4,6.9c0,0-1.9-1.1-4.5-1.1c-3.6,0-3.9,2.1-3.9,2.8c0,3,8.2,4.3,8.2,11.6c0,5.8-3.6,9.4-8.6,9.4
	c-5.8,0-8.8-3.6-8.8-3.6l1.5-5.2c0,0,3,2.6,5.6,2.6c1.7,0,2.4-1.3,2.4-2.4c0-4.1-6.7-4.3-6.7-10.9c0-5.6,4.1-10.9,12-10.9
	C43.5,20.8,45,21.9,45,21.9"/>
</svg>
