<?xml version="1.0" encoding="utf-8"?>
<!-- Generator: Adobe Illustrator 27.0.1, SVG Export Plug-In . SVG Version: 6.00 Build 0)  -->
<svg version="1.1" id="Layer_1" xmlns="http://www.w3.org/2000/svg" xmlns:xlink="http://www.w3.org/1999/xlink" x="0px" y="0px"
	 width="50px" height="50px" viewBox="0 0 50 50" style="enable-background:new 0 0 50 50;" xml:space="preserve">
<style type="text/css">
	.st0{fill:#FFFFFF;}
</style>
<path d="M39.7,3H10.9c-4,0-7.2,3.2-7.2,7.2v28.7c0,4,3.2,7.2,7.2,7.2h28.7c4,0,7.2-3.2,7.2-7.2V10.2C46.9,6.2,43.6,3,39.7,3z"/>
<path class="st0" d="M39,36c0,1.3-1,2.3-2.3,2.3H13.9c-1.3,0-2.3-1-2.3-2.3V13.1c0-1.3,1-2.3,2.3-2.3h22.9c1.3,0,2.3,1,2.3,2.3V36z"
	/>
<path d="M20.7,30.4c-0.7,0-1.3-0.6-1.3-1.3V20c0-0.7,0.6-1.3,1.3-1.3h9.2c0.7,0,1.3,0.6,1.3,1.3v9.1c0,0.7-0.6,1.3-1.3,1.3
	L20.7,30.4L20.7,30.4z"/>
</svg>
