<svg width="17" height="17" viewBox="0 0 17 17" fill="none" xmlns="http://www.w3.org/2000/svg">
<circle cx="8.45366" cy="8.78102" r="7.2188" stroke="#FF5959" stroke-width="2"/>
<path d="M7.98315 12.6135V7.49008H9.19062V12.6135H7.98315ZM8.59022 6.76293C8.39898 6.76293 8.23443 6.69956 8.09656 6.57281C7.95869 6.44383 7.88975 6.28928 7.88975 6.10916C7.88975 5.92682 7.95869 5.77227 8.09656 5.64552C8.23443 5.51655 8.39898 5.45206 8.59022 5.45206C8.78368 5.45206 8.94823 5.51655 9.08388 5.64552C9.22175 5.77227 9.29068 5.92682 9.29068 6.10916C9.29068 6.28928 9.22175 6.44383 9.08388 6.57281C8.94823 6.69956 8.78368 6.76293 8.59022 6.76293Z" fill="#FF5959"/>
</svg>
