<svg width="38" height="38" viewBox="0 0 38 38" fill="none" xmlns="http://www.w3.org/2000/svg">
<path d="M24.0518 18.8086C23.3369 18.3955 22.4736 18.0039 21.4648 17.6318V12.8047C21.4873 12.8232 21.5117 12.8398 21.5332 12.8594C22.0762 13.3477 22.3477 14.0352 22.3477 14.9219H27.5791C27.5791 13.5967 27.2354 12.418 26.5479 11.3867C25.8604 10.3555 24.8965 9.56055 23.6553 9.00293C22.9736 8.69629 22.2432 8.47461 21.4648 8.33691V5.57129H19.6279V8.16797C19.5684 8.16797 19.5078 8.16602 19.4482 8.16602C19.2568 8.16602 19.0684 8.16992 18.8818 8.17676V5.57031H17.0449V8.37988C16.3652 8.50781 15.7217 8.69238 15.1133 8.93555C13.8281 9.44922 12.834 10.166 12.1309 11.0879C11.4287 12.0098 11.0771 13.0732 11.0771 14.2793C11.0771 16.7012 12.4873 18.6045 15.3076 19.9893C15.8047 20.2354 16.3838 20.4854 17.0449 20.7412V26.0791C16.874 25.9834 16.7197 25.875 16.5859 25.752C15.9834 25.1992 15.6816 24.3398 15.6816 23.1738H10.4199C10.4199 24.6084 10.7813 25.877 11.5039 26.9775C12.2266 28.0791 13.3027 28.9453 14.7324 29.5781C15.46 29.9004 16.2305 30.1397 17.0449 30.2979V33.1221H18.8818V30.5127C19.0928 30.5225 19.3066 30.5273 19.5234 30.5273C19.5586 30.5273 19.5938 30.5264 19.6289 30.5264V33.123H21.4658V30.4033C23.0664 30.1865 24.3877 29.6865 25.4277 28.8994C26.8623 27.8135 27.5801 26.3184 27.5801 24.415C27.5801 22.0332 26.4043 20.165 24.0527 18.8096L24.0518 18.8086ZM19.3281 12.127C19.4307 12.127 19.5303 12.1309 19.6279 12.1367V17.0049C19.3613 16.9111 19.1123 16.8174 18.8809 16.7236V12.1455C19.0254 12.1338 19.1729 12.126 19.3281 12.126V12.127ZM16.2939 14.3242C16.2939 13.7129 16.5449 13.2041 17.0439 12.7988V15.7236C16.5439 15.3008 16.2939 14.835 16.2939 14.3242ZM19.5225 26.5811C19.2979 26.5811 19.085 26.5723 18.8809 26.5576V21.3965C19.1465 21.4883 19.3955 21.5801 19.6279 21.6709V26.5781C19.5928 26.5781 19.5586 26.5811 19.5225 26.5811ZM21.5781 26.0205C21.542 26.0469 21.5029 26.0713 21.4648 26.0957V22.6094C21.4824 22.623 21.501 22.6367 21.5186 22.6494C22.0615 23.0781 22.333 23.6758 22.333 24.4434C22.333 25.1211 22.0811 25.6465 21.5781 26.0205Z" fill="#60647B"/>
<path d="M36.75 19C36.75 28.8031 28.8031 36.75 19 36.75C9.19695 36.75 1.25 28.8031 1.25 19C1.25 9.19695 9.19695 1.25 19 1.25C28.8031 1.25 36.75 9.19695 36.75 19Z" stroke="#60647B" stroke-width="2"/>
</svg>
