<svg width="21" height="22" viewBox="0 0 21 22" fill="none" xmlns="http://www.w3.org/2000/svg">
<path d="M18.0439 3.84472C12.1973 -2.38954 1.83887 1.33097 0.829895 10.0258C0.555752 12.2743 0.974345 14.5559 2.02439 16.5365C2.08782 16.6487 2.12801 16.7737 2.14234 16.9033C2.15667 17.0329 2.14482 17.1643 2.10757 17.2887L0.768416 21.5017C0.747941 21.5688 0.745468 21.6406 0.761268 21.7091C0.777067 21.7775 0.810529 21.8401 0.85798 21.8899C0.905432 21.9398 0.965039 21.9749 1.03026 21.9915C1.09548 22.0081 1.16379 22.0055 1.2277 21.984L5.24008 20.5786C5.35865 20.5396 5.48371 20.5273 5.60713 20.5423C5.73055 20.5574 5.84958 20.5995 5.95649 20.666C7.84335 21.7673 10.0161 22.2065 12.1575 21.9194C20.3023 20.5319 24.0533 10.153 18.0439 3.84472ZM15.222 11.7467H11.2422V15.9252C11.2422 16.0259 11.2041 16.1225 11.1363 16.1937C11.0685 16.2649 10.9765 16.3049 10.8806 16.3049C10.7847 16.3049 10.6927 16.2649 10.6248 16.1937C10.557 16.1225 10.5189 16.0259 10.5189 15.9252V11.746H6.53873C6.44281 11.746 6.35083 11.7059 6.28301 11.6347C6.21519 11.5635 6.17709 11.4669 6.17709 11.3662C6.17709 11.2655 6.21519 11.1689 6.28301 11.0977C6.35083 11.0265 6.44281 10.9865 6.53873 10.9865H10.5182V6.80768C10.5182 6.70692 10.5563 6.61029 10.6242 6.53904C10.692 6.4678 10.7841 6.42777 10.88 6.42777C10.976 6.42777 11.068 6.4678 11.1359 6.53904C11.2037 6.61029 11.2418 6.70692 11.2418 6.80768V10.9865H15.2217C15.3176 10.9865 15.4097 11.0265 15.4775 11.0978C15.5454 11.169 15.5835 11.2657 15.5835 11.3664C15.5835 11.4672 15.5454 11.5638 15.4775 11.6351C15.4097 11.7063 15.3176 11.7463 15.2217 11.7463L15.222 11.7467Z" fill="#6E6E6E"/>
<path d="M11.2783 7.22635V15.8671" stroke="white" stroke-width="2" stroke-linecap="round"/>
<path d="M15.5987 11.5442H6.95801" stroke="white" stroke-width="2" stroke-linecap="round"/>
</svg>
