<?xml version="1.0" encoding="utf-8"?>
<!-- Generator: Adobe Illustrator 27.0.1, SVG Export Plug-In . SVG Version: 6.00 Build 0)  -->
<svg version="1.1" id="Layer_1" xmlns="http://www.w3.org/2000/svg" xmlns:xlink="http://www.w3.org/1999/xlink" x="0px" y="0px"
	 width="56px" height="62px" viewBox="0 0 56 62" style="enable-background:new 0 0 56 62;" xml:space="preserve">
<style type="text/css">
	.st0{fill:#D9D9D9;}
	.st1{fill:none;stroke:#60647B;stroke-width:2;}
	.st2{fill:#6644F1;}
	.st3{fill:none;stroke:#60647B;}
</style>
<g>
	<path class="st0" d="M20.2,14.7c0,0-3.4,0.1-6,2.4c-2.2,2-2.5,4.3-2.6,4.9c-0.3,2.9,1,5.5,3.5,7.2c0.9,0.6,1.8,1,2.3,1.2
		c-0.2-0.7-0.5-1.6-0.7-2.8c-0.3-1.6-0.5-3.8-0.1-5.7C17.5,18.4,19.2,15.9,20.2,14.7L20.2,14.7z"/>
	<path class="st0" d="M15.3,36.4c-1.2,0.1-4.6,0.6-7.6,3.1C3.5,43.1,3.1,48.8,3,49.7c1.8,0,3.8,0,5.6,0c-0.1-1.1-0.4-5.4,2.2-9.1
		C12.3,38.5,14.3,36.9,15.3,36.4z"/>
	<path class="st1" d="M29.5,22.2c0,5-4.1,9-9.2,9c-5.1,0-9.2-4-9.2-9c0-5,4.1-9,9.2-9S29.5,17.3,29.5,22.2z M20.3,34.4
		c2.2,0,4.4,0.4,6.4,1.1c-1.4,2.3-2.1,5-2.1,7.8c0,2.4,0.6,4.7,1.6,6.8l-24.8,0C3,41.2,10.9,34.4,20.3,34.4z M1.4,50.6L1,50.5
		l0.3-0.3c0,0,0.1,0.1,0.1,0.1C1.4,50.5,1.4,50.5,1.4,50.6z"/>
	<g>
		<polygon class="st2" points="42.6,13.9 44.3,16.9 46,13.9 		"/>
		<polygon class="st2" points="47.8,13.9 49.6,16.9 51.2,13.9 		"/>
		<polygon class="st2" points="45.6,18 46.9,15.7 48.2,18 		"/>
		<polygon class="st2" points="50.8,18 52.5,15 54.2,18 		"/>
		<polygon class="st2" points="39.4,18 41.2,15 42.8,18 		"/>
		<polygon class="st2" points="43.2,19.5 45.3,26.2 39.9,19.5 		"/>
		<polygon class="st2" points="50.6,19.5 48.5,26.2 53.9,19.5 		"/>
		<polygon class="st2" points="45.3,19.8 46.9,25.2 48.5,19.8 		"/>
		<path class="st2" d="M46.9,12.4L46.9,12.4c-0.4,0-0.8-0.4-0.8-0.8V7.9c0-0.4,0.4-0.8,0.8-0.8l0,0c0.4,0,0.8,0.4,0.8,0.8v3.8
			C47.7,12.1,47.3,12.4,46.9,12.4z"/>
		<path class="st2" d="M51.1,12.9L51.1,12.9c-0.3-0.3-0.4-0.8-0.1-1.1L53.6,9c0.3-0.3,0.8-0.4,1.1-0.1l0,0c0.3,0.3,0.4,0.8,0.1,1.1
			l-2.5,2.8C52,13.2,51.5,13.2,51.1,12.9z"/>
		<path class="st2" d="M42.9,12.9L42.9,12.9c0.3-0.3,0.4-0.8,0.1-1.1L40.5,9c-0.3-0.3-0.8-0.4-1.1-0.1l0,0C39,9.2,39,9.7,39.3,10
			l2.5,2.8C42.1,13.2,42.6,13.2,42.9,12.9z"/>
	</g>
	<path class="st1" d="M50.8,47.5c-1.7,4.3-6,7.4-10.9,7.4h0c-6.5,0-11.8-5.3-11.8-11.8v0c0-6.5,5.3-11.8,11.8-11.8h0
		c4.7,0,8.8,2.8,10.7,6.8"/>
	<polyline class="st3" points="39,35.2 39,43.1 46.7,43.1 	"/>
	<path class="st1" d="M49.4,38.7h2.8c0.6,0,1,0.7,0.7,1.2L51.5,42c-0.3,0.5-1,0.5-1.3,0l-1.4-2.2C48.5,39.4,48.8,38.7,49.4,38.7z"/>
</g>
</svg>
