<svg width="24" height="24" viewBox="0 0 24 24" fill="none" xmlns="http://www.w3.org/2000/svg">
<path d="M20.1299 3.86996C18.2343 1.97054 15.7341 0.793839 13.0623 0.543641C10.3905 0.293443 7.71527 0.985498 5.49995 2.49996H5.68495C5.8327 2.48228 5.98253 2.49779 6.12353 2.54536C6.26452 2.59294 6.39312 2.67138 6.49995 2.77496C6.94995 3.23496 6.76495 3.77496 6.69995 4.33996C8.49566 3.08655 10.6759 2.50664 12.857 2.70227C15.0382 2.8979 17.0804 3.85654 18.6244 5.4095C20.1684 6.96246 21.1152 9.01022 21.2982 11.1925C21.4812 13.3747 20.8887 15.5515 19.6249 17.34L18.9549 16.67C18.8549 17.54 18.6249 19.67 18.5699 20.17L22.0699 19.785L21.2099 18.925C22.8758 16.7072 23.6839 13.9621 23.4854 11.1955C23.287 8.42889 22.0953 5.82724 20.1299 3.86996ZM18.5849 21.13C18.4438 21.1308 18.3041 21.1018 18.175 21.0448C18.0459 20.9878 17.9304 20.9042 17.8359 20.7993C17.7415 20.6945 17.6703 20.5708 17.627 20.4365C17.5838 20.3022 17.5694 20.1602 17.5849 20.02L17.6549 19.39C15.8549 20.77 13.6128 21.445 11.3501 21.2881C9.08741 21.1313 6.9599 20.1534 5.36748 18.5383C3.77507 16.9231 2.82741 14.782 2.70264 12.5173C2.57788 10.2526 3.28459 8.02026 4.68995 6.23996L5.41495 6.96496C5.56495 5.64496 5.38995 7.21496 5.80495 3.46496L2.30495 3.85496L3.13495 4.67996C1.3463 6.8633 0.42303 9.62817 0.540929 12.4482C0.658828 15.2681 1.80966 17.9463 3.77431 19.9727C5.73897 21.9991 8.38023 23.2323 11.1952 23.4374C14.0102 23.6425 16.8023 22.8052 19.0399 21.085C18.8896 21.111 18.7375 21.126 18.5849 21.13Z" fill="#0355F9"/>
<path d="M14 9H16L14 7V9Z" fill="#0355F9"/>
<path d="M13 6.5H8.5C8.23478 6.5 7.98043 6.60536 7.79289 6.79289C7.60536 6.98043 7.5 7.23478 7.5 7.5V16.5C7.5 16.7652 7.60536 17.0196 7.79289 17.2071C7.98043 17.3946 8.23478 17.5 8.5 17.5H15.5C15.7652 17.5 16.0196 17.3946 16.2071 17.2071C16.3946 17.0196 16.5 16.7652 16.5 16.5C16.5 9.225 16.54 10 16.41 10H13.5C13.3674 10 13.2402 9.94732 13.1464 9.85355C13.0527 9.75979 13 9.63261 13 9.5V6.5ZM12.5 15.5H9.5C9.36739 15.5 9.24021 15.4473 9.14645 15.3536C9.05268 15.2598 9 15.1326 9 15C9 14.8674 9.05268 14.7402 9.14645 14.6464C9.24021 14.5527 9.36739 14.5 9.5 14.5H12.5C12.6326 14.5 12.7598 14.5527 12.8536 14.6464C12.9473 14.7402 13 14.8674 13 15C13 15.1326 12.9473 15.2598 12.8536 15.3536C12.7598 15.4473 12.6326 15.5 12.5 15.5ZM12.5 13.5H9.5C9.36739 13.5 9.24021 13.4473 9.14645 13.3536C9.05268 13.2598 9 13.1326 9 13C9 12.8674 9.05268 12.7402 9.14645 12.6464C9.24021 12.5527 9.36739 12.5 9.5 12.5H12.5C12.6326 12.5 12.7598 12.5527 12.8536 12.6464C12.9473 12.7402 13 12.8674 13 13C13 13.1326 12.9473 13.2598 12.8536 13.3536C12.7598 13.4473 12.6326 13.5 12.5 13.5ZM12.5 11.5H9.5C9.36739 11.5 9.24021 11.4473 9.14645 11.3536C9.05268 11.2598 9 11.1326 9 11C9 10.8674 9.05268 10.7402 9.14645 10.6464C9.24021 10.5527 9.36739 10.5 9.5 10.5H12.5C12.6326 10.5 12.7598 10.5527 12.8536 10.6464C12.9473 10.7402 13 10.8674 13 11C13 11.1326 12.9473 11.2598 12.8536 11.3536C12.7598 11.4473 12.6326 11.5 12.5 11.5Z" fill="#0355F9"/>
</svg>
