<svg width="26" height="26" viewBox="0 0 26 26" fill="none" xmlns="http://www.w3.org/2000/svg">
<circle cx="13" cy="13" r="13" fill="#0355F9"/>
<path d="M17.6064 11.3319C17.1354 10.9622 16.5816 10.7196 15.9958 10.6266H15.9984V8.96633C16.2122 8.86369 16.3932 8.70072 16.5204 8.49641C16.6476 8.2921 16.7157 8.05485 16.7167 7.81231V7.77351C16.7149 7.0679 16.1587 6.49634 15.4722 6.49445H15.4344C14.7479 6.49634 14.1917 7.0679 14.1899 7.77351V7.81231C14.191 8.05485 14.259 8.2921 14.3862 8.49641C14.5134 8.70072 14.6944 8.86369 14.9083 8.96633V10.6301C14.2935 10.7267 13.7145 10.9885 13.2299 11.389L8.78716 7.83301C8.98917 7.05574 8.53981 6.25732 7.78352 6.0497C7.02723 5.84208 6.25038 6.30389 6.04836 7.08116C5.84635 7.85844 6.29569 8.65685 7.052 8.86447C7.41361 8.96374 7.79874 8.91198 8.12335 8.72048L12.4914 12.2153C11.6862 13.4637 11.7078 15.0918 12.5459 16.3172L11.2166 17.6834C11.1099 17.6485 10.9988 17.6299 10.8868 17.6282C10.2495 17.6282 9.73293 18.1591 9.73293 18.8141C9.73293 19.469 10.2495 20 10.8868 20C11.5241 20 12.0407 19.469 12.0407 18.8141C12.0391 18.699 12.021 18.5848 11.987 18.4751L13.302 17.1236C14.8582 18.3452 17.0832 18.039 18.2719 16.4397C19.4605 14.8404 19.1626 12.5536 17.6064 11.3319ZM15.4554 16.0973L15.4512 16.0964C14.4464 16.094 13.6337 15.2549 13.636 14.2222C13.6384 13.1895 14.4548 12.3543 15.4596 12.3567C16.4631 12.3591 17.2752 13.1961 17.2748 14.2274C17.2748 15.2601 16.4602 16.0973 15.4554 16.0973Z" fill="white"/>
</svg>
