<svg width="18" height="18" viewBox="0 0 23 22" fill="none" xmlns="http://www.w3.org/2000/svg">
<path d="M22.0832 11.0926C21.938 13.8443 20.7228 16.4303 18.697 18.2983C16.6713 20.1663 13.9955 21.1683 11.241 21.0905C8.55643 20.9861 6.01001 19.8729 4.11029 17.9732C2.21057 16.0735 1.09736 13.527 0.99299 10.8425C0.915132 8.08798 1.91719 5.41221 3.7852 3.38645C5.65322 1.3607 8.23916 0.145485 10.9909 0.000278351C11.0626 -0.00203726 11.1341 0.0101142 11.2011 0.0360084C11.268 0.0619027 11.3291 0.10101 11.3806 0.150998C11.4321 0.200987 11.473 0.260835 11.5009 0.326973C11.5288 0.393112 11.543 0.464189 11.5429 0.535966V5.82577C11.5402 5.95806 11.4884 6.08462 11.3975 6.1808C11.3066 6.27698 11.1832 6.33592 11.0513 6.34612C10.2629 6.43808 9.51636 6.7503 8.89725 7.247C8.27814 7.74371 7.8115 8.4048 7.55081 9.1545C7.29012 9.9042 7.24594 10.7122 7.42332 11.4858C7.6007 12.2595 7.99246 12.9675 8.55372 13.5288C9.11497 14.09 9.823 14.4818 10.5967 14.6592C11.3703 14.8366 12.1783 14.7924 12.928 14.5317C13.6777 14.271 14.3388 13.8044 14.8355 13.1853C15.3322 12.5662 15.6444 11.8196 15.7364 11.0312C15.7466 10.8995 15.8054 10.7762 15.9014 10.6853C15.9973 10.5945 16.1237 10.5426 16.2558 10.5396H21.5465C21.6184 10.5393 21.6896 10.5535 21.7558 10.5814C21.8221 10.6092 21.882 10.6501 21.9321 10.7016C21.9822 10.7531 22.0214 10.8142 22.0474 10.8812C22.0733 10.9482 22.0855 11.0207 22.0832 11.0926Z" fill="#0051FA"/>
<path d="M13.4575 9.58325C13.288 9.58304 13.1215 9.53787 12.9752 9.45233C12.8288 9.3668 12.7077 9.24396 12.6243 9.09636C12.5409 8.94876 12.4982 8.78167 12.5005 8.61215C12.5027 8.44263 12.5499 8.27675 12.6372 8.13142L15.5121 3.33994C15.5973 3.1982 15.7177 3.0809 15.8616 2.99946C16.0055 2.91802 16.168 2.8752 16.3334 2.87517H21.1249C21.379 2.87517 21.6228 2.97613 21.8025 3.15584C21.9822 3.33556 22.0832 3.57931 22.0832 3.83346C22.0832 4.08762 21.9822 4.33137 21.8025 4.51108C21.6228 4.6908 21.379 4.79176 21.1249 4.79176H16.8758L14.2797 9.11847C14.1947 9.26028 14.0743 9.37763 13.9304 9.45908C13.7864 9.54053 13.6239 9.58331 13.4585 9.58325H13.4575ZM21.1249 1.91687H16.3334C16.0792 1.91687 15.8355 1.81591 15.6558 1.63619C15.476 1.45647 15.3751 1.21273 15.3751 0.958572C15.3751 0.704416 15.476 0.460669 15.6558 0.280953C15.8355 0.101238 16.0792 0.000274658 16.3334 0.000274658H21.1249C21.379 0.000274658 21.6228 0.101238 21.8025 0.280953C21.9822 0.460669 22.0832 0.704416 22.0832 0.958572C22.0832 1.21273 21.9822 1.45647 21.8025 1.63619C21.6228 1.81591 21.379 1.91687 21.1249 1.91687Z" fill="#0051FA"/>
<path d="M21.1249 7.66666H18.25C17.9959 7.66666 17.7521 7.56569 17.5724 7.38598C17.3927 7.20626 17.2917 6.96251 17.2917 6.70836C17.2917 6.4542 17.3927 6.21046 17.5724 6.03074C17.7521 5.85102 17.9959 5.75006 18.25 5.75006H21.1249C21.3791 5.75006 21.6228 5.85102 21.8026 6.03074C21.9823 6.21046 22.0832 6.4542 22.0832 6.70836C22.0832 6.96251 21.9823 7.20626 21.8026 7.38598C21.6228 7.56569 21.3791 7.66666 21.1249 7.66666Z" fill="#0051FA"/>
</svg>
