<svg width="23" height="24" viewBox="0 0 23 24" fill="none" xmlns="http://www.w3.org/2000/svg">
<path fill-rule="evenodd" clip-rule="evenodd" d="M11.7719 0.0703125H11.7482C11.7245 0.0703125 11.6983 0.0703125 11.6724 0.0752513C11.4878 0.0960006 11.3175 0.184867 11.195 0.324475C11.0724 0.464082 11.0063 0.64439 11.0096 0.830141V2.32831C11.0061 2.42733 11.0224 2.52606 11.0573 2.61876C11.0923 2.71147 11.1453 2.7963 11.2134 2.86834C11.2814 2.94038 11.3631 2.99819 11.4536 3.03842C11.5441 3.07865 11.6418 3.10049 11.7408 3.10268C11.8399 3.10487 11.9384 3.08737 12.0306 3.05118C12.1229 3.015 12.207 2.96085 12.2782 2.89189C12.3493 2.82293 12.406 2.74053 12.4451 2.64946C12.4841 2.55839 12.5047 2.46048 12.5056 2.3614V0.830141C12.5089 0.632141 12.4335 0.440921 12.2959 0.298462C12.1584 0.156003 11.9699 0.0739485 11.7719 0.0703125ZM5.96098 4.44902C5.95159 4.44211 5.94443 4.43494 5.93727 4.42778L4.87692 3.37212C4.80759 3.30009 4.72456 3.24267 4.6327 3.20323C4.54084 3.16379 4.44202 3.14313 4.34205 3.14247C4.31587 3.14247 4.28994 3.14247 4.26402 3.14741C4.16622 3.15769 4.07141 3.18717 3.98502 3.23414C3.89862 3.28112 3.82235 3.34468 3.76055 3.42118C3.69876 3.49767 3.65266 3.58561 3.6249 3.67995C3.59714 3.77428 3.58826 3.87317 3.59877 3.97095C3.61778 4.1438 3.69828 4.30481 3.82126 4.42778L4.87692 5.48814C4.94505 5.55931 5.02655 5.61634 5.11677 5.65596C5.20698 5.69557 5.30413 5.71699 5.40263 5.71899C5.50114 5.72099 5.59908 5.70352 5.69082 5.66759C5.78256 5.63166 5.86631 5.57798 5.93727 5.50962C6.00863 5.44164 6.06587 5.36023 6.1057 5.27007C6.14553 5.17992 6.16717 5.08278 6.16937 4.98424C6.17158 4.8857 6.1543 4.7877 6.11854 4.69585C6.08278 4.60401 6.02923 4.52012 5.96098 4.44902ZM19.7011 3.3699C19.6296 3.29729 19.544 3.24009 19.4495 3.20183C19.3551 3.16356 19.2538 3.14504 19.1519 3.14741C18.9582 3.15348 18.7742 3.23395 18.6383 3.37212L17.5779 4.42778C17.4347 4.56565 17.3519 4.75472 17.3479 4.95352C17.3439 5.15231 17.4189 5.34458 17.5564 5.48814C17.6244 5.5595 17.7058 5.61674 17.796 5.65657C17.8862 5.6964 17.9833 5.71804 18.0818 5.72024C18.1804 5.72244 18.2784 5.70517 18.3702 5.6694C18.4621 5.63364 18.5459 5.5801 18.617 5.51184C18.624 5.50468 18.6311 5.4953 18.6383 5.48814L19.6939 4.42778C19.7639 4.3588 19.8196 4.27671 19.8578 4.18621C19.896 4.0957 19.916 3.99856 19.9167 3.90032C19.9173 3.80209 19.8986 3.70468 19.8616 3.61367C19.8247 3.52266 19.7701 3.43983 19.7011 3.3699ZM2.81301 10.5607H1.27928C1.08373 10.5608 0.895984 10.6374 0.756213 10.7741C0.616442 10.9109 0.535758 11.0969 0.531433 11.2924C0.527108 11.4879 0.599486 11.6773 0.733072 11.8201C0.866659 11.9629 1.05084 12.0477 1.24619 12.0564H2.77745C2.87586 12.0589 2.97379 12.0419 3.06562 12.0064C3.15745 11.9709 3.24139 11.9177 3.31263 11.8498C3.38387 11.7818 3.44101 11.7005 3.48079 11.6105C3.52057 11.5204 3.5422 11.4234 3.54444 11.325C3.54842 11.1268 3.47368 10.935 3.3366 10.7917C3.19952 10.6484 3.01125 10.5655 2.81301 10.5607ZM22.2693 10.5607H20.7378C20.5422 10.5608 20.3545 10.6374 20.2147 10.7741C20.0749 10.9109 19.9942 11.0969 19.9899 11.2924C19.9856 11.4879 20.058 11.6773 20.1915 11.8201C20.3251 11.9629 20.5093 12.0477 20.7047 12.0564H22.2359C22.4343 12.0608 22.6263 11.9862 22.7697 11.849C22.913 11.7119 22.996 11.5234 23.0004 11.325C23.0044 11.1268 22.9297 10.935 22.7926 10.7917C22.6555 10.6484 22.4673 10.5653 22.269 10.5605L22.2693 10.5607ZM5.95851 17.1308C5.8863 17.0559 5.79936 16.9969 5.70318 16.9574C5.60699 16.9178 5.50365 16.8987 5.39969 16.9011H5.3903C5.19617 16.9076 5.0121 16.9891 4.87667 17.1283L3.82101 18.1889C3.67048 18.3183 3.57746 18.5022 3.56236 18.7001C3.54727 18.898 3.61134 19.0938 3.74051 19.2446C3.81084 19.3264 3.89801 19.392 3.99606 19.437C4.0941 19.482 4.20071 19.5053 4.30859 19.5053C4.41647 19.5053 4.52308 19.482 4.62112 19.437C4.71917 19.392 4.80634 19.3264 4.87667 19.2446L5.93702 18.1889C6.00793 18.1208 6.06473 18.0395 6.10418 17.9495C6.14364 17.8595 6.16497 17.7626 6.16697 17.6643C6.16896 17.566 6.15158 17.4683 6.11581 17.3768C6.08004 17.2853 6.02659 17.2017 5.95851 17.1308ZM19.7836 18.279C19.756 18.2467 19.726 18.2165 19.6937 18.1889L18.638 17.1286C18.5686 17.0569 18.4855 16.9998 18.3936 16.9608C18.3017 16.9218 18.203 16.9016 18.1032 16.9014C18.0048 16.9008 17.9072 16.9197 17.8161 16.9569C17.725 16.994 17.6422 17.0488 17.5723 17.1181C17.5023 17.1873 17.4468 17.2696 17.4087 17.3604C17.3707 17.4511 17.3509 17.5485 17.3505 17.6469C17.348 17.8504 17.4308 18.0469 17.5777 18.1889L18.638 19.2446C18.7666 19.3958 18.9496 19.4901 19.1474 19.5069C19.3451 19.5237 19.5415 19.4618 19.6937 19.3345C19.7691 19.2711 19.8312 19.1936 19.8766 19.1062C19.9219 19.0188 19.9495 18.9234 19.9579 18.8253C19.9662 18.7272 19.9551 18.6284 19.9252 18.5347C19.8953 18.4409 19.8472 18.3542 19.7836 18.279ZM14.4991 22.6412C14.4969 22.7606 14.4711 22.8783 14.4232 22.9877C14.3753 23.097 14.3063 23.1958 14.22 23.2783C14.1337 23.3609 14.032 23.4255 13.9206 23.4685C13.8092 23.5115 13.6905 23.5321 13.5711 23.5289H9.94532C9.7112 23.536 9.48339 23.4524 9.30943 23.2955C9.13547 23.1387 9.02879 22.9207 9.01165 22.6871C8.99403 22.4468 9.07244 22.2093 9.2297 22.0267C9.38696 21.8441 9.61022 21.7314 9.8505 21.7132C9.85346 21.7132 9.85346 21.7105 9.85346 21.7105C9.88507 21.7105 9.91371 21.7105 9.94532 21.7132H13.6114C13.7307 21.7156 13.8483 21.7415 13.9576 21.7895C14.0668 21.8375 14.1655 21.9066 14.248 21.9928C14.3305 22.079 14.3951 22.1807 14.4382 22.292C14.4813 22.4032 14.502 22.5219 14.4991 22.6412ZM11.7576 4.57199C8.04612 4.57199 5.02113 7.59699 5.02113 11.3085C5.02113 13.6257 6.22866 15.6398 8.0155 16.8495V19.5029C8.01557 19.7012 8.09439 19.8914 8.23465 20.0317C8.37491 20.1719 8.56512 20.2508 8.76348 20.2508H14.7517C14.9502 20.2508 15.1405 20.172 15.2808 20.0317C15.4211 19.8914 15.4999 19.7011 15.4999 19.5026V16.8498C17.2865 15.6398 18.4936 13.6257 18.4936 11.3085C18.4936 7.59699 15.4688 4.57199 11.7576 4.57199ZM11.7551 9.06454C11.4599 9.06326 11.1673 9.12052 10.8944 9.23299C10.6214 9.34546 10.3734 9.51093 10.1648 9.71981C9.95616 9.9287 9.791 10.1769 9.67886 10.45C9.56672 10.7231 9.50982 11.0157 9.51145 11.3109C9.51145 11.7251 9.17759 12.0611 8.76323 12.0611C8.34887 12.0611 8.01303 11.7251 8.01303 11.3109C8.01303 9.25394 9.69591 7.56637 11.7551 7.56637C11.8534 7.56614 11.9508 7.58533 12.0417 7.62283C12.1325 7.66034 12.2151 7.71542 12.2846 7.78492C12.3541 7.85442 12.4093 7.93696 12.4468 8.02782C12.4843 8.11867 12.5035 8.21604 12.5034 8.31434C12.5036 8.41276 12.4844 8.51025 12.4469 8.60124C12.4094 8.69224 12.3543 8.77494 12.2848 8.84462C12.2153 8.9143 12.1328 8.96959 12.0419 9.00733C11.951 9.04507 11.8535 9.06451 11.7551 9.06454Z" fill="#6E6E6E"/>
</svg>
