<?xml version="1.0" encoding="utf-8"?>
<!-- Generator: Adobe Illustrator 27.0.1, SVG Export Plug-In . SVG Version: 6.00 Build 0)  -->
<svg version="1.1" id="Layer_1" xmlns="http://www.w3.org/2000/svg" xmlns:xlink="http://www.w3.org/1999/xlink" x="0px" y="0px"
	 width="121.7px" height="122.9px" viewBox="0 0 121.7 122.9" style="enable-background:new 0 0 121.7 122.9;" xml:space="preserve"
	>
<path d="M100.4,23.3l-4-5c-0.6-0.7-0.8-1.6-0.6-2.5c0.7-2.1,3.1-1.8,4.8-1.7c4.8,0.4,16,0.4,18.4,0.5c1.5,0,2.6,1.2,2.6,2.6
	c0,0.2,0,0.4-0.1,0.6c-0.5,2.5-2.8,14.4-3.6,18.9c-0.3,1.6-0.8,3.6-2.7,3.7c-0.9,0-1.8-0.4-2.3-1.1l-4-5l-1.6-2.1L88,47v0.3
	c0,6.5-5.3,11.8-11.8,11.8s-11.8-5.3-11.8-11.8c0-0.3,0-0.5,0-0.8l-13.7-9.9c-4.3,3-10.2,2.8-14.2-0.6l-13.3,9.4
	c1.7,6.3-2,12.8-8.2,14.5c-6.3,1.7-12.8-2-14.5-8.2c-1.7-6.3,2-12.8,8.2-14.5c1-0.3,2.1-0.4,3.2-0.4c1.6,0,3.3,0.3,4.8,1l15.6-11.1
	c0.1-6.5,5.4-11.7,12-11.6c6.5,0.1,11.7,5.4,11.6,12v0.8l13.7,9.9c4.1-2.9,9.7-2.8,13.7,0.2l17.9-13.7L100.4,23.3L100.4,23.3z
	 M100.2,53.7h16.3c0.9,0,1.7,0.8,1.7,1.7v63.2c0,0.9-0.8,1.7-1.7,1.7h-16.3c-0.9,0-1.7-0.8-1.7-1.7V55.5c0-0.9,0.8-1.7,1.7-1.7V53.7
	z M68,75.4h16.3c0.9,0,1.7,0.8,1.7,1.7v41.5c0,0.9-0.8,1.7-1.7,1.7H68.1c-0.9,0-1.7-0.8-1.7-1.7V77.1C66.4,76.1,67.1,75.4,68,75.4
	C68.1,75.4,68.1,75.4,68,75.4L68,75.4z M35.9,53.7h16.2c0.9-0.1,1.8,0.6,1.8,1.6c0,0.1,0,0.2,0,0.2v63.1c0,0.9-0.8,1.7-1.7,1.7H35.9
	c-0.9,0-1.7-0.8-1.7-1.7V55.5c0-0.9,0.8-1.7,1.7-1.7L35.9,53.7z M3.7,78.9H20c0.9,0,1.7,0.8,1.7,1.7c0,0,0,0,0,0v37.9
	c0,0.9-0.8,1.7-1.7,1.7H3.8c-0.9,0-1.7-0.8-1.7-1.7v-38C2.1,79.6,2.8,78.9,3.7,78.9L3.7,78.9L3.7,78.9z"/>
</svg>
