<?xml version="1.0" encoding="utf-8"?>
<!-- Generator: Adobe Illustrator 27.0.1, SVG Export Plug-In . SVG Version: 6.00 Build 0)  -->
<svg version="1.1" id="Layer_1" xmlns="http://www.w3.org/2000/svg" xmlns:xlink="http://www.w3.org/1999/xlink" x="0px" y="0px"
	 width="51px" height="51px" viewBox="0 0 51 51" style="enable-background:new 0 0 51 51;" xml:space="preserve">
<style type="text/css">
	.st0{fill:#D9D9D9;}
	.st1{fill-rule:evenodd;clip-rule:evenodd;fill:#6644F1;}
	.st2{fill-rule:evenodd;clip-rule:evenodd;fill:#605E78;}
	.st3{fill-rule:evenodd;clip-rule:evenodd;fill:none;stroke:#605E78;stroke-width:2;stroke-miterlimit:10;}
	.st4{fill:#6644F1;}
	.st5{fill:#453E61;}
	.st6{fill-rule:evenodd;clip-rule:evenodd;fill:#453E61;}
</style>
<path class="st0" d="M132.9,0.3c0,0-6.7,1.5-7.8,7.7c-1.1,6.2-0.1,9.4-0.1,9.4l2.9,6.1l2.4-0.4c-0.9-3.8-1.2-4.4-1.5-9.4
	c0.2-2.9,0.5-4.2,0.9-6.2C130.4,4.3,131.9,1.8,132.9,0.3L132.9,0.3z"/>
<path class="st0" d="M132.9,22.6c0,0-6.7,1.5-7.8,7.5c-1.1,6.1-0.1,9.2-0.1,9.2l2.9,6l5.1,3.3c-2-2.7-3.1-5.8-3.7-9.3
	c-0.4-2.7-0.4-5.4,0.2-8c0.1-0.5,0.2-1.1,0.4-1.7C130.4,26.5,131.9,24.1,132.9,22.6z"/>
<path class="st1" d="M139.5,16.6c-2.4-0.1-3.9,2-4,2.2c-0.3,0.5-0.9,0.5-1.3,0.2c-0.4-0.3-0.5-1-0.2-1.4c0.2-0.3,2.2-3.1,5.5-3
	c3.2,0.1,5,2.6,5.2,2.9c0.3,0.4,0.2,1.1-0.2,1.4c-0.4,0.4-1,0.3-1.3-0.2C143.2,18.5,141.8,16.6,139.5,16.6z"/>
<path class="st0" d="M152.3,9.5c0,0-6.6,1.5-7.7,7.7c-1.5,6.1-1,9.4-1,9.4l3.7,6.1l5,3.3c-1.9-2.8-3.1-5.9-3.6-9.5
	c-0.4-2.7-0.4-5.5,0.2-8.2c0.1-0.6,0.2-1.1,0.4-1.7C149.9,13.5,151.3,11.1,152.3,9.5z"/>
<path class="st2" d="M139.5-0.8c-7.7,0-14,6.2-14,13.9c0,4,1.7,7.7,4.5,10.2l-1.1,1.2c-3.1-2.8-5.1-6.9-5.1-11.4
	c0-8.6,7-15.5,15.7-15.5c7,0,13,4.6,15,10.9l-1.6,0.5C151.1,3.3,145.8-0.8,139.5-0.8z"/>
<path class="st2" d="M128.6,23.1c2.7-2.6,6.4-4.2,10.4-4.2c1.5,0,2.9,0.2,4.2,0.6l-0.5,1.6c-1.2-0.4-2.5-0.5-3.8-0.5
	c-3.6,0-6.9,1.4-9.3,3.7l0,0l0,0c-2.7,2.6-4.5,6.3-4.5,10.4c0,7.8,6.2,14.1,13.8,14.1c6.9,0,12.7-5.3,13.6-12.1l1.6,0.2
	c-1.1,7.7-7.5,13.6-15.3,13.6c-8.5,0-15.4-7.1-15.4-15.8C123.6,30.1,125.5,26,128.6,23.1z"/>
<path class="st3" d="M49.8,25.5c0,13.4-10.9,24.3-24.3,24.3S1.2,38.9,1.2,25.5S12.1,1.2,25.5,1.2S49.8,12.1,49.8,25.5z"/>
<path class="st4" d="M135.3,10.6c0.8,0,1.4-1.2,1.4-2.8c0-1.5-0.6-2.8-1.4-2.8c-0.8,0-1.4,1.2-1.4,2.8
	C133.9,9.3,134.5,10.6,135.3,10.6z"/>
<path class="st5" d="M19,24c1.2,0,2.2-2,2.2-4.4s-1-4.4-2.2-4.4c-1.2,0-2.2,2-2.2,4.4S17.7,24,19,24z"/>
<path class="st4" d="M142.7,10.6c0.8,0,1.4-1.2,1.4-2.8c0-1.5-0.6-2.8-1.4-2.8c-0.8,0-1.4,1.2-1.4,2.8
	C141.3,9.3,142,10.6,142.7,10.6z"/>
<path class="st4" d="M134.2,34.6c0.8,0,1.4-1.2,1.4-2.8S135,29,134.2,29s-1.4,1.2-1.4,2.8S133.5,34.6,134.2,34.6z"/>
<path class="st5" d="M30.8,24c1.2,0,2.2-2,2.2-4.4s-1-4.4-2.2-4.4c-1.2,0-2.2,2-2.2,4.4S29.5,24,30.8,24z"/>
<path class="st4" d="M142.7,34.7c0.8,0,1.4-1.2,1.4-2.8c0-1.5-0.6-2.8-1.4-2.8c-0.8,0-1.4,1.2-1.4,2.8
	C141.3,33.5,141.9,34.7,142.7,34.7z"/>
<path class="st6" d="M14.8,33.9c0-1.2,0.7-2.1,1.6-2.1h18.2c0.9,0,1.6,1,1.6,2.1c0,1.2-0.7,2.1-1.6,2.1H16.4
	C15.5,36.1,14.8,35.1,14.8,33.9z"/>
</svg>
