<svg width="51" height="53" viewBox="0 0 51 53" fill="none" xmlns="http://www.w3.org/2000/svg">
<path d="M9.29804 2.79466C9.29804 2.79466 2.60097 4.29996 1.45757 10.4778C0.314168 16.6557 1.38435 19.907 1.38435 19.907L4.2344 26.0345L6.66765 25.6092C5.80024 21.8487 5.46793 21.2444 5.21446 16.1801C5.36654 13.2366 5.74392 11.9496 6.14946 10.0078C6.83663 6.72299 8.29545 4.29996 9.29241 2.78906L9.29804 2.79466Z" fill="#D9D9D9"/>
<path d="M9.29804 25.1055C9.29804 25.1055 2.60097 26.5799 1.45757 32.6309C0.314168 38.682 1.38435 41.8664 1.38435 41.8664L4.2344 47.8682L9.29804 51.1403C7.32666 48.4437 6.16636 45.3305 5.59747 41.861C5.16377 39.2081 5.22009 36.5005 5.78335 33.8696C5.90163 33.3215 6.02554 32.7844 6.15509 32.176C6.84226 28.9586 8.30108 26.5853 9.29804 25.1055Z" fill="#D9D9D9"/>
<path fill-rule="evenodd" clip-rule="evenodd" d="M15.8966 19.0515C13.4597 18.9999 11.9966 21.0342 11.8525 21.2458C11.5459 21.6959 10.9717 21.7823 10.5699 21.4388C10.1682 21.0953 10.091 20.4519 10.3976 20.0018C10.6073 19.6939 12.5606 16.93 15.9312 17.0014C19.1053 17.0652 20.9285 19.5766 21.1705 19.9195C21.4839 20.3637 21.4166 21.0085 21.0202 21.3597C20.6238 21.7109 20.0483 21.6355 19.7349 21.1913C19.562 20.9464 18.2001 19.0975 15.8966 19.0515Z" fill="#6644F1"/>
<path d="M28.6911 12.0117C28.6911 12.0117 22.1307 13.5205 21.0107 19.7127C19.4691 25.8451 19.9811 29.158 19.9811 29.158L23.7308 35.3053L28.6911 38.6538C26.76 35.8943 25.6234 32.7084 25.0661 29.158C24.6412 26.4433 24.6964 23.6725 25.2482 20.9803C25.364 20.4194 25.4854 19.8697 25.6123 19.2472C26.2855 15.9547 27.7145 13.5261 28.6911 12.0117Z" fill="#D9D9D9"/>
<path fill-rule="evenodd" clip-rule="evenodd" d="M15.9113 1.65449C8.16287 1.65449 1.8821 7.86901 1.8821 15.5357C1.8821 19.5744 3.62742 23.2116 6.41132 25.7475L5.27879 26.9647C2.16562 24.1289 0.209961 20.0563 0.209961 15.5357C0.209961 6.95525 7.23938 0 15.9113 0C22.9414 0 28.8866 4.56204 30.8939 10.8583L29.2992 11.356C27.5052 5.7289 22.1914 1.65449 15.9113 1.65449Z" fill="#605E78"/>
<path fill-rule="evenodd" clip-rule="evenodd" d="M4.98168 25.57C7.7269 22.9692 11.3982 21.3867 15.4199 21.3867C16.8799 21.3867 18.3028 21.5938 19.6476 21.992L19.1921 23.609C17.998 23.2554 16.7286 23.0698 15.4199 23.0698C11.8253 23.0698 8.54766 24.4827 6.09468 26.8071L6.09232 26.8093L6.09232 26.8093C3.355 29.3829 1.64158 33.0823 1.64158 37.1908C1.64158 44.9953 7.81285 51.3174 15.4199 51.3174C22.3652 51.3174 28.1136 46.0494 29.0585 39.1882L30.684 39.4235C29.6262 47.1041 23.194 53.0005 15.4199 53.0005C6.90663 53.0005 0 45.9253 0 37.1908C0 32.5928 1.91944 28.4496 4.98168 25.57Z" fill="#605E78"/>
<path fill-rule="evenodd" clip-rule="evenodd" d="M34.4054 11.8598C32.8738 11.8598 31.4024 12.0963 30.0272 12.5326L30.0258 12.5331C24.9749 14.1258 21.1789 18.4067 20.4221 23.6351L20.4214 23.6397L20.4214 23.6397C20.3265 24.2692 20.2788 24.9102 20.2788 25.5685C20.2788 27.009 20.5067 28.3959 20.9297 29.6941L20.9298 29.6944C22.3542 34.0725 25.9717 37.4997 30.5335 38.7528L30.5378 38.754C31.7623 39.0971 33.0581 39.2772 34.4054 39.2772C42.2041 39.2772 48.5264 33.1373 48.5264 25.5685C48.5264 17.9997 42.2041 11.8598 34.4054 11.8598ZM29.505 10.9799C31.0469 10.4908 32.6945 10.2266 34.4054 10.2266C43.1345 10.2266 50.2095 17.0985 50.2095 25.5685C50.2095 34.0386 43.1345 40.9105 34.4054 40.9105C32.9034 40.9105 31.4508 40.7097 30.0727 40.3237C24.9637 38.9194 20.9187 35.0846 19.3249 30.1865M29.505 10.9799C23.8526 12.7626 19.6042 17.5507 18.7557 23.4056C18.6489 24.1146 18.5957 24.8339 18.5957 25.5685C18.5957 27.1767 18.8502 28.7296 19.3248 30.1862" fill="#605E78"/>
<path d="M11.6926 13.0164C12.4629 13.0164 13.0873 11.7675 13.0873 10.227C13.0873 8.68638 12.4629 7.4375 11.6926 7.4375C10.9223 7.4375 10.2979 8.68638 10.2979 10.227C10.2979 11.7675 10.9223 13.0164 11.6926 13.0164Z" fill="#6644F1"/>
<path d="M31.1105 23.7391C31.8808 23.7391 32.5053 22.4902 32.5053 20.9496C32.5053 19.409 31.8808 18.1602 31.1105 18.1602C30.3403 18.1602 29.7158 19.409 29.7158 20.9496C29.7158 22.4902 30.3403 23.7391 31.1105 23.7391Z" fill="#6644F1"/>
<path d="M19.132 13.0164C19.9023 13.0164 20.5268 11.7675 20.5268 10.227C20.5268 8.68638 19.9023 7.4375 19.132 7.4375C18.3617 7.4375 17.7373 8.68638 17.7373 10.227C17.7373 11.7675 18.3617 13.0164 19.132 13.0164Z" fill="#6644F1"/>
<path d="M10.6174 37.0594C11.3877 37.0594 12.0121 35.8105 12.0121 34.2699C12.0121 32.7293 11.3877 31.4805 10.6174 31.4805C9.8471 31.4805 9.22266 32.7293 9.22266 34.2699C9.22266 35.8105 9.8471 37.0594 10.6174 37.0594Z" fill="#6644F1"/>
<path d="M38.549 23.7391C39.3193 23.7391 39.9437 22.4902 39.9437 20.9496C39.9437 19.409 39.3193 18.1602 38.549 18.1602C37.7787 18.1602 37.1543 19.409 37.1543 20.9496C37.1543 22.4902 37.7787 23.7391 38.549 23.7391Z" fill="#6644F1"/>
<path d="M19.0617 37.1922C19.832 37.1922 20.4564 35.9433 20.4564 34.4027C20.4564 32.8622 19.832 31.6133 19.0617 31.6133C18.2914 31.6133 17.667 32.8622 17.667 34.4027C17.667 35.9433 18.2914 37.1922 19.0617 37.1922Z" fill="#6644F1"/>
<path fill-rule="evenodd" clip-rule="evenodd" d="M41.1735 27.9939C41.7374 28.2555 41.9947 28.9528 41.7482 29.5512C40.6196 32.2909 38.1765 34.1818 35.3931 34.3848C32.2567 34.6153 29.2876 32.6679 27.9901 29.556C27.7411 28.9587 27.9955 28.2603 28.5583 27.996C29.1211 27.7317 29.7793 28.0016 30.0283 28.5989C30.9595 30.8324 33.0717 32.1846 35.2396 32.0251L35.2403 32.0251C37.1597 31.8851 38.8956 30.5711 39.706 28.6037C39.9526 28.0053 40.6096 27.7322 41.1735 27.9939Z" fill="#6644F1"/>
<path fill-rule="evenodd" clip-rule="evenodd" d="M10.2471 43.7786C10.2471 43.2127 10.5976 42.7539 11.0301 42.7539H19.711C20.1435 42.7539 20.494 43.2127 20.494 43.7786C20.494 44.3445 20.1435 44.8033 19.711 44.8033H11.0301C10.5976 44.8033 10.2471 44.3445 10.2471 43.7786Z" fill="#6644F1"/>
</svg>
