<svg width="48" height="50" viewBox="0 0 48 50" fill="none" xmlns="http://www.w3.org/2000/svg">
<path d="M9.43194 28.0833L9.43058 28.0827C9.42297 28.0796 9.41458 28.0787 9.40649 28.0803C9.39846 28.0819 9.39108 28.0859 9.38527 28.0916C9.38523 28.0916 9.38518 28.0917 9.38513 28.0917L5.95674 31.5223L5.24943 32.23L4.5421 31.5223L1.1129 28.091L1.11218 28.0903C1.09605 28.0742 1.06966 28.074 1.05327 28.0903L9.43194 28.0833ZM9.43194 28.0833C9.44765 28.0898 9.45772 28.1051 9.45772 28.1216V48.9549C9.45772 48.978 9.43903 48.9966 9.41602 48.9966H1.08272C1.05971 48.9966 1.04102 48.978 1.04102 48.9549L1.04102 28.1216L1.04102 28.1199M9.43194 28.0833L1.04102 28.1199M1.04102 28.1199C1.04101 28.1144 1.04208 28.109 1.04419 28.1039C1.04629 28.0988 1.04937 28.0942 1.05324 28.0903L1.04102 28.1199Z" fill="white" stroke="#60647B" stroke-width="2"/>
<path d="M13.5544 23.9288L13.5533 23.9298C13.5494 23.9337 13.5463 23.9383 13.5442 23.9434C13.5421 23.9485 13.541 23.9539 13.541 23.9594C13.541 23.9594 13.541 23.9595 13.541 23.9595L13.541 48.9592C13.541 48.9822 13.5597 49.0009 13.5827 49.0009H21.916C21.939 49.0009 21.9577 48.9822 21.9577 48.9592V23.9592V23.9573C21.9577 23.9518 21.9567 23.9465 21.9546 23.9415C21.9525 23.9365 21.9496 23.932 21.9458 23.9282C21.9457 23.9281 21.9457 23.9281 21.9456 23.928L17.7799 19.7622L13.5544 23.9288ZM13.5544 23.9288L17.7209 19.7623C17.7209 19.7622 17.721 19.7622 17.721 19.7621M13.5544 23.9288L17.721 19.7621M17.721 19.7621C17.7374 19.7459 17.7636 19.746 17.7798 19.7621L17.721 19.7621Z" fill="white" stroke="#60647B" stroke-width="2"/>
<path d="M30.9869 14.8909L35.1535 19.0576C35.2502 19.1545 35.3268 19.2695 35.379 19.3961C35.4312 19.5226 35.458 19.6582 35.4577 19.7951V48.9618C35.4577 49.5371 34.9913 50.0035 34.416 50.0035H26.0827C25.5074 50.0035 25.041 49.5371 25.041 48.9618V19.7951C25.0411 19.6581 25.0681 19.5224 25.1207 19.3959C25.1732 19.2693 25.2502 19.1544 25.3473 19.0576L29.514 14.8909M30.9869 14.8909C30.5802 14.4843 29.9208 14.4843 29.514 14.8909M30.9869 14.8909L30.2799 15.5981M30.9869 14.8909L30.2798 15.598M29.514 14.8909L30.2211 15.598L30.221 15.5981C30.2374 15.5818 30.2636 15.582 30.2798 15.598M29.514 14.8909L30.2209 15.5982L26.0544 19.7647L26.0533 19.7658C26.0494 19.7697 26.0463 19.7743 26.0442 19.7794C26.0421 19.7844 26.041 19.7899 26.041 19.7954V19.7951H25.0418L26.041 19.7954L26.041 48.9618C26.041 48.9848 26.0597 49.0035 26.0827 49.0035H34.416C34.439 49.0035 34.4577 48.9848 34.4577 48.9618V19.7951V19.7932C34.4577 19.7878 34.4567 19.7824 34.4546 19.7774C34.4525 19.7724 34.4495 19.7679 34.4457 19.7641L34.4464 19.7647L35.1535 19.0577L34.4457 19.764L30.2799 15.5981M30.2799 15.5981L30.2798 15.598M30.2799 15.5981C30.2799 15.5981 30.2798 15.598 30.2798 15.598" fill="white" stroke="#60647B" stroke-width="2"/>
<path d="M43.2 12H45C40.5071 19.1237 39.8716 29.1937 39 48V15.5493L43.2 12Z" fill="#D9D9D9"/>
<path d="M42.7494 10.4141H44.8328H42.7494ZM42.7494 10.4141C42.6125 10.4138 42.4769 10.4405 42.3504 10.4927C42.2238 10.5449 42.1088 10.6216 42.0119 10.7183L37.8452 14.885M42.7494 10.4141L38.5532 15.5912L37.8452 14.885M37.8452 14.885C37.7485 14.9819 37.6719 15.0969 37.6197 15.2234C37.5675 15.35 37.5408 15.4856 37.541 15.6225V48.9558C37.541 49.5311 38.0074 49.9975 38.5827 49.9975H46.916C47.4913 49.9975 47.9577 49.5311 47.9577 48.9558V13.5391C47.958 13.4022 47.9312 13.2666 47.8791 13.1401C47.8269 13.0135 47.7503 12.8985 47.6536 12.8016L45.5703 10.7183M37.8452 14.885L38.5523 15.5921L38.5531 15.5913C38.5493 15.5952 38.5462 15.5998 38.5442 15.6048C38.5421 15.6098 38.541 15.6153 38.541 15.6208L38.541 15.6225L38.541 48.9558C38.541 48.9788 38.5597 48.9975 38.5827 48.9975H46.916C46.939 48.9975 46.9577 48.9788 46.9577 48.9558V13.5391V13.5372C46.9577 13.5318 46.9567 13.5263 46.9546 13.5213C46.9525 13.5163 46.9495 13.5118 46.9458 13.5079L46.9465 13.5087L47.6535 12.8017L46.9455 13.5077L44.8641 11.4263L45.5703 10.7183M45.5703 10.7183L44.8632 11.4254L44.8639 11.4261L45.5703 10.7183ZM42.7184 11.426L42.719 11.4254L42.012 10.7183L42.7183 11.4261C42.7183 11.4261 42.7183 11.4261 42.7184 11.426Z" stroke="#60647B" stroke-width="2"/>
<path d="M46.9159 1.58634e-06H40.6659C40.4596 -0.000358351 40.2579 0.0605411 40.0862 0.17498C39.9146 0.289418 39.7808 0.452243 39.7018 0.642813C39.6228 0.833383 39.6022 1.04312 39.6425 1.24543C39.6829 1.44773 39.7824 1.63351 39.9284 1.7792L42.318 4.1667L34.4159 12.0688L30.9867 8.6375C30.58 8.23086 29.9206 8.23086 29.5138 8.6375L21.9158 16.2355L18.4866 12.8042C18.0799 12.3976 17.4205 12.3976 17.0137 12.8042L5.24922 24.5688L1.82002 21.1375C1.40625 20.7378 0.746777 20.7493 0.34707 21.1631C-0.0427734 21.5668 -0.0427734 22.2067 0.34707 22.6104L4.51377 26.7771C4.92051 27.1837 5.57988 27.1837 5.98672 26.7771L17.7492 15.0146L21.1784 18.4438C21.5852 18.8504 22.2445 18.8504 22.6514 18.4438L30.2492 10.848L33.6784 14.2771C34.0852 14.6838 34.7445 14.6838 35.1514 14.2771L43.7909 5.63965L46.1784 8.02715C46.2752 8.12419 46.3901 8.20119 46.5167 8.25374C46.6432 8.30629 46.7789 8.33336 46.9159 8.3334C47.0525 8.33368 47.1878 8.30676 47.3139 8.2542C47.5044 8.17546 47.6672 8.04197 47.7818 7.87064C47.8964 7.6993 47.9576 7.49782 47.9576 7.2917V1.0417C47.9575 0.466408 47.4912 1.58634e-06 46.9159 1.58634e-06Z" fill="#6644F1"/>
</svg>
