<?xml version="1.0" encoding="utf-8"?>
<!-- Generator: Adobe Illustrator 27.0.1, SVG Export Plug-In . SVG Version: 6.00 Build 0)  -->
<svg version="1.1" id="Layer_1" xmlns="http://www.w3.org/2000/svg" xmlns:xlink="http://www.w3.org/1999/xlink" x="0px" y="0px"
	 width="67px" height="67px" viewBox="0 0 67 67" style="enable-background:new 0 0 67 67;" xml:space="preserve">
<style type="text/css">
	.st0{fill:#791EE7;}
	.st1{fill:none;}
	.st2{fill:none;stroke:#FFFFFF;stroke-miterlimit:10;}
	.st3{font-family:'MyriadPro-Regular';}
	.st4{font-size:8.9352px;}
	.st5{fill:#F8FBFF;}
</style>
<path class="st0" d="M0,13C0,5.8,5.8,0,13,0h41c7.2,0,13,5.8,13,13v41c0,7.2-5.8,13-13,13H13C5.8,67,0,61.2,0,54V13z"/>
<rect x="9.1" y="9.1" class="st1" width="47.7" height="47.7"/>
<g>
	<rect x="25.2" y="15.4" class="st1" width="28.3" height="28.3"/>
	<path class="st2" d="M46.6,22.5h3.1c0.2,0,0.3,0.2,0.3,0.4v16.8c0,0.2-0.2,0.4-0.3,0.4h-3.1c-0.2,0-0.3-0.2-0.3-0.4V22.9
		C46.3,22.7,46.5,22.5,46.6,22.5L46.6,22.5z M40.7,27.1h3c0.1,0,0.3,0.2,0.3,0.5v12.1c0,0.2-0.1,0.5-0.3,0.5h-3
		c-0.1,0-0.3-0.2-0.3-0.5V27.6C40.4,27.4,40.6,27.1,40.7,27.1L40.7,27.1L40.7,27.1z M34.8,31.1h3c0.1,0,0.3,0.1,0.3,0.2l0,0v8.6
		c0,0.1-0.1,0.2-0.3,0.2h-3c-0.1,0-0.3-0.1-0.3-0.2v-8.6C34.5,31.2,34.7,31.1,34.8,31.1L34.8,31.1z M29,34.5h3
		c0.1,0,0.3,0.1,0.3,0.2l0,0v5.2c0,0.1-0.1,0.2-0.3,0.2h-3c-0.1,0-0.3-0.1-0.3-0.2v-5.2C28.7,34.6,28.8,34.5,29,34.5L29,34.5
		L29,34.5z M29,33.4l14.7-12l-1.4-2L29,31.7V33.4z M40.4,17.6l7.2-2.2l-2.6,7.3L40.4,17.6z M34.3,22.5c0,3.2-2.6,5.7-5.9,5.7
		s-5.9-2.6-5.9-5.7s2.6-5.7,5.9-5.7S34.3,19.3,34.3,22.5z"/>
	<text transform="matrix(1 0 0 1 26.3135 25.6123)" class="st2 st3 st4">$</text>
	<rect x="21.3" y="42.1" class="st5" width="5.6" height="12.1"/>
	<path class="st5" d="M28,43.2v8.7c0,0,7,7.7,12.5,0l10.2-8.7h-7l-6.3,6.1c0,0-0.8-6.1-5.1-6.1S28,43.2,28,43.2z"/>
</g>
</svg>
