<?xml version="1.0" encoding="utf-8"?>
<!-- Generator: Adobe Illustrator 27.0.1, SVG Export Plug-In . SVG Version: 6.00 Build 0)  -->
<svg version="1.1" id="Layer_1" xmlns="http://www.w3.org/2000/svg" xmlns:xlink="http://www.w3.org/1999/xlink" x="0px" y="0px"
	 width="67px" height="67px" viewBox="0 0 67 67" style="enable-background:new 0 0 67 67;" xml:space="preserve">
<style type="text/css">
	.st0{fill:#04CAD0;}
	.st1{fill:none;}
	.st2{fill:#FFFFFF;}
</style>
<path class="st0" d="M0,13C0,5.8,5.8,0,13,0h41c7.2,0,13,5.8,13,13v41c0,7.2-5.8,13-13,13H13C5.8,67,0,61.2,0,54V13z"/>
<rect x="14" y="14" class="st1" width="38" height="38"/>
<path class="st2" d="M42.4,21.9l-1-1.2c-0.1-0.2-0.2-0.4-0.1-0.6c0.2-0.5,0.8-0.4,1.2-0.4c1.2,0.1,3.9,0.1,4.5,0.1
	c0.4,0,0.6,0.3,0.6,0.6c0,0,0,0.1,0,0.1c-0.1,0.6-0.7,3.5-0.9,4.6c-0.1,0.4-0.2,0.9-0.7,0.9c-0.2,0-0.4-0.1-0.6-0.3l-1-1.2l-0.4-0.5
	l-4.7,3.6v0.1c0,1.6-1.3,2.9-2.9,2.9c-1.6,0-2.9-1.3-2.9-2.9c0-0.1,0-0.1,0-0.2l-3.4-2.4c-1.1,0.7-2.5,0.7-3.5-0.1l-3.3,2.3
	c0.4,1.5-0.5,3.1-2,3.6c-1.5,0.4-3.1-0.5-3.6-2c-0.4-1.5,0.5-3.1,2-3.6c0.2-0.1,0.5-0.1,0.8-0.1c0.4,0,0.8,0.1,1.2,0.2l3.8-2.7
	c0-1.6,1.3-2.9,2.9-2.8c1.6,0,2.9,1.3,2.8,2.9V23l3.4,2.4c1-0.7,2.4-0.7,3.4,0l4.4-3.4L42.4,21.9L42.4,21.9z M42.3,29.4h4
	c0.2,0,0.4,0.2,0.4,0.4v15.5c0,0.2-0.2,0.4-0.4,0.4h-4c-0.2,0-0.4-0.2-0.4-0.4V29.8C41.9,29.6,42.1,29.4,42.3,29.4L42.3,29.4z
	 M34.4,34.7h4c0.2,0,0.4,0.2,0.4,0.4v10.2c0,0.2-0.2,0.4-0.4,0.4h-4c-0.2,0-0.4-0.2-0.4-0.4V35.1C34,34.9,34.2,34.7,34.4,34.7
	C34.4,34.7,34.4,34.7,34.4,34.7L34.4,34.7z M26.5,29.4h4c0.2,0,0.4,0.1,0.4,0.4c0,0,0,0,0,0v15.5c0,0.2-0.2,0.4-0.4,0.4h-4
	c-0.2,0-0.4-0.2-0.4-0.4V29.8C26.1,29.6,26.3,29.4,26.5,29.4L26.5,29.4z M18.6,35.5h4c0.2,0,0.4,0.2,0.4,0.4l0,0v9.3
	c0,0.2-0.2,0.4-0.4,0.4h-4c-0.2,0-0.4-0.2-0.4-0.4v-9.3C18.2,35.7,18.4,35.5,18.6,35.5L18.6,35.5L18.6,35.5z"/>
</svg>
