<svg width="45" height="51" viewBox="0 0 45 51" fill="none" xmlns="http://www.w3.org/2000/svg">
<path d="M11.5 32.5H14C11.2751 35.3026 10 36 11 45.5L8.5 35L11.5 32.5Z" fill="#D9D9D9"/>
<mask id="path-2-inside-1_923_109" fill="white">
<path fill-rule="evenodd" clip-rule="evenodd" d="M4.98195 33.8844L9.01544 48.9378C9.06244 49.1148 9.03742 49.3033 8.94587 49.462C8.85431 49.6206 8.70366 49.7366 8.52685 49.7845L5.74466 50.5299C5.56759 50.5769 5.3791 50.5519 5.22044 50.4603C5.06177 50.3687 4.94584 50.218 4.89798 50.0412L0.864998 34.9876C0.817997 34.8105 0.843009 34.6221 0.934565 34.4634C1.02612 34.3048 1.17677 34.1888 1.35358 34.1409L4.13577 33.3954C4.31285 33.3484 4.50133 33.3735 4.65999 33.4651C4.81866 33.5567 4.9341 33.7076 4.98195 33.8844ZM6.78737 34.4648L10.1143 46.8824C11.5349 46.0699 13.0245 45.7999 14.832 46.2143L21.5297 47.7497C23.0547 48.0994 24.4881 47.9643 25.8434 47.182L42.5925 37.5122C43.3132 37.0961 43.8391 36.4108 44.0545 35.6069C44.2699 34.8031 44.1571 33.9466 43.7411 33.2259C43.325 32.5052 42.6396 31.9793 41.8358 31.7639C41.032 31.5485 40.1755 31.6612 39.4548 32.0773L29.4683 37.8427C29.4987 38.3092 29.4513 38.7774 29.3283 39.2284C29.0282 40.3186 28.3089 41.2459 27.3274 41.8076C26.346 42.3694 25.1822 42.52 24.0901 42.2266L17.844 40.5266C17.6449 40.4671 17.4769 40.3321 17.3759 40.1505C17.2749 39.9689 17.2488 39.755 17.3032 39.5545C17.3576 39.3539 17.4882 39.1825 17.6671 39.0769C17.846 38.9712 18.0592 38.9397 18.2611 38.9889L24.5072 40.6889C25.9988 41.0949 27.4164 40.1901 27.8159 38.7232C28.0541 37.8351 27.9317 36.8888 27.4752 36.0905C27.0187 35.2923 26.2652 34.7068 25.3789 34.4618L13.6855 31.2791C12.9454 31.1701 12.1907 31.2133 11.4679 31.4063C10.745 31.5994 10.0693 31.938 9.48201 32.4015L6.78737 34.4648ZM13.4773 4.01426C15.4825 4.01428 17.4427 4.6089 19.1099 5.72293C20.7771 6.83696 22.0766 8.42036 22.8439 10.2729C23.6113 12.1255 23.8121 14.1639 23.4209 16.1306C23.0297 18.0973 22.0641 19.9037 20.6462 21.3216C19.2284 22.7395 17.4219 23.7051 15.4552 24.0963C13.4886 24.4875 11.4501 24.2868 9.59754 23.5194C7.74498 22.7521 6.16157 21.4527 5.04752 19.7855C3.93348 18.1182 3.33884 16.1581 3.3388 14.1529C3.3388 12.8215 3.60104 11.5031 4.11055 10.2731C4.62006 9.04301 5.36686 7.92535 6.30831 6.9839C7.24976 6.04246 8.36743 5.29567 9.59749 4.78617C10.8276 4.27667 12.1459 4.01425 13.4773 4.01426ZM12.7611 9.49487V9.87219C12.139 10.0005 11.5867 10.3551 11.211 10.8673C10.8353 11.3795 10.663 12.0128 10.7275 12.6448C10.7919 13.2767 11.0886 13.8622 11.5599 14.288C12.0313 14.7138 12.6439 14.9495 13.2791 14.9496H13.6748C13.9289 14.9547 14.171 15.0593 14.3489 15.2409C14.5268 15.4225 14.6265 15.6665 14.6265 15.9208C14.6265 16.175 14.5268 16.4191 14.3489 16.6007C14.171 16.7822 13.9289 16.8868 13.6748 16.892H13.118C12.9634 16.8934 12.8107 16.8572 12.6732 16.7864C12.5357 16.7156 12.4175 16.6124 12.3288 16.4857C12.2043 16.3165 12.018 16.2034 11.8105 16.1711C11.603 16.1387 11.3911 16.1897 11.221 16.313C11.0509 16.4362 10.9365 16.6217 10.9026 16.829C10.8687 17.0362 10.9181 17.2485 11.0401 17.4195C11.4175 17.9374 11.9728 18.2977 12.5996 18.4314V18.8099C12.5996 19.0213 12.6835 19.224 12.833 19.3734C12.9824 19.5229 13.1851 19.6068 13.3965 19.6068C13.6078 19.6068 13.8105 19.5229 13.9599 19.3734C14.1094 19.224 14.1933 19.0213 14.1933 18.8099V18.4326C14.8154 18.3042 15.3677 17.9495 15.7432 17.4373C16.1188 16.9251 16.291 16.2917 16.2265 15.6598C16.162 15.028 15.8653 14.4425 15.3939 14.0168C14.9225 13.5911 14.3099 13.3554 13.6748 13.3553H13.2794C13.0252 13.3502 12.7832 13.2456 12.6053 13.064C12.4274 12.8825 12.3277 12.6384 12.3277 12.3841C12.3277 12.1299 12.4274 11.8858 12.6053 11.7043C12.7832 11.5227 13.0252 11.4181 13.2794 11.4129H13.8361C13.9908 11.4115 14.1434 11.4477 14.2809 11.5185C14.4185 11.5893 14.5367 11.6925 14.6253 11.8192C14.6866 11.9038 14.764 11.9755 14.853 12.0302C14.9421 12.0849 15.041 12.1216 15.1442 12.1381C15.2474 12.1545 15.3528 12.1505 15.4544 12.1263C15.5561 12.102 15.652 12.058 15.7366 11.9967C15.8212 11.9353 15.8929 11.858 15.9476 11.7689C16.0023 11.6799 16.039 11.581 16.0555 11.4778C16.072 11.3746 16.068 11.2692 16.0437 11.1675C16.0194 11.0659 15.9754 10.97 15.9141 10.8854C15.5367 10.3675 14.9814 10.0072 14.3547 9.87348V9.49497C14.3547 9.28362 14.2707 9.08093 14.1213 8.93149C13.9719 8.78205 13.7692 8.69809 13.5578 8.69809C13.3465 8.69809 13.1438 8.78205 12.9943 8.93149C12.8449 9.08093 12.7611 9.28352 12.7611 9.49487ZM13.4773 6.7574C12.0147 6.75738 10.5849 7.19109 9.3687 8.00369C8.15254 8.81628 7.20465 9.97126 6.6449 11.3226C6.08515 12.6739 5.93869 14.1608 6.22403 15.5954C6.50936 17.0299 7.21369 18.3477 8.24794 19.3819C9.28218 20.4162 10.5999 21.1205 12.0344 21.4059C13.469 21.6913 14.956 21.5448 16.3073 20.9851C17.6586 20.4253 18.8136 19.4775 19.6262 18.2613C20.4388 17.0452 20.8725 15.6154 20.8725 14.1527C20.8725 12.1914 20.0934 10.3104 18.7065 8.92347C17.3197 7.53659 15.4387 6.75743 13.4773 6.7574ZM40.1861 8.17713H43.0728C43.3104 8.17758 43.5382 8.27218 43.7062 8.4402C43.8742 8.60823 43.9688 8.83599 43.9693 9.07362V28.1255C43.9688 28.3631 43.8742 28.5909 43.7062 28.7589C43.5382 28.927 43.3104 29.0215 43.0728 29.022H40.1861C39.9485 29.0216 39.7207 28.927 39.5527 28.759C39.3846 28.5909 39.29 28.3631 39.2896 28.1255V9.07362C39.2901 8.83599 39.3847 8.60823 39.5527 8.4402C39.7207 8.27218 39.9485 8.17758 40.1861 8.17713ZM37.932 3.79791L37.2732 5.73302C37.2397 5.83195 37.226 5.93651 37.2329 6.04074C37.2398 6.14497 37.2671 6.24682 37.3134 6.34048C37.4068 6.52962 37.5715 6.67392 37.7713 6.74161C37.9711 6.80931 38.1896 6.79486 38.3788 6.70145C38.5679 6.60804 38.7122 6.44332 38.7799 6.24352L40.1073 2.34401C40.1497 2.23538 40.1677 2.11878 40.1601 2.00243C40.1525 1.88609 40.1194 1.77283 40.0633 1.67065C40.0071 1.56847 39.9292 1.47985 39.8351 1.41106C39.7409 1.34227 39.6328 1.29497 39.5184 1.27251L35.4414 0.465676C35.3383 0.444381 35.232 0.443746 35.1287 0.463808C35.0253 0.48387 34.927 0.52423 34.8393 0.582553C34.7517 0.640875 34.6765 0.716001 34.6181 0.803583C34.5597 0.891165 34.5192 0.989462 34.499 1.09279C34.4789 1.19611 34.4794 1.30241 34.5006 1.40553C34.5218 1.50865 34.5632 1.60654 34.6225 1.69354C34.6818 1.78054 34.7577 1.85492 34.8459 1.91237C34.9341 1.96982 35.0329 2.00921 35.1364 2.02825L37.1376 2.42449L24.3728 9.79409C24.5741 10.2971 24.7401 10.8136 24.8695 11.3397L37.932 3.79791ZM19.4537 24.2499C18.0232 25.099 16.4277 25.6322 14.7742 25.8138V28.1255C14.7746 28.3631 14.8692 28.5909 15.0372 28.7589C15.2052 28.927 15.433 29.0215 15.6706 29.022H18.5572C18.7948 29.0215 19.0226 28.927 19.1906 28.7589C19.3587 28.5909 19.4533 28.3631 19.4537 28.1255V24.2499ZM24.9216 16.7447C24.568 18.3103 23.8954 19.7861 22.946 21.0801V28.1255C22.9464 28.3631 23.041 28.5909 23.209 28.759C23.3771 28.927 23.6049 29.0216 23.8425 29.022H26.7292C26.9668 29.0215 27.1946 28.927 27.3626 28.7589C27.5306 28.5909 27.6252 28.3631 27.6257 28.1255V17.6411C27.6252 17.4035 27.5306 17.1757 27.3626 17.0077C27.1946 16.8397 26.9668 16.7451 26.7292 16.7446L24.9216 16.7447ZM32.0143 12.4607H34.9009C35.1385 12.4612 35.3663 12.5558 35.5343 12.7238C35.7024 12.8918 35.797 13.1196 35.7974 13.3572V28.1255C35.797 28.3631 35.7024 28.5909 35.5343 28.7589C35.3663 28.927 35.1385 29.0215 34.9009 29.022H32.0143C31.7767 29.0215 31.549 28.927 31.3809 28.7589C31.2129 28.5909 31.1183 28.3631 31.1179 28.1255V13.3572C31.1183 13.1196 31.2129 12.8918 31.3809 12.7238C31.549 12.5558 31.7767 12.4612 32.0143 12.4607Z"/>
</mask>
<path fill-rule="evenodd" clip-rule="evenodd" d="M4.98195 33.8844L9.01544 48.9378C9.06244 49.1148 9.03742 49.3033 8.94587 49.462C8.85431 49.6206 8.70366 49.7366 8.52685 49.7845L5.74466 50.5299C5.56759 50.5769 5.3791 50.5519 5.22044 50.4603C5.06177 50.3687 4.94584 50.218 4.89798 50.0412L0.864998 34.9876C0.817997 34.8105 0.843009 34.6221 0.934565 34.4634C1.02612 34.3048 1.17677 34.1888 1.35358 34.1409L4.13577 33.3954C4.31285 33.3484 4.50133 33.3735 4.65999 33.4651C4.81866 33.5567 4.9341 33.7076 4.98195 33.8844ZM6.78737 34.4648L10.1143 46.8824C11.5349 46.0699 13.0245 45.7999 14.832 46.2143L21.5297 47.7497C23.0547 48.0994 24.4881 47.9643 25.8434 47.182L42.5925 37.5122C43.3132 37.0961 43.8391 36.4108 44.0545 35.6069C44.2699 34.8031 44.1571 33.9466 43.7411 33.2259C43.325 32.5052 42.6396 31.9793 41.8358 31.7639C41.032 31.5485 40.1755 31.6612 39.4548 32.0773L29.4683 37.8427C29.4987 38.3092 29.4513 38.7774 29.3283 39.2284C29.0282 40.3186 28.3089 41.2459 27.3274 41.8076C26.346 42.3694 25.1822 42.52 24.0901 42.2266L17.844 40.5266C17.6449 40.4671 17.4769 40.3321 17.3759 40.1505C17.2749 39.9689 17.2488 39.755 17.3032 39.5545C17.3576 39.3539 17.4882 39.1825 17.6671 39.0769C17.846 38.9712 18.0592 38.9397 18.2611 38.9889L24.5072 40.6889C25.9988 41.0949 27.4164 40.1901 27.8159 38.7232C28.0541 37.8351 27.9317 36.8888 27.4752 36.0905C27.0187 35.2923 26.2652 34.7068 25.3789 34.4618L13.6855 31.2791C12.9454 31.1701 12.1907 31.2133 11.4679 31.4063C10.745 31.5994 10.0693 31.938 9.48201 32.4015L6.78737 34.4648ZM13.4773 4.01426C15.4825 4.01428 17.4427 4.6089 19.1099 5.72293C20.7771 6.83696 22.0766 8.42036 22.8439 10.2729C23.6113 12.1255 23.8121 14.1639 23.4209 16.1306C23.0297 18.0973 22.0641 19.9037 20.6462 21.3216C19.2284 22.7395 17.4219 23.7051 15.4552 24.0963C13.4886 24.4875 11.4501 24.2868 9.59754 23.5194C7.74498 22.7521 6.16157 21.4527 5.04752 19.7855C3.93348 18.1182 3.33884 16.1581 3.3388 14.1529C3.3388 12.8215 3.60104 11.5031 4.11055 10.2731C4.62006 9.04301 5.36686 7.92535 6.30831 6.9839C7.24976 6.04246 8.36743 5.29567 9.59749 4.78617C10.8276 4.27667 12.1459 4.01425 13.4773 4.01426ZM12.7611 9.49487V9.87219C12.139 10.0005 11.5867 10.3551 11.211 10.8673C10.8353 11.3795 10.663 12.0128 10.7275 12.6448C10.7919 13.2767 11.0886 13.8622 11.5599 14.288C12.0313 14.7138 12.6439 14.9495 13.2791 14.9496H13.6748C13.9289 14.9547 14.171 15.0593 14.3489 15.2409C14.5268 15.4225 14.6265 15.6665 14.6265 15.9208C14.6265 16.175 14.5268 16.4191 14.3489 16.6007C14.171 16.7822 13.9289 16.8868 13.6748 16.892H13.118C12.9634 16.8934 12.8107 16.8572 12.6732 16.7864C12.5357 16.7156 12.4175 16.6124 12.3288 16.4857C12.2043 16.3165 12.018 16.2034 11.8105 16.1711C11.603 16.1387 11.3911 16.1897 11.221 16.313C11.0509 16.4362 10.9365 16.6217 10.9026 16.829C10.8687 17.0362 10.9181 17.2485 11.0401 17.4195C11.4175 17.9374 11.9728 18.2977 12.5996 18.4314V18.8099C12.5996 19.0213 12.6835 19.224 12.833 19.3734C12.9824 19.5229 13.1851 19.6068 13.3965 19.6068C13.6078 19.6068 13.8105 19.5229 13.9599 19.3734C14.1094 19.224 14.1933 19.0213 14.1933 18.8099V18.4326C14.8154 18.3042 15.3677 17.9495 15.7432 17.4373C16.1188 16.9251 16.291 16.2917 16.2265 15.6598C16.162 15.028 15.8653 14.4425 15.3939 14.0168C14.9225 13.5911 14.3099 13.3554 13.6748 13.3553H13.2794C13.0252 13.3502 12.7832 13.2456 12.6053 13.064C12.4274 12.8825 12.3277 12.6384 12.3277 12.3841C12.3277 12.1299 12.4274 11.8858 12.6053 11.7043C12.7832 11.5227 13.0252 11.4181 13.2794 11.4129H13.8361C13.9908 11.4115 14.1434 11.4477 14.2809 11.5185C14.4185 11.5893 14.5367 11.6925 14.6253 11.8192C14.6866 11.9038 14.764 11.9755 14.853 12.0302C14.9421 12.0849 15.041 12.1216 15.1442 12.1381C15.2474 12.1545 15.3528 12.1505 15.4544 12.1263C15.5561 12.102 15.652 12.058 15.7366 11.9967C15.8212 11.9353 15.8929 11.858 15.9476 11.7689C16.0023 11.6799 16.039 11.581 16.0555 11.4778C16.072 11.3746 16.068 11.2692 16.0437 11.1675C16.0194 11.0659 15.9754 10.97 15.9141 10.8854C15.5367 10.3675 14.9814 10.0072 14.3547 9.87348V9.49497C14.3547 9.28362 14.2707 9.08093 14.1213 8.93149C13.9719 8.78205 13.7692 8.69809 13.5578 8.69809C13.3465 8.69809 13.1438 8.78205 12.9943 8.93149C12.8449 9.08093 12.7611 9.28352 12.7611 9.49487ZM13.4773 6.7574C12.0147 6.75738 10.5849 7.19109 9.3687 8.00369C8.15254 8.81628 7.20465 9.97126 6.6449 11.3226C6.08515 12.6739 5.93869 14.1608 6.22403 15.5954C6.50936 17.0299 7.21369 18.3477 8.24794 19.3819C9.28218 20.4162 10.5999 21.1205 12.0344 21.4059C13.469 21.6913 14.956 21.5448 16.3073 20.9851C17.6586 20.4253 18.8136 19.4775 19.6262 18.2613C20.4388 17.0452 20.8725 15.6154 20.8725 14.1527C20.8725 12.1914 20.0934 10.3104 18.7065 8.92347C17.3197 7.53659 15.4387 6.75743 13.4773 6.7574ZM40.1861 8.17713H43.0728C43.3104 8.17758 43.5382 8.27218 43.7062 8.4402C43.8742 8.60823 43.9688 8.83599 43.9693 9.07362V28.1255C43.9688 28.3631 43.8742 28.5909 43.7062 28.7589C43.5382 28.927 43.3104 29.0215 43.0728 29.022H40.1861C39.9485 29.0216 39.7207 28.927 39.5527 28.759C39.3846 28.5909 39.29 28.3631 39.2896 28.1255V9.07362C39.2901 8.83599 39.3847 8.60823 39.5527 8.4402C39.7207 8.27218 39.9485 8.17758 40.1861 8.17713ZM37.932 3.79791L37.2732 5.73302C37.2397 5.83195 37.226 5.93651 37.2329 6.04074C37.2398 6.14497 37.2671 6.24682 37.3134 6.34048C37.4068 6.52962 37.5715 6.67392 37.7713 6.74161C37.9711 6.80931 38.1896 6.79486 38.3788 6.70145C38.5679 6.60804 38.7122 6.44332 38.7799 6.24352L40.1073 2.34401C40.1497 2.23538 40.1677 2.11878 40.1601 2.00243C40.1525 1.88609 40.1194 1.77283 40.0633 1.67065C40.0071 1.56847 39.9292 1.47985 39.8351 1.41106C39.7409 1.34227 39.6328 1.29497 39.5184 1.27251L35.4414 0.465676C35.3383 0.444381 35.232 0.443746 35.1287 0.463808C35.0253 0.48387 34.927 0.52423 34.8393 0.582553C34.7517 0.640875 34.6765 0.716001 34.6181 0.803583C34.5597 0.891165 34.5192 0.989462 34.499 1.09279C34.4789 1.19611 34.4794 1.30241 34.5006 1.40553C34.5218 1.50865 34.5632 1.60654 34.6225 1.69354C34.6818 1.78054 34.7577 1.85492 34.8459 1.91237C34.9341 1.96982 35.0329 2.00921 35.1364 2.02825L37.1376 2.42449L24.3728 9.79409C24.5741 10.2971 24.7401 10.8136 24.8695 11.3397L37.932 3.79791ZM19.4537 24.2499C18.0232 25.099 16.4277 25.6322 14.7742 25.8138V28.1255C14.7746 28.3631 14.8692 28.5909 15.0372 28.7589C15.2052 28.927 15.433 29.0215 15.6706 29.022H18.5572C18.7948 29.0215 19.0226 28.927 19.1906 28.7589C19.3587 28.5909 19.4533 28.3631 19.4537 28.1255V24.2499ZM24.9216 16.7447C24.568 18.3103 23.8954 19.7861 22.946 21.0801V28.1255C22.9464 28.3631 23.041 28.5909 23.209 28.759C23.3771 28.927 23.6049 29.0216 23.8425 29.022H26.7292C26.9668 29.0215 27.1946 28.927 27.3626 28.7589C27.5306 28.5909 27.6252 28.3631 27.6257 28.1255V17.6411C27.6252 17.4035 27.5306 17.1757 27.3626 17.0077C27.1946 16.8397 26.9668 16.7451 26.7292 16.7446L24.9216 16.7447ZM32.0143 12.4607H34.9009C35.1385 12.4612 35.3663 12.5558 35.5343 12.7238C35.7024 12.8918 35.797 13.1196 35.7974 13.3572V28.1255C35.797 28.3631 35.7024 28.5909 35.5343 28.7589C35.3663 28.927 35.1385 29.0215 34.9009 29.022H32.0143C31.7767 29.0215 31.549 28.927 31.3809 28.7589C31.2129 28.5909 31.1183 28.3631 31.1179 28.1255V13.3572C31.1183 13.1196 31.2129 12.8918 31.3809 12.7238C31.549 12.5558 31.7767 12.4612 32.0143 12.4607Z" stroke="#605E78" stroke-width="3" mask="url(#path-2-inside-1_923_109)"/>
<path d="M12.9969 10.5925L13.5954 10.469V9.85793V9.48061C13.5954 9.4678 13.6004 9.45609 13.609 9.44756C13.6177 9.43877 13.6297 9.43383 13.6421 9.43383C13.6545 9.43383 13.6665 9.43877 13.6752 9.44756C13.684 9.45635 13.689 9.46827 13.689 9.48071V9.85922V10.4661L14.2825 10.5927C14.7279 10.6878 15.1227 10.9437 15.3913 11.3115C15.3947 11.3163 15.3971 11.3217 15.3985 11.3274C15.3999 11.3332 15.4001 11.3393 15.3991 11.3452C15.3982 11.3512 15.3961 11.3569 15.3929 11.362C15.3898 11.3671 15.3857 11.3715 15.3808 11.3751C15.3759 11.3786 15.3704 11.3811 15.3646 11.3825C15.3588 11.3839 15.3527 11.3841 15.3468 11.3832C15.3408 11.3822 15.3352 11.3801 15.33 11.377C15.3255 11.3742 15.3214 11.3706 15.3181 11.3663C15.1602 11.1437 14.9512 10.9623 14.7085 10.8374C14.4639 10.7115 14.1924 10.6467 13.9174 10.6487H13.3637H13.3561L13.3485 10.6488C12.8981 10.658 12.4692 10.8433 12.1539 11.1651C11.8386 11.4868 11.662 11.9194 11.662 12.3699C11.662 12.8204 11.8386 13.2529 12.1539 13.5747C12.4692 13.8965 12.8981 14.0818 13.3485 14.0909L13.3561 14.0911H13.3637H13.759C13.759 14.0911 13.759 14.0911 13.759 14.0911C14.2085 14.0911 14.6419 14.2579 14.9755 14.5591C15.309 14.8604 15.519 15.2746 15.5646 15.7218C15.6103 16.1689 15.4885 16.6171 15.2227 16.9795C14.9569 17.342 14.5661 17.593 14.1259 17.6839L13.5276 17.8074V18.4184V18.7957C13.5276 18.8081 13.5227 18.82 13.5139 18.8288C13.5051 18.8376 13.4932 18.8426 13.4807 18.8426C13.4683 18.8426 13.4564 18.8376 13.4476 18.8288C13.4388 18.82 13.4339 18.8081 13.4339 18.7957V18.4172V17.8103L12.8403 17.6837C12.3962 17.5889 12.0025 17.3343 11.734 16.9683C11.7277 16.9587 11.7252 16.9471 11.727 16.9357C11.729 16.9238 11.7356 16.9131 11.7453 16.906C11.7551 16.8989 11.7673 16.896 11.7793 16.8979C11.7903 16.8996 11.8003 16.9053 11.8074 16.9138C11.9649 17.1347 12.1729 17.3147 12.4142 17.439C12.6588 17.5649 12.9303 17.6297 13.2053 17.6277H13.759H13.7666L13.7742 17.6275C14.2246 17.6184 14.6535 17.4331 14.9688 17.1113C15.2842 16.7896 15.4608 16.357 15.4608 15.9065C15.4608 15.456 15.2842 15.0235 14.9688 14.7017C14.6535 14.3799 14.2246 14.1946 13.7742 14.1855L13.7666 14.1853H13.759H13.3635C13.3634 14.1853 13.3634 14.1853 13.3634 14.1853C12.9139 14.1853 12.4805 14.0184 12.147 13.7172C11.8134 13.4159 11.6035 13.0016 11.5579 12.5544C11.5123 12.1072 11.6342 11.6591 11.9 11.2966C12.1659 10.9342 12.5567 10.6833 12.9969 10.5925ZM13.5616 4.75C15.4185 4.75002 17.2336 5.30065 18.7775 6.33227C20.3214 7.36389 21.5247 8.83016 22.2353 10.5457C22.9459 12.2612 23.1318 14.1489 22.7696 15.97C22.4073 17.7912 21.5132 19.464 20.2002 20.777C18.8872 22.09 17.2144 22.9842 15.3932 23.3465C13.572 23.7087 11.6843 23.5228 9.96882 22.8123C8.25331 22.1017 6.78703 20.8984 5.75539 19.3545C4.72376 17.8106 4.17311 15.9955 4.17307 14.1386C4.17307 12.9057 4.41592 11.6849 4.88773 10.5458C5.35955 9.40675 6.05111 8.37178 6.92292 7.49998C7.79472 6.62818 8.82971 5.93663 9.96878 5.46483C11.1079 4.99299 12.3288 4.74999 13.5616 4.75ZM13.5616 5.99314C11.9506 5.99312 10.3758 6.47082 9.03631 7.36582C7.69681 8.26082 6.65279 9.53294 6.03627 11.0213C5.41976 12.5097 5.25844 14.1474 5.57271 15.7274C5.88699 17.3075 6.66274 18.7588 7.80188 19.898C8.94101 21.0371 10.3924 21.8129 11.9724 22.1272C13.5524 22.4415 15.1902 22.2802 16.6786 21.6637C18.1669 21.0472 19.4391 20.0032 20.3341 18.6637C21.2291 17.3242 21.7068 15.7494 21.7068 14.1384C21.7068 11.9782 20.8487 9.90642 19.3211 8.37889C17.7936 6.85135 15.7219 5.99317 13.5616 5.99314Z" fill="white" stroke="#6644F1" stroke-width="1.5"/>
</svg>
