<svg width="36" height="35" viewBox="0 0 36 35" fill="none" xmlns="http://www.w3.org/2000/svg">
<g clip-path="url(#clip0_111_23)">
<path d="M17.1625 16.081C16.9812 15.4899 16.2985 15.158 15.7652 14.9766C15.1359 15.0077 14.7145 15.1892 14.4212 15.3966C12.8319 16.5166 12.8905 19.9025 14.6132 23.7966C14.3999 21.8469 14.8105 20.5143 15.2372 19.6432C16.0799 17.9373 17.4665 17.0714 17.1625 16.081Z" fill="#D9D9D9"/>
<path d="M16.0862 27.6201C15.9049 27.029 15.2222 26.6971 14.6889 26.5156C14.0595 26.5467 13.6382 26.7282 13.3449 26.9356C11.7555 28.0556 5.21153 35.3667 13.2809 34.7238C13.0675 32.7741 13.7342 32.0482 14.1609 31.1823C15.0035 29.4764 16.3902 28.6104 16.0862 27.6201Z" fill="#D9D9D9"/>
<path d="M16.2563 8.46552H15.0936C15.0936 10.0211 16.3949 11.2863 17.9949 11.2863C19.5949 11.2863 20.8963 10.0211 20.8963 8.46552H19.7336C19.7336 9.39885 18.9496 10.1611 17.9896 10.1611C17.0296 10.1611 16.2456 9.39885 16.2456 8.46552H16.2563ZM15.0936 5.07959C15.4136 5.07959 15.6749 5.33366 15.6749 5.64477H16.8376C16.8376 4.71144 16.0536 3.94922 15.0936 3.94922C14.1336 3.94922 13.3496 4.71144 13.3496 5.64477H14.5123C14.5123 5.33366 14.7736 5.07959 15.0936 5.07959ZM20.9016 5.07959C21.2216 5.07959 21.4829 5.33366 21.4829 5.64477H22.6456C22.6456 4.71144 21.8616 3.94922 20.9016 3.94922C19.9416 3.94922 19.1576 4.71144 19.1576 5.64477H20.3203C20.3203 5.33366 20.5816 5.07959 20.9016 5.07959ZM29.0296 12.4166C27.4296 12.4166 26.1283 13.6818 26.1283 15.2374H27.2909C27.2909 14.304 28.0749 13.5418 29.0349 13.5418C29.9949 13.5418 30.7789 14.304 30.7789 15.2374H31.9416C31.9416 13.6818 30.6403 12.4166 29.0403 12.4166H29.0296ZM32.5123 9.0307C32.5123 9.34181 32.2509 9.59589 31.9309 9.59589C31.6109 9.59589 31.3496 9.34181 31.3496 9.0307H30.1869C30.1869 9.96403 30.9709 10.7263 31.9309 10.7263C32.8909 10.7263 33.6749 9.96403 33.6749 9.0307H32.5123Z" fill="#6644F1"/>
<path d="M29.0347 4.5163C27.52 4.5163 26.0907 4.98815 24.896 5.84889C24.432 2.55111 21.52 0 18 0C14.48 0 11.568 2.55111 11.104 5.84889C9.90933 4.97778 8.45867 4.51111 6.96533 4.5163C3.12533 4.5163 0 7.55482 0 11.2881C0 15.0215 3.12533 18.06 6.96533 18.06C8.23467 18.06 9.424 17.723 10.448 17.1422V23.1415C10.448 24.5985 10.88 25.983 11.696 27.1807C9.80267 28.7207 8.704 31.0022 8.704 33.403V34.9948H27.2853V33.403C27.2853 30.9296 26.1333 28.6844 24.2933 27.1807C25.1093 25.983 25.5467 24.5778 25.5413 23.1415V17.1422C26.5973 17.7437 27.8027 18.06 29.024 18.06C32.864 18.06 35.9893 15.0215 35.9893 11.2881C35.9893 7.55482 32.864 4.5163 29.024 4.5163H29.0347ZM18 1.13037C21.2 1.13037 23.808 3.66074 23.808 6.77704C23.808 9.89333 21.2053 12.4237 18 12.4237C14.7947 12.4237 12.192 9.89333 12.192 6.77704C12.192 3.66074 14.7947 1.13037 18 1.13037ZM19.744 26.04V26.7296C19.744 27.0459 19.7173 27.357 19.6747 27.663H16.3307C16.288 27.3519 16.2613 27.0407 16.2613 26.7296V26.04L16.432 25.3867C16.5653 25.4022 16.704 25.4074 16.8427 25.4074H19.1627C19.3013 25.4074 19.44 25.4022 19.5733 25.3867L19.744 26.04ZM19.4293 28.7933C19.1413 29.7319 18.656 30.603 18.0053 31.3496C17.3547 30.603 16.8693 29.7319 16.5813 28.7933H19.4347H19.4293ZM19.1627 24.277H16.8427C15.2427 24.277 13.9413 23.0119 13.9413 21.4563V16.94C13.9413 16.0067 14.7253 15.2444 15.6853 15.2444H15.9947C16.656 15.9652 17.6 16.3748 18.5867 16.3748H20.9067C21.5467 16.3748 22.0693 16.883 22.0693 17.5052V21.4563C22.0693 23.0119 20.768 24.277 19.168 24.277H19.1627ZM1.16267 11.2881C1.16267 8.17704 3.76533 5.64148 6.97067 5.64148C8.52267 5.64148 9.96267 6.23259 11.0613 7.30074C11.1253 8.07333 11.3173 8.80963 11.6213 9.48371L9.872 8.34815L7.808 9.68593L8.45333 10.6244L9.872 9.70667L11.2907 10.6244L11.8133 9.86741C12.0747 10.36 12.4 10.8163 12.7733 11.2311C12.7733 11.2467 12.7733 11.2674 12.7733 11.283C12.7733 14.3941 10.1707 16.9296 6.96533 16.9296C3.76 16.9296 1.16267 14.4044 1.16267 11.2881ZM11.616 23.1415V16.9296C11.616 16.7119 11.6373 16.4941 11.6587 16.2815C12.864 15.2185 13.6427 13.777 13.8667 12.2059C14.2507 12.4807 14.6613 12.7193 15.0987 12.9163V12.9785C15.0987 13.383 15.1733 13.7719 15.3067 14.1296C13.8613 14.3111 12.7787 15.5089 12.7787 16.9296V21.4459C12.7787 23.0948 13.824 24.5104 15.3067 25.1015L15.2107 25.48C14.304 25.6822 13.4347 26.0296 12.6453 26.5119C11.9733 25.5059 11.616 24.3341 11.6213 23.1363L11.616 23.1415ZM26.1333 33.403V33.8644H23.8133V30.4785H22.6507V33.8644H13.36V30.4785H12.1973V33.8644H9.87733V33.403C9.87733 30.2504 12.0373 27.523 15.104 26.6726V26.7193C15.104 28.9282 15.9893 31.0074 17.5947 32.5682L18.0053 32.9674L18.416 32.5682C20.016 31.0178 20.9173 28.9126 20.9067 26.7193V26.6726C24 27.5282 26.1333 30.2763 26.1333 33.403ZM24.3893 16.9296V23.1415C24.3893 24.3548 24.0373 25.5111 23.3653 26.517C22.576 26.0348 21.7067 25.6874 20.8 25.4852L20.704 25.1067C22.1867 24.5156 23.232 23.1 23.232 21.4511V17.5C23.232 16.2556 22.192 15.2444 20.912 15.2444H18.592C17.4347 15.2444 16.48 14.4148 16.304 13.3363C16.8587 13.4763 17.4347 13.5489 18.0107 13.5489C19.5627 13.5489 20.9867 13.0459 22.1493 12.2111C22.3733 13.777 23.152 15.2185 24.3573 16.2867C24.3787 16.5044 24.4 16.7222 24.4 16.9348L24.3893 16.9296ZM29.0347 16.9296C25.8347 16.9296 23.2267 14.3993 23.2267 11.283C23.2267 11.2674 23.2267 11.2467 23.2267 11.2311C23.728 10.6815 24.1333 10.0593 24.4267 9.38C24.5973 10.1578 25.3067 10.7178 26.128 10.7178C27.088 10.7178 27.872 9.95556 27.872 9.02222H26.7093C26.7093 9.33333 26.448 9.58741 26.128 9.58741C25.808 9.58741 25.5467 9.33333 25.5467 9.02222H24.56C24.7627 8.47259 24.8907 7.89704 24.9387 7.29556C26.0373 6.22741 27.4773 5.6363 29.0293 5.6363C32.2293 5.6363 34.8373 8.16667 34.8373 11.283C34.8373 14.3993 32.2347 16.9296 29.0293 16.9296H29.0347Z" fill="#5E6275"/>
<path d="M11.2913 10.6279L11.9366 9.68934L9.87259 8.35156L7.80859 9.68934L8.45393 10.6279L9.87259 9.71008L11.2913 10.6279Z" fill="#6644F1"/>
<path d="M26.7101 9.03125C26.7101 9.34236 26.4488 9.59644 26.1288 9.59644C25.8088 9.59644 25.5474 9.34236 25.5474 9.03125H24.3848C24.3848 9.96458 25.1688 10.7268 26.1288 10.7268C27.0888 10.7268 27.8728 9.96458 27.8728 9.03125H26.7101Z" fill="#6644F1"/>
<path d="M6.96533 14.6801C6.00533 14.6801 5.22133 13.9179 5.22133 12.9846H4.05867C4.05867 14.5401 5.36 15.8053 6.96 15.8053C8.56 15.8053 9.86133 14.5401 9.86133 12.9846H8.69867C8.69867 13.9179 7.91467 14.6801 6.95467 14.6801H6.96533ZM5.48267 10.6357L6.128 9.69715L4.064 8.35938L2 9.69715L2.64533 10.6357L4.064 9.71789L5.48267 10.6357Z" fill="#6644F1"/>
</g>
<defs>
<clipPath id="clip0_111_23">
<rect width="36" height="35" fill="white"/>
</clipPath>
</defs>
</svg>
