<svg width="22" height="23" viewBox="0 0 22 23" fill="none" xmlns="http://www.w3.org/2000/svg">
<path d="M22 11.4997C22 14.4171 20.8411 17.215 18.7782 19.2779C16.7153 21.3408 13.9174 22.4997 11 22.4997C8.08262 22.4997 5.28473 21.3408 3.22183 19.2779C1.15893 17.215 0 14.4171 0 11.4997C0 11.2913 0.0827803 11.0915 0.23013 10.9441C0.37748 10.7968 0.57733 10.714 0.785714 10.714C0.994099 10.714 1.19395 10.7968 1.3413 10.9441C1.48865 11.0915 1.57143 11.2913 1.57143 11.4997C1.5682 13.6039 2.26787 15.6489 3.55939 17.31C4.85091 18.9712 6.66027 20.1534 8.7003 20.669C10.7403 21.1846 12.8941 21.0041 14.8198 20.156C16.7456 19.308 18.3328 17.841 19.3298 15.988C20.3267 14.135 20.6761 12.0021 20.3226 9.92781C19.9691 7.85354 18.9329 5.95677 17.3785 4.53856C15.8241 3.12035 13.8405 2.26196 11.7426 2.09963C9.64468 1.93731 7.55266 2.48035 5.79857 3.64256H6.28571C6.4941 3.64256 6.69395 3.72534 6.8413 3.87269C6.98865 4.02004 7.07143 4.21989 7.07143 4.42828C7.07143 4.63666 6.98865 4.83651 6.8413 4.98386C6.69395 5.13121 6.4941 5.21399 6.28571 5.21399H3.92857C3.72019 5.21399 3.52034 5.13121 3.37299 4.98386C3.22564 4.83651 3.14286 4.63666 3.14286 4.42828V2.07113C3.14286 1.86275 3.22564 1.6629 3.37299 1.51555C3.52034 1.3682 3.72019 1.28542 3.92857 1.28542C4.13696 1.28542 4.33681 1.3682 4.48416 1.51555C4.63151 1.6629 4.71429 1.86275 4.71429 2.07113V2.47499C6.36334 1.32573 8.29583 0.650385 10.3018 0.522341C12.3077 0.394296 14.3104 0.818448 16.0922 1.74871C17.874 2.67897 19.3668 4.07976 20.4083 5.79888C21.4499 7.51799 22.0004 9.48968 22 11.4997ZM18.0714 11.4997C18.0714 12.8983 17.6567 14.2655 16.8797 15.4284C16.1027 16.5913 14.9983 17.4976 13.7061 18.0329C12.414 18.5681 10.9922 18.7081 9.62043 18.4353C8.24871 18.1624 6.9887 17.4889 5.99974 16.5C5.01079 15.511 4.3373 14.251 4.06445 12.8793C3.79159 11.5076 3.93163 10.0857 4.46685 8.79359C5.00207 7.50145 5.90843 6.39705 7.07132 5.62003C8.23421 4.84301 9.6014 4.42828 11 4.42828C12.8748 4.43036 14.6723 5.17605 15.998 6.50175C17.3237 7.82745 18.0693 9.62488 18.0714 11.4997ZM13.7932 12.4174L11.7857 11.0793V7.57113C11.7857 7.36275 11.7029 7.1629 11.5556 7.01555C11.4082 6.8682 11.2084 6.78542 11 6.78542C10.7916 6.78542 10.5918 6.8682 10.4444 7.01555C10.2971 7.1629 10.2143 7.36275 10.2143 7.57113V11.4997C10.2143 11.629 10.2462 11.7564 10.3072 11.8704C10.3682 11.9844 10.4564 12.0816 10.5639 12.1534L12.9211 13.7248C13.0944 13.8405 13.3067 13.8825 13.511 13.8417C13.7154 13.8009 13.8952 13.6806 14.0109 13.5072C14.1265 13.3338 14.1686 13.1216 14.1277 12.9172C14.0869 12.7129 13.9666 12.5331 13.7932 12.4174Z" fill="#6E6E6E"/>
</svg>
