<svg width="18" height="18" viewBox="0 0 22 21" fill="none" xmlns="http://www.w3.org/2000/svg">
<path d="M10.75 4.90326C12.104 4.90326 13.2016 3.80563 13.2016 2.45163C13.2016 1.09763 12.104 0 10.75 0C9.39597 0 8.29834 1.09763 8.29834 2.45163C8.29834 3.80563 9.39597 4.90326 10.75 4.90326Z" fill="#0051FA"/>
<path d="M17.4231 16.6242C18.7771 16.6242 19.8747 15.5266 19.8747 14.1726C19.8747 12.8186 18.7771 11.7209 17.4231 11.7209C16.0691 11.7209 14.9714 12.8186 14.9714 14.1726C14.9714 15.5266 16.0691 16.6242 17.4231 16.6242Z" fill="#0051FA"/>
<path d="M4.07687 16.6242C5.43087 16.6242 6.5285 15.5266 6.5285 14.1726C6.5285 12.8186 5.43087 11.7209 4.07687 11.7209C2.72288 11.7209 1.62524 12.8186 1.62524 14.1726C1.62524 15.5266 2.72288 16.6242 4.07687 16.6242Z" fill="#0051FA"/>
<path fill-rule="evenodd" clip-rule="evenodd" d="M10.0175 10.5C10.0175 10.3057 10.0946 10.1194 10.232 9.98199C10.3694 9.84461 10.5557 9.76743 10.75 9.76743C10.9443 9.76743 11.1306 9.84461 11.268 9.98199C11.4054 10.1194 11.4826 10.3057 11.4826 10.5V13.4302C11.4826 13.6245 11.4054 13.8108 11.268 13.9482C11.1306 14.0856 10.9443 14.1628 10.75 14.1628C10.5557 14.1628 10.3694 14.0856 10.232 13.9482C10.0946 13.8108 10.0175 13.6245 10.0175 13.4302V10.5Z" fill="#0051FA"/>
<path fill-rule="evenodd" clip-rule="evenodd" d="M8.2261 15.9932C8.06443 16.0984 7.86779 16.1356 7.67886 16.0968C7.48992 16.0579 7.32394 15.9461 7.21695 15.7856C7.10995 15.6251 7.07057 15.4289 7.10736 15.2395C7.14415 15.0502 7.25413 14.883 7.41344 14.7742L10.3437 12.8207C10.464 12.7405 10.6054 12.6977 10.75 12.6977C10.8946 12.6977 11.036 12.7405 11.1563 12.8207L14.0866 14.7742C14.2459 14.883 14.3559 15.0502 14.3926 15.2395C14.4294 15.4289 14.3901 15.6251 14.2831 15.7856C14.1761 15.9461 14.0101 16.0579 13.8211 16.0968C13.6322 16.1356 13.4356 16.0984 13.2739 15.9932L10.75 14.3103L8.2261 15.9932ZM13.4546 4.55844C13.8109 4.91348 14.0935 5.33547 14.2861 5.80014C14.4787 6.26481 14.5775 6.76297 14.5769 7.26598C14.5769 7.74361 14.3522 8.16849 13.9107 8.50254C13.2661 8.99091 12.0139 9.27905 10.75 9.27905C9.4861 9.27905 8.23391 8.99091 7.58926 8.50254C7.14777 8.16849 6.92312 7.74361 6.92312 7.26598C6.92312 6.20914 7.35191 5.25095 8.0454 4.55844C8.36574 4.9703 8.77592 5.30355 9.24464 5.53279C9.71335 5.76202 10.2282 5.88118 10.75 5.88118C11.2718 5.88118 11.7867 5.76202 12.2554 5.53279C12.7241 5.30355 13.1343 4.9703 13.4546 4.55844ZM20.1268 16.2794C20.8202 16.9719 21.25 17.9301 21.25 18.9869C21.25 19.4645 21.0254 19.8894 20.5839 20.2235C19.9392 20.7118 18.6861 21 17.4231 21C16.1592 21 14.9061 20.7118 14.2624 20.2235C13.8209 19.8894 13.5953 19.4645 13.5953 18.9869C13.5953 17.9301 14.025 16.9719 14.7185 16.2794C15.0387 16.6914 15.4487 17.0248 15.9174 17.2541C16.386 17.4835 16.9009 17.6027 17.4226 17.6027C17.9444 17.6027 18.4593 17.4835 18.9279 17.2541C19.3966 17.0248 19.8066 16.6914 20.1268 16.2794ZM6.78149 16.2794C7.47498 16.9719 7.90475 17.9301 7.90475 18.9869C7.90475 19.4645 7.67912 19.8894 7.23763 20.2235C6.59396 20.7118 5.34079 21 4.07689 21C2.81395 21 1.56079 20.7118 0.91614 20.2235C0.474651 19.8894 0.25 19.4645 0.25 18.9869C0.25 17.9301 0.679768 16.9719 1.37326 16.2794C1.69339 16.6914 2.10344 17.0248 2.57209 17.2541C3.04075 17.4835 3.55561 17.6027 4.07737 17.6027C4.59914 17.6027 5.114 17.4835 5.58265 17.2541C6.05131 17.0248 6.46136 16.6914 6.78149 16.2794Z" fill="#0051FA"/>
</svg>
