<svg width="48" height="52" viewBox="0 0 48 52" fill="none" xmlns="http://www.w3.org/2000/svg">
<path d="M22.8793 27.2031C22.8793 27.2031 18.8487 28.267 18.7043 30.7429C18.5411 33.5228 21.2595 36.499 21.6864 36.3153C21.7806 36.2773 21.7178 36.062 21.5797 35.7264C20.6505 33.4468 20.8012 30.8632 22.0255 28.7355C22.264 28.3176 22.5465 27.8174 22.8793 27.2031Z" fill="#D9D9D9"/>
<path d="M36.2075 31.4141C36.2075 31.4141 33.2443 32.1993 33.1438 34.0103C33.0245 36.0493 35.021 38.2403 35.3349 38.1073C35.4039 38.0757 35.36 37.9237 35.2595 37.6767C34.5815 35.9987 34.6882 34.1053 35.586 32.5412C35.7618 32.2373 35.969 31.8637 36.2138 31.4141H36.2075Z" fill="#D9D9D9"/>
<path d="M20.3115 39.5845C20.3115 39.5845 16.1051 41.3765 14.8872 43.8714C14.1652 45.3469 13.6755 47.0693 14.1652 48.0381C15.1132 49.9061 18.541 49.9568 18.8738 49.8238C18.9931 49.7795 18.9114 49.5389 18.7482 49.1653C17.637 46.6007 17.8128 43.7005 19.2819 41.3005C19.5707 40.8319 19.9097 40.2683 20.3115 39.5781V39.5845Z" fill="#D9D9D9"/>
<path d="M23.9969 36.8429C26.8574 36.8429 29.1763 34.5039 29.1763 31.6187C29.1763 28.7335 26.8574 26.3945 23.9969 26.3945C21.1363 26.3945 18.8174 28.7335 18.8174 31.6187C18.8174 34.5039 21.1363 36.8429 23.9969 36.8429Z" stroke="#60647B" stroke-width="2" stroke-miterlimit="10"/>
<path d="M33.9726 47.7405C33.8784 48.1838 33.6901 48.608 33.4264 48.9753C33.2945 49.1589 33.1438 49.3299 32.9806 49.4819C32.3779 50.0518 31.5806 50.3684 30.7519 50.3684H17.2413C16.4126 50.3684 15.6153 50.0518 15.0126 49.4819C14.843 49.3299 14.6924 49.1589 14.5668 48.9753C14.3031 48.608 14.1211 48.1838 14.0206 47.7405C13.9076 47.1769 13.9515 46.6007 14.1399 46.0624C14.6045 44.7136 15.339 43.4725 16.287 42.415C20.1544 38.1217 26.7401 37.8051 30.9967 41.7121C31.2416 41.9338 31.4739 42.1681 31.6936 42.415C32.6416 43.4725 33.3761 44.7136 33.8407 46.0624C34.0291 46.6007 34.073 47.1832 33.96 47.7405H33.9726Z" stroke="#60647B" stroke-width="2" stroke-miterlimit="10"/>
<path d="M33.9726 47.7405C33.8784 48.1838 33.6901 48.608 33.4264 48.9753C33.2945 49.1589 33.1438 49.3299 32.9806 49.4819C32.3779 50.0518 31.5806 50.3684 30.7519 50.3684H17.2413C16.4126 50.3684 15.6153 50.0518 15.0126 49.4819C14.843 49.3299 14.6924 49.1589 14.5668 48.9753C14.3031 48.608 14.1211 48.1838 14.0206 47.7405C13.9076 47.1769 13.9515 46.6007 14.1399 46.0624C14.6045 44.7136 15.339 43.4725 16.287 42.415C20.1544 38.1217 26.7401 37.8051 30.9967 41.7121C31.2416 41.9338 31.4739 42.1681 31.6936 42.415C32.6416 43.4725 33.3761 44.7136 33.8407 46.0624C34.0291 46.6007 34.073 47.1832 33.96 47.7405H33.9726Z" stroke="#60647B" stroke-width="2" stroke-miterlimit="10"/>
<path d="M10.4423 31.3891C10.4423 31.3891 7.28436 32.225 7.17135 34.1627C7.04579 36.341 9.17408 38.6713 9.50683 38.532C9.58216 38.5003 9.53194 38.3357 9.42521 38.0697C8.69694 36.284 8.80995 34.2577 9.77051 32.586C9.95885 32.2567 10.1786 31.8641 10.4423 31.3828V31.3891Z" fill="#D9D9D9"/>
<path d="M8.42673 41.0977C8.42673 41.0977 5.13071 42.5034 4.17643 44.4601C3.61139 45.6189 3.22843 46.9677 3.61139 47.7276C4.35849 49.1904 7.03926 49.2347 7.30295 49.127C7.39712 49.089 7.33434 48.9054 7.20249 48.6078C6.32983 46.6004 6.46795 44.3208 7.62313 42.4464C7.84914 42.0792 8.11283 41.6359 8.42673 41.0977Z" fill="#D9D9D9"/>
<path d="M37.0424 39.1721C39.3343 39.1721 41.1923 37.2981 41.1923 34.9864C41.1923 32.6748 39.3343 30.8008 37.0424 30.8008C34.7505 30.8008 32.8926 32.6748 32.8926 34.9864C32.8926 37.2981 34.7505 39.1721 37.0424 39.1721Z" stroke="#60647B" stroke-width="2" stroke-miterlimit="10"/>
<path d="M9.99683 2.19141H2.21193L1.86035 18.8327H5.50049C3.50049 15 3.03437 11.2213 6.22994 6.07945C7.17167 4.56603 9.01744 3.24257 9.99683 2.19141Z" fill="#D9D9D9"/>
<path d="M44.4011 48.3266C43.8926 49.0485 43.0701 49.4791 42.1912 49.4728H35.1408C35.3794 49.0358 35.5489 48.5672 35.6557 48.0796C35.8314 47.2121 35.7687 46.3193 35.4736 45.4834C35.1534 44.5525 34.7265 43.6723 34.1991 42.8491C33.8789 42.3426 33.5211 41.855 33.1318 41.4054C37.0745 39.2207 42.0217 40.6645 44.1939 44.6412C44.4137 45.0465 44.602 45.4771 44.7527 45.914C45.0352 46.7245 44.9034 47.63 44.4011 48.3266Z" stroke="#60647B" stroke-width="2" stroke-miterlimit="10"/>
<path d="M10.9379 39.1721C13.2298 39.1721 15.0878 37.2981 15.0878 34.9864C15.0878 32.6748 13.2298 30.8008 10.9379 30.8008C8.64604 30.8008 6.78809 32.6748 6.78809 34.9864C6.78809 37.2981 8.64604 39.1721 10.9379 39.1721Z" stroke="#60647B" stroke-width="2" stroke-miterlimit="10"/>
<path d="M12.5142 45.4859C12.2191 46.3281 12.1626 47.2399 12.3447 48.1138C12.4451 48.5887 12.6209 49.051 12.8532 49.4816H5.80284C4.9239 49.4816 4.10146 49.0573 3.59293 48.3354C3.0844 47.6389 2.95256 46.7397 3.24136 45.9228C4.71672 41.6358 9.36255 39.3625 13.6129 40.8506C14.0461 41.0026 14.4667 41.1926 14.8685 41.4142C14.473 41.8638 14.1088 42.3451 13.7886 42.8516C13.2613 43.6748 12.8344 44.5614 12.5142 45.4859Z" stroke="#60647B" stroke-width="2" stroke-miterlimit="10"/>
<path d="M43.974 1.63469H4.02618C2.758 1.58403 1.69071 2.57187 1.62793 3.84467V17.2692C1.68443 18.5483 2.758 19.5425 4.02618 19.4855H17.2166C17.4049 19.4855 17.587 19.5425 17.7314 19.6565L22.3458 23.6838C23.2938 24.4944 24.6876 24.4944 25.6419 23.6838L30.2563 19.6565C30.4007 19.5362 30.589 19.4792 30.7711 19.4855H43.9615C45.2297 19.5362 46.3032 18.5483 46.3597 17.2692V3.84467C46.297 2.56554 45.2297 1.58403 43.9615 1.63469H43.974Z" stroke="#60647B" stroke-width="2" stroke-miterlimit="10"/>
<path d="M13.5312 13.2542C13.5312 12.773 13.9142 12.3867 14.3914 12.3867H33.5962C34.0734 12.3867 34.4563 12.7793 34.4563 13.2542C34.4563 13.7292 34.0671 14.1218 33.5962 14.1218H14.3914C13.9205 14.1218 13.5312 13.7418 13.5312 13.2669C13.5312 13.2669 13.5312 13.2542 13.5312 13.2479V13.2542Z" stroke="#6644F1" stroke-width="2" stroke-miterlimit="10"/>
<path d="M37.9778 8.84052H10.0212C9.5441 8.84052 9.16113 8.44792 9.16113 7.973C9.16113 7.49807 9.55038 7.10547 10.0212 7.10547H37.9778C38.455 7.10547 38.8379 7.49807 38.8379 7.973C38.8379 8.44792 38.4487 8.84052 37.9778 8.84052Z" stroke="#6644F1" stroke-width="2" stroke-miterlimit="10"/>
</svg>
