<svg width="53" height="53" viewBox="0 0 53 53" fill="none" xmlns="http://www.w3.org/2000/svg">
<path d="M10.3979 5.41797C10.3979 5.41797 8.17971 5.47429 6.53636 7.15756C5.11795 8.6093 4.93049 10.3176 4.88675 10.812C4.69305 12.9333 5.5366 14.8981 7.11747 16.1496C7.69858 16.6064 8.24845 16.888 8.61711 17.0382C8.47964 16.5313 8.31718 15.8242 8.19221 14.9795C8.011 13.7718 7.89853 12.2011 8.15472 10.7619C8.61086 8.20257 9.72309 6.3566 10.3979 5.41797Z" fill="#D9D9D9"/>
<path d="M9.66031 20.8972C9.00422 20.7345 7.07343 20.3403 4.96144 21.0286C3.91794 21.3666 3.33058 21.9986 2.88069 22.3615C2.6495 22.6806 2.19336 23.0248 1.90592 23.638C0.749952 26.1098 1.21234 28.3187 1.21859 29.8518C1.23733 32.2484 0.906165 32.5487 2.03089 38.4558C2.48079 38.8313 2.53702 39.5008 4.2991 39.8763C5.92996 40.2267 5.30511 40.3581 5.92996 40.2267C4.87396 38.6999 3.54928 31.8479 6.79225 24.9333C7.55457 23.3001 8.59806 21.961 9.66031 20.891V20.8972Z" fill="#D9D9D9"/>
<path d="M26.4682 15.9297C26.4682 15.9297 24.25 15.986 22.6067 17.6693C21.1883 19.121 21.0008 20.8293 20.9571 21.3237C20.7634 23.445 21.6069 25.4098 23.1878 26.6613C23.7689 27.1181 24.3188 27.3997 24.6874 27.5499C24.55 27.043 24.3875 26.3359 24.2625 25.4912C24.0813 24.2835 23.9688 22.7128 24.225 21.2736C24.6812 18.7143 25.7934 16.8683 26.4682 15.9297Z" fill="#D9D9D9"/>
<path d="M25.7257 31.409C25.0696 31.2463 23.1389 30.852 21.0269 31.5404C19.9834 31.8783 19.396 32.5103 18.9461 32.8732C18.7149 33.1924 18.2588 33.5365 17.9714 34.1498C16.8154 36.6215 17.2778 38.8304 17.284 40.3635C17.3028 42.7601 16.9716 43.0605 18.0963 48.9676C18.5462 49.343 18.6025 50.0126 20.3645 50.388C21.9954 50.7384 21.3705 50.8699 21.9954 50.7384C20.9394 49.2116 19.6147 42.3596 22.8577 35.4451C23.62 33.8118 24.6635 32.4727 25.7257 31.4027V31.409Z" fill="#D9D9D9"/>
<path d="M42.4897 5.41797C42.4897 5.41797 40.2715 5.47429 38.6282 7.15756C37.2097 8.6093 37.0223 10.3176 36.9786 10.812C36.7848 12.9333 37.6284 14.8981 39.2093 16.1496C39.7904 16.6064 40.3402 16.888 40.7089 17.0382C40.5714 16.5313 40.409 15.8242 40.284 14.9795C40.1028 13.7718 39.9903 12.2011 40.2465 10.7619C40.7027 8.20257 41.8149 6.3566 42.4897 5.41797Z" fill="#D9D9D9"/>
<path d="M35.411 39.5756C35.6609 39.6882 35.9796 39.7883 36.3858 39.8759C36.4045 39.8759 36.4232 39.8759 36.442 39.8885C36.442 39.8885 36.4441 39.8885 36.4482 39.8885C37.9979 40.2389 37.398 40.3578 38.0166 40.2326C36.9606 38.7058 35.6359 31.8538 38.8789 24.9392C39.6412 23.306 40.691 21.9669 41.747 20.8969C41.2221 20.7655 39.8849 20.4901 38.2915 20.7342H38.2791C37.8791 20.7968 37.4667 20.8906 37.0481 21.0283C36.0108 21.3662 35.4172 21.9982 34.9673 22.3611C34.7362 22.6803 34.28 23.0244 33.9926 23.6377C33.3177 25.0894 33.1928 26.4598 33.2178 27.6425C33.2178 27.6425 33.2178 27.655 33.2178 27.6613C33.2178 27.6613 33.2178 27.68 33.2178 27.6863C33.2303 28.506 33.3052 29.2319 33.3115 29.8514C33.3115 31.1655 33.224 31.8475 33.3115 33.1679C33.7864 33.7874 34.4362 34.7698 34.8861 36.1152C35.361 37.5356 35.4235 38.7746 35.4047 39.5756H35.411Z" fill="#D9D9D9"/>
<path d="M26.4253 13.5562C18.371 12.4236 19.3395 0.765802 27.4563 1.00359C35.973 1.76701 34.9045 14.1757 26.4253 13.5562Z" stroke="#60647B" stroke-width="2" stroke-miterlimit="10"/>
<path d="M10.5981 17.9878C14.0663 17.9878 16.8778 15.1722 16.8778 11.699C16.8778 8.22575 14.0663 5.41016 10.5981 5.41016C7.1299 5.41016 4.31836 8.22575 4.31836 11.699C4.31836 15.1722 7.1299 17.9878 10.5981 17.9878Z" stroke="#5E6377" stroke-width="2" stroke-miterlimit="10"/>
<path d="M19.5393 32.6179V27.8372C19.5393 23.7072 16.1651 20.3281 12.0411 20.3281H8.4982C4.37419 20.3281 1 23.7072 1 27.8372V33.7317C1 37.8617 4.37419 41.2408 8.4982 41.2408H12.0411C13.8782 41.2408 15.5652 40.5712 16.8712 39.4574" stroke="#5E6377" stroke-width="2" stroke-miterlimit="10"/>
<path d="M42.809 17.9878C46.2772 17.9878 49.0888 15.1722 49.0888 11.699C49.0888 8.22575 46.2772 5.41016 42.809 5.41016C39.3408 5.41016 36.5293 8.22575 36.5293 11.699C36.5293 15.1722 39.3408 17.9878 42.809 17.9878Z" stroke="#5E6377" stroke-width="2" stroke-miterlimit="10"/>
<path d="M35.4104 39.0256C36.7663 40.396 38.6471 41.2408 40.7091 41.2408H44.252C48.376 41.2408 51.7502 37.8617 51.7502 33.7317V27.8372C51.7502 23.7072 48.376 20.3281 44.252 20.3281H40.7091C36.5851 20.3281 33.2109 23.7072 33.2109 27.8372V33.0559" stroke="#5E6377" stroke-width="2" stroke-miterlimit="10"/>
<path d="M26.4692 28.4995C29.9374 28.4995 32.7489 25.6839 32.7489 22.2107C32.7489 18.7375 29.9374 15.9219 26.4692 15.9219C23.001 15.9219 20.1895 18.7375 20.1895 22.2107C20.1895 25.6839 23.001 28.4995 26.4692 28.4995Z" stroke="#5E6377" stroke-width="2" stroke-miterlimit="10"/>
<path d="M27.9122 30.8477H24.3693C20.2282 30.8477 16.8711 34.2096 16.8711 38.3567V44.2513C16.8711 48.3984 20.2282 51.7603 24.3693 51.7603H27.9122C32.0533 51.7603 35.4104 48.3984 35.4104 44.2513V38.3567C35.4104 34.2096 32.0533 30.8477 27.9122 30.8477Z" stroke="#5E6377" stroke-width="2" stroke-miterlimit="10"/>
<path d="M30.6672 6.67109H28.0828V4.08673C28.0828 3.69166 27.7618 3.37891 27.375 3.37891C26.9882 3.37891 26.6672 3.69989 26.6672 4.08673V6.67109H24.0828C23.6878 6.67109 23.375 6.99208 23.375 7.37891C23.375 7.76574 23.696 8.08673 24.0828 8.08673H26.6672V10.6711C26.6672 11.0661 26.9882 11.3789 27.375 11.3789C27.7618 11.3789 28.0828 11.0579 28.0828 10.6711V8.08673H30.6672C31.0622 8.08673 31.375 7.76574 31.375 7.37891C31.375 6.99208 31.054 6.67109 30.6672 6.67109Z" fill="#6644F1"/>
</svg>
