<svg width="26" height="26" viewBox="0 0 26 26" fill="none" xmlns="http://www.w3.org/2000/svg">
<circle cx="13" cy="13" r="13" fill="#0355F9"/>
<path d="M9.8468 11.4572C9.78012 9.95949 11.0919 8.67613 12.6632 8.75277C13.3998 8.78869 14.1599 8.81502 14.8057 8.81502C15.5577 8.81502 16.4648 8.77931 17.3091 8.73434C18.7561 8.65725 19.9973 9.74155 19.9973 11.1224V15.8794C19.9973 17.2603 18.7561 18.3446 17.3091 18.2675C16.4648 18.2225 15.5577 18.1868 14.8057 18.1868C14.1377 18.1868 13.3473 18.215 12.5873 18.2528C11.0409 18.3298 9.74935 17.0886 9.82334 15.615C9.86037 14.8774 9.88738 14.059 9.88738 13.2406C9.88738 12.6079 9.87124 12.0059 9.8468 11.4572Z" fill="white"/>
<path d="M6 10.2369C6 9.40493 6.71194 8.73047 7.59015 8.73047V8.73047C8.46837 8.73047 9.18031 9.40493 9.18031 10.2369V16.7649C9.18031 17.5969 8.46837 18.2714 7.59015 18.2714V18.2714C6.71194 18.2714 6 17.5969 6 16.7649V10.2369Z" fill="white"/>
</svg>
