<?xml version="1.0" encoding="utf-8"?>
<!-- Generator: Adobe Illustrator 27.0.1, SVG Export Plug-In . SVG Version: 6.00 Build 0)  -->
<svg version="1.1" id="Layer_1" xmlns="http://www.w3.org/2000/svg" xmlns:xlink="http://www.w3.org/1999/xlink" x="0px" y="0px"
	 width="100px" height="100px" viewBox="0 0 100 100" style="enable-background:new 0 0 100 100;" xml:space="preserve">
<style type="text/css">
	.st0{fill:#DDDCFF;stroke:#FFFFFF;stroke-width:5;stroke-miterlimit:10;}
	.st1{fill:#5E35D6;}
</style>
<circle class="st0" cx="50.5" cy="48.5" r="46"/>
<g id="Customer_Journey_Enhancement">
	<g id="Group_00000067950700521866927260000016970712634647345582_">
		<path id="Vector_00000036961066838003376390000016029183390759584181_" class="st1" d="M51.1,55.5h14.2c1.3,0,1.9,1.6,1,2.5
			c-0.3,0.3-0.6,0.4-1,0.4H51.1c-1.3,0-1.9-1.6-1-2.5C50.4,55.6,50.7,55.5,51.1,55.5z M65.3,56.2H51.1c-0.7,0-1,0.8-0.5,1.3
			c0.1,0.1,0.3,0.2,0.5,0.2h14.2c0.7,0,1-0.8,0.5-1.3C65.7,56.2,65.5,56.2,65.3,56.2z M51.1,51.1h14.2c1.3,0,1.9,1.6,1,2.5
			c-0.3,0.3-0.6,0.4-1,0.4H51.1c-1.3,0-1.9-1.6-1-2.5C50.4,51.3,50.7,51.1,51.1,51.1z M65.3,51.8H51.1c-0.7,0-1,0.8-0.5,1.3
			c0.1,0.1,0.3,0.2,0.5,0.2h14.2c0.7,0,1-0.8,0.5-1.3C65.7,51.9,65.5,51.8,65.3,51.8z M51.1,46.8h14.2c1.3,0,1.9,1.6,1,2.5
			c-0.3,0.3-0.6,0.4-1,0.4H51.1c-1.3,0-1.9-1.6-1-2.5C50.4,47,50.7,46.8,51.1,46.8z M65.3,47.5H51.1c-0.7,0-1,0.8-0.5,1.3
			c0.1,0.1,0.3,0.2,0.5,0.2h14.2c0.7,0,1-0.8,0.5-1.3C65.7,47.6,65.5,47.5,65.3,47.5z M39.5,43.6c-2.2,0-4.1,1.8-4.1,4.1v1
			c0,2.2,1.8,4.1,4.1,4.1c2.2,0,4.1-1.8,4.1-4.1v-1C43.6,45.4,41.8,43.6,39.5,43.6z M39.5,42.9V36c-0.8-0.1-1.5-0.8-1.5-1.6v-1.1
			c0-0.9,0.7-1.6,1.6-1.6h29.5c0.9,0,1.6,0.7,1.6,1.6v1.1c0,0.8-0.6,1.5-1.5,1.6v25.3c0,0.2-0.2,0.3-0.3,0.3H47.3L47.2,63
			c-0.1,1.2-1,2.2-2.2,2.2H34.1c-1.2,0-2.1-1-2.2-2.2l-0.5-5.4c0-0.1,0-0.3,0-0.4c0-2.7,2.3-4.8,4.9-5.1c-0.9-0.9-1.5-2.1-1.5-3.5
			v-1C34.8,45.1,36.9,42.9,39.5,42.9z M40.2,43c2.3,0.3,4.1,2.3,4.1,4.7v1c0,1.4-0.6,2.6-1.5,3.5c2.7,0.3,5.1,2.7,4.8,5.5L47.3,61
			h21.3V36H40.2V43z M41.9,52.8c-0.7,0.4-1.5,0.6-2.3,0.6c-0.9,0-1.7-0.2-2.3-0.6l-0.7,0c-2.3,0.2-4.4,2.1-4.4,4.4
			c0,0.1,0,0.2,0,0.3l0.5,5.4c0.1,0.8,0.7,1.5,1.5,1.5h0.5v-7.3c0-0.5,0.7-0.5,0.7,0v7.3h8.4v-7.3c0-0.5,0.7-0.5,0.7,0v7.3
			c0.6,0,1.1,0.1,1.5-0.4c0.3-0.3,0.5-0.7,0.5-1.1l0.5-5.4c0.2-2.7-2.2-4.8-4.8-4.8H41.9z M62.8,38.6l0.8,1.5l1.7,0.3
			c0.3,0.1,0.4,0.4,0.2,0.6l-1.2,1.2l0.2,1.7c0,0.3-0.2,0.5-0.5,0.3l-1.5-0.7l-1.6,0.7c-0.2,0.1-0.5-0.1-0.5-0.4l0.2-1.7L59.5,41
			c-0.2-0.2-0.1-0.5,0.2-0.6l1.7-0.3l0.8-1.5C62.3,38.3,62.7,38.3,62.8,38.6z M63.1,40.5l-0.6-1.1l-0.6,1.1
			c-0.1,0.1-0.1,0.2-0.2,0.2l-1.2,0.2l0.8,0.9c0.1,0.1,0.1,0.2,0.1,0.3l-0.2,1.3l1.2-0.5c0.1,0,0.2,0,0.3,0l1.2,0.5l-0.2-1.3
			c0-0.1,0-0.2,0.1-0.3l0.9-0.9l-1.2-0.2C63.3,40.7,63.2,40.6,63.1,40.5z M54.7,38.6l0.8,1.5l1.7,0.3c0.3,0.1,0.4,0.4,0.2,0.6
			l-1.2,1.2l0.2,1.7c0,0.3-0.2,0.5-0.5,0.3l-1.5-0.7l-1.6,0.7c-0.2,0.1-0.5-0.1-0.5-0.4l0.2-1.7L51.4,41c-0.2-0.2-0.1-0.5,0.2-0.6
			l1.7-0.3l0.8-1.5C54.3,38.3,54.6,38.3,54.7,38.6z M55,40.5l-0.6-1.1l-0.6,1.1c0,0.1-0.1,0.2-0.2,0.2l-1.2,0.2l0.8,0.9
			c0.1,0.1,0.1,0.2,0.1,0.3l-0.2,1.3l1.2-0.5c0.1,0,0.2,0,0.3,0l1.2,0.5l-0.2-1.3c0-0.1,0-0.2,0.1-0.3l0.9-0.9l-1.2-0.2
			C55.2,40.7,55.1,40.6,55,40.5z M46.6,38.6l0.8,1.5l1.7,0.3c0.3,0.1,0.4,0.4,0.2,0.6l-1.2,1.2l0.2,1.7c0,0.3-0.2,0.5-0.5,0.3
			l-1.5-0.7l-1.6,0.7c-0.2,0.1-0.5-0.1-0.5-0.4l0.2-1.7L43.3,41c-0.2-0.2-0.1-0.5,0.2-0.6l1.7-0.3l0.8-1.5
			C46.2,38.3,46.5,38.3,46.6,38.6z M46.9,40.5l-0.6-1.1l-0.6,1.1c-0.1,0.1-0.1,0.2-0.2,0.2l-1.2,0.2l0.8,0.9
			c0.1,0.1,0.1,0.2,0.1,0.3L45,43.4l1.2-0.5c0.1,0,0.2,0,0.3,0l1.2,0.5l-0.2-1.3c0-0.1,0-0.2,0.1-0.3l0.9-0.9l-1.2-0.2
			C47.1,40.7,47,40.6,46.9,40.5z M69.2,32.4H39.7c-0.5,0-0.9,0.4-0.9,0.9v1.1c0,0.5,0.4,0.9,0.9,0.9h29.5c0.5,0,0.9-0.4,0.9-0.9
			v-1.1C70.1,32.8,69.7,32.4,69.2,32.4z"/>
	</g>
</g>
<g>
</g>
<g>
</g>
<g>
</g>
<g>
</g>
<g>
</g>
<g>
</g>
<g>
</g>
<g>
</g>
<g>
</g>
<g>
</g>
<g>
</g>
<g>
</g>
<g>
</g>
<g>
</g>
<g>
</g>
</svg>
