<?xml version="1.0" encoding="utf-8"?>
<!-- Generator: Adobe Illustrator 27.0.1, SVG Export Plug-In . SVG Version: 6.00 Build 0)  -->
<svg version="1.1" id="Layer_1" xmlns="http://www.w3.org/2000/svg" xmlns:xlink="http://www.w3.org/1999/xlink" x="0px" y="0px"
	 width="100px" height="100px" viewBox="0 0 100 100" style="enable-background:new 0 0 100 100;" xml:space="preserve">
<style type="text/css">
	.st0{fill:#FFF2EB;stroke:#FFFFFF;stroke-width:5;stroke-miterlimit:10;}
	.st1{fill:#F1AA58;}
</style>
<circle class="st0" cx="50.5" cy="48.5" r="46"/>
<g id="Customer_Retention_Strategies">
	<path id="Vector" class="st1" d="M69.5,38c-1.5,0-2.7,1.2-2.7,2.7V48c-1-0.5-2.2-0.3-3,0.5l-7.9,7.9c0,0-0.1,0.1-0.1,0.1
		c0,0.1,0,0.1,0,0.2v4h-0.3c-0.1,0-0.2,0-0.3,0.1C55.1,61,55,61.1,55,61.3v3.5c0,0.1,0,0.2,0.1,0.3c0.1,0.1,0.2,0.1,0.3,0.1h10.2
		c0.1,0,0.2,0,0.3-0.1c0.1-0.1,0.1-0.2,0.1-0.3v-3.5c0-0.1,0-0.2-0.1-0.3c-0.1-0.1-0.2-0.1-0.3-0.1h-0.3v-1.9l5.9-5.9
		c0.5-0.5,0.8-1.2,0.8-1.9V40.6C72.1,39.2,70.9,38,69.5,38z M65.2,64.3h-9.3v-2.6h9.3L65.2,64.3z M71.2,51.1c0,0.5-0.2,0.9-0.5,1.2
		l-6.1,6.1c0,0-0.1,0.1-0.1,0.1c0,0.1,0,0.1,0,0.2v2.1h-7.8V57l7.8-7.8c0.7-0.7,1.8-0.7,2.5,0l0,0c0.7,0.7,0.7,1.8,0,2.5l-3.6,3.6
		c-0.1,0.1-0.1,0.1-0.1,0.2c0,0.1,0,0.2,0,0.3c0,0.1,0.1,0.2,0.2,0.2c0.1,0,0.2,0.1,0.2,0.1c0.1,0,0.1,0,0.2,0
		c0.1,0,0.1-0.1,0.1-0.1l3.6-3.6c1-1,1-2.6,0.1-3.6v-8c0-1,0.8-1.8,1.8-1.8s1.8,0.8,1.8,1.8V51.1z M47.5,60.8h-0.3v-4
		c0-0.1,0-0.2-0.1-0.3l-7.9-7.9c-0.8-0.8-2-1-3-0.5v-7.4c0-1.5-1.2-2.7-2.7-2.7c-1.5,0-2.7,1.2-2.7,2.7v10.4c0,0.7,0.3,1.4,0.8,1.9
		l5.9,5.9v1.9h-0.3c-0.1,0-0.2,0-0.3,0.1c-0.1,0.1-0.1,0.2-0.1,0.3v3.5c0,0.1,0,0.2,0.1,0.3c0.1,0.1,0.2,0.1,0.3,0.1h10.2
		c0.1,0,0.2,0,0.3-0.1c0.1-0.1,0.1-0.2,0.1-0.3v-3.5c0-0.1,0-0.2-0.1-0.3C47.7,60.9,47.6,60.8,47.5,60.8z M38.3,58.4l-6.1-6.1
		c-0.3-0.3-0.5-0.8-0.5-1.2V40.6c0-1,0.8-1.8,1.8-1.8c1,0,1.8,0.8,1.8,1.8v8c-0.9,1-0.9,2.6,0.1,3.6l3.6,3.6C39,56,39.1,56,39.2,56
		c0.1,0,0.2,0,0.3-0.1c0,0,0.1-0.1,0.1-0.1c0-0.1,0-0.1,0-0.2c0-0.1,0-0.1,0-0.2s-0.1-0.1-0.1-0.1L36,51.7c-0.7-0.7-0.7-1.8,0-2.5
		l0,0c0.7-0.7,1.8-0.7,2.5,0l7.8,7.8v3.8h-7.8v-2.1c0-0.1,0-0.1,0-0.2S38.3,58.4,38.3,58.4z M47,64.3h-9.3v-2.6H47L47,64.3z
		 M44.7,42.1c0,0.1,0,0.2,0.1,0.3c0.1,0.1,0.2,0.1,0.3,0.1h12.6c0.1,0,0.2,0,0.3-0.1c0.1-0.1,0.1-0.2,0.1-0.3c0-3-2-5.6-4.8-6.5
		c0.9-0.6,1.6-1.7,1.6-2.9c0-1.9-1.6-3.5-3.5-3.5s-3.5,1.6-3.5,3.5c0,1.2,0.6,2.3,1.6,2.9C46.7,36.4,44.7,39,44.7,42.1z M48.8,32.7
		c0-1.5,1.2-2.6,2.6-2.6c1.5,0,2.6,1.2,2.6,2.6c0,1.5-1.2,2.6-2.6,2.6C50,35.3,48.8,34.1,48.8,32.7z M51.5,36.2
		c3.1,0,5.6,2.4,5.9,5.4H45.6C45.8,38.6,48.4,36.2,51.5,36.2z M40.2,30.7c1.2-2.2,3-4,5.2-5.2c2.3-1.2,4.8-1.7,7.4-1.5
		c4.3,0.4,8,3,10,6.8l0.3-0.7c0-0.1,0.1-0.2,0.2-0.2c0.1,0,0.1,0,0.2,0c0.1,0,0.1,0,0.2,0c0.1,0,0.1,0.1,0.1,0.1
		c0,0,0.1,0.1,0.1,0.1c0,0.1,0,0.1,0,0.2c0,0.1,0,0.1,0,0.2L63.2,32l0,0v0l0,0c0,0,0,0,0,0l0,0l0,0l0,0l0,0l0,0l0,0l0,0l0,0l0,0v0
		l0,0l0,0l0,0l0,0l0,0l0,0l0,0l0,0l0,0l0,0l0,0l0,0l0,0c0,0,0,0,0,0l0,0l0,0l0,0l0,0l0,0l0,0l0,0l0,0l0,0l0,0c0,0,0,0,0,0l0,0l0,0
		c0,0,0,0,0,0l0,0l0,0l0,0l0,0l0,0c0,0,0,0,0,0l0,0c0,0,0,0,0,0c-0.1,0.1-0.1,0.2-0.3,0.2c-0.1,0-0.1,0-0.2,0L61.1,32
		c-0.1,0-0.1,0-0.2-0.1c-0.1,0-0.1-0.1-0.1-0.1c0,0-0.1-0.1-0.1-0.2c0-0.1,0-0.1,0-0.2c0-0.1,0-0.1,0.1-0.2c0-0.1,0.1-0.1,0.1-0.1
		c0,0,0.1-0.1,0.2-0.1s0.1,0,0.2,0l0.9,0.1c-1.8-3.6-5.4-6-9.4-6.4c-4.8-0.5-9.4,2-11.7,6.2c-0.1,0.1-0.2,0.2-0.3,0.2
		c-0.1,0-0.2,0-0.3,0c-0.1-0.1-0.2-0.2-0.2-0.3C40.1,30.9,40.1,30.8,40.2,30.7z M57.5,48c-1.9,1-3.9,1.5-6.1,1.5
		c-0.4,0-0.9,0-1.3-0.1c-4.3-0.4-8-3-10-6.8l-0.3,0.7c0,0.1-0.1,0.2-0.2,0.2c-0.1,0-0.2,0-0.3,0c-0.1,0-0.2-0.1-0.2-0.2s0-0.2,0-0.3
		l0.7-1.6c0-0.1,0.1-0.1,0.1-0.2c0,0,0.1-0.1,0.2-0.1l0,0c0.1,0,0.1,0,0.2,0l1.7,0.3c0.1,0,0.2,0.1,0.3,0.2c0.1,0.1,0.1,0.2,0.1,0.3
		c0,0.1-0.1,0.2-0.2,0.3c-0.1,0.1-0.2,0.1-0.3,0.1l-0.9-0.1c1.8,3.6,5.4,6,9.4,6.4c4.8,0.5,9.4-1.9,11.7-6.2
		c0.1-0.1,0.2-0.2,0.3-0.2c0.1,0,0.2,0,0.3,0s0.2,0.2,0.2,0.3c0,0.1,0,0.2,0,0.3C61.6,45,59.8,46.8,57.5,48z"/>
</g>
<g>
</g>
<g>
</g>
<g>
</g>
<g>
</g>
<g>
</g>
<g>
</g>
<g>
</g>
<g>
</g>
<g>
</g>
<g>
</g>
<g>
</g>
<g>
</g>
<g>
</g>
<g>
</g>
<g>
</g>
</svg>
