<?xml version="1.0" encoding="utf-8"?>
<!-- Generator: Adobe Illustrator 27.0.1, SVG Export Plug-In . SVG Version: 6.00 Build 0)  -->
<svg version="1.1" id="Layer_1" xmlns="http://www.w3.org/2000/svg" xmlns:xlink="http://www.w3.org/1999/xlink" x="0px" y="0px"
	 width="100px" height="100px" viewBox="0 0 100 100" style="enable-background:new 0 0 100 100;" xml:space="preserve">
<style type="text/css">
	.st0{fill:#FFE7E7;stroke:#FFFFFF;stroke-width:5;stroke-miterlimit:10;}
	.st1{fill:#FB4455;}
</style>
<circle class="st0" cx="50.5" cy="48.5" r="46"/>
<g id="Targeted_Marketing_Campaigns">
	<path id="Vector" class="st1" d="M66.8,32.5c-0.1-0.1-0.2-0.2-0.4-0.2c-0.2,0-0.3,0-0.4,0.1c-0.1,0.1-0.2,0.2-0.2,0.4
		c0,0.2,0,0.3,0.1,0.4c1.5,1.8,2.3,4.1,2.3,6.5c0,1.6-0.4,3.2-1.1,4.7c-0.7,1.5-1.8,2.7-3.1,3.7c-1.3,1-2.9,1.6-4.5,1.9
		c-1.6,0.3-3.3,0.1-4.8-0.4c-0.1,0-0.3,0-0.4,0L49.2,52l1.7-4c0-0.1,0.1-0.2,0-0.4c0-0.1-0.1-0.2-0.2-0.3c-1-1-1.9-2.1-2.4-3.4
		c-0.6-1.3-0.9-2.7-0.9-4.1c0-2.7,1.1-5.4,3-7.3c1.9-1.9,4.6-3,7.3-3c2.3,0,4.6,0.8,6.5,2.3c0.1,0.1,0.1,0.1,0.2,0.1
		c0.1,0,0.2,0,0.2,0c0.1,0,0.2,0,0.2-0.1c0.1,0,0.1-0.1,0.2-0.2c0.1-0.1,0.1-0.1,0.1-0.2c0-0.1,0-0.2,0-0.2c0-0.1,0-0.2-0.1-0.2
		c0-0.1-0.1-0.1-0.2-0.2c-2-1.6-4.6-2.5-7.2-2.5c-3.1,0-6,1.2-8.2,3.4c-2.2,2.2-3.4,5.1-3.4,8.2c0,1.5,0.3,3,0.9,4.4
		c0.6,1.4,1.4,2.7,2.5,3.7l-1.6,3.9l-3.1-5.4c-0.2-0.4-0.6-0.7-1-0.8c-0.4-0.1-0.9-0.1-1.3,0.1c-0.4,0.2-0.7,0.5-0.9,0.9
		c-0.2,0.4-0.2,0.9-0.1,1.3L41,48.7c-1.2,2-2.8,3.6-4.8,4.8l-1.6,0.9c-0.8,0.5-1.5,1.3-1.7,2.2s-0.1,1.9,0.4,2.8
		c0.5,0.8,1.3,1.5,2.2,1.7c0.9,0.3,1.9,0.1,2.8-0.4l1.6-0.9c0.3-0.2,0.5-0.3,0.8-0.4l2.8,2.8c0.1,0.1,0.2,0.2,0.2,0.3
		c0,0.1,0.1,0.2,0,0.4c0,0.1-0.1,0.2-0.1,0.3c-0.1,0.1-0.2,0.2-0.3,0.3c-0.2,0.1-0.4,0.1-0.5,0.1c-0.2,0-0.4-0.1-0.5-0.3l-1.8-2.1
		c-0.1-0.1-0.3-0.2-0.4-0.2c-0.2,0-0.3,0-0.4,0.1c-0.1,0.1-0.2,0.3-0.2,0.4c0,0.2,0,0.3,0.1,0.4l1.8,2.1c0.2,0.2,0.4,0.4,0.6,0.5
		s0.5,0.2,0.8,0.2c0.3,0,0.5,0,0.8-0.1s0.5-0.2,0.7-0.4c0.2-0.2,0.4-0.4,0.5-0.7c0.1-0.2,0.2-0.5,0.2-0.8c0-0.3,0-0.5-0.1-0.8
		c-0.1-0.3-0.3-0.5-0.4-0.7l-2.5-2.4c1.4-0.5,3-0.8,4.5-0.8l0.9,0c0.3,0.3,0.7,0.5,1.2,0.6c0.4,0,0.9-0.1,1.3-0.3
		c0.4-0.3,0.6-0.7,0.7-1.1c0.1-0.4,0-0.9-0.2-1.3l-1.4-2.4l5.6-2.6c2.4,0.7,4.9,0.7,7.2-0.2c2.3-0.8,4.3-2.4,5.7-4.4
		c1.4-2,2.1-4.5,2-6.9C69.3,36.8,68.4,34.5,66.8,32.5z M37.7,59.7c-0.3,0.2-0.6,0.3-0.9,0.3c-0.3,0-0.6,0-1-0.1
		c-0.3-0.1-0.6-0.2-0.9-0.4c-0.3-0.2-0.5-0.4-0.6-0.7c-0.2-0.3-0.3-0.6-0.3-0.9c0-0.3,0-0.6,0.1-1c0.1-0.3,0.2-0.6,0.4-0.9
		c0.2-0.3,0.4-0.5,0.7-0.6l1.1-0.6l2.4,4.2L37.7,59.7z M49.3,57c0,0.1-0.1,0.1-0.1,0.2c0,0.1-0.1,0.1-0.2,0.2s-0.1,0.1-0.2,0.1
		c-0.1,0-0.2,0-0.2,0c-0.1,0-0.1-0.1-0.2-0.1c-0.1,0-0.1-0.1-0.2-0.2l-2.7-4.7c-0.1-0.1-0.2-0.2-0.4-0.3c-0.2,0-0.3,0-0.5,0.1
		c-0.1,0.1-0.2,0.2-0.3,0.4c0,0.2,0,0.3,0.1,0.5l2.2,3.8h-0.2c-2.3,0-4.6,0.6-6.6,1.6l-2.5-4.3c1.9-1.2,3.6-2.9,4.7-4.9l0.1-0.2
		l1,1.8c0,0.1,0.1,0.1,0.2,0.2c0.1,0,0.1,0.1,0.2,0.1c0.1,0,0.2,0,0.2,0c0.1,0,0.2,0,0.2-0.1c0.1,0,0.1-0.1,0.2-0.2
		c0-0.1,0.1-0.1,0.1-0.2c0-0.1,0-0.2,0-0.2c0-0.1,0-0.2-0.1-0.2l-1.5-2.7c0-0.1-0.1-0.1-0.1-0.2c0-0.1,0-0.2,0-0.2
		c0-0.1,0.1-0.2,0.1-0.2c0-0.1,0.1-0.1,0.2-0.2c0.1,0,0.1-0.1,0.2-0.1c0.1,0,0.2,0,0.2,0c0.1,0,0.2,0.1,0.2,0.1
		c0.1,0.1,0.1,0.1,0.2,0.2l5.5,9.5c0,0.1,0.1,0.1,0.1,0.2C49.3,56.8,49.3,56.9,49.3,57z"/>
	<path id="Vector_2" class="st1" d="M57.8,48.9c0.2,0,0.3-0.1,0.4-0.2c0.1-0.1,0.2-0.3,0.2-0.4v-0.6c1.9-0.1,3.7-1,5-2.3
		c1.3-1.3,2.1-3.1,2.3-5h0.6c0.2,0,0.3-0.1,0.4-0.2c0.1-0.1,0.2-0.3,0.2-0.4c0-0.2-0.1-0.3-0.2-0.4c-0.1-0.1-0.3-0.2-0.4-0.2h-0.6
		c-0.1-1.9-1-3.7-2.3-5c-1.3-1.3-3.1-2.1-5-2.3v-0.6c0-0.2-0.1-0.3-0.2-0.4s-0.3-0.2-0.4-0.2c-0.2,0-0.3,0.1-0.4,0.2
		s-0.2,0.3-0.2,0.4v0.6c-1.9,0.1-3.7,1-5,2.3s-2.1,3.1-2.3,5h-0.6c-0.2,0-0.3,0.1-0.4,0.2s-0.2,0.3-0.2,0.4c0,0.2,0.1,0.3,0.2,0.4
		c0.1,0.1,0.3,0.2,0.4,0.2h0.6c0.1,0.7,0.2,1.5,0.5,2.1c0.1,0.2,0.2,0.3,0.3,0.3c0.1,0.1,0.3,0.1,0.5,0c0.2-0.1,0.3-0.2,0.3-0.3
		c0.1-0.1,0.1-0.3,0-0.5c-0.2-0.6-0.3-1.1-0.4-1.7h0.6c0.2,0,0.3-0.1,0.4-0.2c0.1-0.1,0.2-0.3,0.2-0.4c0-0.2-0.1-0.3-0.2-0.4
		c-0.1-0.1-0.3-0.2-0.4-0.2h-0.6c0.1-1.6,0.8-3,1.9-4.1c1.1-1.1,2.6-1.8,4.1-1.9v0.6c0,0.2,0.1,0.3,0.2,0.4c0.1,0.1,0.3,0.2,0.4,0.2
		c0.2,0,0.3-0.1,0.4-0.2c0.1-0.1,0.2-0.3,0.2-0.4v-0.6c1.6,0.1,3,0.8,4.1,1.9c1.1,1.1,1.8,2.6,1.9,4.1h-0.6c-0.2,0-0.3,0.1-0.4,0.2
		s-0.2,0.3-0.2,0.4c0,0.2,0.1,0.3,0.2,0.4c0.1,0.1,0.3,0.2,0.4,0.2h0.6c-0.1,1.6-0.8,3-1.9,4.1c-1.1,1.1-2.6,1.8-4.1,1.9v-0.6
		c0-0.2-0.1-0.3-0.2-0.4c-0.1-0.1-0.3-0.2-0.4-0.2c-0.2,0-0.3,0.1-0.4,0.2c-0.1,0.1-0.2,0.3-0.2,0.4v0.6c-0.9-0.1-1.7-0.3-2.5-0.7
		c-0.8-0.4-1.5-1-2-1.7c-0.1-0.1-0.3-0.2-0.4-0.2c-0.2,0-0.3,0-0.4,0.1c-0.1,0.1-0.2,0.3-0.2,0.4c0,0.2,0,0.3,0.1,0.4
		c0.7,0.8,1.5,1.5,2.5,2c0.9,0.5,2,0.8,3,0.9v0.6c0,0.2,0.1,0.3,0.2,0.4C57.5,48.8,57.6,48.9,57.8,48.9z"/>
	<path id="Vector_3" class="st1" d="M54.8,41.3V43c0,0.1,0,0.2,0.1,0.3c0,0.1,0.1,0.2,0.2,0.2c0.8,0.6,1.8,0.9,2.8,0.9
		s2-0.3,2.8-0.9c0.1-0.1,0.1-0.1,0.2-0.2c0-0.1,0.1-0.2,0.1-0.3v-1.7c0-0.4-0.1-0.8-0.3-1.2c-0.2-0.4-0.5-0.7-0.9-0.9
		c0.4-0.4,0.6-1,0.6-1.6c0-0.6-0.3-1.3-0.7-1.7s-1.1-0.7-1.7-0.7c-0.6,0-1.3,0.3-1.7,0.7c-0.5,0.5-0.7,1.1-0.7,1.7
		c0,0.6,0.2,1.1,0.6,1.6c-0.4,0.2-0.7,0.5-0.9,0.9C54.9,40.5,54.8,40.9,54.8,41.3z M59.6,42.6c-0.6,0.3-1.2,0.5-1.8,0.5
		c-0.6,0-1.3-0.2-1.8-0.5v-1.3c0-0.3,0.1-0.6,0.4-0.9c0.2-0.2,0.5-0.4,0.9-0.4h1.2c0.3,0,0.6,0.1,0.9,0.4c0.2,0.2,0.4,0.5,0.4,0.9
		V42.6z M57.8,36.4c0.2,0,0.5,0.1,0.7,0.2c0.2,0.1,0.4,0.3,0.4,0.5c0.1,0.2,0.1,0.5,0.1,0.7c0,0.2-0.2,0.5-0.3,0.6
		c-0.2,0.2-0.4,0.3-0.6,0.3c-0.2,0-0.5,0-0.7-0.1c-0.2-0.1-0.4-0.2-0.5-0.4c-0.1-0.2-0.2-0.4-0.2-0.7c0-0.3,0.1-0.6,0.4-0.9
		C57.2,36.5,57.5,36.4,57.8,36.4z M38.5,43.9c0.1,0,0.1,0.1,0.2,0.1c0.1,0,0.2,0,0.2,0s0.2,0,0.2-0.1c0.1,0,0.1-0.1,0.2-0.2
		c0-0.1,0.1-0.1,0.1-0.2c0-0.1,0-0.2,0-0.2c0-0.1,0-0.2-0.1-0.2c0-0.1-0.1-0.1-0.2-0.2l-2.4-1.8C36.7,41,36.5,41,36.4,41
		c-0.2,0-0.3,0.1-0.4,0.2s-0.1,0.3-0.1,0.5c0,0.2,0.1,0.3,0.2,0.4L38.5,43.9z M40.2,42.4c0,0.1,0.1,0.1,0.1,0.2
		c0.1,0.1,0.1,0.1,0.2,0.1c0.1,0,0.1,0.1,0.2,0.1c0.1,0,0.2,0,0.2,0c0.1,0,0.1-0.1,0.2-0.1c0.1-0.1,0.1-0.1,0.1-0.2
		c0-0.1,0.1-0.1,0.1-0.2s0-0.2,0-0.2l-1.2-3.7c0-0.1-0.1-0.1-0.1-0.2c-0.1-0.1-0.1-0.1-0.2-0.1c-0.1,0-0.1-0.1-0.2-0.1
		c-0.1,0-0.2,0-0.2,0c-0.1,0-0.1,0.1-0.2,0.1c-0.1,0.1-0.1,0.1-0.1,0.2c0,0.1-0.1,0.1-0.1,0.2s0,0.2,0,0.2L40.2,42.4z M43.1,42.8
		c0,0,0.1,0,0.1,0c0.1,0,0.3,0,0.4-0.1c0.1-0.1,0.2-0.2,0.2-0.3l0.6-3c0-0.1,0-0.2,0-0.2c0-0.1,0-0.2-0.1-0.2c0-0.1-0.1-0.1-0.2-0.2
		c-0.1,0-0.1-0.1-0.2-0.1c-0.1,0-0.2,0-0.2,0c-0.1,0-0.2,0-0.2,0.1c-0.1,0-0.1,0.1-0.2,0.2c0,0.1-0.1,0.1-0.1,0.2l-0.6,3
		c0,0.2,0,0.3,0.1,0.5C42.8,42.7,42.9,42.8,43.1,42.8z M50.4,59.3c-0.1,0-0.2,0-0.2,0.1c-0.1,0-0.1,0.1-0.2,0.2
		c0,0.1-0.1,0.1-0.1,0.2c0,0.1,0,0.2,0,0.2l0.6,3.7c0,0.1,0.1,0.3,0.2,0.4c0.1,0.1,0.2,0.1,0.4,0.1c0,0,0.1,0,0.1,0
		c0.1,0,0.2,0,0.2-0.1c0.1,0,0.1-0.1,0.2-0.2c0-0.1,0.1-0.1,0.1-0.2c0-0.1,0-0.2,0-0.2l-0.6-3.7c0-0.2-0.1-0.3-0.2-0.4
		C50.7,59.3,50.5,59.2,50.4,59.3z M53.3,58.8c-0.1-0.1-0.3-0.2-0.4-0.1c-0.2,0-0.3,0.1-0.4,0.2c-0.1,0.1-0.2,0.3-0.1,0.4
		s0.1,0.3,0.2,0.4l3.7,3c0.1,0.1,0.1,0.1,0.2,0.1c0.1,0,0.2,0,0.2,0c0.1,0,0.2,0,0.2-0.1c0.1,0,0.1-0.1,0.2-0.1
		c0.1-0.1,0.1-0.1,0.1-0.2c0-0.1,0-0.2,0-0.2c0-0.1,0-0.2-0.1-0.2c0-0.1-0.1-0.1-0.1-0.2L53.3,58.8z M58.6,57.5l-4.3-1.2
		c-0.1,0-0.2,0-0.2,0c-0.1,0-0.2,0-0.2,0.1c-0.1,0-0.1,0.1-0.2,0.2c-0.1,0.1-0.1,0.1-0.1,0.2c0,0.1,0,0.2,0,0.2c0,0.1,0,0.2,0.1,0.2
		c0,0.1,0.1,0.1,0.2,0.2c0.1,0,0.1,0.1,0.2,0.1l4.3,1.2c0.1,0,0.1,0,0.2,0c0.1,0,0.3-0.1,0.4-0.2c0.1-0.1,0.2-0.2,0.2-0.4
		c0-0.1,0-0.3-0.1-0.4C58.8,57.6,58.7,57.5,58.6,57.5z M54.8,55c0,0,0.1,0,0.1,0l3.7-0.6c0.1,0,0.2,0,0.2-0.1c0.1,0,0.1-0.1,0.2-0.2
		c0-0.1,0.1-0.1,0.1-0.2s0-0.2,0-0.2c0-0.1,0-0.2-0.1-0.2c0-0.1-0.1-0.1-0.2-0.2c-0.1,0-0.1-0.1-0.2-0.1c-0.1,0-0.2,0-0.2,0
		l-3.7,0.6c-0.2,0-0.3,0.1-0.4,0.2c-0.1,0.1-0.1,0.3-0.1,0.4c0,0.2,0.1,0.3,0.2,0.4C54.5,54.9,54.6,55,54.8,55z"/>
</g>
<g>
</g>
<g>
</g>
<g>
</g>
<g>
</g>
<g>
</g>
<g>
</g>
<g>
</g>
<g>
</g>
<g>
</g>
<g>
</g>
<g>
</g>
<g>
</g>
<g>
</g>
<g>
</g>
<g>
</g>
</svg>
