<?xml version="1.0" encoding="utf-8"?>
<!-- Generator: Adobe Illustrator 27.0.1, SVG Export Plug-In . SVG Version: 6.00 Build 0)  -->
<svg version="1.1" id="Layer_1" xmlns="http://www.w3.org/2000/svg" xmlns:xlink="http://www.w3.org/1999/xlink" x="0px" y="0px"
	 width="100px" height="100px" viewBox="0 0 100 100" style="enable-background:new 0 0 100 100;" xml:space="preserve">
<style type="text/css">
	.st0{fill:#FFDCE9;stroke:#FFFFFF;stroke-width:5;stroke-miterlimit:10;}
	.st1{clip-path:url(#SVGID_00000176012012718021627230000001185479516794187703_);}
	.st2{fill:#DF3D9E;}
</style>
<circle class="st0" cx="50" cy="50" r="46"/>
<g>
	<defs>
		<rect id="SVGID_1_" x="30.5" y="28.3" width="39" height="39.6"/>
	</defs>
	<clipPath id="SVGID_00000144336440235690701680000012127056521340846240_">
		<use xlink:href="#SVGID_1_"  style="overflow:visible;"/>
	</clipPath>
	<g id="Enhanced_Customer_Support_Agility_1" style="clip-path:url(#SVGID_00000144336440235690701680000012127056521340846240_);">
		<g id="Group">
			<path id="Vector" class="st2" d="M40.7,56.7l-2.2,0.5c-1.2,0.3-2.2,0.9-2.9,1.8c-0.7,0.9-1.1,2.1-1.1,3.3v1.1
				c0,0.7,0.2,1.4,0.7,2c0.4,0.6,1,1,1.7,1.2c2.1,0.6,6.1,1.3,13.2,1.3c7.1,0,11.1-0.7,13.2-1.3c0.7-0.2,1.3-0.6,1.7-1.2
				c0.4-0.6,0.7-1.3,0.7-2v-1.1c0-1.2-0.4-2.4-1.1-3.3c-0.7-0.9-1.8-1.6-2.9-1.8l-2.2-0.5l-3-1.8l-1.2-2.8l0.4-0.5l0.3,0.1
				c0.3,0.1,0.6,0.1,0.9,0.1c1,0,1.9-0.4,2.6-1.1c0.7-0.7,1.1-1.6,1.1-2.6v-0.8c0.6-0.1,1.1-0.5,1.4-0.9c0.4-0.5,0.5-1,0.5-1.6v-2.6
				c0-0.6-0.2-1.1-0.5-1.6c-0.4-0.5-0.8-0.8-1.4-0.9v-0.8c0-2.8-1.1-5.5-3-7.5c-2-2-4.6-3.1-7.4-3.1c-2.8,0-5.4,1.1-7.4,3.1
				c-2,2-3,4.7-3,7.5v0.8c-0.6,0.1-1,0.5-1.4,0.9c-0.4,0.5-0.5,1-0.5,1.6v2.6c0,0.7,0.3,1.4,0.8,1.9c0.5,0.5,1.1,0.8,1.8,0.8h1.3
				c0.2,0,0.4,0,0.7-0.1v0.2c0,0.9,0.3,1.9,0.9,2.6l1.7,2l-1.2,2.8L40.7,56.7z M44,56.2c1.2,1.6,2.8,2.8,4.6,3.4
				C48,60.3,47.4,61,47,61.8c-2-1-3.8-2.4-5.2-4.3L44,56.2z M64.3,62.4v1.1c0,0.4-0.1,0.9-0.4,1.2c-0.3,0.3-0.6,0.6-1,0.7
				c-2,0.6-5.9,1.2-12.9,1.2c-7,0-10.8-0.7-12.9-1.2c-0.4-0.1-0.8-0.4-1-0.7c-0.3-0.3-0.4-0.8-0.4-1.2v-1.1c0-0.9,0.3-1.8,0.9-2.5
				c0.6-0.7,1.3-1.2,2.2-1.4l1.9-0.4c0.7,1,3,3.7,6.1,5c0.3,0.1,0.6,0.1,0.8,0c0.3-0.1,0.5-0.3,0.6-0.6c0.4-0.9,1.1-1.7,1.8-2.3
				c0.8,0.6,1.4,1.4,1.8,2.3c0.1,0.2,0.2,0.4,0.4,0.5c0.2,0.1,0.4,0.2,0.6,0.2c0.1,0,0.3,0,0.4-0.1c3.1-1.3,5.4-4,6.1-5l1.9,0.4
				c0.9,0.2,1.6,0.7,2.2,1.4C64,60.6,64.3,61.5,64.3,62.4z M53,61.8c-0.4-0.8-0.9-1.5-1.5-2.1c1.8-0.6,3.4-1.8,4.6-3.4l2.1,1.3
				C56.8,59.4,55,60.8,53,61.8z M58.2,50c-0.5,0.4-1.1,0.5-1.7,0.5l0.3-0.4c0.6-0.7,0.9-1.6,0.9-2.6v-0.2c0.2,0.1,0.4,0.1,0.7,0.1
				h0.6v0.7c0,0.4-0.1,0.7-0.2,1C58.7,49.5,58.5,49.8,58.2,50z M56.5,39.5c-6-0.2-7.2-2.9-7.2-2.9c0-0.1-0.1-0.2-0.2-0.3
				c-0.1-0.1-0.2-0.1-0.4-0.1c-1.9,0-3.7,0.7-5.1,2c0.6-3.3,3.4-6,6.4-6c1.7,0,3.4,0.7,4.6,1.9c1.2,1.2,1.9,2.9,1.9,4.7V39.5z
				 M61,42.2v2.6c0,0.4-0.1,0.7-0.4,0.9s-0.6,0.4-0.9,0.4h-1.3c-0.2,0-0.3-0.1-0.5-0.2c-0.1-0.1-0.2-0.3-0.2-0.5v-4
				c0-0.2,0.1-0.3,0.2-0.5c0.1-0.1,0.3-0.2,0.5-0.2h1.3c0.3,0,0.7,0.1,0.9,0.4C60.9,41.5,61,41.8,61,42.2z M50,29.6
				c2.4,0,4.7,1,6.4,2.7c1.7,1.7,2.7,4.1,2.7,6.5v0.7h-0.6c-0.2,0-0.4,0-0.7,0.1v-0.8c0-2.1-0.8-4.1-2.3-5.6
				C54.1,31.8,52.1,31,50,31c-4.2,0-7.8,4-7.8,8.6v0.1c-0.2-0.1-0.4-0.1-0.7-0.1h-0.6v-0.7c0-2.4,1-4.8,2.7-6.5
				C45.3,30.6,47.6,29.6,50,29.6z M41.5,46.1h-1.3c-0.3,0-0.7-0.1-0.9-0.4c-0.2-0.2-0.4-0.6-0.4-0.9v-2.6c0-0.3,0.1-0.7,0.4-0.9
				c0.2-0.2,0.6-0.4,0.9-0.4h1.3c0.2,0,0.3,0.1,0.5,0.2c0.1,0.1,0.2,0.3,0.2,0.5v4c0,0.2-0.1,0.3-0.2,0.5
				C41.9,46.1,41.7,46.1,41.5,46.1z M43.5,47.6v-7.2c0.5-0.8,1.3-1.5,2.1-2c0.8-0.5,1.8-0.8,2.7-0.9c0.6,0.9,2.6,3.1,8.2,3.3v6.7
				c0,0.6-0.2,1.2-0.6,1.7l-0.8,0.9l-1.8-0.5l0-0.1c0-0.2,0-0.3,0-0.5c0-0.2-0.1-0.3-0.2-0.5c-0.1-0.1-0.2-0.3-0.3-0.4
				c-0.1-0.1-0.3-0.2-0.5-0.2l-1.9-0.5c-0.5-0.1-1,0-1.5,0.2s-0.8,0.7-0.9,1.2c-0.1,0.5,0,1,0.2,1.5s0.7,0.8,1.2,0.9l1.9,0.5
				c0.1,0,0.2,0,0.3,0c0.3,0,0.5-0.1,0.8-0.3c0.2-0.2,0.4-0.4,0.5-0.7l1.2,0.3l-1,1.1c-0.3,0.3-0.6,0.6-1,0.8
				c-0.4,0.2-0.8,0.3-1.2,0.3H49c-0.4,0-0.8-0.1-1.2-0.3c-0.4-0.2-0.7-0.4-1-0.8l-2.7-3.1C43.7,48.8,43.5,48.2,43.5,47.6z M52,49.2
				l-0.3,1.3l-1.9-0.5c-0.1,0-0.2-0.1-0.2-0.1c-0.1-0.1-0.1-0.1-0.2-0.2c0-0.1-0.1-0.2-0.1-0.2c0-0.1,0-0.2,0-0.3
				c0-0.1,0.1-0.2,0.1-0.2c0.1-0.1,0.1-0.1,0.2-0.2c0.1,0,0.2-0.1,0.2-0.1c0.1,0,0.2,0,0.3,0L52,49.2z M45.8,53.2
				c0.4,0.5,0.9,0.8,1.4,1.1c0.6,0.3,1.2,0.4,1.8,0.4H51c0.6,0,1.2-0.1,1.8-0.4c0.6-0.3,1-0.6,1.4-1.1l0.1-0.1l0.9,2.1
				c-1.2,1.7-3.1,2.9-5.1,3.4c-2.1-0.4-3.9-1.6-5.1-3.4L45.8,53.2L45.8,53.2z"/>
		</g>
	</g>
</g>
</svg>
