<?xml version="1.0" encoding="utf-8"?>
<!-- Generator: Adobe Illustrator 27.0.1, SVG Export Plug-In . SVG Version: 6.00 Build 0)  -->
<svg version="1.1" id="Layer_1" xmlns="http://www.w3.org/2000/svg" xmlns:xlink="http://www.w3.org/1999/xlink" x="0px" y="0px"
	 width="100px" height="100px" viewBox="0 0 100 100" style="enable-background:new 0 0 100 100;" xml:space="preserve">
<style type="text/css">
	.st0{fill:#FFDCE9;stroke:#FFFFFF;stroke-width:5;stroke-miterlimit:10;}
	.st1{fill:#DF3D9E;}
</style>
<circle class="st0" cx="50" cy="50" r="46"/>
<path class="st1" d="M41,60.4l-2.2,0.5c-1.2,0.3-2.2,0.9-2.9,1.8c-0.7,0.9-1.1,2.1-1.1,3.3v1.1c0,0.7,0.2,1.4,0.7,2
	c0.4,0.6,1,1,1.7,1.2c2.1,0.6,6.1,1.3,13.2,1.3c7.1,0,11.1-0.7,13.2-1.3c0.7-0.2,1.3-0.6,1.7-1.2c0.4-0.6,0.7-1.3,0.7-2v-1.1
	c0-1.2-0.4-2.4-1.1-3.3c-0.7-0.9-1.8-1.6-2.9-1.8l-2.2-0.5l-3-1.8l-1.2-2.8l0.4-0.5l0.3,0.1c0.3,0.1,0.6,0.1,0.9,0.1
	c1,0,1.9-0.4,2.6-1.1c0.7-0.7,1.1-1.6,1.1-2.6v-0.8c0.6-0.1,1.1-0.5,1.4-0.9c0.4-0.5,0.5-1,0.5-1.6v-2.6c0-0.6-0.2-1.1-0.5-1.6
	c-0.4-0.5-0.8-0.8-1.4-0.9v-0.8c0-2.8-1.1-5.5-3-7.5c-2-2-4.6-3.1-7.4-3.1c-2.8,0-5.4,1.1-7.4,3.1c-2,2-3,4.7-3,7.5v0.8
	c-0.6,0.1-1,0.5-1.4,0.9c-0.4,0.5-0.5,1-0.5,1.6v2.6c0,0.7,0.3,1.4,0.8,1.9c0.5,0.5,1.1,0.8,1.8,0.8h1.3c0.2,0,0.4,0,0.6-0.1v0.2
	c0,0.9,0.3,1.9,0.9,2.6l1.7,2L44,58.6L41,60.4z M44.3,60c1.2,1.6,2.8,2.8,4.6,3.4c-0.6,0.6-1.1,1.3-1.5,2.1c-2-1-3.8-2.4-5.2-4.3
	L44.3,60z M64.6,66.1v1.1c0,0.4-0.1,0.9-0.4,1.2c-0.3,0.3-0.6,0.6-1,0.7c-2,0.6-5.9,1.2-12.9,1.2c-7,0-10.8-0.7-12.9-1.2
	c-0.4-0.1-0.8-0.4-1-0.7C36.2,68,36,67.6,36,67.2v-1.1c0-0.9,0.3-1.8,0.9-2.5c0.6-0.7,1.3-1.2,2.2-1.4l1.9-0.4c0.7,1,3,3.7,6.1,5
	c0.3,0.1,0.6,0.1,0.8,0c0.3-0.1,0.5-0.3,0.6-0.6c0.4-0.9,1.1-1.7,1.8-2.3c0.8,0.6,1.4,1.4,1.8,2.3c0.1,0.2,0.2,0.4,0.4,0.5
	c0.2,0.1,0.4,0.2,0.6,0.2c0.1,0,0.3,0,0.4-0.1c3.1-1.3,5.4-4,6.1-5l1.9,0.4c0.9,0.2,1.6,0.7,2.2,1.4C64.3,64.3,64.6,65.2,64.6,66.1z
	 M53.3,65.5c-0.4-0.8-0.9-1.5-1.5-2.1c1.8-0.6,3.4-1.8,4.6-3.4l2.1,1.3C57.1,63.1,55.3,64.5,53.3,65.5z M58.5,53.7
	c-0.5,0.4-1.1,0.5-1.7,0.5l0.3-0.4c0.6-0.7,0.9-1.6,0.9-2.6V51c0.2,0.1,0.4,0.1,0.7,0.1h0.6v0.7c0,0.4-0.1,0.7-0.2,1
	C59,53.2,58.8,53.5,58.5,53.7z M56.8,43.2c-6-0.2-7.2-2.9-7.2-2.9c0-0.1-0.1-0.2-0.2-0.3C49.3,40,49.2,40,49,40
	c-1.9,0-3.7,0.7-5.1,2c0.6-3.3,3.4-6,6.4-6c1.7,0,3.4,0.7,4.6,1.9c1.2,1.2,1.9,2.9,1.9,4.7V43.2z M61.4,45.9v2.6
	c0,0.4-0.1,0.7-0.4,0.9c-0.2,0.2-0.6,0.4-0.9,0.4h-1.3c-0.2,0-0.3-0.1-0.5-0.2c-0.1-0.1-0.2-0.3-0.2-0.5v-4c0-0.2,0.1-0.3,0.2-0.5
	c0.1-0.1,0.3-0.2,0.5-0.2h1.3c0.3,0,0.7,0.1,0.9,0.4C61.3,45.2,61.4,45.5,61.4,45.9z M50.3,33.4c2.4,0,4.7,1,6.4,2.7
	c1.7,1.7,2.7,4.1,2.7,6.5v0.7h-0.6c-0.2,0-0.4,0-0.7,0.1v-0.8c0-2.1-0.8-4.1-2.3-5.6c-1.5-1.5-3.4-2.3-5.5-2.3c-4.2,0-7.8,4-7.8,8.6
	v0.1c-0.2-0.1-0.4-0.1-0.6-0.1h-0.7v-0.7c0-2.4,1-4.8,2.7-6.5C45.6,34.3,47.9,33.4,50.3,33.4z M41.9,49.9h-1.3
	c-0.3,0-0.7-0.1-0.9-0.4c-0.2-0.2-0.4-0.6-0.4-0.9v-2.6c0-0.3,0.1-0.7,0.4-0.9c0.2-0.2,0.6-0.4,0.9-0.4h1.3c0.2,0,0.3,0.1,0.5,0.2
	c0.1,0.1,0.2,0.3,0.2,0.5v4c0,0.2-0.1,0.3-0.2,0.5C42.2,49.8,42.1,49.9,41.9,49.9z M43.8,51.3v-7.2c0.5-0.8,1.3-1.5,2.1-2
	c0.8-0.5,1.8-0.8,2.7-0.9c0.6,0.9,2.6,3.1,8.2,3.3v6.7c0,0.6-0.2,1.2-0.6,1.7l-0.8,0.9l-1.8-0.5l0-0.1c0-0.2,0-0.3,0-0.5
	c0-0.2-0.1-0.3-0.2-0.5c-0.1-0.1-0.2-0.3-0.3-0.4c-0.1-0.1-0.3-0.2-0.5-0.2l-1.9-0.5c-0.5-0.1-1,0-1.5,0.2c-0.4,0.3-0.8,0.7-0.9,1.2
	c-0.1,0.5,0,1,0.2,1.5s0.7,0.8,1.2,0.9l1.9,0.5c0.1,0,0.2,0,0.3,0c0.3,0,0.5-0.1,0.8-0.3c0.2-0.2,0.4-0.4,0.5-0.7l1.2,0.3l-1,1.1
	c-0.3,0.3-0.6,0.6-1,0.8c-0.4,0.2-0.8,0.3-1.2,0.3h-1.9c-0.4,0-0.8-0.1-1.2-0.3c-0.4-0.2-0.7-0.4-1-0.8L44.5,53
	C44.1,52.5,43.8,51.9,43.8,51.3z M52.4,53l-0.3,1.3l-1.9-0.5c-0.1,0-0.2-0.1-0.2-0.1c-0.1-0.1-0.1-0.1-0.2-0.2
	c0-0.1-0.1-0.2-0.1-0.2c0-0.1,0-0.2,0-0.3c0-0.1,0.1-0.2,0.1-0.2c0.1-0.1,0.1-0.1,0.2-0.2c0.1,0,0.2-0.1,0.2-0.1c0.1,0,0.2,0,0.3,0
	L52.4,53z M46.2,57c0.4,0.5,0.9,0.8,1.4,1.1c0.6,0.3,1.2,0.4,1.8,0.4h1.9c0.6,0,1.2-0.1,1.8-0.4c0.6-0.3,1-0.6,1.4-1.1l0.1-0.1
	l0.9,2.1c-1.2,1.7-3.1,2.9-5.1,3.4c-2.1-0.4-3.9-1.6-5.1-3.4L46.2,57L46.2,57z"/>
</svg>
