<?xml version="1.0" encoding="utf-8"?>
<!-- Generator: Adobe Illustrator 27.0.1, SVG Export Plug-In . SVG Version: 6.00 Build 0)  -->
<svg version="1.1" id="Layer_1" xmlns="http://www.w3.org/2000/svg" xmlns:xlink="http://www.w3.org/1999/xlink" x="0px" y="0px"
	 width="100px" height="100px" viewBox="0 0 100 100" style="enable-background:new 0 0 100 100;" xml:space="preserve">
<style type="text/css">
	.st0{fill:#DCF6FF;stroke:#FFFFFF;stroke-width:5;stroke-miterlimit:10;}
	.st1{fill:none;stroke:#29E3EF;}
</style>
<circle class="st0" cx="50.5" cy="48.5" r="46"/>
<g id="Market_Share_Growth_1">
	<g id="Group">
		<path id="Vector_00000046307259781469164240000004907359456495880861_" class="st1" d="M42,28.9v9.6V39h0.5H52
			C51.8,44,47.6,48,42.5,48c-5.3,0-9.6-4.3-9.6-9.6C32.9,33.3,36.9,29.2,42,28.9z M60.9,41.3l-1.3,0.1c0,0-0.1,0-0.1,0
			c0,0-0.1-0.1-0.1-0.1c0,0,0-0.1,0-0.1c0,0,0.1-0.1,0.1-0.1l3.2-0.2c0,0,0,0,0,0c0.1,0,0.2,0.1,0.2,0.2c0,0,0,0,0,0l-0.5,3.2
			c0,0,0,0,0,0c0,0,0,0.1-0.1,0.1c0,0-0.1,0-0.1,0s-0.1,0-0.1-0.1l-0.4,0.3l0.4-0.3c0,0,0-0.1,0-0.1l0.2-1.2l0.2-1.3l-1,0.9
			c-6,5.3-13,9.2-20.6,11.8c0,0-0.1,0-0.1,0l-0.2,0.4l0.2-0.4c0,0-0.1-0.1-0.1-0.1c0,0,0-0.1,0-0.1c0,0,0.1-0.1,0.1-0.1
			c7.5-2.6,14.4-6.5,20.4-11.7l1.1-1L60.9,41.3z M53.7,66.4L53.7,66.4c0,0.1-0.1,0.2-0.2,0.2h-3.7c-0.1,0-0.2-0.1-0.2-0.2v-12
			c0-0.1,0.1-0.2,0.2-0.2h3.7c0.1,0,0.2,0.1,0.2,0.2V66.4z M59.2,49h3.7c0.1,0,0.2,0.1,0.2,0.2v17.3c0,0.1-0.1,0.2-0.2,0.2h-3.7
			c-0.1,0-0.2-0.1-0.2-0.2V49.1C59,49,59.1,49,59.2,49z M54.6,35.4h-9.1v-9.1C50.4,26.6,54.3,30.5,54.6,35.4z M40.5,59.3h3.7
			c0.1,0,0.2,0.1,0.2,0.2v6.9c0,0.1-0.1,0.2-0.2,0.2h-3.7c-0.1,0-0.2-0.1-0.2-0.2v-6.9C40.3,59.4,40.4,59.3,40.5,59.3z"/>
	</g>
</g>
<g>
</g>
<g>
</g>
<g>
</g>
<g>
</g>
<g>
</g>
<g>
</g>
<g>
</g>
<g>
</g>
<g>
</g>
<g>
</g>
<g>
</g>
<g>
</g>
<g>
</g>
<g>
</g>
<g>
</g>
</svg>
