<?xml version="1.0" encoding="utf-8"?>
<!-- Generator: Adobe Illustrator 27.0.1, SVG Export Plug-In . SVG Version: 6.00 Build 0)  -->
<svg version="1.1" id="Layer_1" xmlns="http://www.w3.org/2000/svg" xmlns:xlink="http://www.w3.org/1999/xlink" x="0px" y="0px"
	 width="100px" height="100px" viewBox="0 0 100 100" style="enable-background:new 0 0 100 100;" xml:space="preserve">
<style type="text/css">
	.st0{fill:#E9FFE7;stroke:#FFFFFF;stroke-width:5;stroke-miterlimit:10;}
	.st1{fill:#039B00;}
</style>
<circle class="st0" cx="50.5" cy="48.5" r="46"/>
<g id="product_development_1">
	<g id="Group">
		<path id="Vector_00000160912805384520834790000017089658595051728287_" class="st1" d="M52.1,66.8c0,0-0.1,0-0.1,0l-12.5-4.5
			c-0.1,0-0.1-0.1-0.2-0.1c0-0.1-0.1-0.1-0.1-0.2v-7.2c0-0.1,0-0.2,0.1-0.3c0.1-0.1,0.2-0.1,0.3-0.1c0.1,0,0.2,0,0.3,0.1
			c0.1,0.1,0.1,0.2,0.1,0.3v6.9l11.7,4.2V53.3c0-0.1,0-0.2,0.1-0.3c0.1-0.1,0.2-0.1,0.3-0.1c0.1,0,0.2,0,0.3,0.1
			c0.1,0.1,0.1,0.2,0.1,0.3v13.2c0,0.1,0,0.2-0.1,0.3C52.3,66.8,52.2,66.8,52.1,66.8L52.1,66.8z"/>
		<path id="Vector_2_00000116940374654394603170000015409195210289287355_" class="st1" d="M52.1,66.8c-0.1,0-0.2,0-0.3-0.1
			c-0.1-0.1-0.1-0.1-0.1-0.2c0-0.1,0-0.2,0-0.3s0.1-0.1,0.2-0.2l12.2-4.4v-6.9c0-0.1,0-0.2,0.1-0.3c0.1-0.1,0.2-0.1,0.3-0.1
			c0.1,0,0.2,0,0.3,0.1c0.1,0.1,0.1,0.2,0.1,0.3v7.2c0,0.1,0,0.2-0.1,0.2c0,0.1-0.1,0.1-0.2,0.1l-12.5,4.5
			C52.2,66.8,52.1,66.8,52.1,66.8z"/>
		<path id="Vector_3_00000026841665743827755320000010731743817577629315_" class="st1" d="M47.8,57.9c0,0-0.1,0-0.1,0l-12.5-4.3
			c-0.1,0-0.1-0.1-0.2-0.1c0,0-0.1-0.1-0.1-0.2c0-0.1,0-0.1,0-0.2c0-0.1,0.1-0.1,0.1-0.2l4.3-4.6c0.1-0.1,0.1-0.1,0.2-0.1
			c0.1,0,0.2,0,0.2,0l12.3,4.6l12.4-4.6c0.1,0,0.2,0,0.2,0c0.1,0,0.1,0.1,0.2,0.1l4.3,4.6c0,0,0.1,0.1,0.1,0.2c0,0.1,0,0.1,0,0.2
			c0,0.1,0,0.1-0.1,0.2c0,0-0.1,0.1-0.2,0.1l-4.4,1.5l-8.2,2.8c-0.1,0-0.1,0-0.2,0c-0.1,0-0.1-0.1-0.2-0.1l-4-4l-4,4
			C48,57.9,47.9,57.9,47.8,57.9z M52.8,53.4l3.6,3.6l11.8-4l-3.7-3.9L52.8,53.4z M36,53l11.7,4l3.6-3.6l-11.6-4.3L36,53z"/>
		<path id="Vector_4" class="st1" d="M39.6,49c-0.1,0-0.1,0-0.2,0c-0.1,0-0.1-0.1-0.1-0.1L35,44.4c0,0-0.1-0.1-0.1-0.2
			c0-0.1,0-0.1,0-0.2c0-0.1,0-0.1,0.1-0.2c0,0,0.1-0.1,0.2-0.1l11.3-3.9c0.1,0,0.2,0,0.3,0c0.1,0,0.2,0.1,0.2,0.2s0,0.2,0,0.3
			s-0.1,0.2-0.2,0.2L36,44.3l3.7,3.9l8.9-3.3c0.1,0,0.2,0,0.3,0c0.1,0,0.2,0.1,0.2,0.2c0,0.1,0,0.2,0,0.3c0,0.1-0.1,0.2-0.2,0.2
			L39.7,49C39.7,49,39.7,49,39.6,49L39.6,49z M64.6,49c-0.1,0-0.1,0-0.1,0l0,0l-9.1-3.4c-0.1,0-0.2-0.1-0.2-0.2c0-0.1,0-0.2,0-0.3
			c0-0.1,0.1-0.2,0.2-0.2c0.1,0,0.2,0,0.3,0l8.9,3.3l3.7-3.9l-10.7-3.7c-0.1,0-0.1,0-0.1-0.1s-0.1-0.1-0.1-0.1c0,0,0-0.1,0-0.2
			c0-0.1,0-0.1,0-0.2c0-0.1,0-0.1,0.1-0.1c0,0,0.1-0.1,0.1-0.1s0.1,0,0.2,0c0.1,0,0.1,0,0.2,0L69,43.7c0.1,0,0.1,0.1,0.2,0.1
			c0,0,0.1,0.1,0.1,0.2c0,0.1,0,0.1,0,0.2c0,0.1-0.1,0.1-0.1,0.2l-4.3,4.5c0,0-0.1,0.1-0.1,0.1C64.7,49,64.6,49,64.6,49z"/>
		<path id="Vector_5" class="st1" d="M55.4,46.1h-2.3c-0.1,0-0.2,0-0.3-0.1c-0.1-0.1-0.1-0.2-0.1-0.3v-1.3c0-0.1,0-0.2,0.1-0.3
			c0.1-0.1,0.2-0.1,0.3-0.1c0.1,0,0.2,0,0.3,0.1c0.1,0.1,0.1,0.2,0.1,0.3v0.9H55v-1.7c0-0.4,0.1-0.9,0.3-1.2c0.2-0.4,0.4-0.7,0.7-1
			c0.6-0.6,1.1-1.2,1.5-2S58,37.8,58,37c0-1-0.2-2-0.7-2.8c-0.5-0.9-1.2-1.6-2-2.2c-0.8-0.5-1.8-0.9-2.8-0.9c-1-0.1-2,0.1-2.9,0.5
			c-0.9,0.4-1.7,1-2.3,1.8c-0.6,0.8-1,1.7-1.2,2.7c-0.2,1-0.1,2,0.3,2.9s0.9,1.8,1.6,2.4c0.3,0.3,0.6,0.6,0.8,1
			c0.2,0.4,0.3,0.8,0.3,1.3v1.7h1.5v-0.9c0-0.1,0-0.2,0.1-0.3c0.1-0.1,0.2-0.1,0.3-0.1c0.1,0,0.2,0,0.3,0.1c0.1,0.1,0.1,0.2,0.1,0.3
			v1.3c0,0.1,0,0.2-0.1,0.3c-0.1,0.1-0.2,0.1-0.3,0.1h-2.2c-0.1,0-0.2,0-0.3-0.1c-0.1-0.1-0.1-0.2-0.1-0.3v-2.1
			c0-0.3-0.1-0.6-0.2-0.9c-0.1-0.3-0.3-0.6-0.6-0.8c-0.7-0.6-1.2-1.3-1.6-2.2c-0.4-0.8-0.6-1.7-0.6-2.6c0-0.9,0.1-1.8,0.5-2.7
			c0.3-0.8,0.8-1.6,1.5-2.3c1.2-1.2,2.7-1.9,4.3-2c1.6-0.1,3.3,0.4,4.6,1.4c1.3,1,2.2,2.5,2.5,4.1c0.3,1.6,0,3.3-0.8,4.7
			c-0.4,0.6-0.8,1.2-1.3,1.6c-0.2,0.2-0.4,0.5-0.5,0.8s-0.2,0.6-0.2,0.9v2.1c0,0.1,0,0.1,0,0.2S55.7,46,55.7,46c0,0-0.1,0.1-0.1,0.1
			C55.5,46.1,55.5,46.1,55.4,46.1z"/>
		<path id="Vector_6" class="st1" d="M55.3,47.8h-6.5c-0.3,0-0.6-0.1-0.8-0.4c-0.2-0.2-0.4-0.5-0.4-0.8v-0.1c0-0.3,0.1-0.6,0.4-0.8
			c0.2-0.2,0.5-0.4,0.8-0.4h6.5c0.3,0,0.6,0.1,0.8,0.4c0.2,0.2,0.4,0.5,0.4,0.8v0.1c0,0.3-0.1,0.6-0.4,0.8
			C55.9,47.7,55.6,47.8,55.3,47.8z M48.8,46.1c-0.1,0-0.2,0-0.3,0.1c-0.1,0.1-0.1,0.2-0.1,0.3v0.1c0,0.1,0,0.2,0.1,0.3
			c0.1,0.1,0.2,0.1,0.3,0.1h6.5c0.1,0,0.2,0,0.3-0.1c0.1-0.1,0.1-0.2,0.1-0.3v-0.1c0-0.1,0-0.1,0-0.2c0,0,0-0.1-0.1-0.1
			c0,0-0.1-0.1-0.1-0.1c0,0-0.1,0-0.2,0H48.8z"/>
		<path id="Vector_7" class="st1" d="M55.3,49.5h-6.5c-0.3,0-0.6-0.1-0.8-0.4c-0.2-0.2-0.4-0.5-0.4-0.8v-0.1c0-0.3,0.1-0.6,0.4-0.8
			c0.2-0.2,0.5-0.4,0.8-0.4h6.5c0.3,0,0.6,0.1,0.8,0.4c0.2,0.2,0.4,0.5,0.4,0.8v0.1c0,0.3-0.1,0.6-0.4,0.8
			C55.9,49.3,55.6,49.5,55.3,49.5z M48.8,47.8c-0.1,0-0.2,0-0.3,0.1s-0.1,0.2-0.1,0.3v0.1c0,0.1,0,0.2,0.1,0.3
			c0.1,0.1,0.2,0.1,0.3,0.1h6.5c0.1,0,0.2,0,0.3-0.1c0.1-0.1,0.1-0.2,0.1-0.3v-0.1c0-0.1,0-0.2-0.1-0.3c-0.1-0.1-0.2-0.1-0.3-0.1
			H48.8z"/>
		<path id="Vector_8" class="st1" d="M52.2,51.5h-0.4c-0.6,0-1.2-0.2-1.7-0.7c-0.4-0.4-0.7-1-0.7-1.7v-0.1c0-0.1,0-0.1,0-0.2
			c0,0,0-0.1,0.1-0.1c0,0,0.1-0.1,0.1-0.1c0,0,0.1,0,0.2,0h4.3c0.1,0,0.1,0,0.2,0c0,0,0.1,0,0.1,0.1c0,0,0.1,0.1,0.1,0.1
			c0,0,0,0.1,0,0.2v0.1c0,0.6-0.2,1.2-0.7,1.7C53.5,51.2,52.9,51.5,52.2,51.5z M50.4,49.5c0.1,0.3,0.3,0.7,0.5,0.9
			c0.3,0.2,0.6,0.3,1,0.3h0.4c0.4,0,0.7-0.1,1-0.3c0.3-0.2,0.5-0.5,0.5-0.9H50.4z M49.8,40.3c-0.3,0-0.6-0.1-0.9-0.3
			c-0.3-0.2-0.4-0.4-0.6-0.7c-0.1-0.3-0.1-0.6-0.1-0.9c0.1-0.3,0.2-0.6,0.4-0.8c0.2-0.2,0.5-0.4,0.8-0.4c0.3-0.1,0.6,0,0.9,0.1
			c0.3,0.1,0.5,0.3,0.7,0.6c0.2,0.3,0.3,0.5,0.3,0.9c0,0.1,0,0.2-0.1,0.3c-0.1,0.1-0.2,0.1-0.3,0.1c-0.1,0-0.2,0-0.3-0.1
			c-0.1-0.1-0.1-0.2-0.1-0.3c0-0.1,0-0.3-0.1-0.4c-0.1-0.1-0.2-0.2-0.3-0.3c-0.1-0.1-0.3-0.1-0.4,0c-0.1,0-0.3,0.1-0.4,0.2
			c-0.1,0.1-0.2,0.2-0.2,0.4c0,0.1,0,0.3,0,0.4c0.1,0.1,0.1,0.2,0.3,0.3c0.1,0.1,0.3,0.1,0.4,0.1c0.1,0,0.2,0,0.3,0.1
			c0.1,0.1,0.1,0.2,0.1,0.3s0,0.2-0.1,0.3C50,40.3,49.9,40.3,49.8,40.3z M54.3,40.3c-0.1,0-0.2,0-0.3-0.1c-0.1-0.1-0.1-0.2-0.1-0.3
			s0-0.2,0.1-0.3c0.1-0.1,0.2-0.1,0.3-0.1c0.1,0,0.3,0,0.4-0.1c0.1-0.1,0.2-0.2,0.3-0.3c0.1-0.1,0.1-0.3,0-0.4
			c0-0.1-0.1-0.3-0.2-0.4c-0.1-0.1-0.2-0.2-0.4-0.2c-0.1,0-0.3,0-0.4,0c-0.1,0.1-0.2,0.1-0.3,0.3c-0.1,0.1-0.1,0.3-0.1,0.4
			c0,0.1,0,0.2-0.1,0.3c-0.1,0.1-0.2,0.1-0.3,0.1c-0.1,0-0.2,0-0.3-0.1c-0.1-0.1-0.1-0.2-0.1-0.3c0-0.3,0.1-0.6,0.3-0.9
			c0.2-0.3,0.4-0.4,0.7-0.6c0.3-0.1,0.6-0.1,0.9-0.1s0.6,0.2,0.8,0.4c0.2,0.2,0.4,0.5,0.4,0.8c0.1,0.3,0,0.6-0.1,0.9
			c-0.1,0.3-0.3,0.5-0.6,0.7C54.9,40.2,54.6,40.3,54.3,40.3z"/>
		<path id="Vector_9" class="st1" d="M51,46.1c-0.1,0-0.1,0-0.2,0c0,0-0.1,0-0.1-0.1c0,0-0.1-0.1-0.1-0.1c0,0,0-0.1,0-0.2v-7
			c0-0.1,0-0.2,0.1-0.3s0.2-0.1,0.3-0.1c0.1,0,0.2,0,0.3,0.1s0.1,0.2,0.1,0.3v7c0,0.1,0,0.2-0.1,0.3C51.2,46.1,51.1,46.1,51,46.1z
			 M53.2,46.1c-0.1,0-0.1,0-0.2,0s-0.1,0-0.1-0.1c0,0-0.1-0.1-0.1-0.1c0,0,0-0.1,0-0.2v-7c0-0.1,0-0.2,0.1-0.3s0.2-0.1,0.3-0.1
			c0.1,0,0.2,0,0.3,0.1c0.1,0.1,0.1,0.2,0.1,0.3v7c0,0.1,0,0.2-0.1,0.3C53.4,46.1,53.3,46.1,53.2,46.1z"/>
		<path id="Vector_10" class="st1" d="M54.3,40.3h-4.5c-0.1,0-0.2,0-0.3-0.1c-0.1-0.1-0.1-0.2-0.1-0.3s0-0.2,0.1-0.3
			c0.1-0.1,0.2-0.1,0.3-0.1h4.5c0.1,0,0.2,0,0.3,0.1c0.1,0.1,0.1,0.2,0.1,0.3s0,0.2-0.1,0.3C54.5,40.3,54.4,40.3,54.3,40.3z"/>
	</g>
</g>
<g>
</g>
<g>
</g>
<g>
</g>
<g>
</g>
<g>
</g>
<g>
</g>
<g>
</g>
<g>
</g>
<g>
</g>
<g>
</g>
<g>
</g>
<g>
</g>
<g>
</g>
<g>
</g>
<g>
</g>
</svg>
