<?xml version="1.0" encoding="utf-8"?>
<!-- Generator: Adobe Illustrator 27.0.1, SVG Export Plug-In . SVG Version: 6.00 Build 0)  -->
<svg version="1.1" id="Layer_1" xmlns="http://www.w3.org/2000/svg" xmlns:xlink="http://www.w3.org/1999/xlink" x="0px" y="0px"
	 width="100px" height="100px" viewBox="0 0 100 100" style="enable-background:new 0 0 100 100;" xml:space="preserve">
<style type="text/css">
	.st0{fill:#DCF6FF;stroke:#FFFFFF;stroke-width:5;stroke-miterlimit:10;}
	.st1{fill:#29E3EF;}
</style>
<circle class="st0" cx="50.5" cy="48.5" r="46"/>
<g id="Optimized_Content_Strategy_1">
	<g id="Group">
		<path id="Vector" class="st1" d="M69.6,68.2H31c-1.7,0-3.3-1.5-3.6-3.7c0-0.1,0-0.3,0.1-0.4c0.1-0.1,0.2-0.2,0.4-0.2h44.6
			c0.1,0,0.3,0.1,0.4,0.2c0.1,0.1,0.1,0.3,0.1,0.4C72.9,66.7,71.3,68.2,69.6,68.2z M28.5,64.9c0.4,1.3,1.3,2.3,2.5,2.3h38.5
			c1.2,0,2.1-1,2.5-2.3H28.5z"/>
		<path id="Vector_2" class="st1" d="M37.7,64.9h-5.5c-0.3,0-0.5-0.2-0.5-0.5V41.9c0-1.3,1.1-2.4,2.4-2.4h3.5c0.3,0,0.5,0.2,0.5,0.5
			v24.4C38.2,64.7,37.9,64.9,37.7,64.9z M32.8,64h4.4V40.5h-3c-0.8,0-1.4,0.7-1.4,1.4V64z M68.3,64.9c-0.3,0-0.5-0.2-0.5-0.5V45.9
			c0-0.3,0.2-0.5,0.5-0.5s0.5,0.2,0.5,0.5v18.5C68.8,64.7,68.6,64.9,68.3,64.9z M67.4,40.7c-0.1,0-0.2,0-0.3-0.1
			c-0.2-0.1-0.5-0.2-0.8-0.2h-3.5c-0.3,0-0.5-0.2-0.5-0.5c0-0.3,0.2-0.5,0.5-0.5h3.6c0.4,0,0.9,0.1,1.2,0.4c0.2,0.1,0.3,0.4,0.2,0.7
			C67.7,40.7,67.6,40.7,67.4,40.7z M61.6,66.6h-0.4c-0.3,0-0.5-0.2-0.5-0.5s0.2-0.5,0.5-0.5h0.4c0.3,0,0.5,0.2,0.5,0.5
			S61.8,66.6,61.6,66.6z M66,66.6h-0.4c-0.3,0-0.5-0.2-0.5-0.5s0.2-0.5,0.5-0.5H66c0.3,0,0.5,0.2,0.5,0.5S66.3,66.6,66,66.6z
			 M63.9,66.6h-0.4c-0.3,0-0.5-0.2-0.5-0.5s0.2-0.5,0.5-0.5h0.4c0.3,0,0.5,0.2,0.5,0.5S64,66.6,63.9,66.6z"/>
		<path id="Vector_3" class="st1" d="M62.9,64.9H37.7c-0.3,0-0.5-0.2-0.5-0.5V29.7c0-1.2-1-2-2-2c-0.3,0-0.5-0.2-0.5-0.5
			s0.2-0.5,0.5-0.5h25.2c1.6,0,3,1.3,3,3.1v21c0,0.3-0.2,0.5-0.5,0.5c-0.3,0-0.5-0.2-0.5-0.5V29.7c0-1.2-1-2.1-2-2.1H37.4
			c0.5,0.6,0.8,1.2,0.8,2v34.3h24.3v-5.4c0-0.3,0.2-0.5,0.5-0.5c0.3,0,0.5,0.2,0.5,0.5v5.9C63.4,64.7,63.2,64.9,62.9,64.9z"/>
		<path id="Vector_4" class="st1" d="M37.7,37.4h-7.7c-0.3,0-0.5-0.2-0.5-0.5c0-0.3,0.2-0.5,0.5-0.5c1.2,0,2-1,2-2v-4.7
			c0-1.6,1.3-3,3-3c1.6,0,3,1.3,3,3v7.2C38.2,37.2,37.9,37.4,37.7,37.4z M32.3,36.4h4.9v-6.7c0-1.2-1-2-2-2c-1.2,0-2,1-2,2v4.7
			C33.1,35.2,32.8,35.8,32.3,36.4z"/>
		<path id="Vector_5" class="st1" d="M30.1,37.4c-1.6,0-3-1.3-3-3v-3.2c0-0.3,0.2-0.5,0.5-0.5h5.1c0.3,0,0.5,0.2,0.5,0.5v3.1
			C33.1,36,31.8,37.4,30.1,37.4z M28,31.7v2.6c0,1.2,1,2,2,2s2-1,2-2v-2.6H28z M48.6,39.1h-7.9c-0.3,0-0.5-0.2-0.5-0.5v-8.2
			c0-0.3,0.2-0.5,0.5-0.5h7.9c0.3,0,0.5,0.2,0.5,0.5v8.3C49.1,38.9,48.8,39.1,48.6,39.1z M41.2,38.1h6.9v-7.2h-6.9V38.1z M59.9,31
			h-8.5c-0.3,0-0.5-0.2-0.5-0.5s0.2-0.5,0.5-0.5h8.5c0.3,0,0.5,0.2,0.5,0.5S60.2,31,59.9,31z M59.9,33.7h-8.5
			c-0.3,0-0.5-0.2-0.5-0.5c0-0.3,0.2-0.5,0.5-0.5h8.5c0.3,0,0.5,0.2,0.5,0.5C60.4,33.5,60.2,33.7,59.9,33.7z M59.9,36.4h-8.5
			c-0.3,0-0.5-0.2-0.5-0.5c0-0.3,0.2-0.5,0.5-0.5h8.5c0.3,0,0.5,0.2,0.5,0.5C60.4,36.2,60.2,36.4,59.9,36.4z M59.9,39.1h-8.5
			c-0.3,0-0.5-0.2-0.5-0.5c0-0.3,0.2-0.5,0.5-0.5h8.5c0.3,0,0.5,0.2,0.5,0.5C60.4,38.9,60.2,39.1,59.9,39.1z M59.9,41.9h-9.8
			c-0.3,0-0.5-0.2-0.5-0.5c0-0.3,0.2-0.5,0.5-0.5h9.8c0.3,0,0.5,0.2,0.5,0.5C60.4,41.7,60.2,41.9,59.9,41.9z M59.9,44.6h-9.8
			c-0.3,0-0.5-0.2-0.5-0.5c0-0.3,0.3-0.5,0.5-0.5h9.8c0.3,0,0.5,0.2,0.5,0.5C60.4,44.4,60.2,44.6,59.9,44.6z"/>
		<path id="Vector_6" class="st1" d="M50.1,41.9h-9.5c-0.3,0-0.5-0.2-0.5-0.5c0-0.3,0.2-0.5,0.5-0.5h9.5c0.3,0,0.5,0.2,0.5,0.5
			C50.6,41.7,50.4,41.9,50.1,41.9z M50.1,44.6h-9.5c-0.3,0-0.5-0.2-0.5-0.5c0-0.3,0.2-0.5,0.5-0.5h9.5c0.3,0,0.5,0.2,0.5,0.5
			C50.6,44.4,50.4,44.6,50.1,44.6z M60.6,60.6c-0.2,0-0.4-0.1-0.5-0.3l-0.8-2v-0.4L68.8,36c0.4-1,1.6-1.4,2.6-1.1
			c0.5,0.2,0.9,0.6,1.1,1.1c0.2,0.5,0.2,1.1,0,1.5L63,59.5l-0.3,0.3L60.6,60.6L60.6,60.6z M60.3,58.2l0.6,1.3l1.3-0.6l9.3-21.7
			c0.1-0.3,0.1-0.6,0-0.8c-0.1-0.3-0.3-0.5-0.6-0.6c-0.5-0.2-1.2,0-1.3,0.6L60.3,58.2z"/>
		<path id="Vector_7" class="st1" d="M59.9,62.1h-0.2c-0.3-0.1-0.4-0.4-0.3-0.7l0.7-1.5c0.1-0.3,0.4-0.4,0.7-0.3
			c0.3,0.1,0.4,0.4,0.3,0.7l-0.8,1.5C60.3,62.1,60.1,62.1,59.9,62.1z M70.5,50.3h-0.2c-0.4-0.2-0.8-0.5-1-1s-0.2-0.9,0-1.3l2.7-6.3
			c0.1-0.3,0.1-0.6,0-1c-0.1-0.3-0.4-0.5-0.7-0.7L68,38.6c-0.3-0.1-0.4-0.4-0.3-0.7c0.1-0.3,0.4-0.4,0.7-0.3l3.4,1.4
			c0.6,0.2,1,0.7,1.2,1.2c0.2,0.6,0.2,1.2,0,1.6l-2.6,6.5c-0.1,0.2-0.1,0.4,0,0.6c0.1,0.2,0.2,0.4,0.4,0.4c0.3,0.1,0.4,0.4,0.3,0.7
			C70.9,50.2,70.7,50.3,70.5,50.3z M63.8,57.1h-0.2l-2.8-1.2c-0.3-0.1-0.4-0.4-0.3-0.7c0.1-0.3,0.4-0.4,0.7-0.3l2.8,1.2
			c0.3,0.1,0.4,0.4,0.3,0.7C64.1,57,64,57.1,63.8,57.1z M51.6,61.6c-0.2,0-0.4-0.1-0.5-0.3c-0.3-0.6-0.7-1-1.2-1s-0.9,0.4-1.2,1
			c-0.1,0.2-0.3,0.3-0.6,0.3c-0.8-0.2-1.5-0.5-2.2-1c-0.2-0.1-0.3-0.4-0.2-0.6c0.2-0.6,0.2-1.2-0.1-1.4c-0.3-0.2-0.6-0.3-0.8-0.3
			c-0.2,0-0.5,0-0.7,0.1c-0.2,0.1-0.5,0-0.6-0.2c-0.4-0.7-0.7-1.4-0.9-2.2c-0.1-0.2,0.1-0.5,0.3-0.6c0.6-0.3,0.9-0.7,0.9-1.1
			s-0.3-0.9-0.9-1.1c-0.2-0.1-0.3-0.3-0.3-0.6c0.2-0.8,0.5-1.5,0.9-2.2c0.1-0.2,0.4-0.3,0.6-0.2c0.2,0.1,0.5,0.1,0.7,0.1
			c0.2,0,0.6,0,0.8-0.3c0.3-0.3,0.4-0.9,0.1-1.4c-0.1-0.2,0-0.5,0.2-0.6c0.7-0.5,1.4-0.8,2.2-1c0.2-0.1,0.5,0.1,0.6,0.3
			c0.3,0.6,0.7,1,1.2,1s1-0.4,1.2-1c0.1-0.2,0.3-0.3,0.6-0.3c0.8,0.2,1.5,0.5,2.2,1c0.2,0.1,0.3,0.4,0.2,0.6
			c-0.2,0.6-0.2,1.2,0.1,1.4c0.2,0.2,0.6,0.3,0.8,0.3s0.5,0,0.7-0.1c0.2-0.1,0.5,0,0.6,0.2c0.4,0.7,0.8,1.4,0.9,2.2
			c0.1,0.2-0.1,0.5-0.3,0.6c-0.6,0.3-0.9,0.7-0.9,1.1s0.3,0.9,0.9,1.1c0.2,0.1,0.3,0.3,0.3,0.6c-0.2,0.8-0.5,1.5-0.9,2.2
			c-0.1,0.2-0.4,0.3-0.6,0.2c-0.2-0.1-0.5-0.1-0.7-0.1s-0.6,0.1-0.8,0.3c-0.3,0.3-0.4,0.9-0.1,1.4c0.1,0.2,0,0.5-0.2,0.6
			C53.2,61.1,52.4,61.4,51.6,61.6L51.6,61.6z M46.9,60c0.4,0.2,0.9,0.4,1.2,0.5c0.5-0.8,1.2-1.2,1.8-1.2c0.8,0,1.4,0.5,1.8,1.2
			c0.5-0.1,0.9-0.3,1.2-0.5c-0.2-0.8,0-1.5,0.5-2.1c0.5-0.5,1.2-0.7,2-0.5c0.2-0.4,0.4-0.8,0.5-1.2c-0.7-0.5-1.1-1.1-1.1-1.8
			c0-0.7,0.4-1.3,1.1-1.7c-0.1-0.4-0.3-0.9-0.5-1.2c-0.8,0.2-1.5,0-2-0.5c-0.5-0.6-0.7-1.3-0.5-2.1c-0.4-0.2-0.8-0.4-1.2-0.5
			c-0.5,0.8-1.2,1.2-1.8,1.2c-0.8,0-1.4-0.5-1.8-1.2c-0.5,0.1-0.9,0.3-1.2,0.5c0.2,0.9,0,1.5-0.5,2.1c-0.5,0.5-1.2,0.7-2.1,0.5
			c-0.2,0.4-0.4,0.8-0.5,1.2c0.7,0.4,1.1,1.1,1.1,1.8c0,0.7-0.4,1.3-1.1,1.8c0.1,0.4,0.3,0.9,0.5,1.2c0.8-0.2,1.5,0,2.1,0.5
			C46.9,58.4,47.1,59.2,46.9,60z"/>
		<path id="Vector_8" class="st1" d="M49.9,57.9c-1.9,0-3.6-1.5-3.6-3.6c0-1.9,1.5-3.6,3.6-3.6s3.6,1.5,3.6,3.6
			C53.5,56.3,51.9,57.9,49.9,57.9z M49.9,51.9c-1.4,0-2.6,1.2-2.6,2.6c0,1.4,1.2,2.6,2.6,2.6s2.6-1.2,2.6-2.6
			C52.5,53,51.4,51.9,49.9,51.9z"/>
	</g>
</g>
<g>
</g>
<g>
</g>
<g>
</g>
<g>
</g>
<g>
</g>
<g>
</g>
<g>
</g>
<g>
</g>
<g>
</g>
<g>
</g>
<g>
</g>
<g>
</g>
<g>
</g>
<g>
</g>
<g>
</g>
</svg>
