<?xml version="1.0" encoding="utf-8"?>
<!-- Generator: Adobe Illustrator 27.0.1, SVG Export Plug-In . SVG Version: 6.00 Build 0)  -->
<svg version="1.1" id="Layer_1" xmlns="http://www.w3.org/2000/svg" xmlns:xlink="http://www.w3.org/1999/xlink" x="0px" y="0px"
	 width="100px" height="100px" viewBox="0 0 100 100" style="enable-background:new 0 0 100 100;" xml:space="preserve">
<style type="text/css">
	.st0{fill:#FFE7E7;stroke:#FFFFFF;stroke-width:5;stroke-miterlimit:10;}
	.st1{fill:#FB4455;}
</style>
<circle class="st0" cx="50.5" cy="48.5" r="46"/>
<g id="Personalized_Marketing_Campaigns_1">
	<g id="Group">
		<path id="Vector_00000173138869607149978960000004331435246158077596_" class="st1" d="M35,37.8h-1.2v-2.4c0-0.8,0.3-1.6,0.9-2.2
			c0.6-0.6,1.3-0.9,2.2-0.9h20.7v-1.2h-1.2c-0.1,0-0.2,0-0.3-0.1c-0.1-0.1-0.2-0.2-0.2-0.3c0-0.1-0.1-0.2,0-0.4
			c0-0.1,0.1-0.2,0.2-0.3l3.7-3.7c0.1-0.1,0.1-0.1,0.2-0.1c0.1,0,0.2,0,0.2,0c0.1,0,0.2,0,0.2,0c0.1,0,0.1,0.1,0.2,0.1l3.7,3.7
			c0.1,0.1,0.1,0.2,0.2,0.3s0,0.2,0,0.4c0,0.1-0.1,0.2-0.2,0.3c-0.1,0.1-0.2,0.1-0.3,0.1h-1.2v1.2h2.4c0.8,0,1.6,0.3,2.2,0.9
			c0.6,0.6,0.9,1.3,0.9,2.2v12.2h-1.2V35.3c0-0.5-0.2-0.9-0.5-1.3c-0.3-0.3-0.8-0.5-1.3-0.5h-2.4v11h-1.2v-14c0-0.2,0.1-0.3,0.2-0.4
			c0.1-0.1,0.3-0.2,0.4-0.2h0.4L60,27.6l-2.2,2.2h0.4c0.2,0,0.3,0.1,0.4,0.2c0.1,0.1,0.2,0.3,0.2,0.4v14.6h-1.2V33.5H36.8
			c-0.5,0-0.9,0.2-1.3,0.5S35,34.8,35,35.3V37.8z M36.8,56.6H47l-1.5,4.9h-1.4v1.2h13.4v-1.2h-1.4l-0.8-2.6l-1.2,0.4l0.7,2.3h-8.1
			l1.5-4.9h4.4v-1.2H36.8c-0.5,0-0.9-0.2-1.3-0.5S35,54.1,35,53.6V53h17.1v-1.2H35V39h-1.2v14.6c0,0.8,0.3,1.6,0.9,2.2
			C35.3,56.3,36,56.6,36.8,56.6z M55.1,46.3v-9.8h-2.4v14H36.8v-1.2h2.4v-4.9c0-0.2,0.1-0.3,0.2-0.4c0.1-0.1,0.3-0.2,0.4-0.2h3.7
			c0.2,0,0.3,0.1,0.4,0.2c0.1,0.1,0.2,0.3,0.2,0.4v4.9h1.2v-9.1c0-0.2,0.1-0.3,0.2-0.4c0.1-0.1,0.3-0.2,0.4-0.2h3.7
			c0.2,0,0.3,0.1,0.4,0.2s0.2,0.3,0.2,0.4v9.1h1.2V35.9c0-0.2,0.1-0.3,0.2-0.4s0.3-0.2,0.4-0.2h3.7c0.2,0,0.3,0.1,0.4,0.2
			c0.1,0.1,0.2,0.3,0.2,0.4v10.4H55.1z M42.9,45.1h-2.4v4.3h2.4V45.1z M49,40.8h-2.4v8.5H49V40.8z M36.8,34.7v1.2h1.2v-1.2H36.8z
			 M40.5,34.7h-1.2v1.2h1.2V34.7z M41.7,34.7v1.2h1.2v-1.2H41.7z M69.8,59.6c0.3,0.3,0.5,0.8,0.5,1.3c0,0.2,0,0.5-0.1,0.7
			S70,62,69.8,62.2s-0.4,0.3-0.6,0.4s-0.5,0.1-0.7,0.1c-0.5,0-0.9-0.2-1.3-0.5l-2.9-2.9c-1.5,0.9-3.3,1.2-5.1,0.9
			c-1.7-0.3-3.3-1.3-4.4-2.7c-1.1-1.4-1.6-3.2-1.5-4.9c0.1-1.8,0.9-3.5,2.1-4.7c1.3-1.3,2.9-2,4.7-2.1c1.8-0.1,3.5,0.4,4.9,1.5
			c1.4,1.1,2.4,2.7,2.7,4.4c0.3,1.7,0,3.6-0.9,5.1L69.8,59.6z M66.7,53c0-1.2-0.4-2.4-1-3.4c-0.7-1-1.6-1.8-2.7-2.2
			s-2.3-0.6-3.5-0.3c-1.2,0.2-2.3,0.8-3.1,1.7c-0.9,0.9-1.4,1.9-1.7,3.1c-0.2,1.2-0.1,2.4,0.3,3.5c0.5,1.1,1.2,2.1,2.2,2.7
			c1,0.7,2.2,1,3.4,1c1.6,0,3.2-0.6,4.3-1.8C66.1,56.2,66.7,54.6,66.7,53z M69,60.5l-2.8-2.8c-0.3,0.3-0.6,0.6-0.9,0.9l2.8,2.8
			c0.1,0.1,0.1,0.1,0.2,0.1c0.1,0,0.2,0,0.2,0.1c0.1,0,0.2,0,0.2,0c0.1,0,0.1-0.1,0.2-0.1c0.1-0.1,0.1-0.1,0.1-0.2
			c0-0.1,0-0.2,0-0.2c0-0.1,0-0.2-0.1-0.2S69,60.5,69,60.5L69,60.5z M65.5,53c0,1-0.3,1.9-0.8,2.7c-0.5,0.8-1.3,1.4-2.2,1.8
			c-0.9,0.4-1.9,0.5-2.8,0.3c-0.9-0.2-1.8-0.7-2.5-1.3c-0.7-0.7-1.1-1.6-1.3-2.5c-0.2-0.9-0.1-1.9,0.3-2.8c0.4-0.9,1-1.7,1.8-2.2
			c0.8-0.5,1.7-0.8,2.7-0.8c1.3,0,2.5,0.5,3.4,1.4C65,50.5,65.5,51.7,65.5,53z M64.3,53c0-0.7-0.2-1.4-0.6-2c-0.4-0.6-1-1.1-1.6-1.3
			c-0.7-0.3-1.4-0.3-2.1-0.2c-0.7,0.1-1.4,0.5-1.9,1s-0.9,1.2-1,1.9c-0.1,0.7-0.1,1.4,0.2,2.1c0.3,0.7,0.7,1.2,1.3,1.6
			c0.6,0.4,1.3,0.6,2,0.6c1,0,1.9-0.4,2.6-1.1C63.9,54.9,64.3,54,64.3,53z M58.2,53h1.2c0-0.3,0.1-0.6,0.4-0.9
			c0.2-0.2,0.5-0.4,0.9-0.4v-1.2c-0.6,0-1.3,0.3-1.7,0.7C58.4,51.7,58.2,52.3,58.2,53z M66.1,29.8h1.2c0-1-0.4-1.9-1.1-2.6
			c-0.7-0.7-1.6-1.1-2.6-1.1v1.2c0.6,0,1.3,0.3,1.7,0.7C65.8,28.6,66.1,29.2,66.1,29.8z"/>
	</g>
</g>
<g>
</g>
<g>
</g>
<g>
</g>
<g>
</g>
<g>
</g>
<g>
</g>
<g>
</g>
<g>
</g>
<g>
</g>
<g>
</g>
<g>
</g>
<g>
</g>
<g>
</g>
<g>
</g>
<g>
</g>
</svg>
