<?xml version="1.0" encoding="utf-8"?>
<!-- Generator: Adobe Illustrator 27.0.1, SVG Export Plug-In . SVG Version: 6.00 Build 0)  -->
<svg version="1.1" id="Layer_1" xmlns="http://www.w3.org/2000/svg" xmlns:xlink="http://www.w3.org/1999/xlink" x="0px" y="0px"
	 width="100px" height="100px" viewBox="0 0 100 100" style="enable-background:new 0 0 100 100;" xml:space="preserve">
<style type="text/css">
	.st0{fill:#FFF2EB;stroke:#FFFFFF;stroke-width:5;stroke-miterlimit:10;}
	.st1{fill-rule:evenodd;clip-rule:evenodd;fill:#F1AA58;}
</style>
<circle class="st0" cx="50" cy="50" r="46"/>
<path class="st1" d="M31.8,63l7.6,8.5l3.4-3L36,61c-0.1-0.1-0.2-0.1-0.2-0.2L35.1,60L31.8,63z M40,68.9c0,0.1-0.1,0.1-0.2,0.2
	c-0.1,0-0.1,0.1-0.2,0.1c-0.1,0-0.2,0-0.2,0c-0.1,0-0.2,0-0.2-0.1c-0.1,0-0.1-0.1-0.2-0.2c0-0.1-0.1-0.1-0.1-0.2c0-0.1,0-0.2,0-0.2
	c0-0.1,0-0.2,0.1-0.2l0.1-0.1c0-0.1,0.1-0.1,0.2-0.2c0.1,0,0.1-0.1,0.2-0.1c0.1,0,0.2,0,0.2,0s0.2,0,0.2,0.1c0.1,0,0.1,0.1,0.2,0.2
	c0,0.1,0.1,0.1,0.1,0.2c0,0.1,0,0.2,0,0.2C40.1,68.6,40.1,68.7,40,68.9L40,68.9L40,68.9z M55.8,39.3c-0.4-0.4-0.9-0.6-1.6-0.6
	c-0.7,0-1.3,0.2-1.7,0.7c-0.4,0.4-0.6,1-0.6,1.8c0,0.9,0.3,1.7,0.7,2.3c0.4,0.5,1,0.9,1.5,0.9s1.1-0.3,1.5-0.9
	c0.4-0.6,0.7-1.4,0.7-2.3C56.4,40.3,56.2,39.7,55.8,39.3z M54.2,37.4c1,0,1.9,0.4,2.5,1c0.6,0.6,0.9,1.5,0.9,2.7c0,1.2-0.4,2.2-1,3
	c-0.6,0.8-1.5,1.3-2.5,1.3c-1,0-1.9-0.5-2.5-1.3c-0.6-0.8-1-1.8-1-3c0-1.1,0.4-2,1-2.7C52.3,37.8,53.2,37.4,54.2,37.4L54.2,37.4z
	 M61.8,52.1v-0.9c0-1.2-0.5-2.4-1.4-3.3c-0.9-0.9-2.1-1.4-3.3-1.4h-6c-1.2,0-2.4,0.5-3.3,1.4c-0.9,0.9-1.4,2.1-1.4,3.3v0.9
	c-0.4-0.4-0.8-0.9-1.2-1.4c-1.1-1.6-1.7-3.5-1.9-5.4c-0.1-1.9,0.3-3.9,1.2-5.6c0.9-1.7,2.2-3.2,3.9-4.2c1.6-1,3.5-1.6,5.5-1.6
	c1.9,0,3.8,0.5,5.5,1.4c1.7,1,3.1,2.4,4,4.1c0.9,1.7,1.4,3.6,1.3,5.5c-0.1,1.9-0.7,3.8-1.7,5.4C62.8,51,62.3,51.6,61.8,52.1z
	 M59.3,54c0.5-0.3,0.9-0.5,1.3-0.8v-1.9c0-0.9-0.4-1.8-1-2.4c-0.6-0.6-1.5-1-2.4-1h-6c-0.9,0-1.8,0.4-2.4,1s-1,1.5-1,2.4v1.9
	c0.6,0.4,1.2,0.8,1.9,1.1V53c0-0.2,0.1-0.3,0.2-0.4c0.1-0.1,0.3-0.2,0.4-0.2c0.2,0,0.3,0.1,0.4,0.2c0.1,0.1,0.2,0.3,0.2,0.4v1.5
	c1.6-0.3,3-0.8,4.3-1.2c0.4-0.1,0.7-0.2,1.1-0.4c0.4-0.2,0.8-0.2,1.2-0.2s0.8,0.2,1.1,0.5C58.8,53.4,59,53.6,59.3,54
	C59.2,54,59.2,54,59.3,54L59.3,54z M58.3,55.2c-0.1,0.4-0.4,0.8-1,1.2c-1,0.6-2.1,1-3.2,1.3c-0.9,0.3-1.9,0.4-2.7,0.3v0
	c-0.2,0-0.3,0-0.4,0.1c-0.1,0.1-0.2,0.2-0.2,0.4c0,0.2,0,0.3,0.1,0.4c0.1,0.1,0.2,0.2,0.4,0.2c2,0.3,3.6,0.5,4.8,0.6
	c1.1,0.1,1.9,0.2,2.3,0.2c0.1,0,0.1,0,0.2,0c2.2-0.4,3.3-0.9,4.7-1.6c0.6-0.3,1.2-0.5,2-0.8c0,0,0,0,0.1,0c0.7-0.3,1.3-0.3,1.7-0.1
	c0.1,0,0.1,0.1,0.2,0.2c0,0.1,0,0.2,0,0.3c-0.2,0.6-0.8,1.3-2.3,2l0,0c-2.5,1.4-4.6,2.4-6.1,3.1c-1.5,0.6-2.6,1-3.2,0.9v0
	c0,0,0,0,0,0c-2.1,0-3.8-0.2-5.2-0.4c-3.4-0.4-5.1-0.7-7.7,2.6l-5.3-6c2-2,3.7-3.3,5.2-4.1c1.6-0.8,3-0.9,4.7-0.4v0
	c0.1,0,0.1,0,0.2,0c3.6,0,6.1-0.8,8.3-1.6c0.4-0.1,0.8-0.3,1.1-0.4c0,0,0.1,0,0.1,0c0.2-0.1,0.4-0.1,0.6-0.1c0.2,0,0.4,0.1,0.5,0.2
	c0.1,0.1,0.3,0.2,0.4,0.4c0,0,0,0.1,0.1,0.2c0,0.1-0.1,0.2,0,0.3C58.2,55.1,58.2,55.2,58.3,55.2L58.3,55.2z M47.9,54.8
	c-0.4-0.2-0.8-0.5-1.1-0.8c0,0-0.1,0-0.1-0.1c-1.9-1.5-3.3-3.7-4-6c-0.7-2.4-0.6-4.9,0.2-7.2c0.8-2.3,2.3-4.4,4.4-5.8
	c2-1.4,4.4-2.2,6.9-2.2c2.5,0,4.9,0.8,6.9,2.2c2,1.4,3.5,3.4,4.4,5.8c0.8,2.3,0.9,4.9,0.2,7.2c-0.7,2.4-2.1,4.5-4,6
	c0,0-0.1,0-0.1,0.1c-0.6,0.5-1.3,0.9-2,1.3c-0.1,0.8-0.6,1.6-1.6,2.2c0,0,0,0,0,0c-0.8,0.5-1.7,0.8-2.5,1.2c0.3,0,0.6,0.1,0.8,0.1
	c1.1,0.1,1.8,0.2,2.2,0.2c2-0.4,3.1-0.9,4.4-1.5c0.6-0.3,1.2-0.5,2-0.8c0,0,0,0,0,0c1.1-0.5,2.1-0.4,2.7-0.1
	c0.3,0.2,0.6,0.5,0.7,0.8c0.1,0.4,0.2,0.7,0,1.1c-0.2,0.8-1.1,1.9-2.9,2.8c-2.5,1.4-4.6,2.5-6.2,3.2c-1.7,0.7-3,1.1-3.8,1
	c-2.2,0-3.9-0.2-5.3-0.4c-3-0.4-4.5-0.6-6.8,2.3l0.7,0.8c0.1,0.1,0.2,0.3,0.2,0.4c0,0.2-0.1,0.3-0.2,0.4l-4.3,3.8
	c-0.1,0.1-0.3,0.2-0.4,0.2c-0.2,0-0.3-0.1-0.4-0.2l-8.4-9.4c-0.1-0.1-0.2-0.3-0.2-0.4c0-0.2,0.1-0.3,0.2-0.4l4.3-3.8
	c0.1-0.1,0.1-0.1,0.2-0.1c0.1,0,0.2,0,0.2,0c0.1,0,0.2,0,0.2,0.1c0.1,0,0.1,0.1,0.2,0.1l0.7,0.8c2.1-2.1,3.8-3.5,5.5-4.3
	c1.8-0.9,3.5-1.1,5.4-0.5C47.5,54.8,47.7,54.8,47.9,54.8z"/>
</svg>
