<?xml version="1.0" encoding="utf-8"?>
<!-- Generator: Adobe Illustrator 27.0.1, SVG Export Plug-In . SVG Version: 6.00 Build 0)  -->
<svg version="1.1" id="Layer_1" xmlns="http://www.w3.org/2000/svg" xmlns:xlink="http://www.w3.org/1999/xlink" x="0px" y="0px"
	 width="100px" height="100px" viewBox="0 0 100 100" style="enable-background:new 0 0 100 100;" xml:space="preserve">
<style type="text/css">
	.st0{fill:#FFF2EB;stroke:#FFFFFF;stroke-width:5;stroke-miterlimit:10;}
	.st1{clip-path:url(#SVGID_00000129908044890141047910000000133492756165853835_);}
	.st2{fill:#F1AA58;}
</style>
<circle class="st0" cx="50.5" cy="48.5" r="46"/>
<g>
	<defs>
		<rect id="SVGID_1_" x="33.1" y="30.5" width="38" height="38"/>
	</defs>
	<clipPath id="SVGID_00000014593634490797883750000007460180642662153352_">
		<use xlink:href="#SVGID_1_"  style="overflow:visible;"/>
	</clipPath>
	<g id="Predictive_Marketing_Insights" style="clip-path:url(#SVGID_00000014593634490797883750000007460180642662153352_);">
		<g id="Group_00000034770945626659166610000009152777372492343223_">
			<path id="Vector_00000114034168945870476730000013687082030211103397_" class="st2" d="M39.1,68.2h-3.2c-0.5,0-0.9-0.4-0.9-0.9
				V52.9c0-0.5,0.4-0.9,0.9-0.9h3.2c0.5,0,0.9,0.4,0.9,0.9v14.4C40,67.8,39.6,68.2,39.1,68.2z M35.9,52.9
				C35.9,52.9,35.9,52.9,35.9,52.9l0,14.4c0,0,0,0,0,0h3.2c0,0,0,0,0,0V52.9c0,0,0,0,0,0H35.9z M46.2,68.2H43
				c-0.5,0-0.9-0.4-0.9-0.9v-8.8c0-0.5,0.4-0.9,0.9-0.9h3.2c0.5,0,0.9,0.4,0.9,0.9v8.8C47.1,67.8,46.7,68.2,46.2,68.2z M43,58.4
				C43,58.4,43,58.5,43,58.4l0,8.9c0,0,0,0,0,0h3.2c0,0,0,0,0,0v-8.8c0,0,0,0,0,0H43z M53.3,68.2h-3.2c-0.5,0-0.9-0.4-0.9-0.9V49.1
				c0-0.5,0.4-0.9,0.9-0.9h3.2c0.5,0,0.9,0.4,0.9,0.9v18.3C54.2,67.8,53.8,68.2,53.3,68.2z M50.1,49C50.1,49,50.1,49,50.1,49l0,18.3
				c0,0,0,0,0,0h3.2c0,0,0,0,0,0V49.1c0,0,0,0,0,0H50.1z M60.4,68.2h-3.2c-0.5,0-0.9-0.4-0.9-0.9V44.2c0-0.5,0.4-0.9,0.9-0.9h3.2
				c0.5,0,0.9,0.4,0.9,0.9v23.1C61.3,67.8,60.9,68.2,60.4,68.2z M57.2,44.2C57.2,44.2,57.2,44.2,57.2,44.2l0,23.1c0,0,0,0,0,0h3.2
				c0,0,0,0,0,0V44.2c0,0,0,0,0,0H57.2z M41.4,50.4c-0.1,0-0.2,0-0.3-0.1l-3.9-3c-0.2-0.1-0.2-0.4-0.1-0.6c0.1-0.2,0.4-0.2,0.6-0.1
				l3.9,3c0.2,0.1,0.2,0.4,0.1,0.6C41.7,50.3,41.5,50.4,41.4,50.4z M44,50c-0.1,0-0.2,0-0.3-0.1c-0.2-0.1-0.2-0.4-0.1-0.6l4.9-6.4
				c0.1-0.2,0.4-0.2,0.6-0.1c0.2,0.1,0.2,0.4,0.1,0.6l-4.9,6.4C44.2,50,44.1,50,44,50z M51.5,41c-0.1,0-0.3-0.1-0.3-0.2
				c-0.1-0.2-0.1-0.5,0.1-0.6l4-2.7c0.2-0.1,0.5-0.1,0.6,0.1c0.1,0.2,0.1,0.5-0.1,0.6l-4,2.7C51.7,41,51.6,41,51.5,41z M58.9,36.8
				c-0.2,0-0.4-0.1-0.4-0.3c-0.1-0.2,0.1-0.5,0.3-0.5l4.9-1.3c0.2-0.1,0.5,0.1,0.5,0.3c0.1,0.2-0.1,0.5-0.3,0.5L59,36.8
				C59,36.8,58.9,36.8,58.9,36.8z"/>
			<path id="Vector_2_00000015341857682729591800000007151624744360585383_" class="st2" d="M65.6,38.6c-0.2,0-0.3,0-0.5-0.1
				c-0.6-0.2-1.1-0.6-1.2-1.2L62.8,33c-0.2-0.6,0-1.2,0.4-1.7c0.4-0.4,1.1-0.6,1.7-0.4l4.2,1.1c0.6,0.2,1.1,0.6,1.2,1.2
				c0.2,0.6,0,1.2-0.4,1.7l-3.1,3.1C66.5,38.4,66.1,38.6,65.6,38.6z M64.5,31.7c-0.2,0-0.4,0.1-0.6,0.3c-0.2,0.2-0.3,0.5-0.2,0.8
				l1.1,4.2c0.1,0.3,0.3,0.5,0.6,0.6c0.3,0.1,0.6,0,0.8-0.2l3.1-3.1c0.2-0.2,0.3-0.5,0.2-0.8c-0.1-0.3-0.3-0.5-0.6-0.6l-4.2-1.1
				C64.6,31.7,64.5,31.7,64.5,31.7z M36,48c-1.3,0-2.3-1-2.3-2.3c0-1.3,1-2.3,2.3-2.3c1.3,0,2.3,1,2.3,2.3C38.3,47,37.3,48,36,48z
				 M36,44.3c-0.8,0-1.4,0.6-1.4,1.4s0.7,1.4,1.4,1.4c0.8,0,1.4-0.6,1.4-1.4S36.8,44.3,36,44.3z M42.9,53.4c-1.3,0-2.3-1-2.3-2.3
				c0-1.3,1-2.3,2.3-2.3c1.3,0,2.3,1,2.3,2.3C45.2,52.3,44.1,53.4,42.9,53.4z M42.9,49.6c-0.8,0-1.4,0.6-1.4,1.4
				c0,0.8,0.6,1.4,1.4,1.4c0.8,0,1.4-0.6,1.4-1.4C44.3,50.3,43.7,49.6,42.9,49.6z M50,44c-1.3,0-2.3-1-2.3-2.3c0-1.3,1-2.3,2.3-2.3
				c1.3,0,2.3,1,2.3,2.3C52.3,42.9,51.2,44,50,44z M50,40.2c-0.8,0-1.4,0.6-1.4,1.4c0,0.8,0.6,1.4,1.4,1.4c0.8,0,1.4-0.6,1.4-1.4
				C51.4,40.9,50.8,40.2,50,40.2z M57.1,39.1c-1.3,0-2.3-1-2.3-2.3s1-2.3,2.3-2.3c1.3,0,2.3,1,2.3,2.3S58.3,39.1,57.1,39.1z
				 M57.1,35.4c-0.8,0-1.4,0.7-1.4,1.4c0,0.8,0.6,1.4,1.4,1.4c0.8,0,1.4-0.7,1.4-1.4C58.5,36,57.9,35.4,57.1,35.4z"/>
		</g>
	</g>
</g>
<g>
</g>
<g>
</g>
<g>
</g>
<g>
</g>
<g>
</g>
<g>
</g>
<g>
</g>
<g>
</g>
<g>
</g>
<g>
</g>
<g>
</g>
<g>
</g>
<g>
</g>
<g>
</g>
<g>
</g>
</svg>
