<?xml version="1.0" encoding="utf-8"?>
<!-- Generator: Adobe Illustrator 27.0.1, SVG Export Plug-In . SVG Version: 6.00 Build 0)  -->
<svg version="1.1" id="Layer_1" xmlns="http://www.w3.org/2000/svg" xmlns:xlink="http://www.w3.org/1999/xlink" x="0px" y="0px"
	 width="100px" height="100px" viewBox="0 0 100 100" style="enable-background:new 0 0 100 100;" xml:space="preserve">
<style type="text/css">
	.st0{fill:#FFDCE9;stroke:#FFFFFF;stroke-width:5;stroke-miterlimit:10;}
	.st1{fill:#DF3D9E;}
</style>
<circle class="st0" cx="50.5" cy="48.5" r="46"/>
<g id="Proactive_Business_Decisions">
	<path id="Vector_00000116220252788098825850000008026262568454488743_" class="st1" d="M33.8,52.9c-0.2,0-0.4,0.1-0.6,0.3
		C33,53.4,33,53.6,33,53.8v2.8c0,0.2,0.1,0.4,0.2,0.6s0.4,0.3,0.6,0.3l1.8,0.2c0.2,0.5,0.4,1,0.6,1.4l-1.1,1.4
		c-0.1,0.2-0.2,0.4-0.2,0.6c0,0.2,0.1,0.4,0.3,0.6l2,2c0.2,0.2,0.4,0.3,0.6,0.3c0.2,0,0.5-0.1,0.6-0.2l1.4-1.1
		c0.5,0.2,0.9,0.4,1.4,0.6l0.2,1.8c0,0.2,0.1,0.4,0.3,0.6c0.2,0.2,0.4,0.2,0.6,0.2h2.8c0.2,0,0.4-0.1,0.6-0.2
		c0.2-0.2,0.3-0.4,0.3-0.6l0.2-1.8c0.5-0.2,1-0.4,1.4-0.6l1.4,1.1c0.2,0.1,0.4,0.2,0.6,0.2c0.2,0,0.4-0.1,0.6-0.3l2-2
		c0.2-0.2,0.3-0.4,0.3-0.6c0-0.2-0.1-0.5-0.2-0.6l-1.1-1.4c0.2-0.5,0.4-0.9,0.6-1.4l1.8-0.2c0.2,0,0.4-0.1,0.6-0.3
		c0.2-0.2,0.2-0.4,0.2-0.6v-2.8c0-0.2-0.1-0.4-0.2-0.6c-0.2-0.2-0.4-0.3-0.6-0.3l-1.8-0.2c-0.2-0.5-0.4-1-0.6-1.4l1.1-1.4
		c0.1-0.2,0.2-0.4,0.2-0.6c0-0.2-0.1-0.4-0.3-0.6l-2-2c-0.2-0.2-0.4-0.3-0.6-0.3c-0.2,0-0.5,0.1-0.6,0.2l-1.4,1.1
		c-0.5-0.2-0.9-0.4-1.4-0.6L46,45.3c0-0.2-0.1-0.4-0.3-0.6c-0.2-0.2-0.4-0.2-0.6-0.2h-2.8c-0.2,0-0.4,0.1-0.6,0.2
		c-0.2,0.2-0.3,0.4-0.3,0.6l-0.2,1.8c-0.5,0.2-1,0.4-1.4,0.6l-1.4-1.1c-0.2-0.1-0.4-0.2-0.6-0.2s-0.4,0.1-0.6,0.3l-2,2
		c-0.2,0.2-0.3,0.4-0.3,0.6c0,0.2,0.1,0.5,0.2,0.6l1.1,1.4c-0.2,0.5-0.4,0.9-0.6,1.4L33.8,52.9z M36.4,53.2c0.2-0.6,0.4-1.2,0.7-1.8
		c0-0.1,0.1-0.2,0.1-0.3c0-0.1,0-0.2-0.1-0.2l-1.3-1.7c0,0,0,0,0,0c0,0,0,0,0,0c0,0,0,0,0,0c0,0,0,0,0,0l2-2c0,0,0,0,0,0
		c0,0,0,0,0,0c0,0,0,0,0,0c0,0,0,0,0,0l1.7,1.3c0.1,0.1,0.2,0.1,0.2,0.1c0.1,0,0.2,0,0.3-0.1c0.6-0.3,1.2-0.6,1.8-0.7
		c0.1,0,0.2-0.1,0.2-0.1c0.1-0.1,0.1-0.2,0.1-0.2l0.3-2.1c0,0,0,0,0,0c0,0,0,0,0,0c0,0,0,0,0,0c0,0,0,0,0,0h2.8c0,0,0,0,0,0
		c0,0,0,0,0,0c0,0,0,0,0,0c0,0,0,0,0,0l0.3,2.1c0,0.1,0,0.2,0.1,0.2c0.1,0.1,0.1,0.1,0.2,0.1c0.6,0.2,1.2,0.4,1.8,0.7
		c0.1,0,0.2,0.1,0.3,0.1c0.1,0,0.2,0,0.2-0.1l1.7-1.3c0,0,0,0,0,0c0,0,0,0,0,0s0,0,0,0c0,0,0,0,0,0l2,2c0,0,0,0,0,0c0,0,0,0,0,0
		c0,0,0,0,0,0c0,0,0,0,0,0l-1.3,1.7c-0.1,0.1-0.1,0.2-0.1,0.2c0,0.1,0,0.2,0.1,0.3c0.3,0.6,0.6,1.2,0.7,1.8c0,0.1,0.1,0.2,0.1,0.2
		c0.1,0.1,0.2,0.1,0.2,0.1l2.1,0.3c0,0,0,0,0,0c0,0,0,0,0,0c0,0,0,0,0,0c0,0,0,0,0,0v2.8c0,0,0,0,0,0c0,0,0,0,0,0c0,0,0,0,0,0
		c0,0,0,0,0,0l-2.1,0.3c-0.1,0-0.2,0-0.2,0.1C51.1,57,51,57.1,51,57.2c-0.2,0.6-0.4,1.2-0.7,1.8c0,0.1-0.1,0.2-0.1,0.3
		c0,0.1,0,0.2,0.1,0.2l1.3,1.7c0,0,0,0,0,0c0,0,0,0,0,0s0,0,0,0c0,0,0,0,0,0l-2,2c0,0,0,0,0,0c0,0,0,0,0,0s0,0,0,0c0,0,0,0,0,0
		L48,61.8c-0.1-0.1-0.2-0.1-0.2-0.1c-0.1,0-0.2,0-0.3,0.1c-0.6,0.3-1.2,0.6-1.8,0.7c-0.1,0-0.2,0.1-0.2,0.1
		c-0.1,0.1-0.1,0.2-0.1,0.2L45.1,65c0,0,0,0,0,0c0,0,0,0,0,0c0,0,0,0,0,0c0,0,0,0,0,0h-2.8c0,0,0,0,0,0c0,0,0,0,0,0c0,0,0,0,0,0
		c0,0,0,0,0,0l-0.3-2.1c0-0.1,0-0.2-0.1-0.2c-0.1-0.1-0.1-0.1-0.2-0.1c-0.6-0.2-1.2-0.4-1.8-0.7c-0.1,0-0.2-0.1-0.3-0.1
		s-0.2,0-0.2,0.1l-1.7,1.3c0,0,0,0,0,0c0,0,0,0,0,0c0,0,0,0,0,0s0,0,0,0l-2-2c0,0,0,0,0,0c0,0,0,0,0,0c0,0,0,0,0,0c0,0,0,0,0,0
		l1.3-1.7c0.1-0.1,0.1-0.2,0.1-0.2c0-0.1,0-0.2-0.1-0.3c-0.3-0.6-0.6-1.2-0.7-1.8c0-0.1-0.1-0.2-0.1-0.2c-0.1-0.1-0.2-0.1-0.2-0.1
		l-2.1-0.3c0,0,0,0,0,0c0,0,0,0,0,0c0,0,0,0,0,0c0,0,0,0,0,0v-2.8c0,0,0,0,0,0c0,0,0,0,0,0c0,0,0,0,0,0c0,0,0,0,0,0l2.1-0.3
		c0.1,0,0.2,0,0.2-0.1C36.3,53.4,36.4,53.3,36.4,53.2z M43.7,60.2c1,0,1.9-0.3,2.8-0.8c0.8-0.5,1.5-1.3,1.8-2.2
		c0.4-0.9,0.5-1.9,0.3-2.9c-0.2-1-0.7-1.9-1.4-2.6c-0.7-0.7-1.6-1.2-2.6-1.4c-1-0.2-2-0.1-2.9,0.3c-0.9,0.4-1.7,1-2.2,1.8
		c-0.5,0.8-0.8,1.8-0.8,2.8c0,1.3,0.5,2.6,1.5,3.5C41.1,59.7,42.4,60.2,43.7,60.2z M43.7,51.2c0.8,0,1.6,0.2,2.3,0.7
		c0.7,0.4,1.2,1.1,1.5,1.8c0.3,0.7,0.4,1.6,0.2,2.3c-0.2,0.8-0.5,1.5-1.1,2.1c-0.6,0.6-1.3,1-2.1,1.1c-0.8,0.2-1.6,0.1-2.3-0.2
		s-1.4-0.8-1.8-1.5c-0.4-0.7-0.7-1.5-0.7-2.3c0-1.1,0.4-2.1,1.2-2.9S42.6,51.2,43.7,51.2z M61.2,27c-5.9,0-10.7,4.8-10.7,10.7
		c0,5.9,4.8,10.7,10.7,10.7S72,43.6,72,37.7C72,31.8,67.1,27,61.2,27z M55.1,45.4c0.2-1.5,0.9-2.9,2-3.9c1.1-1,2.6-1.6,4.1-1.6
		c1.5,0,3,0.6,4.1,1.6c1.1,1,1.8,2.4,2,3.9c-1.7,1.4-3.9,2.1-6.1,2.1C59,47.5,56.9,46.8,55.1,45.4z M68.1,44.7
		c-0.2-1.2-0.8-2.4-1.7-3.3c-0.8-0.9-1.9-1.6-3.1-2c0.8-0.5,1.4-1.2,1.8-2c0.3-0.9,0.4-1.8,0.2-2.7c-0.2-0.9-0.8-1.7-1.5-2.2
		c-0.7-0.6-1.6-0.9-2.6-0.9s-1.8,0.3-2.6,0.9c-0.7,0.6-1.3,1.3-1.5,2.2c-0.2,0.9-0.2,1.8,0.2,2.7s1,1.6,1.8,2
		c-1.2,0.4-2.3,1.1-3.1,2c-0.8,0.9-1.4,2.1-1.7,3.3c-1.4-1.4-2.3-3.1-2.7-5s-0.2-3.9,0.5-5.7c0.7-1.8,2-3.3,3.6-4.4
		c1.6-1.1,3.5-1.7,5.5-1.7c1.9,0,3.9,0.6,5.5,1.7c1.6,1.1,2.9,2.6,3.6,4.4c0.7,1.8,0.9,3.8,0.5,5.7C70.5,41.6,69.5,43.3,68.1,44.7z
		 M61.2,39c-0.7,0-1.3-0.2-1.8-0.6s-1-0.9-1.2-1.5c-0.2-0.6-0.3-1.3-0.2-1.9c0.1-0.6,0.4-1.2,0.9-1.7c0.5-0.5,1-0.8,1.7-0.9
		c0.6-0.1,1.3-0.1,1.9,0.2c0.6,0.2,1.1,0.7,1.5,1.2c0.4,0.5,0.6,1.2,0.6,1.8c0,0.9-0.3,1.7-1,2.3C62.9,38.7,62.1,39,61.2,39z
		 M40.2,32.2H49l-0.9-0.9c-0.1-0.1-0.1-0.2-0.1-0.3c0-0.1,0-0.2,0.1-0.3c0.1-0.1,0.2-0.1,0.3-0.1s0.2,0,0.3,0.1l1.8,1.7
		c0,0,0.1,0.1,0.1,0.2c0,0.1,0,0.1,0,0.2s0,0.1,0,0.2c0,0.1-0.1,0.1-0.1,0.2l-1.8,1.7c-0.1,0.1-0.2,0.1-0.3,0.1
		c-0.1,0-0.2-0.1-0.3-0.1s-0.1-0.2-0.1-0.3s0.1-0.2,0.1-0.3l0.9-0.9h-8.8c-0.3,0-0.6,0.1-0.8,0.3c-0.2,0.2-0.3,0.5-0.3,0.8v11
		c0,0.1,0,0.2-0.1,0.3c-0.1,0.1-0.2,0.1-0.3,0.1c-0.1,0-0.2,0-0.3-0.1c-0.1-0.1-0.1-0.2-0.1-0.3v-11c0-0.5,0.2-1,0.6-1.4
		C39.2,32.4,39.7,32.2,40.2,32.2z M55.8,58.9l-0.9,0.9h9.8c0.3,0,0.6-0.1,0.8-0.3c0.2-0.2,0.3-0.5,0.3-0.8v-10c0-0.1,0-0.2,0.1-0.3
		c0.1-0.1,0.2-0.1,0.3-0.1c0.1,0,0.2,0,0.3,0.1c0.1,0.1,0.1,0.2,0.1,0.3v10c0,0.5-0.2,1-0.6,1.4c-0.4,0.4-0.9,0.6-1.4,0.6h-9.8
		l0.9,0.9c0.1,0.1,0.1,0.2,0.1,0.3c0,0.1,0,0.2-0.1,0.3c-0.1,0.1-0.2,0.1-0.3,0.1c-0.1,0-0.2,0-0.3-0.1l-1.8-1.7
		c0,0-0.1-0.1-0.1-0.2c0-0.1,0-0.1,0-0.2c0-0.1,0-0.1,0-0.2c0-0.1,0.1-0.1,0.1-0.2l1.8-1.7c0.1-0.1,0.2-0.1,0.3-0.1
		c0.1,0,0.2,0.1,0.3,0.1c0.1,0.1,0.1,0.2,0.1,0.3C56,58.7,55.9,58.8,55.8,58.9L55.8,58.9z"/>
</g>
<g>
</g>
<g>
</g>
<g>
</g>
<g>
</g>
<g>
</g>
<g>
</g>
<g>
</g>
<g>
</g>
<g>
</g>
<g>
</g>
<g>
</g>
<g>
</g>
<g>
</g>
<g>
</g>
<g>
</g>
</svg>
