<?xml version="1.0" encoding="utf-8"?>
<!-- Generator: Adobe Illustrator 27.0.1, SVG Export Plug-In . SVG Version: 6.00 Build 0)  -->
<svg version="1.1" id="Layer_1" xmlns="http://www.w3.org/2000/svg" xmlns:xlink="http://www.w3.org/1999/xlink" x="0px" y="0px"
	 width="100px" height="100px" viewBox="0 0 100 100" style="enable-background:new 0 0 100 100;" xml:space="preserve">
<style type="text/css">
	.st0{fill:#FFE7E7;stroke:#FFFFFF;stroke-width:5;stroke-miterlimit:10;}
	.st1{fill:#FB4455;}
</style>
<circle class="st0" cx="50" cy="50" r="46"/>
<path class="st1" d="M41.5,54.4c1,0,2-0.3,2.8-0.9c0.8-0.6,1.5-1.4,1.9-2.3s0.5-2,0.3-3c-0.2-1-0.7-1.9-1.4-2.7
	c-0.7-0.7-1.6-1.2-2.6-1.4c-1-0.2-2-0.1-3,0.3c-0.9,0.4-1.7,1.1-2.3,1.9c-0.6,0.9-0.9,1.9-0.9,2.9c0,1.4,0.5,2.7,1.5,3.7
	S40.1,54.4,41.5,54.4z M41.5,45.3c0.8,0,1.5,0.2,2.2,0.7c0.6,0.4,1.1,1,1.4,1.8c0.3,0.7,0.4,1.5,0.2,2.3c-0.1,0.8-0.5,1.5-1.1,2
	c-0.5,0.6-1.2,0.9-2,1.1c-0.8,0.2-1.5,0.1-2.2-0.2c-0.7-0.3-1.3-0.8-1.7-1.5c-0.4-0.6-0.7-1.4-0.7-2.2c0-1,0.4-2,1.1-2.8
	C39.5,45.7,40.5,45.3,41.5,45.3z M54.4,52.8L54.4,52.8c-0.4,0-0.7,0.1-1,0.3c-0.3,0.2-0.6,0.5-0.7,0.8l-2.8,4.9
	c-4-2.8-7-3.8-9.7-3.3c-3.6,0.7-6.3,4-10,9.8c-0.3,0.5-0.4,1.2-0.3,1.8s0.5,1.1,1,1.5c0.5,0.3,1.1,0.5,1.7,0.3
	c0.6-0.1,1.1-0.5,1.5-1l2.1-3.3v7.4c0,0.3,0.1,0.6,0.3,0.8c0.2,0.2,0.5,0.3,0.7,0.3h8.4c0.3,0,0.5-0.1,0.7-0.3
	c0.2-0.2,0.3-0.5,0.3-0.8v-9.9l2.8,1.6c0.5,0.3,1.1,0.4,1.6,0.2c0.5-0.1,1-0.5,1.3-1l3.9-6.8c0.4-0.7,0.4-1.4,0-2.1
	c-0.2-0.3-0.5-0.6-0.8-0.8C55.2,52.9,54.8,52.8,54.4,52.8z M55.2,55.4l-3.9,6.8c-0.1,0.2-0.3,0.4-0.5,0.4c-0.2,0.1-0.5,0-0.7-0.1
	l-3.1-1.8c-0.2-0.1-0.3-0.1-0.5-0.1c-0.2,0-0.4,0-0.5,0.1c-0.2,0.1-0.3,0.2-0.4,0.4c-0.1,0.2-0.1,0.3-0.1,0.5v10.1h-8v-9.3
	c0-0.1,0-0.3-0.1-0.4c-0.1-0.1-0.2-0.2-0.3-0.2c-0.1,0-0.3,0-0.4,0c-0.1,0-0.2,0.1-0.3,0.2l-3.3,5.1c-0.2,0.2-0.4,0.4-0.7,0.5
	c-0.3,0.1-0.6,0-0.8-0.1c-0.2-0.2-0.4-0.4-0.5-0.7c-0.1-0.3,0-0.6,0.1-0.8c3.5-5.5,6-8.6,9.2-9.2c2.4-0.5,5.4,0.6,9.3,3.4
	c0.1,0.1,0.2,0.1,0.2,0.1c0.1,0,0.2,0,0.3,0c0.1,0,0.2-0.1,0.2-0.1c0.1-0.1,0.1-0.1,0.2-0.2l3.1-5.4c0.1-0.1,0.2-0.2,0.3-0.3
	c0.1-0.1,0.3-0.1,0.4-0.1c0.2,0,0.4,0,0.5,0.1s0.3,0.2,0.4,0.4C55.4,54.8,55.4,55.1,55.2,55.4z M70.7,37.9c0-0.1-0.1-0.2-0.2-0.3
	c-0.1-0.1-0.2-0.2-0.3-0.2l-2-0.5c-0.2-0.9-0.6-1.7-1-2.5l1.1-1.8c0.1-0.1,0.1-0.2,0.1-0.4c0-0.1-0.1-0.2-0.1-0.3
	c-0.7-0.9-1.5-1.8-2.4-2.5c-0.1-0.1-0.2-0.1-0.3-0.1c-0.1,0-0.2,0-0.4,0.1l-1.8,1.1c-0.8-0.4-1.6-0.8-2.4-1l-0.5-2
	c0-0.1-0.1-0.2-0.2-0.3c-0.1-0.1-0.2-0.1-0.3-0.2c-1.1-0.2-2.3-0.2-3.5,0c-0.1,0-0.2,0.1-0.3,0.2c-0.1,0.1-0.2,0.2-0.2,0.3l-0.5,2
	c-0.8,0.2-1.7,0.6-2.4,1l-1.8-1.1c-0.1-0.1-0.2-0.1-0.4-0.1c-0.1,0-0.2,0.1-0.3,0.1c-0.9,0.7-1.7,1.5-2.4,2.5
	c-0.1,0.1-0.1,0.2-0.1,0.3c0,0.1,0,0.2,0.1,0.4l1.1,1.8c-0.4,0.8-0.8,1.6-1,2.5l-2,0.5c-0.1,0-0.2,0.1-0.3,0.2
	c-0.1,0.1-0.1,0.2-0.2,0.3c-0.2,1.2-0.2,2.3,0,3.5c0,0.1,0.1,0.2,0.2,0.3c0.1,0.1,0.2,0.2,0.3,0.2l2,0.5c0.2,0.9,0.6,1.7,1,2.5
	l-1.1,1.8c-0.1,0.1-0.1,0.2-0.1,0.4c0,0.1,0.1,0.2,0.1,0.3c0.7,0.9,1.5,1.8,2.4,2.5c0.1,0.1,0.2,0.1,0.3,0.1c0.1,0,0.2,0,0.4-0.1
	l1.8-1.1c0.2,0.1,0.3,0.2,0.5,0.3c0,0.4,0.2,0.8,0.5,1.1c0.3,0.3,0.7,0.5,1.1,0.5v0.6c0,0.6,0.2,1.1,0.6,1.5
	c0.4,0.4,0.9,0.6,1.5,0.6h2c0.5,0,1.1-0.2,1.5-0.6c0.4-0.4,0.6-0.9,0.6-1.5v-0.6c0.4,0,0.8-0.2,1.1-0.5c0.3-0.3,0.5-0.7,0.5-1.1
	c0.2-0.1,0.3-0.2,0.5-0.3l1.8,1.1c0.1,0.1,0.2,0.1,0.4,0.1c0.1,0,0.2-0.1,0.3-0.1c0.9-0.7,1.7-1.5,2.4-2.5c0.1-0.1,0.1-0.2,0.1-0.3
	c0-0.1,0-0.3-0.1-0.4l-1.1-1.8c0.4-0.8,0.8-1.6,1-2.5l2-0.5c0.1,0,0.2-0.1,0.3-0.2c0.1-0.1,0.1-0.2,0.2-0.3
	C70.9,40.2,70.9,39,70.7,37.9L70.7,37.9z M60.6,47H60v-7.2h0.6c0.4,0,0.7-0.1,1-0.3c0.3-0.2,0.5-0.5,0.7-0.8
	c0.1-0.3,0.2-0.7,0.1-1.1c-0.1-0.4-0.2-0.7-0.5-1c-0.3-0.3-0.6-0.4-0.9-0.5c-0.4-0.1-0.7,0-1.1,0.1c-0.3,0.1-0.6,0.4-0.8,0.7
	c-0.2,0.3-0.3,0.7-0.3,1v0.6h-1V38c0-0.4-0.1-0.7-0.3-1c-0.2-0.3-0.5-0.5-0.8-0.7s-0.7-0.2-1.1-0.1s-0.7,0.2-0.9,0.5
	c-0.3,0.3-0.4,0.6-0.5,1c-0.1,0.4,0,0.7,0.1,1.1c0.1,0.3,0.4,0.6,0.7,0.8c0.3,0.2,0.7,0.3,1,0.3h0.6V47h-0.6c-0.4-1-1.1-1.8-1.7-2.5
	c-1.2-1.4-2.3-2.8-2.3-5.2c0-1.7,0.7-3.4,1.9-4.6c1.2-1.2,2.8-1.9,4.5-1.9s3.3,0.7,4.5,1.9c1.2,1.2,1.9,2.9,1.9,4.6
	c0,2.4-1.1,3.8-2.3,5.2C61.7,45.3,61,46.1,60.6,47z M56.5,38.6h-0.6c-0.1,0-0.2,0-0.3-0.1s-0.2-0.2-0.2-0.3c0-0.1-0.1-0.2,0-0.3
	s0.1-0.2,0.2-0.3c0.1-0.1,0.2-0.1,0.3-0.2c0.1,0,0.2,0,0.3,0c0.1,0,0.2,0.1,0.3,0.2c0.1,0.1,0.1,0.2,0.1,0.3V38.6z M58.7,47h-1v-7.2
	h1V47z M60,38.6V38c0-0.1,0-0.2,0.1-0.3c0.1-0.1,0.2-0.2,0.3-0.2c0.1,0,0.2-0.1,0.3,0c0.1,0,0.2,0.1,0.3,0.2
	c0.1,0.1,0.1,0.2,0.2,0.3c0,0.1,0,0.2,0,0.3c0,0.1-0.1,0.2-0.2,0.3c-0.1,0.1-0.2,0.1-0.3,0.1H60z M59.2,52.1h-2
	c-0.2,0-0.4-0.1-0.6-0.2c-0.2-0.2-0.2-0.4-0.2-0.6v-0.6h3.6v0.6c0,0.2-0.1,0.4-0.2,0.6C59.7,52,59.5,52.1,59.2,52.1L59.2,52.1z
	 M61.1,49.4h-5.7c-0.1,0-0.3-0.1-0.4-0.2c-0.1-0.1-0.2-0.3-0.2-0.4c0-0.2,0.1-0.3,0.2-0.4c0.1-0.1,0.2-0.2,0.4-0.2h5.7
	c0.1,0,0.3,0.1,0.4,0.2c0.1,0.1,0.2,0.3,0.2,0.4c0,0.2-0.1,0.3-0.2,0.4C61.4,49.4,61.3,49.4,61.1,49.4L61.1,49.4z M69.6,40.8
	l-1.9,0.5c-0.1,0-0.2,0.1-0.3,0.2c-0.1,0.1-0.1,0.2-0.2,0.3c-0.2,1-0.6,1.9-1.1,2.8c-0.1,0.1-0.1,0.2-0.1,0.3c0,0.1,0,0.2,0.1,0.3
	l1,1.7c-0.5,0.6-1,1.2-1.6,1.6l-1.7-1c-0.1-0.1-0.2-0.1-0.3-0.1c-0.1,0-0.2,0-0.3,0.1c-0.2,0.1-0.3,0.2-0.5,0.3
	c-0.2-0.3-0.4-0.5-0.7-0.6c0.4-0.7,0.9-1.3,1.4-1.9c1.2-1.5,2.6-3.1,2.6-6c0-2-0.8-4-2.2-5.5c-1.4-1.4-3.4-2.3-5.4-2.3
	c-2,0-4,0.8-5.4,2.3c-1.4,1.4-2.2,3.4-2.2,5.5c0,2.9,1.4,4.6,2.6,6c0.5,0.6,1,1.2,1.4,1.9c-0.3,0.1-0.5,0.3-0.7,0.6
	c-0.2-0.1-0.3-0.2-0.5-0.3c-0.1-0.1-0.2-0.1-0.3-0.1c-0.1,0-0.2,0-0.3,0.1l-1.7,1c-0.6-0.5-1.1-1-1.6-1.6l1-1.7
	c0.1-0.1,0.1-0.2,0.1-0.3c0-0.1,0-0.2-0.1-0.3c-0.5-0.9-0.9-1.8-1.1-2.8c0-0.1-0.1-0.2-0.2-0.3c-0.1-0.1-0.2-0.1-0.3-0.2l-1.9-0.5
	c0-0.4-0.1-0.8-0.1-1.2c0-0.4,0-0.8,0.1-1.2l1.9-0.5c0.1,0,0.2-0.1,0.3-0.2c0.1-0.1,0.1-0.2,0.2-0.3c0.2-1,0.6-1.9,1.1-2.8
	c0.1-0.1,0.1-0.2,0.1-0.3c0-0.1,0-0.2-0.1-0.3l-1-1.7c0.5-0.6,1-1.2,1.6-1.6l1.7,1c0.1,0.1,0.2,0.1,0.3,0.1c0.1,0,0.2,0,0.3-0.1
	c0.8-0.5,1.8-0.9,2.7-1.2c0.1,0,0.2-0.1,0.3-0.2c0.1-0.1,0.1-0.2,0.2-0.3l0.5-2c0.8-0.1,1.5-0.1,2.3,0l0.5,2c0,0.1,0.1,0.2,0.2,0.3
	c0.1,0.1,0.2,0.1,0.3,0.2c1,0.2,1.9,0.6,2.7,1.2c0.1,0.1,0.2,0.1,0.3,0.1c0.1,0,0.2,0,0.3-0.1l1.7-1c0.6,0.5,1.1,1,1.6,1.6l-1,1.7
	c-0.1,0.1-0.1,0.2-0.1,0.3c0,0.1,0,0.2,0.1,0.3c0.5,0.9,0.9,1.8,1.1,2.8c0,0.1,0.1,0.2,0.2,0.3c0.1,0.1,0.2,0.1,0.3,0.2l1.9,0.5
	C69.6,39.2,69.6,40,69.6,40.8L69.6,40.8z"/>
</svg>
