<?xml version="1.0" encoding="utf-8"?>
<!-- Generator: Adobe Illustrator 27.0.1, SVG Export Plug-In . SVG Version: 6.00 Build 0)  -->
<svg version="1.1" id="Layer_1" xmlns="http://www.w3.org/2000/svg" xmlns:xlink="http://www.w3.org/1999/xlink" x="0px" y="0px"
	 width="100px" height="100px" viewBox="0 0 100 100" style="enable-background:new 0 0 100 100;" xml:space="preserve">
<style type="text/css">
	.st0{fill:#E9FFE7;stroke:#FFFFFF;stroke-width:5;stroke-miterlimit:10;}
	.st1{fill:#039B00;}
</style>
<circle class="st0" cx="50.5" cy="48.5" r="46"/>
<g id="Proactive_Churn_Mitigation_2_1">
	<path id="Vector" class="st1" d="M35.8,50.5c-0.1-0.2-0.2-0.3-0.4-0.3c-0.2-0.1-0.4-0.1-0.5,0l-7,3.3c-0.2,0.1-0.3,0.2-0.3,0.4
		c-0.1,0.2-0.1,0.3,0,0.5l6.8,14.2c0.1,0.2,0.2,0.3,0.4,0.3c0.2,0.1,0.4,0.1,0.5,0l7-3.3c0.2-0.1,0.3-0.2,0.3-0.4
		c0.1-0.2,0.1-0.3,0-0.5L42.3,64l0.9-0.8c0.1-0.1,0.3-0.2,0.5-0.3c0.2-0.1,0.3-0.1,0.5-0.1h12.2c0.6,0,1.3-0.1,1.9-0.4
		c0.6-0.3,1.1-0.6,1.5-1.1L70,49.7c0.2-0.3,0.4-0.6,0.5-0.9c0.1-0.3,0.1-0.7,0-1c-0.1-0.3-0.2-0.7-0.4-0.9c-0.2-0.3-0.5-0.5-0.8-0.7
		c-1.6-0.7-4-0.8-5.4,0.6l-5.5,5.4c-0.3-0.4-0.7-0.7-1.1-0.9c-0.4-0.2-0.9-0.3-1.4-0.3h-7.7c-1.6-1.4-3.8-2-6.3-1.8
		c-2.1,0.2-4,0.9-5.7,2.1L35.8,50.5z M35.4,67.4l-6.3-13l5.8-2.7l6.3,13L35.4,67.4z M47.4,52.1c0.1,0.1,0.1,0.1,0.2,0.1
		c0.1,0,0.2,0.1,0.3,0.1h7.9c0.5,0,1,0.2,1.3,0.5c0.3,0.3,0.5,0.8,0.5,1.3c0,0.5-0.2,0.9-0.5,1.3c-0.3,0.3-0.8,0.5-1.3,0.5H49
		c-0.2,0-0.3,0.1-0.5,0.2c-0.1,0.1-0.2,0.3-0.2,0.5c0,0.2,0.1,0.3,0.2,0.5c0.1,0.1,0.3,0.2,0.5,0.2h6.9c0.5,0,0.9-0.1,1.4-0.3
		c0.4-0.2,0.8-0.5,1.1-0.9c0.3-0.4,0.5-0.8,0.6-1.3c0.1-0.5,0.1-0.9,0-1.4l5.8-5.7c0.9-0.9,2.8-0.9,3.9-0.4c0.1,0.1,0.3,0.2,0.3,0.3
		c0.1,0.1,0.2,0.3,0.2,0.4c0,0.1,0,0.3,0,0.4c0,0.1-0.1,0.3-0.2,0.4L58.8,60.5c-0.3,0.3-0.6,0.6-1.1,0.8c-0.4,0.2-0.9,0.3-1.3,0.3
		H44.2c-0.7,0-1.4,0.3-1.9,0.7l-0.5,0.5l-4.9-10.3C39.8,50.2,44.8,49.5,47.4,52.1z M58,35.7h0.3l-2.7-2.9L52.1,35
		c-0.1,0.1-0.3,0.1-0.4,0.1c-0.2,0-0.3-0.1-0.4-0.2l-3.8-3.9c-0.1-0.1-0.1-0.1-0.1-0.2c0-0.1-0.1-0.2,0-0.3c0-0.1,0-0.2,0.1-0.3
		c0-0.1,0.1-0.2,0.1-0.2c0.1-0.1,0.1-0.1,0.2-0.1c0.1,0,0.2,0,0.3,0c0.1,0,0.2,0,0.3,0.1c0.1,0,0.2,0.1,0.2,0.1l3.5,3.5l3.4-2.3
		c0.1-0.1,0.3-0.1,0.5-0.1s0.3,0.1,0.4,0.2l3.1,3.3v-0.3c0-0.2,0.1-0.3,0.2-0.5s0.3-0.2,0.5-0.2s0.3,0.1,0.5,0.2
		c0.1,0.1,0.2,0.3,0.2,0.5v1.9c0,0.2-0.1,0.3-0.2,0.5C60.2,36.9,60,37,59.9,37H58c-0.2,0-0.3-0.1-0.5-0.2s-0.2-0.3-0.2-0.5
		s0.1-0.3,0.2-0.5C57.6,35.7,57.8,35.7,58,35.7z M45.5,30.6v13.5h1.7v-8.4c0-0.2,0.1-0.3,0.2-0.5c0.1-0.1,0.3-0.2,0.5-0.2
		s0.3,0.1,0.5,0.2c0.1,0.1,0.2,0.3,0.2,0.5v8.4h2.5V37c0-0.2,0.1-0.3,0.2-0.5c0.1-0.1,0.3-0.2,0.5-0.2c0.2,0,0.3,0.1,0.5,0.2
		c0.1,0.1,0.2,0.3,0.2,0.5v7.1h2.5v-5.2c0-0.2,0.1-0.3,0.2-0.5c0.1-0.1,0.3-0.2,0.5-0.2s0.3,0.1,0.5,0.2c0.1,0.1,0.2,0.3,0.2,0.5
		v5.2h2.5v-3.9c0-0.2,0.1-0.3,0.2-0.5c0.1-0.1,0.3-0.2,0.5-0.2c0.2,0,0.3,0.1,0.5,0.2s0.2,0.3,0.2,0.5v3.9h2.4
		c0.2,0,0.3,0.1,0.5,0.2c0.1,0.1,0.2,0.3,0.2,0.5c0,0.2-0.1,0.3-0.2,0.5c-0.1,0.1-0.3,0.2-0.5,0.2H45.5V48c0,0.2-0.1,0.3-0.2,0.5
		s-0.3,0.2-0.5,0.2s-0.3-0.1-0.5-0.2c-0.1-0.1-0.2-0.3-0.2-0.5v-2.5h-2.6c-0.2,0-0.3-0.1-0.5-0.2S41,45,41,44.8
		c0-0.2,0.1-0.3,0.2-0.5s0.3-0.2,0.5-0.2h2.6V30.6c0-0.2,0.1-0.3,0.2-0.5c0.1-0.1,0.3-0.2,0.5-0.2s0.3,0.1,0.5,0.2
		C45.5,30.3,45.5,30.4,45.5,30.6z"/>
</g>
<g>
</g>
<g>
</g>
<g>
</g>
<g>
</g>
<g>
</g>
<g>
</g>
<g>
</g>
<g>
</g>
<g>
</g>
<g>
</g>
<g>
</g>
<g>
</g>
<g>
</g>
<g>
</g>
<g>
</g>
</svg>
