<?xml version="1.0" encoding="utf-8"?>
<!-- Generator: Adobe Illustrator 27.0.1, SVG Export Plug-In . SVG Version: 6.00 Build 0)  -->
<svg version="1.1" id="Layer_1" xmlns="http://www.w3.org/2000/svg" xmlns:xlink="http://www.w3.org/1999/xlink" x="0px" y="0px"
	 width="100px" height="100px" viewBox="0 0 100 100" style="enable-background:new 0 0 100 100;" xml:space="preserve">
<style type="text/css">
	.st0{fill:#E9FFE7;stroke:#FFFFFF;stroke-width:5;stroke-miterlimit:10;}
	.st1{fill:#FFFFFF;filter:url(#Adobe_OpacityMaskFilter);}
	.st2{mask:url(#mask0_15_79_00000175293920301007003040000018287287191331639714_);}
	.st3{fill:#039B00;}
	.st4{fill:none;stroke:#039B00;stroke-linecap:round;stroke-linejoin:round;stroke-miterlimit:10;}
</style>
<circle class="st0" cx="50" cy="50" r="46"/>
<defs>
	<filter id="Adobe_OpacityMaskFilter" filterUnits="userSpaceOnUse" x="31.9" y="32.2" width="40.8" height="41.3">
		<feColorMatrix  type="matrix" values="1 0 0 0 0  0 1 0 0 0  0 0 1 0 0  0 0 0 1 0"/>
	</filter>
</defs>
<mask maskUnits="userSpaceOnUse" x="31.9" y="32.2" width="40.8" height="41.3" id="mask0_15_79_00000175293920301007003040000018287287191331639714_">
	<path class="st1" d="M31.8,32h41v41.6h-41V32z"/>
</mask>
<g class="st2">
	<path class="st3" d="M46.4,42.8c0,1.3,0.6,2.3,1.4,2.3c0.7,0,1.4-1,1.4-2.3c0-1.3-0.6-2.3-1.4-2.3C47,40.5,46.4,41.5,46.4,42.8z"/>
	<path class="st3" d="M37.8,42.8c0,1.3,0.6,2.3,1.4,2.3c0.7,0,1.4-1,1.4-2.3c0-1.3-0.6-2.3-1.4-2.3C38.4,40.5,37.8,41.5,37.8,42.8z"
		/>
	<path class="st4" d="M39.9,48.5c0.9-1,2.2-1.6,3.6-1.6c1.4,0,2.7,0.6,3.6,1.6"/>
	<path class="st4" d="M34.5,50.4c-1.3-1.8-2-4.1-2-6.5c0-6.2,4.9-11.2,11.1-11.2c5.4,0,10,4,10.9,9.3"/>
	<path class="st4" d="M38.4,53.8c-0.8-0.4-1.6-1-2.3-1.6"/>
	<path class="st4" d="M57.2,61.2c0,0.2,0,0.4,0,0.5C57.2,68,52.3,73,46.2,73c-6.1,0-11.1-5-11.1-11.2c0-6.2,5-11.2,11.1-11.2
		c1.4,0,2.7,0.3,4,0.8"/>
	<path class="st3" d="M49.1,60.5c0,1.3,0.6,2.3,1.4,2.3c0.8,0,1.4-1,1.4-2.3c0-1.3-0.6-2.3-1.4-2.3C49.7,58.2,49.1,59.2,49.1,60.5z"
		/>
	<path class="st3" d="M40.5,60.5c0,1.3,0.6,2.3,1.4,2.3c0.8,0,1.4-1,1.4-2.3c0-1.3-0.6-2.3-1.4-2.3C41.1,58.2,40.5,59.2,40.5,60.5z"
		/>
	<path class="st4" d="M41.2,65.1h9.8"/>
	<path class="st4" d="M67.8,59.7c2.7-2,4.4-5.3,4.4-9c0-6.2-4.9-11.2-11.1-11.2c-6.1,0-11.1,5-11.1,11.2C50.1,57,55.1,62,61.2,62
		c1.6,0,3.2-0.4,4.6-1"/>
	<path class="st3" d="M64.1,49.6c0,1.2,0.6,2.2,1.3,2.2c0.7,0,1.3-1,1.3-2.2c0-1.2-0.6-2.2-1.3-2.2C64.7,47.3,64.1,48.3,64.1,49.6z"
		/>
	<path class="st3" d="M55.6,49.6c0,1.2,0.6,2.2,1.3,2.2c0.7,0,1.3-1,1.3-2.2c0-1.2-0.6-2.2-1.3-2.2C56.2,47.3,55.6,48.3,55.6,49.6z"
		/>
	<path class="st4" d="M65.6,54c-0.7,1.7-2.4,2.9-4.4,2.9c-2,0-3.7-1.2-4.4-2.9"/>
</g>
</svg>
