<?xml version="1.0" encoding="utf-8"?>
<!-- Generator: Adobe Illustrator 27.0.1, SVG Export Plug-In . SVG Version: 6.00 Build 0)  -->
<svg version="1.1" id="Layer_1" xmlns="http://www.w3.org/2000/svg" xmlns:xlink="http://www.w3.org/1999/xlink" x="0px" y="0px"
	 width="120px" height="120px" viewBox="0 0 120 120" style="enable-background:new 0 0 120 120;" xml:space="preserve">
<style type="text/css">
	.st0{fill:#DCF6FF;}
	.st1{fill:none;stroke:#FFFFFF;stroke-width:4;stroke-miterlimit:10;}
	.st2{fill:#FFF2EB;}
	.st3{fill:#F0FAF4;}
	.st4{fill:#FCE6E6;}
	.st5{fill:#EFEFEF;}
</style>
<g>
	<g>
		
			<image style="overflow:visible;opacity:0.55;enable-background:new    ;" width="135" height="135" xlink:href="18C60673.png"  transform="matrix(1 0 0 1 357.1702 -94.2604)">
		</image>
		<g>
			<circle class="st0" cx="420.7" cy="-31.2" r="47.1"/>
			<circle class="st1" cx="420.7" cy="-31.2" r="47.1"/>
		</g>
	</g>
	
		<image style="overflow:visible;enable-background:new    ;" width="616" height="455" xlink:href="18C60671.png"  transform="matrix(0.1252 0 0 0.1252 380.1924 -56.2604)">
	</image>
</g>
<g>
	<g>
		
			<image style="overflow:visible;opacity:0.55;enable-background:new    ;" width="141" height="141" xlink:href="18C60677.png"  transform="matrix(1 0 0 1 159 -25)">
		</image>
		<g>
			<circle class="st2" cx="225.2" cy="41.6" r="50"/>
			<circle class="st1" cx="225.2" cy="41.6" r="50"/>
		</g>
	</g>
</g>
<g>
	<g>
		
			<image style="overflow:visible;opacity:0.55;enable-background:new    ;" width="142" height="142" xlink:href="18C60670.png"  transform="matrix(0.993 0 0 0.993 -7.6 -8.4)">
		</image>
		<g>
			<circle class="st3" cx="58.7" cy="58.3" r="50"/>
			<circle class="st1" cx="58.7" cy="58.3" r="50"/>
		</g>
	</g>
	
		<image style="overflow:visible;enable-background:new    ;" width="334" height="334" xlink:href="18C6067E.png"  transform="matrix(0.1677 0 0 0.1677 30.7204 32.3396)">
	</image>
</g>
<g>
	<g>
		
			<image style="overflow:visible;opacity:0.55;enable-background:new    ;" width="142" height="142" xlink:href="18C6067F.png"  transform="matrix(0.993 0 0 0.993 163.6808 92.3804)">
		</image>
		<g>
			<circle class="st4" cx="230" cy="159" r="50"/>
			<circle class="st1" cx="230" cy="159" r="50"/>
		</g>
	</g>
</g>
<g>
	<g>
		<g>
			
				<image style="overflow:visible;opacity:0.55;enable-background:new    ;" width="141" height="141" xlink:href="18C60672.png"  transform="matrix(1 0 0 1 -4 116)">
			</image>
			<g>
				<circle class="st5" cx="62.9" cy="182.7" r="50"/>
				<circle class="st1" cx="62.9" cy="182.7" r="50"/>
			</g>
		</g>
	</g>
</g>
<g>
	<g>
		
			<image style="overflow:visible;opacity:0.55;enable-background:new    ;" width="141" height="141" xlink:href="18C60675.png"  transform="matrix(1 0 0 1 502.1702 -49.2604)">
		</image>
		<g>
			<circle class="st0" cx="569.1" cy="17.4" r="50"/>
			<circle class="st1" cx="569.1" cy="17.4" r="50"/>
		</g>
	</g>
	
		<image style="overflow:visible;enable-background:new    ;" width="615" height="452" xlink:href="18C60676.png"  transform="matrix(0.1333 0 0 0.1333 528.0863 -12.5104)">
	</image>
</g>
</svg>
