<?xml version="1.0" encoding="utf-8"?>
<!-- Generator: Adobe Illustrator 27.0.1, SVG Export Plug-In . SVG Version: 6.00 Build 0)  -->
<svg version="1.1" id="Layer_1" xmlns="http://www.w3.org/2000/svg" xmlns:xlink="http://www.w3.org/1999/xlink" x="0px" y="0px"
	 width="100px" height="100px" viewBox="0 0 100 100" style="enable-background:new 0 0 100 100;" xml:space="preserve">
<style type="text/css">
	.st0{fill:#DDDCFF;stroke:#FFFFFF;stroke-width:5;stroke-miterlimit:10;}
	.st1{clip-path:url(#SVGID_00000119105292496160681150000014302912493492341646_);}
	.st2{fill:#5E35D6;}
</style>
<circle class="st0" cx="50.5" cy="48.5" r="46"/>
<g>
	<defs>
		<rect id="SVGID_1_" x="31.6" y="28" width="41" height="41"/>
	</defs>
	<clipPath id="SVGID_00000005984760911247204210000000931765030087387274_">
		<use xlink:href="#SVGID_1_"  style="overflow:visible;"/>
	</clipPath>
	<g id="Risk_assessment_1" style="clip-path:url(#SVGID_00000005984760911247204210000000931765030087387274_);">
		<g id="Group_00000174561058974921588100000001078615466820857237_">
			<path id="Vector" class="st2" d="M62.7,48.1c-0.3-0.4-0.6-0.8-1-1.1c-0.4-0.3-0.9-0.5-1.4-0.6V34.8c0-0.9-0.4-1.8-1-2.4
				c-0.6-0.6-1.5-1-2.4-1h-5.7c-0.1-0.2-0.3-0.4-0.5-0.5c-0.2-0.1-0.4-0.2-0.7-0.2h-0.9c-0.3-0.8-0.8-1.5-1.5-2
				c-0.7-0.5-1.5-0.8-2.4-0.8c-0.8,0-1.7,0.3-2.4,0.8c-0.7,0.5-1.2,1.2-1.5,2h-0.9c-0.2,0-0.5,0.1-0.7,0.2c-0.2,0.1-0.4,0.3-0.5,0.5
				H35c-0.9,0-1.8,0.4-2.4,1c-0.6,0.6-1,1.5-1,2.4v28.7c0,0.9,0.4,1.8,1,2.4c0.6,0.6,1.5,1,2.4,1h12c0,0.1,0.1,0.1,0.1,0.2
				c0.3,0.6,0.8,1,1.3,1.4c0.6,0.3,1.2,0.5,1.8,0.5H69c0.6,0,1.3-0.2,1.8-0.5c0.6-0.3,1-0.8,1.3-1.4c0.3-0.6,0.5-1.2,0.5-1.9
				c0-0.7-0.2-1.3-0.6-1.9L62.7,48.1z M58.9,34.8v11.7c-0.5,0.1-1,0.3-1.4,0.6V35.5c0-0.4-0.1-0.7-0.4-1c-0.3-0.3-0.6-0.4-1-0.4
				h-4.8v-1.4h5.5c0.5,0,1.1,0.2,1.4,0.6C58.7,33.7,58.9,34.2,58.9,34.8z M40.5,32.1h1.4c0.2,0,0.3-0.1,0.4-0.2s0.2-0.2,0.2-0.4
				c0.1-0.6,0.5-1.2,0.9-1.6c0.5-0.4,1.1-0.6,1.7-0.6c0.6,0,1.2,0.2,1.7,0.6c0.5,0.4,0.8,1,0.9,1.6c0,0.2,0.1,0.3,0.2,0.4
				s0.3,0.2,0.4,0.2H50v2.7h-9.6V32.1z M50,36.2c0.2,0,0.5-0.1,0.7-0.2c0.2-0.1,0.4-0.3,0.5-0.5h5v13.2l-8.7,14.1H35.7V35.5h3.6
				c0.1,0.2,0.3,0.4,0.5,0.5c0.2,0.1,0.4,0.2,0.7,0.2H50z M35,65.5c-0.5,0-1.1-0.2-1.4-0.6c-0.4-0.4-0.6-0.9-0.6-1.4V34.8
				c0-0.5,0.2-1.1,0.6-1.4c0.4-0.4,0.9-0.6,1.4-0.6h4.1v1.4h-3.4c-0.4,0-0.7,0.1-1,0.4c-0.3,0.3-0.4,0.6-0.4,1v27.3
				c0,0.4,0.1,0.7,0.4,1c0.3,0.3,0.6,0.4,1,0.4h11.1c-0.1,0.4-0.2,0.9-0.2,1.4H35z M70.9,66.4c-0.2,0.4-0.5,0.6-0.8,0.8
				c-0.3,0.2-0.7,0.3-1.1,0.3H50.2c-0.4,0-0.8-0.1-1.1-0.3c-0.3-0.2-0.6-0.5-0.8-0.8c-0.2-0.4-0.3-0.8-0.3-1.2
				c0-0.4,0.1-0.8,0.3-1.2l9.4-15.2c0.2-0.3,0.5-0.6,0.8-0.8c0.3-0.2,0.7-0.3,1.1-0.3c0.4,0,0.8,0.1,1.1,0.3
				c0.3,0.2,0.6,0.5,0.8,0.8l9.4,15.2c0.2,0.4,0.3,0.8,0.4,1.2C71.2,65.7,71.1,66.1,70.9,66.4z"/>
			<path id="Vector_2" class="st2" d="M59.6,50.5c-0.5,0-1.1,0.2-1.4,0.6c-0.4,0.4-0.6,0.9-0.6,1.4v6.1c0,0.5,0.2,1.1,0.6,1.4
				c0.4,0.4,0.9,0.6,1.4,0.6s1.1-0.2,1.4-0.6c0.4-0.4,0.6-0.9,0.6-1.4v-6.1c0-0.5-0.2-1.1-0.6-1.4C60.7,50.7,60.1,50.5,59.6,50.5z
				 M60.3,58.7c0,0.2-0.1,0.4-0.2,0.5c-0.1,0.1-0.3,0.2-0.5,0.2c-0.2,0-0.4-0.1-0.5-0.2c-0.1-0.1-0.2-0.3-0.2-0.5v-6.1
				c0-0.2,0.1-0.4,0.2-0.5c0.1-0.1,0.3-0.2,0.5-0.2c0.2,0,0.4,0.1,0.5,0.2c0.1,0.1,0.2,0.3,0.2,0.5V58.7z M59.6,62.1
				c-0.4,0-0.8,0.1-1.1,0.3c-0.3,0.2-0.6,0.5-0.8,0.9c-0.2,0.4-0.2,0.8-0.1,1.2c0.1,0.4,0.3,0.8,0.6,1s0.7,0.5,1,0.6
				c0.4,0.1,0.8,0,1.2-0.1c0.4-0.2,0.7-0.4,0.9-0.8c0.2-0.3,0.3-0.7,0.3-1.1c0-0.5-0.2-1.1-0.6-1.4C60.7,62.3,60.1,62.1,59.6,62.1z
				 M59.6,64.9c-0.1,0-0.3,0-0.4-0.1c-0.1-0.1-0.2-0.2-0.3-0.3c-0.1-0.1-0.1-0.3,0-0.4c0-0.1,0.1-0.3,0.2-0.3
				c0.1-0.1,0.2-0.2,0.3-0.2c0.1,0,0.3,0,0.4,0c0.1,0.1,0.2,0.1,0.3,0.3c0.1,0.1,0.1,0.2,0.1,0.4c0,0.2-0.1,0.4-0.2,0.5
				C59.9,64.8,59.8,64.9,59.6,64.9z M45.2,40.9h8.9c0.2,0,0.4-0.1,0.5-0.2c0.1-0.1,0.2-0.3,0.2-0.5c0-0.2-0.1-0.4-0.2-0.5
				c-0.1-0.1-0.3-0.2-0.5-0.2h-8.9c-0.2,0-0.4,0.1-0.5,0.2c-0.1,0.1-0.2,0.3-0.2,0.5c0,0.2,0.1,0.4,0.2,0.5
				C44.9,40.9,45.1,40.9,45.2,40.9z M45.2,43.7h4.1c0.2,0,0.4-0.1,0.5-0.2c0.1-0.1,0.2-0.3,0.2-0.5c0-0.2-0.1-0.4-0.2-0.5
				c-0.1-0.1-0.3-0.2-0.5-0.2h-4.1c-0.2,0-0.4,0.1-0.5,0.2c-0.1,0.1-0.2,0.3-0.2,0.5c0,0.2,0.1,0.4,0.2,0.5
				C44.9,43.6,45.1,43.7,45.2,43.7z M45.2,48.5h8.9c0.2,0,0.4-0.1,0.5-0.2c0.1-0.1,0.2-0.3,0.2-0.5c0-0.2-0.1-0.4-0.2-0.5
				c-0.1-0.1-0.3-0.2-0.5-0.2h-8.9c-0.2,0-0.4,0.1-0.5,0.2c-0.1,0.1-0.2,0.3-0.2,0.5c0,0.2,0.1,0.4,0.2,0.5
				C44.9,48.4,45.1,48.5,45.2,48.5z M45.2,51.2h4.1c0.2,0,0.4-0.1,0.5-0.2c0.1-0.1,0.2-0.3,0.2-0.5c0-0.2-0.1-0.4-0.2-0.5
				c-0.1-0.1-0.3-0.2-0.5-0.2h-4.1c-0.2,0-0.4,0.1-0.5,0.2c-0.1,0.1-0.2,0.3-0.2,0.5c0,0.2,0.1,0.4,0.2,0.5
				C44.9,51.1,45.1,51.2,45.2,51.2z M45.2,56H50c0.2,0,0.4-0.1,0.5-0.2c0.1-0.1,0.2-0.3,0.2-0.5c0-0.2-0.1-0.4-0.2-0.5
				c-0.1-0.1-0.3-0.2-0.5-0.2h-4.8c-0.2,0-0.4,0.1-0.5,0.2c-0.1,0.1-0.2,0.3-0.2,0.5c0,0.2,0.1,0.4,0.2,0.5
				C44.9,55.9,45.1,56,45.2,56z M45.2,58.7H48c0.2,0,0.4-0.1,0.5-0.2c0.1-0.1,0.2-0.3,0.2-0.5c0-0.2-0.1-0.4-0.2-0.5
				c-0.1-0.1-0.3-0.2-0.5-0.2h-2.7c-0.2,0-0.4,0.1-0.5,0.2c-0.1,0.1-0.2,0.3-0.2,0.5c0,0.2,0.1,0.4,0.2,0.5
				C44.9,58.6,45.1,58.7,45.2,58.7z M37.9,42.5c-0.1,0.1-0.2,0.3-0.2,0.5c0,0.2,0.1,0.4,0.2,0.5l1.4,1.4c0.1,0.1,0.3,0.2,0.5,0.2
				c0,0,0.1,0,0.1,0c0.1,0,0.2-0.1,0.3-0.1c0.1-0.1,0.2-0.1,0.2-0.2l2.7-5.5c0-0.1,0.1-0.2,0.1-0.3c0-0.1,0-0.2,0-0.3
				c0-0.1-0.1-0.2-0.1-0.2c-0.1-0.1-0.1-0.1-0.2-0.2s-0.2-0.1-0.3-0.1c-0.1,0-0.2,0-0.3,0c-0.1,0-0.2,0.1-0.2,0.1
				c-0.1,0.1-0.1,0.1-0.2,0.2l-2.3,4.6l-0.7-0.7c-0.1-0.1-0.3-0.2-0.5-0.2C38.2,42.3,38,42.4,37.9,42.5z M42.8,45.8
				c-0.1,0-0.2-0.1-0.3-0.1c-0.1,0-0.2,0-0.3,0c-0.1,0-0.2,0.1-0.2,0.1c-0.1,0.1-0.1,0.1-0.2,0.2l-2.3,4.6L38.9,50
				c-0.1-0.1-0.3-0.2-0.5-0.2c-0.2,0-0.4,0.1-0.5,0.2c-0.1,0.1-0.2,0.3-0.2,0.5c0,0.2,0.1,0.4,0.2,0.5l1.4,1.4
				c0.1,0.1,0.3,0.2,0.5,0.2c0,0,0.1,0,0.1,0c0.1,0,0.2-0.1,0.3-0.1c0.1-0.1,0.2-0.1,0.2-0.2l2.7-5.5c0-0.1,0.1-0.2,0.1-0.3
				c0-0.1,0-0.2,0-0.3c0-0.1-0.1-0.2-0.1-0.2C43,45.9,42.9,45.8,42.8,45.8z M42.8,53.3c-0.1,0-0.2-0.1-0.3-0.1c-0.1,0-0.2,0-0.3,0
				c-0.1,0-0.2,0.1-0.2,0.1c-0.1,0.1-0.1,0.1-0.2,0.2l-2.3,4.6l-0.7-0.7c-0.1-0.1-0.3-0.2-0.5-0.2c-0.2,0-0.4,0.1-0.5,0.2
				c-0.1,0.1-0.2,0.3-0.2,0.5c0,0.2,0.1,0.4,0.2,0.5l1.4,1.4c0.1,0.1,0.1,0.1,0.2,0.1c0.1,0,0.2,0.1,0.3,0.1c0,0,0.1,0,0.1,0
				c0.1,0,0.2-0.1,0.3-0.1c0.1-0.1,0.2-0.1,0.2-0.2l2.7-5.5c0-0.1,0.1-0.2,0.1-0.3c0-0.1,0-0.2,0-0.3c0-0.1-0.1-0.2-0.1-0.2
				C43,53.4,42.9,53.3,42.8,53.3z"/>
		</g>
	</g>
</g>
<g>
</g>
<g>
</g>
<g>
</g>
<g>
</g>
<g>
</g>
<g>
</g>
<g>
</g>
<g>
</g>
<g>
</g>
<g>
</g>
<g>
</g>
<g>
</g>
<g>
</g>
<g>
</g>
<g>
</g>
</svg>
