<?xml version="1.0" encoding="utf-8"?>
<!-- Generator: Adobe Illustrator 27.0.1, SVG Export Plug-In . SVG Version: 6.00 Build 0)  -->
<svg version="1.1" id="Layer_1" xmlns="http://www.w3.org/2000/svg" xmlns:xlink="http://www.w3.org/1999/xlink" x="0px" y="0px"
	 width="100px" height="100px" viewBox="0 0 100 100" style="enable-background:new 0 0 100 100;" xml:space="preserve">
<style type="text/css">
	.st0{fill:#FFDCE9;stroke:#FFFFFF;stroke-width:5;stroke-miterlimit:10;}
	.st1{fill-rule:evenodd;clip-rule:evenodd;fill:#DF3D9E;}
</style>
<circle class="st0" cx="50.5" cy="48.5" r="46"/>
<g id="ROI-focused_Campaigns_1">
	<g id="Group">
		<path id="Vector" class="st1" d="M49.5,57.3c-1.1,3.1-4.1,5.4-7.5,5.4c-4.4,0-8-3.6-8-8c0-4.4,3.6-8,8-8c1.7,0,3.2,0.5,4.5,1.4
			v-3.9c0-0.2,0.1-0.3,0.2-0.5c0.1-0.1,0.3-0.2,0.5-0.2h4.2c0.2,0,0.3,0.1,0.5,0.2c0.1,0.1,0.2,0.3,0.2,0.5v11.7h2.3V39.8
			c0-0.2,0.1-0.3,0.2-0.5c0.1-0.1,0.3-0.2,0.5-0.2h4.2c0.2,0,0.3,0.1,0.5,0.2c0.1,0.1,0.2,0.3,0.2,0.5v16.2h2.3V35.8
			c0-0.2,0.1-0.3,0.2-0.5c0.1-0.1,0.3-0.2,0.5-0.2h4.2c0.2,0,0.3,0.1,0.5,0.2c0.1,0.1,0.2,0.3,0.2,0.5v20.2h1.4
			c0.4,0,0.7,0.3,0.7,0.7c0,0.4-0.3,0.7-0.7,0.7H49.5z M47.8,49.3c1.3,1.4,2.2,3.4,2.2,5.5c0,0.4,0,0.8-0.1,1.2h0.8V44.9h-2.9V49.3z
			 M55.6,55.9h2.9V40.4h-2.9V55.9z M63.5,55.9h2.9V36.4h-2.9V55.9z M42,61.4c3.7,0,6.7-3,6.7-6.7c0-3.7-3-6.7-6.7-6.7
			c-3.7,0-6.7,3-6.7,6.7C35.3,58.4,38.3,61.4,42,61.4z M41.3,50.5v-0.4c0-0.4,0.3-0.7,0.7-0.7c0.4,0,0.7,0.3,0.7,0.7v0.4
			c0.9,0.2,1.7,0.7,2.1,1.7c0.1,0.2,0.1,0.3,0,0.5c-0.1,0.2-0.2,0.3-0.4,0.4c-0.2,0.1-0.3,0.1-0.5,0c-0.2-0.1-0.3-0.2-0.4-0.4
			c-0.4-0.9-1.5-1.1-2.2-0.8c-0.4,0.2-0.8,0.5-0.8,1.1c0,0.4,0.3,0.6,0.6,0.8c0.3,0.1,0.6,0.2,1,0.3c1.3,0.2,2.7,0.8,2.9,2.3l0,0
			c0.2,1.5-1.1,2.4-2.3,2.6v0.4c0,0.4-0.3,0.7-0.7,0.7c-0.4,0-0.7-0.3-0.7-0.7v-0.4c-1.1-0.2-2-0.9-2.3-2.1c0-0.2,0-0.3,0.1-0.5
			c0.1-0.1,0.2-0.3,0.4-0.3c0.4-0.1,0.7,0.1,0.8,0.5c0.2,0.8,1,1.1,1.8,1.1c0.4,0,0.9-0.1,1.2-0.4c0.2-0.2,0.4-0.4,0.4-0.8
			c-0.1-0.5-0.4-0.7-0.7-0.9c-0.3-0.1-0.7-0.2-1-0.3l0,0c-1.2-0.2-2.6-0.8-2.7-2.3v0c-0.1-1.1,0.6-2,1.6-2.3
			C41,50.6,41.2,50.6,41.3,50.5z M58.1,32.5c-2.3-1-4.9-1.6-7.6-1.6C40,31,31.5,39.5,31.5,50.1S40,69.2,50.6,69.2
			c6.9,0,13-3.7,16.3-9.2c0.1-0.1,0.2-0.3,0.4-0.3c0.2,0,0.3,0,0.5,0.1c0.1,0.1,0.3,0.2,0.3,0.4c0,0.2,0,0.3-0.1,0.5
			c-3.6,5.9-10.1,9.8-17.4,9.8c-11.3,0-20.4-9.2-20.4-20.4c0-11.3,9.2-20.4,20.4-20.4c2.9,0,5.7,0.6,8.2,1.7l-0.2-0.6
			c0-0.2,0-0.3,0.1-0.5c0.1-0.2,0.2-0.3,0.4-0.3c0.2,0,0.3,0,0.5,0.1c0.2,0.1,0.3,0.2,0.3,0.4l0.6,2.2c0,0.2,0,0.3-0.1,0.5
			c-0.1,0.2-0.2,0.3-0.4,0.3L57.7,34c-0.2,0-0.3,0-0.5-0.1c-0.2-0.1-0.3-0.2-0.3-0.4c0-0.2,0-0.3,0.1-0.5c0.1-0.2,0.2-0.3,0.4-0.3
			L58.1,32.5z"/>
	</g>
</g>
<g>
</g>
<g>
</g>
<g>
</g>
<g>
</g>
<g>
</g>
<g>
</g>
<g>
</g>
<g>
</g>
<g>
</g>
<g>
</g>
<g>
</g>
<g>
</g>
<g>
</g>
<g>
</g>
<g>
</g>
</svg>
