<?xml version="1.0" encoding="utf-8"?>
<!-- Generator: Adobe Illustrator 27.0.1, SVG Export Plug-In . SVG Version: 6.00 Build 0)  -->
<svg version="1.1" id="Layer_1" xmlns="http://www.w3.org/2000/svg" xmlns:xlink="http://www.w3.org/1999/xlink" x="0px" y="0px"
	 width="100px" height="100px" viewBox="0 0 100 100" style="enable-background:new 0 0 100 100;" xml:space="preserve">
<style type="text/css">
	.st0{fill:#DCF6FF;stroke:#FFFFFF;stroke-width:5;stroke-miterlimit:10;}
	.st1{fill:#29E3EF;}
</style>
<circle class="st0" cx="50" cy="50" r="46"/>
<path class="st1" d="M61.7,53c-0.3,2.6-1.4,5.1-3.3,6.9c-1.9,1.9-4.3,3-6.9,3.3c-0.1,0-0.1,0-0.2,0c0,0-0.1,0-0.1,0.1
	c0,0-0.1,0.1-0.1,0.1c0,0,0,0.1,0,0.2v8.5c0,0.2-0.1,0.4-0.2,0.6c-0.1,0.1-0.4,0.2-0.6,0.2c-0.2,0-0.4-0.1-0.6-0.2
	c-0.1-0.1-0.2-0.4-0.2-0.6v-3.1c0-0.1-0.1-0.2-0.1-0.3c-0.1-0.1-0.2-0.1-0.3-0.1c-3.6-0.3-6.9-1.7-9.6-4c-2.7-2.3-4.6-5.4-5.4-8.9
	c0-0.1,0-0.2,0-0.3c0-0.1,0-0.2,0.1-0.3c0.1-0.1,0.1-0.2,0.2-0.2c0.1-0.1,0.2-0.1,0.3-0.1c0.1,0,0.2,0,0.3,0c0.1,0,0.2,0.1,0.3,0.1
	s0.2,0.1,0.2,0.2c0.1,0.1,0.1,0.2,0.1,0.3c0.7,3.1,2.4,5.9,4.8,8s5.4,3.4,8.6,3.7c0.1,0.1,0.2,0,0.3-0.1c0.1,0,0.1-0.1,0.1-0.1
	c0-0.1,0-0.1,0-0.2v-3c0-0.1,0-0.1,0-0.2c0,0,0-0.1-0.1-0.1c0,0-0.1-0.1-0.1-0.1c0,0-0.1,0-0.2,0c-2.6-0.3-5-1.4-6.9-3.3
	c-1.9-1.9-3-4.3-3.3-6.9c0-0.1-0.1-0.2-0.1-0.2c-0.1-0.1-0.2-0.1-0.3-0.1H30c-0.2,0-0.4-0.1-0.6-0.2c-0.2-0.2-0.2-0.4-0.2-0.6
	c0-0.2,0.1-0.4,0.2-0.6c0.2-0.2,0.4-0.2,0.6-0.2h3.2c0.1,0,0.2,0,0.3-0.1c0.1-0.1,0.1-0.2,0.1-0.2c0.2-3.5,1.5-6.9,3.8-9.7
	c2.2-2.8,5.3-4.8,8.7-5.7c0.2,0,0.4,0,0.6,0.1c0.2,0.1,0.3,0.3,0.4,0.5c0.1,0.2,0,0.4-0.1,0.6c-0.1,0.2-0.3,0.3-0.5,0.4
	c-3.1,0.8-5.8,2.6-7.8,5c-2,2.5-3.2,5.5-3.4,8.6c0,0.1,0,0.1,0,0.2c0,0.1,0,0.1,0.1,0.2c0,0,0.1,0.1,0.1,0.1c0.1,0,0.1,0,0.2,0h2.8
	c0.1,0,0.2,0,0.3-0.1c0.1-0.1,0.1-0.2,0.1-0.2c0.3-2.6,1.4-5.1,3.3-6.9c1.9-1.9,4.3-3,6.9-3.3c0.1,0,0.1,0,0.2,0c0,0,0.1,0,0.1-0.1
	c0,0,0.1-0.1,0.1-0.1c0,0,0-0.1,0-0.2v-8.5c0-0.2,0.1-0.4,0.2-0.6c0.1-0.1,0.4-0.2,0.6-0.2c0.2,0,0.4,0.1,0.6,0.2
	c0.1,0.1,0.2,0.4,0.2,0.6v9.7c0,0.1,0,0.2-0.1,0.3c0,0.1-0.1,0.2-0.2,0.3c-0.1,0.1-0.2,0.1-0.3,0.2c-0.1,0-0.2,0.1-0.3,0.1
	c-8.7,0-13,10.6-6.9,16.8s16.6,1.7,16.8-7c0-0.1,0-0.2,0.1-0.3c0-0.1,0.1-0.2,0.2-0.3c0.1-0.1,0.2-0.1,0.3-0.2
	c0.1,0,0.2-0.1,0.3-0.1h9.7c0.2,0,0.4,0.1,0.6,0.2c0.2,0.2,0.2,0.4,0.2,0.6c0,0.2-0.1,0.4-0.2,0.6c-0.2,0.2-0.4,0.2-0.6,0.2h-3.2
	c-0.1,0-0.2,0-0.3,0.1c-0.1,0.1-0.1,0.2-0.1,0.3c-0.3,3.6-1.6,7-3.9,9.7c-2.3,2.7-5.4,4.7-8.9,5.5c-1,0.2-1.4-1.3-0.4-1.6
	c3.1-0.8,5.9-2.5,8-4.9c2.1-2.4,3.3-5.5,3.6-8.6c0-0.1,0-0.1,0-0.2c0-0.1,0-0.1-0.1-0.2c0,0-0.1-0.1-0.1-0.1s-0.1,0-0.2,0h-2.9
	c-0.1,0-0.2,0-0.3,0.1C61.8,52.8,61.7,52.9,61.7,53L61.7,53z M68.2,39.7l-5.8,5.7c-0.1,0.2-0.3,0.2-0.5,0.3H58c-0.1,0-0.2,0-0.3,0.1
	l-6.8,6.9c-0.2,0.1-0.4,0.2-0.6,0.2c-0.2,0-0.4-0.1-0.6-0.2s-0.2-0.3-0.2-0.6c0-0.2,0.1-0.4,0.2-0.6l6.8-6.9c0,0,0.1-0.1,0.1-0.1
	c0,0,0-0.1,0-0.1v-3.9c0-0.1,0-0.2,0.1-0.3c0-0.1,0.1-0.2,0.2-0.3l5.7-5.7c0.1-0.1,0.3-0.2,0.4-0.2s0.3,0,0.5,0
	c0.2,0.1,0.3,0.2,0.4,0.3s0.1,0.3,0.1,0.5v3.1c0,0.1,0.1,0.2,0.1,0.3c0.1,0.1,0.2,0.1,0.3,0.1h3.1c0.2,0,0.3,0,0.5,0.1
	c0.1,0.1,0.2,0.2,0.3,0.4s0.1,0.3,0,0.5S68.3,39.6,68.2,39.7L68.2,39.7z M61.6,43.9l3.3-3.3c0.1-0.1,0.1-0.1,0.1-0.2
	c0-0.1,0-0.2,0-0.2c0-0.1-0.1-0.1-0.1-0.2c-0.1,0-0.1-0.1-0.2-0.1h-1.4c-0.2,0-0.4-0.1-0.6-0.2c-0.2-0.1-0.3-0.4-0.3-0.6v-1.4
	c0-0.1,0-0.2-0.1-0.2s-0.1-0.1-0.2-0.2c-0.1,0-0.2,0-0.2,0c-0.1,0-0.2,0.1-0.2,0.1l-3.3,3.3c-0.1,0.1-0.1,0.2-0.2,0.3v2.6
	c0,0.1,0,0.1,0,0.2c0,0,0,0.1,0.1,0.1c0,0,0.1,0.1,0.1,0.1c0,0,0.1,0,0.2,0h2.6C61.5,44.1,61.6,44.1,61.6,43.9L61.6,43.9z
	 M57.1,51.8c0,1.3-0.4,2.7-1.1,3.8c-0.7,1.1-1.8,2-3,2.5c-1.2,0.5-2.6,0.7-3.9,0.4c-1.3-0.3-2.5-0.9-3.5-1.9c-1-0.9-1.6-2.2-1.9-3.5
	c-0.3-1.3-0.1-2.7,0.4-3.9c0.5-1.2,1.4-2.3,2.5-3c1.1-0.7,2.4-1.1,3.8-1.1c0.2,0,0.4,0.1,0.5,0.3c0.1,0.1,0.2,0.3,0.2,0.5
	s-0.1,0.4-0.2,0.5c-0.1,0.1-0.3,0.2-0.5,0.3c-1.4,0-2.7,0.5-3.7,1.5c-1,1-1.5,2.3-1.5,3.7c0,1.4,0.5,2.7,1.5,3.7
	c1,1,2.3,1.5,3.7,1.5c3,0,5-2.2,5.1-5.2c0-0.1,0-0.2,0.1-0.3c0-0.1,0.1-0.2,0.2-0.3c0.1-0.1,0.2-0.1,0.3-0.2c0.1,0,0.2-0.1,0.3-0.1
	c0.1,0,0.2,0,0.3,0.1c0.1,0,0.2,0.1,0.3,0.2c0.1,0.1,0.1,0.2,0.2,0.3C57.1,51.6,57.1,51.8,57.1,51.8L57.1,51.8z"/>
</svg>
