<?xml version="1.0" encoding="utf-8"?>
<!-- Generator: Adobe Illustrator 27.0.1, SVG Export Plug-In . SVG Version: 6.00 Build 0)  -->
<svg version="1.1" id="Layer_1" xmlns="http://www.w3.org/2000/svg" xmlns:xlink="http://www.w3.org/1999/xlink" x="0px" y="0px"
	 width="100px" height="100px" viewBox="0 0 100 100" style="enable-background:new 0 0 100 100;" xml:space="preserve">
<style type="text/css">
	.st0{fill:#DDDCFF;stroke:#FFFFFF;stroke-width:5;stroke-miterlimit:10;}
	.st1{clip-path:url(#SVGID_00000136398711844175630380000002385899988573933245_);}
	.st2{fill:#FFFFFF;filter:url(#Adobe_OpacityMaskFilter);}
	.st3{fill:#FFFFFF;}
	.st4{mask:url(#mask0_16_148_00000062890478611650621220000008867188209457477002_);}
	.st5{fill:#FFFFFF;filter:url(#Adobe_OpacityMaskFilter_00000030444709397534206640000017486464796263878022_);}
	.st6{mask:url(#mask1_16_148_00000142884108359829172780000011954739261224452754_);}
	.st7{fill:none;stroke:#5E35D6;stroke-linecap:round;stroke-linejoin:round;stroke-miterlimit:10;}
	.st8{fill:#5E35D6;stroke:#5E35D6;}
</style>
<circle class="st0" cx="50" cy="50" r="46"/>
<g>
	<defs>
		<rect id="SVGID_1_" x="31.7" y="31.5" width="40" height="40.6"/>
	</defs>
	<clipPath id="SVGID_00000078736039571161502790000003937032154577668020_">
		<use xlink:href="#SVGID_1_"  style="overflow:visible;"/>
	</clipPath>
	<g style="clip-path:url(#SVGID_00000078736039571161502790000003937032154577668020_);">
		<defs>
			<filter id="Adobe_OpacityMaskFilter" filterUnits="userSpaceOnUse" x="32.4" y="31.6" width="38.5" height="40.4">
				<feColorMatrix  type="matrix" values="1 0 0 0 0  0 1 0 0 0  0 0 1 0 0  0 0 0 1 0"/>
			</filter>
		</defs>
		
			<mask maskUnits="userSpaceOnUse" x="32.4" y="31.6" width="38.5" height="40.4" id="mask0_16_148_00000062890478611650621220000008867188209457477002_">
			<path class="st2" d="M71.7,31.5h-40v40.6h40V31.5z"/>
			<path class="st3" d="M59,47.6c0.3,0,0.6-0.3,0.6-0.6c0-0.3-0.3-0.6-0.6-0.6c-0.3,0-0.6,0.3-0.6,0.6C58.4,47.3,58.6,47.6,59,47.6z
				"/>
		</mask>
		<g class="st4">
			<defs>
				
					<filter id="Adobe_OpacityMaskFilter_00000063632450478021415400000011080975587383678357_" filterUnits="userSpaceOnUse" x="32.4" y="31.6" width="38.5" height="40.4">
					<feColorMatrix  type="matrix" values="1 0 0 0 0  0 1 0 0 0  0 0 1 0 0  0 0 0 1 0"/>
				</filter>
			</defs>
			
				<mask maskUnits="userSpaceOnUse" x="32.4" y="31.6" width="38.5" height="40.4" id="mask1_16_148_00000142884108359829172780000011954739261224452754_">
				<path style="fill:#FFFFFF;filter:url(#Adobe_OpacityMaskFilter_00000063632450478021415400000011080975587383678357_);" d="
					M31.7,31.5h40v40.6h-40V31.5z"/>
			</mask>
			<g class="st6">
				<path class="st7" d="M63.9,38.5L70.1,49c0.8,1.4-0.2,3.2-1.8,3.2H49.6c-1.6,0-2.6-1.8-1.8-3.2l9.3-15.8c0.8-1.4,2.8-1.4,3.6,0
					l1.7,2.9"/>
				<path class="st7" d="M49.8,50L59,34.4L68.1,50H49.8z"/>
				<path class="st7" d="M60.6,55.7h-3.2c-0.8,0-1.4-0.6-1.4-1.4v-2.1h6v2.1C62,55.1,61.4,55.7,60.6,55.7z"/>
				<path class="st7" d="M60.5,71.5V55.7h-3v15.8"/>
				<path class="st7" d="M59,40.3v4.3"/>
				<path class="st7" d="M40,66h-4.3c-0.1,0-0.2-0.1-0.3-0.1c-0.1-0.1-0.1-0.2-0.1-0.3V46c0-0.2-0.1-0.3-0.2-0.4
					c-0.1-0.1-0.3-0.2-0.4-0.2h-1.2c-0.2,0-0.3,0.1-0.4,0.2c-0.1,0.1-0.2,0.3-0.2,0.4v19.6c0,1.6,1.3,2.9,2.8,2.9h19
					c0.1,0,0.1,0,0.2,0c0.1,0,0.1-0.1,0.2-0.1c0.1-0.1,0.1-0.1,0.1-0.2c0-0.1,0-0.1,0-0.2v-1.2c0-0.2-0.1-0.3-0.2-0.4
					C55,66.1,54.8,66,54.7,66H42.8"/>
				<path class="st7" d="M40.8,63h-1.8c-0.1,0-0.2,0-0.2,0c-0.1,0-0.1-0.1-0.2-0.1c-0.1-0.1-0.1-0.1-0.1-0.2c0-0.1,0-0.2,0-0.2v-7.9
					c0-0.2,0.1-0.3,0.2-0.4c0.1-0.1,0.3-0.2,0.4-0.2h1.8c0.2,0,0.3,0.1,0.4,0.2c0.1,0.1,0.2,0.3,0.2,0.4v7.9c0,0.2-0.1,0.3-0.2,0.4
					C41.1,62.9,40.9,63,40.8,63z"/>
				<path class="st7" d="M46.2,63h-1.8c-0.1,0-0.2,0-0.2,0c-0.1,0-0.1-0.1-0.2-0.1c-0.1-0.1-0.1-0.1-0.1-0.2c0-0.1,0-0.2,0-0.2v-2.8
					c0-0.2,0.1-0.3,0.2-0.4c0.1-0.1,0.3-0.2,0.4-0.2h1.8c0.2,0,0.3,0.1,0.4,0.2c0.1,0.1,0.2,0.3,0.2,0.4v2.8c0,0.2-0.1,0.3-0.2,0.4
					C46.5,62.9,46.3,63,46.2,63z"/>
				<path class="st7" d="M51.5,63h-1.8c-0.1,0-0.2,0-0.2,0c-0.1,0-0.1-0.1-0.2-0.1c-0.1-0.1-0.1-0.1-0.1-0.2c0-0.1,0-0.2,0-0.2v-5.5
					c0-0.2,0.1-0.3,0.2-0.4c0.1-0.1,0.3-0.2,0.4-0.2h1.8c0.2,0,0.3,0.1,0.4,0.2c0.1,0.1,0.2,0.3,0.2,0.4v5.5c0,0.2-0.1,0.3-0.2,0.4
					C51.9,62.9,51.7,63,51.5,63z"/>
				<path class="st8" d="M59.1,47l0.5,0L59.1,47C59.1,47,59,46.9,59.1,47C59,46.9,59,46.9,59,46.9c0,0,0,0,0,0c0,0,0,0,0,0
					c0,0,0,0,0,0c0,0,0,0,0,0l0,0l0,0c0,0,0,0.1,0,0.1C58.9,47.1,59,47.1,59.1,47C59,47.1,59,47.1,59.1,47C59,47.1,59,47,59.1,47
					C59.1,47,59.1,47,59.1,47C59.1,47,59.1,47,59.1,47z M59.1,47L59.1,47L59.1,47L59.1,47z"/>
			</g>
		</g>
	</g>
</g>
</svg>
