<svg xmlns="http://www.w3.org/2000/svg" viewBox="0 0 71.48 70.08"><defs><style>.cls-1{fill:#ce757e;}.cls-2{opacity:0.6;}.cls-3{fill:#fff;}</style></defs><title>Recurso 87</title><g id="Capa_2" data-name="Capa 2"><g id="Capa_2-2" data-name="Capa 2"><rect class="cls-1" width="71.48" height="70.08" rx="16.46"/><g id="_77_Essential_Icons" data-name="77 Essential Icons" class="cls-2"><path id="Video_Camera" data-name="Video Camera" class="cls-3" d="M56.06,21.3l-9.84,6.34V25.72a4.67,4.67,0,0,0-4.66-4.65H18.28a4.67,4.67,0,0,0-4.66,4.65V44.35A4.68,4.68,0,0,0,18.28,49H41.56a4.68,4.68,0,0,0,4.66-4.66V42.43l9.84,6.35a1.19,1.19,0,0,0,1.8-1V22.23A1.12,1.12,0,0,0,56.06,21.3ZM43.89,44.35a2.34,2.34,0,0,1-2.33,2.33H18.28A2.34,2.34,0,0,1,16,44.35V25.72a2.33,2.33,0,0,1,2.33-2.32H41.56a2.33,2.33,0,0,1,2.33,2.32Zm11.64,1.34-9.31-6V30.38l9.31-6Z"/></g><rect class="cls-3" x="15.95" y="23.22" width="27.94" height="23.28" rx="2.33"/><polygon class="cls-3" points="55.53 45.69 46.22 39.7 46.22 30.38 55.53 24.39 55.53 45.69"/></g></g></svg>