<?xml version="1.0" encoding="utf-8"?>
<!-- Generator: Adobe Illustrator 27.0.1, SVG Export Plug-In . SVG Version: 6.00 Build 0)  -->
<svg version="1.1" id="layer" xmlns="http://www.w3.org/2000/svg" xmlns:xlink="http://www.w3.org/1999/xlink" x="0px" y="0px"
	 viewBox="0 0 652 652" style="enable-background:new 0 0 652 652;" xml:space="preserve">
<path d="M529.4,587.6h31.4c7.2,0,13.6-6.4,14-13.6V224.3c0-34.4-27.2-62.4-60.9-62.4h-40.5c-7.2,0-13.6-6.4-13.6-13.6v-31.8
	c0-34.4-27.2-62.4-60.9-62.4H138.1c-33.7,0-60.9,27.6-60.9,62.4V468c0,34.1,27.2,62.1,60.9,62.4h302c2.6,0,5.3,0.8,7.6,2.3l73.8,53
	C523.7,586.8,526.8,587.6,529.4,587.6z M456,480.1H138.9c-7.6,0-13.6-6.1-13.6-13.6V117.2c0-7.6,6.1-13.6,13.6-13.6h259.2
	c7.2,0,13.6,6.4,13.6,13.6v31c0,7.6-6.1,13.6-13.6,13.6h-193c-7.2,0-13.6,6.4-13.6,13.6v233.1c0,7.6,6.1,13.6,13.6,13.6h241.1
	c7.2,0,13.6-6.4,13.6-13.6V225.1c0-7.6,6.1-13.6,13.6-13.6h39.4c7.2,0,13.6,6.4,13.6,13.6v285.7c0,7.2-7.6,11-12.9,7.2l-49.2-35.2
	C461.3,480.9,458.6,480.1,456,480.1z M404.5,372.3H246.3c-3.4,0-6.4-2.6-6.4-6.8v-148c0-3.4,2.6-6.8,6.4-6.8h158.2
	c3.4,0,6.4,2.6,6.4,6.8v148C411,369.2,408.3,372.3,404.5,372.3z"/>
</svg>
