<?xml version="1.0" encoding="utf-8"?>
<!-- Generator: Adobe Illustrator 27.0.1, SVG Export Plug-In . SVG Version: 6.00 Build 0)  -->
<svg version="1.1" id="Layer_1" xmlns="http://www.w3.org/2000/svg" xmlns:xlink="http://www.w3.org/1999/xlink" x="0px" y="0px"
	 viewBox="0 0 100 100" style="enable-background:new 0 0 100 100;" xml:space="preserve">
<style type="text/css">
	.st0{fill:#2A68B0;}
	.st1{fill:#FFFFFF;}
</style>
<g>
	<circle class="st0" cx="50.3" cy="50.8" r="47.8"/>
	<g>
		<g>
			<path class="st1" d="M54,44.3c0.8-0.9,1.4-1.8,2.2-2.5c2.5-2.3,5.4-3.5,8.8-3.5c1.9,0,3.7,0.2,5.6,0.7c4.2,1.2,6.6,4.1,7.7,8.1
				c0.9,3,1,6.2,1,9.3c0,6.6,0,13.2,0,19.8c0,0.6-0.2,0.8-0.8,0.8c-3.4,0-6.8,0-10.2,0c-0.6,0-0.7-0.2-0.7-0.7c0-6.3,0-12.6,0-18.9
				c0-1.6-0.1-3.2-0.5-4.7c-0.8-2.8-2.8-4.3-5.8-4.1c-4,0.2-6.1,2.2-6.7,6.3c-0.1,1-0.2,2-0.2,2.9c0,6.1,0,12.2,0,18.3
				c0,0.6-0.2,0.8-0.8,0.8c-3.4,0-6.9,0-10.3,0c-0.5,0-0.7-0.1-0.7-0.7c0-12.1,0-24.2,0-36.3c0-0.6,0.2-0.7,0.8-0.7
				c3.3,0,6.5,0,9.8,0c0.6,0,0.8,0.2,0.7,0.8C54,41.4,54,42.9,54,44.3z"/>
			<path class="st1" d="M35.4,58.1c0,6,0,12,0,18c0,0.7-0.2,0.9-0.9,0.9c-3.4,0-6.8,0-10.2,0c-0.5,0-0.7-0.1-0.7-0.7
				c0-12.1,0-24.3,0-36.4c0-0.5,0.1-0.7,0.7-0.7c3.5,0,6.9,0,10.4,0c0.7,0,0.8,0.3,0.8,0.8C35.4,46.1,35.4,52.1,35.4,58.1z"/>
			<path class="st1" d="M36.3,27.2c0,3.8-3,6.8-6.8,6.8c-3.7,0-6.8-3.1-6.8-6.8c0-3.7,3.1-6.8,6.8-6.8
				C33.2,20.4,36.3,23.5,36.3,27.2z"/>
		</g>
	</g>
</g>
<g>
</g>
<g>
</g>
<g>
</g>
<g>
</g>
<g>
</g>
<g>
</g>
</svg>
