<?xml version="1.0" encoding="utf-8"?>
<!-- Generator: Adobe Illustrator 27.0.1, SVG Export Plug-In . SVG Version: 6.00 Build 0)  -->
<svg version="1.1" id="Layer_1" xmlns="http://www.w3.org/2000/svg" xmlns:xlink="http://www.w3.org/1999/xlink" x="0px" y="0px"
	 width="50px" height="50px" viewBox="0 0 50 50" style="enable-background:new 0 0 50 50;" xml:space="preserve">
<style type="text/css">
	.st0{fill:#FFFFFF;}
	.st1{fill:#2CA01C;}
</style>
<path class="st0" d="M39,36c0,1.3-1,2.3-2.3,2.3H13.9c-1.3,0-2.3-1-2.3-2.3V13.1c0-1.3,1-2.3,2.3-2.3h22.9c1.3,0,2.3,1,2.3,2.3V36z"
	/>
<path d="M20.7,30.4c-0.7,0-1.3-0.6-1.3-1.3V20c0-0.7,0.6-1.3,1.3-1.3h9.2c0.7,0,1.3,0.6,1.3,1.3v9.1c0,0.7-0.6,1.3-1.3,1.3
	L20.7,30.4L20.7,30.4z"/>
<circle class="st1" cx="24.9" cy="25.1" r="22.1"/>
<path class="st0" d="M8.9,25.1c0,4.8,3.8,8.6,8.6,8.6h1.2v-3.2h-1.2c-3,0-5.4-2.4-5.4-5.4s2.4-5.4,5.4-5.4h2.9v16.7
	c0,1.8,1.4,3.2,3.2,3.2l0,0V16.5h-6.1C12.8,16.5,8.9,20.4,8.9,25.1z M32.3,16.5H31v3.2h1.2c3,0,5.4,2.4,5.4,5.4s-2.4,5.4-5.4,5.4
	h-2.9V13.8c0-1.8-1.4-3.2-3.2-3.2v23.1h6.1c4.8,0,8.6-3.8,8.6-8.6S37,16.5,32.3,16.5z"/>
</svg>
