<?xml version="1.0" encoding="utf-8"?>
<!-- Generator: Adobe Illustrator 27.0.1, SVG Export Plug-In . SVG Version: 6.00 Build 0)  -->
<svg version="1.1" id="Layer_1" xmlns="http://www.w3.org/2000/svg" xmlns:xlink="http://www.w3.org/1999/xlink" x="0px" y="0px"
	 width="150px" height="100px" viewBox="0 0 150 100" style="enable-background:new 0 0 150 100;" xml:space="preserve">
<style type="text/css">
	.st0{fill:#00A1E0;}
	.st1{fill:#FFFFFF;}
</style>
<path class="st0" d="M63.1,12.5C67.5,7.9,73.7,5,80.5,5c9.1,0,17,5.1,21.2,12.6c3.6-1.6,7.7-2.5,12-2.5c16.4,0,29.6,13.4,29.6,29.9
	S130,74.8,113.7,74.8c-2,0-4-0.2-5.8-0.6c-3.7,6.6-10.8,11.1-18.9,11.1c-3.4,0-6.6-0.8-9.5-2.2C75.7,91.9,67,98.2,56.8,98.2
	c-10.6,0-19.7-6.7-23.2-16.2c-1.5,0.3-3.1,0.5-4.7,0.5c-12.7,0-22.9-10.4-22.9-23.2c0-8.5,4.6-16.1,11.5-20.1
	c-1.4-3.2-2.2-6.8-2.2-10.6C15.1,13.9,27.1,2,41.8,2C50.2,2,58,5.9,63.1,12.5"/>
<path class="st1" d="M25.8,51.9l0.6-1.5c0.1-0.3,0.3-0.2,0.4-0.1l0.5,0.3c1.6,1.1,3.2,1.1,3.6,1.1c1.2,0,2-0.6,2-1.5V50
	c0-1-1.2-1.3-2.5-1.7L30,48.2c-1.8-0.5-3.9-1.3-3.9-3.6v-0.1c0-2.2,1.8-3.8,4.4-3.8h0.3c1.5,0,3,0.4,4,1.1c0.1,0.1,0.2,0.2,0.2,0.3
	l-0.6,1.5c-0.1,0.3-0.4,0.1-0.4,0.1c-1-0.5-2.4-0.9-3.6-0.9c-1.1,0-1.8,0.6-1.8,1.4v0.1c0,0.9,1.2,1.3,2.6,1.7l0.3,0.1
	c1.8,0.6,3.8,1.4,3.8,3.6v0.1c0,2.4-1.7,3.9-4.5,3.9c-1.4,0-2.7-0.2-4.1-1c-0.3-0.2-0.5-0.3-0.8-0.5C25.8,52.1,25.7,52.1,25.8,51.9
	L25.8,51.9z M67,51.9l0.6-1.5c0.1-0.3,0.3-0.2,0.4-0.1l0.5,0.3c1.6,1.1,3.2,1.1,3.6,1.1c1.2,0,2-0.6,2-1.5V50c0-1-1.2-1.3-2.5-1.7
	l-0.3-0.1c-1.8-0.5-3.9-1.3-3.9-3.6v-0.1c0-2.2,1.8-3.8,4.4-3.8H72c1.5,0,3,0.4,4,1.1c0.1,0.1,0.2,0.2,0.2,0.3l-0.6,1.5
	c-0.1,0.3-0.4,0.1-0.4,0.1c-1-0.5-2.4-0.9-3.6-0.9c-1.1,0-1.8,0.6-1.8,1.4v0.1c0,0.9,1.2,1.3,2.6,1.7l0.3,0.1
	c1.8,0.6,3.8,1.4,3.8,3.6v0.1c0,2.4-1.7,3.9-4.5,3.9c-1.4,0-2.7-0.2-4.1-1c-0.3-0.2-0.5-0.3-0.8-0.5C67.1,52.1,67,52.1,67,51.9
	L67,51.9z M97.6,44.6c0.2,0.8,0.4,1.6,0.4,2.5c0,0.9-0.1,1.7-0.4,2.5c-0.2,0.8-0.6,1.5-1.1,2c-0.5,0.6-1.1,1.1-1.8,1.4
	c-0.7,0.3-1.6,0.5-2.5,0.5c-1,0-1.8-0.2-2.5-0.5c-0.7-0.3-1.3-0.8-1.8-1.4c-0.5-0.6-0.8-1.3-1.1-2c-0.2-0.8-0.4-1.6-0.4-2.5
	c0-0.9,0.1-1.7,0.4-2.5c0.2-0.8,0.6-1.5,1.1-2c0.5-0.6,1.1-1.1,1.8-1.4c0.8-0.3,1.7-0.5,2.5-0.5c1,0,1.8,0.2,2.5,0.5
	c0.7,0.3,1.3,0.8,1.8,1.4C97,43.2,97.4,43.9,97.6,44.6z M95.2,47.1c0-1.4-0.3-2.4-0.7-3.2c-0.5-0.7-1.3-1.1-2.3-1.1
	c-1.1,0-1.8,0.4-2.3,1.1c-0.5,0.7-0.7,1.8-0.7,3.2s0.3,2.4,0.7,3.2c0.5,0.7,1.2,1.1,2.3,1.1c1.1,0,1.8-0.4,2.3-1.1
	C95,49.6,95.2,48.5,95.2,47.1z M116.9,51.1l0.6,1.6c0.1,0.2-0.1,0.3-0.1,0.3c-0.9,0.4-2.1,0.6-3.3,0.6c-2,0-3.6-0.6-4.6-1.7
	c-1.1-1.2-1.6-2.7-1.6-4.7c0-0.9,0.1-1.7,0.4-2.5s0.6-1.5,1.2-2c0.5-0.6,1.2-1.1,1.9-1.4c0.8-0.4,1.7-0.5,2.6-0.5
	c0.6,0,1.2,0,1.7,0.1c0.5,0.1,1.3,0.3,1.6,0.4c0.1,0,0.2,0.1,0.2,0.3l-0.6,1.6c-0.1,0.3-0.3,0.2-0.3,0.2c-0.8-0.3-1.5-0.4-2.5-0.4
	c-1.2,0-2,0.4-2.6,1.2c-0.6,0.7-0.9,1.7-0.9,3.1c0,1.5,0.4,2.5,1,3.2c0.6,0.7,1.5,1,2.7,1c0.5,0,0.9-0.1,1.3-0.1
	c0.4-0.1,0.7-0.2,1.1-0.3C116.6,50.9,116.8,50.9,116.9,51.1L116.9,51.1z M128.9,44.2c0.5,1.8,0.3,3.3,0.2,3.4c0,0.2-0.2,0.2-0.2,0.2
	h-8c0.1,1.2,0.3,2,1,2.6c0.6,0.6,1.5,1,2.7,1c1.9,0,2.7-0.4,3.3-0.6c0,0,0.2-0.1,0.3,0.2l0.5,1.5c0.1,0.3,0,0.3-0.1,0.4
	c-0.5,0.3-1.7,0.8-4,0.8c-1.1,0-2.1-0.2-2.9-0.5s-1.5-0.7-2-1.3c-0.5-0.6-0.9-1.3-1.2-2c-0.3-0.8-0.4-1.6-0.4-2.5s0.1-1.7,0.4-2.5
	c0.2-0.8,0.6-1.5,1.1-2c0.5-0.6,1.1-1.1,1.8-1.4c0.7-0.4,1.6-0.5,2.6-0.5c0.8,0,1.6,0.2,2.3,0.5c0.5,0.2,1,0.6,1.5,1.2
	C128.2,42.7,128.7,43.5,128.9,44.2L128.9,44.2z M121,45.9h5.7c-0.1-0.7-0.2-1.4-0.5-1.9c-0.5-0.7-1.2-1.2-2.2-1.2s-1.8,0.4-2.3,1.2
	C121.3,44.4,121.1,45.1,121,45.9L121,45.9z M65.1,44.2c0.5,1.8,0.3,3.3,0.3,3.4c0,0.2-0.2,0.2-0.2,0.2h-8c0.1,1.2,0.3,2,1,2.6
	c0.6,0.6,1.5,1,2.7,1c1.9,0,2.7-0.4,3.3-0.6c0,0,0.2-0.1,0.3,0.2l0.5,1.5c0.1,0.3,0,0.3-0.1,0.4c-0.5,0.3-1.7,0.8-4,0.8
	c-1.1,0-2.1-0.2-2.9-0.5s-1.5-0.7-2-1.3c-0.5-0.6-0.9-1.3-1.2-2c-0.3-0.8-0.4-1.6-0.4-2.5s0.1-1.7,0.4-2.5c0.2-0.8,0.6-1.5,1.1-2
	c0.5-0.6,1.1-1.1,1.8-1.4c0.7-0.4,1.6-0.5,2.6-0.5c0.8,0,1.6,0.2,2.3,0.5c0.5,0.2,1,0.6,1.5,1.2C64.4,42.7,65,43.5,65.1,44.2
	L65.1,44.2z M57.2,45.9h5.7c-0.1-0.7-0.2-1.4-0.5-1.9c-0.5-0.7-1.2-1.2-2.2-1.2c-1.1,0-1.8,0.4-2.3,1.2
	C57.5,44.4,57.4,45.1,57.2,45.9z M43.2,45.4l1.3,0.2v-0.3c0-1.1-0.2-1.6-0.6-1.9c-0.4-0.3-1.1-0.5-2-0.5c0,0-2,0-3.5,0.8
	c-0.1,0.1-0.1,0.1-0.1,0.1s-0.2,0.1-0.3-0.1l-0.6-1.5c-0.1-0.2,0.1-0.3,0.1-0.3c0.7-0.6,2.4-0.9,2.4-0.9c0.6-0.1,1.5-0.2,2.1-0.2
	c1.6,0,2.8,0.4,3.6,1.1c0.8,0.7,1.3,1.9,1.3,3.5v7.3c0,0,0,0.2-0.2,0.3c0,0-0.3,0.1-0.6,0.2l-2,0.4c-0.8,0.2-1.6,0.2-2.4,0.2
	c-0.8,0-1.5-0.1-2.1-0.2s-1.2-0.4-1.6-0.7c-0.4-0.3-0.8-0.7-1.1-1.3c-0.3-0.5-0.4-1.1-0.4-1.8c0-0.7,0.2-1.3,0.4-1.8
	c0.3-0.5,0.7-1,1.2-1.3c0.5-0.4,1.1-0.6,1.6-0.8c0.6-0.2,1.3-0.3,2-0.3L43.2,45.4L43.2,45.4z M40,51c0,0,0.7,0.6,2.3,0.5
	c1.2-0.1,2.2-0.3,2.2-0.3v-3.6c0,0-1-0.2-2.2-0.2C40.7,47.4,40,48,40,48c-0.5,0.3-0.7,0.8-0.7,1.5c0,0.4,0.1,0.7,0.3,1.1
	C39.6,50.7,39.7,50.8,40,51z M107.4,41.4c-0.1,0.2-0.5,1.3-0.6,1.7c-0.1,0.2-0.2,0.2-0.3,0.2c0,0-0.5-0.1-0.9-0.1
	c-0.4,0-0.7,0.1-1.1,0.2c-0.4,0.1-0.7,0.3-1,0.6c-0.3,0.3-0.5,0.7-0.7,1.2c-0.2,0.5-0.3,1.3-0.3,2.1v5.9c0,0.2-0.1,0.3-0.3,0.3h-2.1
	c-0.2,0-0.3-0.1-0.3-0.3V41.2c0-0.2,0.1-0.3,0.2-0.3h2c0.2,0,0.2,0.1,0.2,0.3v1c0.3-0.4,0.8-0.8,1.3-1c0.5-0.2,1.1-0.4,2-0.3
	c0.5,0.1,1.2,0.2,1.3,0.2C107.3,41.1,107.4,41.2,107.4,41.4L107.4,41.4z M87.8,35.9c0.1,0,0.2,0.1,0.2,0.3l-0.6,1.7
	c-0.1,0.1-0.1,0.2-0.4,0.1c-0.1,0-0.2-0.1-0.4-0.1c-0.2-0.1-0.4-0.1-0.6-0.1c-0.3,0-0.6,0.1-0.8,0.1s-0.5,0.2-0.7,0.4
	c-0.2,0.2-0.4,0.5-0.6,0.8c-0.3,0.8-0.4,1.7-0.4,1.8h2.5c0.2,0,0.3,0.1,0.3,0.3l-0.3,1.6c-0.1,0.3-0.3,0.2-0.3,0.2h-2.6l-1.7,10.2
	c-0.2,1.1-0.4,2-0.7,2.7s-0.6,1.3-1.1,1.8c-0.4,0.5-0.9,0.8-1.5,1c-0.5,0.2-1.2,0.3-2,0.3c-0.4,0-0.7,0-1.2-0.1
	c-0.3,0-0.5-0.1-0.7-0.2C74,58.7,74,58.6,74,58.4l0.6-1.6c0.1-0.2,0.3-0.1,0.3-0.1l0.4,0.2c0.2,0.1,0.4,0.1,0.6,0.1
	c0.4,0,0.7-0.1,1-0.2c0.3-0.1,0.5-0.3,0.7-0.6c0.2-0.3,0.4-0.6,0.6-1.1c0.2-0.6,0.4-1.3,0.5-2l1.8-10h-1.7c-0.2,0-0.3-0.1-0.3-0.3
	l0.3-1.6c0.1-0.3,0.3-0.2,0.3-0.2h1.8l0.1-0.5c0.3-1.6,0.8-2.8,1.6-3.6s2-1.2,3.4-1.2c0.4,0,0.8,0.1,1.1,0.1
	C87.3,35.7,87.5,35.8,87.8,35.9L87.8,35.9z M52.2,53c0,0.2-0.1,0.3-0.2,0.3h-2.1c-0.2,0-0.2-0.1-0.2-0.3v-17c0-0.1,0.1-0.3,0.2-0.3
	H52c0.2,0,0.2,0.1,0.2,0.3V53z"/>
</svg>
