<?xml version="1.0" encoding="utf-8"?>
<!-- Generator: Adobe Illustrator 27.0.1, SVG Export Plug-In . SVG Version: 6.00 Build 0)  -->
<svg version="1.1" id="Layer_1" xmlns="http://www.w3.org/2000/svg" xmlns:xlink="http://www.w3.org/1999/xlink" x="0px" y="0px"
	 width="50px" height="50px" viewBox="0 0 50 50" style="enable-background:new 0 0 50 50;" xml:space="preserve">
<style type="text/css">
	.st0{fill-rule:evenodd;clip-rule:evenodd;}
</style>
<path class="st0" d="M45,22l-5,2.8l5,2.8c1.3,0.7,1.7,2.3,1,3.5c-0.7,1.2-2.3,1.7-3.6,0.9L33.4,27c-0.6-0.3-1-0.9-1.2-1.5
	c-0.1-0.3-0.1-0.6-0.1-0.8c0-0.2,0-0.4,0.1-0.6c0.2-0.6,0.6-1.2,1.2-1.6l8.9-5.1c1.2-0.7,2.9-0.3,3.6,0.9C46.6,19.7,46.2,21.2,45,22
	z M40.3,35.7l-8.9-5.1c-0.5-0.3-1-0.4-1.5-0.3c-1.4,0.1-2.4,1.2-2.4,2.6V43c0,1.4,1.2,2.6,2.6,2.6c1.4,0,2.6-1.2,2.6-2.6v-5.7l5,2.8
	c1.3,0.7,2.9,0.3,3.6-0.9C41.9,38,41.5,36.4,40.3,35.7z M30,25.8l-3.7,3.6c-0.1,0.1-0.3,0.2-0.5,0.2h-0.3H25h-0.3
	c-0.1,0-0.4-0.1-0.5-0.2l-3.7-3.6c-0.1-0.1-0.2-0.3-0.2-0.5v-0.3v-0.5v-0.3c0-0.1,0.1-0.4,0.2-0.5l3.7-3.6c0.1-0.1,0.3-0.2,0.5-0.2
	H25h0.5h0.3c0.2,0,0.4,0.1,0.5,0.2l3.7,3.6c0.1,0.1,0.2,0.3,0.2,0.5v0.3v0.5v0.3C30.2,25.5,30.1,25.7,30,25.8z M27,24.8
	c0-0.1-0.1-0.4-0.2-0.5l-1.1-1.1c-0.1-0.1-0.3-0.2-0.5-0.2h0c-0.1,0-0.4,0.1-0.5,0.2l-1.1,1.1c-0.1,0.1-0.2,0.3-0.2,0.5v0
	c0,0.1,0.1,0.3,0.2,0.5l1.1,1.1c0.1,0.1,0.3,0.2,0.5,0.2h0c0.1,0,0.4-0.1,0.5-0.2l1.1-1.1C27,25.2,27,25,27,24.8L27,24.8z
	 M10.3,13.9l8.9,5.1c0.5,0.3,1,0.4,1.5,0.3c1.4-0.1,2.4-1.2,2.4-2.6V6.6C23.2,5.2,22,4,20.6,4c-1.4,0-2.6,1.2-2.6,2.6v5.7l-5-2.8
	c-1.2-0.7-2.8-0.3-3.6,0.9C8.7,11.6,9.1,13.2,10.3,13.9z M29.9,19.3c0.5,0,1-0.1,1.5-0.3l8.9-5.1c1.3-0.7,1.7-2.3,1-3.5
	c-0.7-1.2-2.3-1.7-3.6-0.9l-5,2.8V6.6C32.7,5.2,31.5,4,30,4c-1.4,0-2.6,1.2-2.6,2.6v10.1C27.4,18.1,28.5,19.2,29.9,19.3z M20.7,30.3
	c-0.5,0-1,0.1-1.5,0.3l-8.9,5.1c-1.3,0.7-1.7,2.3-1,3.5c0.7,1.2,2.3,1.7,3.6,0.9l5-2.8V43c0,1.4,1.2,2.6,2.6,2.6
	c1.4,0,2.6-1.2,2.6-2.6V32.9C23.2,31.5,22.1,30.4,20.7,30.3z M18.3,25.5c0.1-0.3,0.1-0.6,0.1-0.8c0-0.2,0-0.4-0.1-0.6
	c-0.2-0.6-0.6-1.2-1.2-1.6l-8.9-5.1c-1.3-0.7-2.9-0.3-3.6,0.9c-0.7,1.2-0.3,2.8,1,3.5l5,2.8l-5,2.8c-1.3,0.7-1.7,2.3-1,3.5
	c0.7,1.2,2.3,1.7,3.6,0.9l8.9-5.1C17.7,26.7,18.1,26.1,18.3,25.5z"/>
</svg>
