<?xml version="1.0" encoding="utf-8"?>
<!-- Generator: Adobe Illustrator 27.0.1, SVG Export Plug-In . SVG Version: 6.00 Build 0)  -->
<svg version="1.1" id="Layer_1" xmlns="http://www.w3.org/2000/svg" xmlns:xlink="http://www.w3.org/1999/xlink" x="0px" y="0px"
	 viewBox="0 0 120 120" style="enable-background:new 0 0 120 120;" xml:space="preserve">
<style type="text/css">
	.st0{fill:#FFF2EB;}
	.st1{fill:none;stroke:#FFFFFF;stroke-width:4;stroke-miterlimit:10;}
	.st2{fill:none;stroke:#EFA247;stroke-miterlimit:10;}
</style>
<g>
	<g>
		
			<image style="overflow:visible;opacity:0.55;enable-background:new    ;" width="141" height="141" xlink:href="60DCA16A.png"  transform="matrix(1 0 0 1 -6 -8)">
		</image>
		<g>
			<circle class="st0" cx="60.2" cy="58.6" r="50"/>
			<circle class="st1" cx="60.2" cy="58.6" r="50"/>
		</g>
	</g>
</g>
<g>
	<path class="st2" d="M59.4,60.2l-17.9,17c-8.2-6.9-6.4-20.8-6.4-20.8c4.3-20.8,24.3-20.8,24.3-20.8V60.2L59.4,60.2l17.3,17"/>
	<path class="st2" d="M64,35.6v22.2l15.8,15.1c0,0,8.2-5.7,4.1-22C84,50.8,79.1,35.3,64,35.6z"/>
	<path class="st2" d="M41.4,77.2c0,0,14.6,16.3,34.5,0"/>
	<path class="st2" d="M66.9,59.5c0,0,12.7-6.9,18,5.2"/>
	<circle class="st2" cx="74.6" cy="52.1" r="4.3"/>
	<circle class="st2" cx="60.1" cy="71.5" r="4.3"/>
	<circle class="st2" cx="45.9" cy="53.1" r="4.3"/>
	<path class="st2" d="M35.9,66.6c0,0,7.1-17.1,19.9-2.8"/>
	<path class="st2" d="M52.3,83L52.3,83c0-4,3.3-7.3,7.3-7.3h0.9c4,0,7.3,3.3,7.3,7.3v0"/>
</g>
</svg>
