<?xml version="1.0" encoding="UTF-8"?>
<svg width="256px" height="350px" viewBox="0 0 256 350" version="1.1" xmlns="http://www.w3.org/2000/svg" xmlns:xlink="http://www.w3.org/1999/xlink">
    <title>drop-down-icons@2x</title>
    <g id="drop-down-icons" stroke="none" stroke-width="1" fill="none" fill-rule="evenodd">
        <g id="analytics">
            <rect id="Rectangle" x="0" y="0" width="44" height="35"></rect>
            <g transform="translate(7.000000, 3.000000)" stroke-linecap="round" stroke-linejoin="round" stroke-width="1.3">
                <path d="M3.54247925,3.54247925 C5.6267434,1.4588566 8.35764906,0.417045283 11.0885547,0.417045283 C13.8194604,0.417045283 16.550366,1.4588566 18.6339887,3.54247925 C20.7182528,5.6267434 21.7600642,8.35764906 21.7600642,11.0885547 C21.7600642,13.8194604 20.7182528,16.550366 18.6339887,18.6339887 C16.550366,20.7182528 13.8194604,21.7600642 11.0885547,21.7600642 C8.35764906,21.7600642 5.6267434,20.7182528 3.54247925,18.6339887 C1.4588566,16.550366 0.417045283,13.8194604 0.417045283,11.0885547 C0.417045283,8.35764906 1.4588566,5.6267434 3.54247925,3.54247925 Z" id="Stroke-1" stroke="#4453A3"></path>
                <line x1="18.5" y1="19.5" x2="26.5" y2="27.5" id="Stroke-5" stroke="#4453A3"></line>
                <line x1="15.4270189" y1="6.72936981" x2="15.4270189" y2="15.447483" id="Stroke-7" stroke="#EC5B5F"></line>
                <line x1="12.1872038" y1="8.96772453" x2="12.1872038" y2="15.4476113" id="Stroke-9" stroke="#EC5B5F"></line>
                <line x1="8.94738868" y1="10.7350189" x2="8.94738868" y2="15.4475472" id="Stroke-11" stroke="#EC5B5F"></line>
                <line x1="5.70757358" y1="12.1486491" x2="5.70757358" y2="15.4479321" id="Stroke-13" stroke="#EC5B5F"></line>
            </g>
        </g>
        <g id="segmentation" transform="translate(53.000000, 0.000000)">
            <rect id="Rectangle" x="0" y="0" width="44" height="35"></rect>
            <g transform="translate(7.000000, 3.000000)" stroke-linecap="round" stroke-linejoin="round" stroke-width="1.3">
                <g id="Group-3" transform="translate(15.905259, 0.000000)" stroke="#EC5B5F">
                    <path d="M1.65968193,0.468938309 L0.25569481,13.7221581 L13.7908072,12.2392427 C10.5031092,2.35763335 1.65968193,0.468938309 1.65968193,0.468938309" id="Fill-1"></path>
                </g>
                <path d="M12.9553933,17.0938776 L14.3154892,4.26018033 C7.19633952,3.5113789 0.822942897,8.65415235 0.0725904293,15.7389659 C-0.67841909,22.8237794 4.48337512,29.1800824 11.5952973,29.9275748 C18.7072195,30.6763762 25.0878436,25.5336027 25.8388532,18.4487892 C25.9426672,17.4722055 25.9308403,16.504131 25.8224269,15.5687837 L12.9553933,17.0938776 Z" id="Stroke-4" stroke="#4453A3"></path>
            </g>
        </g>
        <g id="engagment" transform="translate(106.000000, 0.000000)">
            <rect id="Rectangle" x="0" y="0" width="44" height="35"></rect>
            <g transform="translate(7.000000, 6.000000)" stroke-linecap="round" stroke-linejoin="round">
                <line x1="24.375" y1="6.70833333" x2="6.5625" y2="6.70833333" id="Stroke-1" stroke="#EC5B5F" stroke-width="1.226"></line>
                <line x1="23.4375" y1="12.4583333" x2="8.4375" y2="12.4583333" id="Stroke-2" stroke="#EC5B5F" stroke-width="1.226"></line>
                <path d="M2.10649304,19.0196947 L20.6170879,19.0196947 L24.759971,22.9236066 C25.1111666,23.1384423 25.5528835,22.8746836 25.5528835,22.4499755 L25.5528835,19.0196947 L27.893507,19.0196947 C29.0566723,19.0196947 30,18.0369809 30,16.8252509 L30,2.1944438 C30,0.982004738 29.0566723,0 27.893507,0 L2.10649304,0 C0.943327737,0 0,0.982004738 0,2.1944438 L0,16.8252509 C0,18.0369809 0.943327737,19.0196947 2.10649304,19.0196947 Z" id="Stroke-3" stroke="#4453A3" stroke-width="1.3"></path>
            </g>
        </g>
        <g id="personalization" transform="translate(159.000000, 0.000000)">
            <rect id="Rectangle" x="0" y="0" width="44" height="35"></rect>
            <g transform="translate(10.000000, 3.000000)">
                <path d="M15.9563259,6.77185714 C15.9563259,10.2554286 13.1111196,13.0797143 9.60174392,13.0797143 C6.09236825,13.0797143 3.24788148,10.2554286 3.24788148,6.77185714 C3.24788148,3.28828571 6.09236825,0.464 9.60174392,0.464 C13.1111196,0.464 15.9563259,3.28828571 15.9563259,6.77185714 Z" id="Stroke-1" stroke="#4453A3" stroke-width="1.3" stroke-linecap="round" stroke-linejoin="round"></path>
                <g id="Group-6" transform="translate(0.000000, 14.878786)" stroke="#4453A3" stroke-linecap="round" stroke-linejoin="round" stroke-width="1.3">
                    <path d="M9.31009947,0.172214286 C4.42345397,0.172214286 0.467940741,3.56007143 0.467940741,7.71721429 L0.467940741,14.5350714 L18.1522582,14.5350714" id="Stroke-5"></path>
                </g>
                <path d="M15.8583196,17.5283571 C14.2407111,16.0076429 11.9071238,15.0512143 9.31017143,15.0512143 C4.42352593,15.0512143 0.468012698,18.4383571 0.468012698,22.5962143 L0.468012698,27.9855" id="Stroke-7" stroke="#4453A3" stroke-width="1.3" stroke-linecap="round" stroke-linejoin="round"></path>
                <line x1="18.1522582" y1="27.5363571" x2="18.1522582" y2="29.3085" id="Stroke-9" stroke="#4453A3" stroke-width="1.3" stroke-linecap="round" stroke-linejoin="round"></line>
                <g id="Group-14" transform="translate(5.037037, 22.735929)">
                    <line x1="0.472402116" y1="0.416714286" x2="0.472402116" y2="6.34528571" id="Fill-11" fill="#FFFFFF"></line>
                    <line x1="0.472402116" y1="0.416714286" x2="0.472402116" y2="6.34528571" id="Stroke-13" stroke="#4453A3" stroke-width="1.3" stroke-linecap="round" stroke-linejoin="round"></line>
                </g>
                <path d="M18.7151831,17.3337143 L19.9859556,19.8922857 C20.0564741,20.0422857 20.2075852,20.1465714 20.3709291,20.1701429 L23.2161354,20.5751429 C23.6363683,20.633 23.7997122,21.1422857 23.4967704,21.443 L21.443818,23.4344286 C21.3272466,23.5501429 21.2689608,23.7237143 21.2927069,23.8858571 L21.782019,26.6987143 C21.851818,27.1151429 21.4207915,27.4272857 21.0473312,27.2308571 L18.5050667,25.9001429 C18.3539556,25.8187143 18.1783788,25.8187143 18.0265481,25.9001429 L15.4850032,27.2308571 C15.1115429,27.4272857 14.6682836,27.1151429 14.7503153,26.6987143 L15.2396275,23.8858571 C15.2633735,23.7237143 15.2166011,23.5501429 15.0877968,23.4344286 L13.035564,21.443 C12.7326222,21.1537143 12.8959661,20.6444286 13.3161989,20.5751429 L16.1614053,20.1701429 C16.3247492,20.1465714 16.4758603,20.0422857 16.5456593,19.8922857 L17.8171513,17.3337143 C17.9804952,16.9515714 18.5288127,16.9515714 18.7151831,17.3337143 Z" id="Stroke-15" stroke="#EC5B5F" stroke-width="1.3" stroke-linecap="round" stroke-linejoin="round"></path>
            </g>
        </g>
        <g id="journey" transform="translate(212.000000, 0.000000)">
            <rect id="Rectangle" x="0" y="0" width="44" height="35"></rect>
            <g transform="translate(13.000000, 3.000000)" stroke-linecap="round" stroke-linejoin="round" stroke-width="1.3">
                <path d="M5.95227703,27.3771034 C5.94636711,27.7190739 6.14796114,28.0174975 6.47366354,28.144936 C6.79673931,28.2710936 7.15396129,28.1968079 7.40217804,27.9547389 L8.08181914,27.2925714 L8.76540019,29.4423744 C8.90986496,29.7299113 9.19813785,29.9015369 9.5277802,29.8976946 C9.85479592,29.8932118 10.1424122,29.7177438 10.2908169,29.4321281 L11.0420337,27.2471034 L11.7032884,27.8926207 C11.9501918,28.1334089 12.3087271,28.1974483 12.6337729,28.0623251 C12.9555353,27.9291232 13.1604126,27.6326207 13.1650092,27.2938522 L13.182739,26.1398621 L13.2017821,24.7220296 C13.2063787,24.4268079 13.0586306,24.1655271 12.7992507,24.0131133 C12.5411841,23.8613399 12.2345247,23.854936 11.9652949,23.9939015 C11.2245846,24.3710936 10.4221485,24.5702562 9.59081938,24.5824236 C8.76014692,24.59267 7.96493401,24.4146404 7.23538689,24.0573005 C6.96484377,23.9266601 6.66146775,23.9420296 6.40274447,24.0976453 C6.14402119,24.2526207 5.99233318,24.5132611 5.98904989,24.8078424 L5.95227703,27.3771034 Z" id="Stroke-1" stroke="#EC5B5F"></path>
                <path d="M1.34155243,15.1386601 L1.92269482,14.6762956 C0.726920479,15.6317635 0.202250684,17.0611232 0.51613324,18.5116158 L1.39277176,22.5595468 C1.49980702,23.0558522 1.84717914,23.429202 2.34229932,23.580335 C2.83413621,23.7308276 3.34435953,23.6219606 3.73704105,23.2831921 L6.17521245,20.8701872 C7.10963688,21.7155074 8.22201564,22.1541773 9.41516334,22.1388079 C10.6129077,22.1215172 11.7417029,21.648266 12.7010803,20.7696453 L15.2167374,23.1685616 C15.6113888,23.495803 16.1262088,23.5854581 16.621329,23.4112709 C17.1144792,23.2390049 17.460538,22.8534877 17.5708565,22.3559015 L18.4750747,18.2208768 C18.7863306,16.7902365 18.3017169,15.4197931 17.1591319,14.5104335 L15.7854032,13.2027488 C15.7854032,13.2027488 15.6507883,12.7615172 15.6560416,12.4291527 C15.6941278,9.72861084 14.8614853,6.9922069 13.4358807,4.54269951 C12.2854157,2.56580296 10.8112184,0.942403941 9.83017124,0.473635468 L9.71000281,0.416 L9.59114771,0.47555665 C8.60025068,0.969300493 7.08205724,2.63112315 5.87643303,4.63619704 C4.38122261,7.12348768 3.47175119,9.88166502 3.43300837,12.5802857 C3.42709844,12.9344236 3.27475377,13.3788571 3.27475377,13.3788571 L1.91941153,14.6762956 L1.34155243,15.1386601 Z" id="Stroke-3" stroke="#4453A3"></path>
                <path d="M11.7932505,10.4532808 C10.6106094,9.23973399 8.68660122,9.23973399 7.50330339,10.4532808 C6.32788545,11.6585025 6.32854211,13.6085025 7.50330339,14.8156453 C8.68463125,16.0298325 10.6086394,16.0298325 11.7932505,14.8156453 C12.9673551,13.6104236 12.9673551,11.6604236 11.7932505,10.4532808 L11.7932505,10.4532808 Z" id="Stroke-5" stroke="#4453A3"></path>
            </g>
        </g>
        <g id="Blog" transform="translate(0.000000, 45.000000)">
            <rect id="Rectangle" x="0" y="0" width="44" height="35"></rect>
            <g transform="translate(12.000000, 5.000000)" stroke-linecap="round" stroke-linejoin="round" stroke-width="1.3">
                <path d="M0.167969888,21.824542 L0.166071014,12.0374728 L0.166071014,12.0374728 C0.166516839,12.0329464 0.167408489,8.16765305 0.168745963,0.441592627 L14.4466992,0.441592627 C16.6558382,0.44137683 18.4466992,2.23223783 18.4466992,4.44137683 C18.4466992,4.44144876 18.4466992,4.4415207 18.4464834,4.44159262 L18.4453298,25.8245419 L18.4453298,25.8245419 L4.16874596,25.8245419 C1.95991003,25.8237658 0.169174593,24.0333777 0.167969888,21.824542 Z" id="Stroke-3" stroke="#4453A3"></path>
                <polygon id="Stroke-5" stroke="#EC5B5F" points="3.04957867 9.48833456 15.5650321 9.48833456 15.5650321 2.79519171 3.04957867 2.79519171"></polygon>
                <line x1="15.5154086" y1="11.8430879" x2="3.11623668" y2="11.8430879" id="Stroke-8" stroke="#4453A3"></line>
                <line x1="15.5154086" y1="14.0205659" x2="3.11623668" y2="14.0205659" id="Stroke-11" stroke="#4453A3"></line>
                <line x1="15.5154086" y1="16.197976" x2="3.11623668" y2="16.197976" id="Stroke-14" stroke="#4453A3"></line>
                <line x1="15.5154086" y1="18.3753862" x2="3.11623668" y2="18.3753862" id="Stroke-17" stroke="#4453A3"></line>
                <line x1="15.5154086" y1="20.5534753" x2="3.11623668" y2="20.5534753" id="Stroke-20" stroke="#4453A3"></line>
                <line x1="15.5154086" y1="22.7309533" x2="3.11623668" y2="22.7309533" id="Stroke-23" stroke="#4453A3"></line>
            </g>
        </g>
        <g id="Case-Study" transform="translate(53.000000, 45.000000)">
            <rect id="Rectangle" x="0" y="0" width="44" height="35"></rect>
            <g transform="translate(11.000000, 4.000000)" stroke-linecap="round" stroke-linejoin="round" stroke-width="1.3">
                <line x1="16.4696" y1="2.51375953" x2="2.87485972" y2="2.51375953" id="Stroke-2" stroke="#EC5B5F"></line>
                <g id="Group-15" transform="translate(0.000000, 0.124607)">
                    <line x1="20.5615385" y1="6.45054107" x2="6.12446091" y2="6.45054107" id="Stroke-3" stroke="#EC5B5F"></line>
                    <path d="M0.0699963649,2.17785323 L0.0699963649,19.1605862 C0.0699963649,20.3334838 1.00356459,21.2841636 2.15462821,21.2841636 L4.23926005,21.2841636" id="Stroke-9" stroke="#4453A3"></path>
                    <path d="M14.0058739,0.0544965332 L2.15426692,0.0544965332 C1.00320331,0.0544965332 0.0696350769,1.00517639 0.0696350769,2.17807397 C0.0696350769,3.35023574 1.00320331,4.30091559 2.15426692,4.30091559 L6.32425318,4.30091559" id="Stroke-11" stroke="#4453A3"></path>
                    <path d="M18.3038964,4.30054768 L6.32418092,4.30054768 C5.17239473,4.30054768 4.23954908,5.25122753 4.23954908,6.4233893 C4.23954908,7.59628689 5.17239473,8.54696674 6.32418092,8.54696674 L21.959281,8.54696674 L21.959281,26.5914884 L6.32418092,26.5914884 C5.17239473,26.5914884 4.23954908,25.6408086 4.23954908,24.467911 L4.23954908,6.4233893" id="Stroke-13" stroke="#4453A3"></path>
                </g>
            </g>
        </g>
        <g id="Webinar" transform="translate(106.000000, 45.000000)">
            <rect id="Rectangle-Copy" x="0" y="0" width="44" height="35"></rect>
            <g transform="translate(5.000000, 5.000000)" stroke-linecap="round" stroke-linejoin="round">
                <path d="M34.0523953,23.6839516 L30.3432093,18.4831452 L30.3432093,1.21782258 C30.3432093,0.801693548 30.0632093,0.524274194 29.6432093,0.524274194 L5.07809302,0.524274194 C4.65809302,0.524274194 4.37809302,0.801693548 4.37809302,1.21782258 L4.37809302,18.4137903 L0.668906977,23.6145968 C0.31972093,24.1000806 0.668906977,24.7242742 1.22890698,24.7242742 L33.4223953,24.7242742 C34.0523953,24.793629 34.4023953,24.1694355 34.0523953,23.6839516 Z M4.99344186,18.1379839 L30.1022791,18.1379839 L4.99344186,18.1379839 Z" id="Stroke-1" stroke="#4453A3" stroke-width="1.3"></path>
                <line x1="19.9850814" y1="22.6026613" x2="14.8058953" y2="22.6026613" id="Stroke-3" stroke="#4453A3" stroke-width="1.3"></line>
                <path d="M21.3800349,18.0033871 L21.3800349,14.2953226 C21.3800349,12.3541935 19.504686,10.7727419 17.1881744,10.7727419 C14.8716628,10.7727419 12.996314,12.3541935 12.996314,14.2953226 L12.996314,18.0033871 L21.3800349,18.0033871 Z" id="Stroke-7" stroke="#4453A3" stroke-width="0.644"></path>
                <path d="M21.3800349,16.8118548 L21.3800349,14.2957258 C21.3800349,12.3545968 19.504686,10.7731452 17.1881744,10.7731452 C14.8716628,10.7731452 12.996314,12.3545968 12.996314,14.2957258 L12.996314,16.8118548" id="Stroke-9" stroke="#4453A3" stroke-width="0.644"></path>
                <path d="M21.3800349,18.0033871 L21.3800349,14.2953226 C21.3800349,12.3541935 19.504686,10.7727419 17.1881744,10.7727419 C14.8716628,10.7727419 12.996314,12.3541935 12.996314,14.2953226 L12.996314,18.0033871 L21.3800349,18.0033871 Z" id="Stroke-11" stroke="#4453A3" stroke-width="1.3"></path>
                <path d="M21.3800349,16.8118548 L21.3800349,14.2957258 C21.3800349,12.3545968 19.504686,10.7731452 17.1881744,10.7731452 C14.8716628,10.7731452 12.996314,12.3545968 12.996314,14.2957258 L12.996314,16.8118548" id="Stroke-13" stroke="#4453A3" stroke-width="1.3"></path>
                <path d="M20.1539767,5.91846774 C20.1539767,7.58137097 18.7938605,8.92814516 17.1163023,8.92814516 C15.4379302,8.92814516 14.077814,7.58137097 14.077814,5.91846774 C14.077814,4.25556452 15.4379302,2.90879032 17.1163023,2.90879032 C18.7938605,2.90879032 20.1539767,4.25556452 20.1539767,5.91846774 Z" id="Stroke-15" stroke="#EC5B5F" stroke-width="1.3"></path>
            </g>
        </g>
        <g id="Suscess-stories" transform="translate(159.000000, 45.000000)">
            <rect id="Rectangle-Copy-2" x="0" y="0" width="43" height="35"></rect>
            <g transform="translate(9.000000, 3.000000)" stroke-linecap="round" stroke-linejoin="round" stroke-width="1.3">
                <path d="M0.440374253,0.4332 L0.440374253,25.4985333 C0.440374253,27.7076723 2.23123525,29.4985333 4.44037425,29.4985333 L25.2905965,29.4985333 L25.2905965,29.4985333 L25.2905965,4.4332 C25.2905965,2.224061 23.4997355,0.4332 21.2905965,0.4332 L0.440374253,0.4332 L0.440374253,0.4332 Z" id="Stroke-1" stroke="#4453A3"></path>
                <line x1="22.3644549" y1="5.87563922" x2="3.3669223" y2="5.87563922" id="Stroke-3" stroke-opacity="0.3" stroke="#4453A3"></line>
                <line x1="22.3644549" y1="9.26311569" x2="3.3669223" y2="9.26311569" id="Stroke-5" stroke-opacity="0.3" stroke="#4453A3"></line>
                <line x1="22.3644549" y1="12.6505922" x2="3.3669223" y2="12.6505922" id="Stroke-7" stroke-opacity="0.3" stroke="#4453A3"></line>
                <line x1="17.4814556" y1="16.9444118" x2="13.8662005" y2="16.9444118" id="Stroke-9" stroke="#4453A3"></line>
                <line x1="18.8153811" y1="20.3078314" x2="12.8129873" y2="20.3078314" id="Stroke-11" stroke="#4453A3"></line>
                <line x1="10.389608" y1="16.9444118" x2="3.36638038" y2="16.9444118" id="Stroke-15" stroke-opacity="0.3" stroke="#4453A3"></line>
                <line x1="9.80420352" y1="20.3078314" x2="3.3669223" y2="20.3078314" id="Stroke-17" stroke-opacity="0.3" stroke="#4453A3"></line>
                <line x1="10.389608" y1="23.7155843" x2="3.36638038" y2="23.7155843" id="Stroke-19" stroke-opacity="0.3" stroke="#4453A3"></line>
                <path d="M15.7465802,22.9734588 C14.2610538,22.9734588 12.8202354,22.2654588 11.964686,21.0241255 C10.524545,18.9867922 11.0197205,16.1507922 13.1359013,14.7327922 C13.9006798,14.2014588 14.8009373,13.9347922 15.7465802,13.9347922 C17.2321067,13.9347922 18.6729251,14.6441255 19.5284745,15.8847922 C20.248545,16.8594588 20.4741174,18.0554588 20.293253,19.2521255 C20.068358,20.4481255 19.3929956,21.4674588 18.4026446,22.1761255 C17.5924806,22.6634588 16.6922231,22.9734588 15.7465802,22.9734588 Z" id="Stroke-21" stroke="#EC5B5F"></path>
                <line x1="20.1724138" y1="25.1470588" x2="18.4476236" y2="22.7966588" id="Stroke-23" stroke="#EC5B5F"></line>
            </g>
        </g>
        <g id="mobile-push" transform="translate(212.000000, 45.000000)">
            <rect id="Rectangle-Copy-3" x="0" y="0" width="44" height="35"></rect>
            <g transform="translate(13.000000, 3.000000)">
                <path d="M11.6748799,4.89285714 L0.365384615,4.89285714 L0.365384615,4.13785714 C0.365384615,2.83857143 1.444,1.78571429 2.77180769,1.78571429 C6.75869975,1.78571429 9.7488688,1.78571429 11.7423148,1.78571429" id="Stroke-3" stroke="#4453A3" stroke-width="1.3" stroke-linecap="round" stroke-linejoin="round"></path>
                <path d="M15.3783077,25 L15.3783077,27.5957143 C15.3783077,28.8935714 14.2996923,29.9478571 12.9718846,29.9478571 L2.77180769,29.9478571 C1.444,29.9478571 0.365384615,28.8935714 0.365384615,27.5957143 L0.365384615,25 L15.3783077,25 Z" id="Stroke-7" stroke="#4453A3" stroke-width="1.3" stroke-linecap="round" stroke-linejoin="round"></path>
                <polyline id="Stroke-11" stroke="#4453A3" stroke-width="1.3" stroke-linecap="round" stroke-linejoin="round" points="11.6860986 5 0.365384615 5 0.365384615 25.1792857 15.3790385 25.1792857 15.3790385 7.21860417"></polyline>
                <path d="M8.36562692,27.3542857 C8.36562692,27.8178571 7.98124231,28.1942857 7.50624231,28.1942857 C7.03197308,28.1942857 6.64685769,27.8178571 6.64685769,27.3542857 C6.64685769,26.8907143 7.03197308,26.5142857 7.50624231,26.5142857 C7.98124231,26.5142857 8.36562692,26.8907143 8.36562692,27.3542857" id="Fill-12" fill="#3D4EB5"></path>
                <path d="M18.4764769,3.20464286 C18.4764769,4.77678571 17.1720538,6.05178571 15.5636308,6.05178571 C13.9544769,6.05178571 12.6493231,4.77678571 12.6493231,3.20464286 C12.6493231,1.63178571 13.9544769,0.3575 15.5636308,0.3575 C17.1720538,0.3575 18.4764769,1.63178571 18.4764769,3.20464286" id="Fill-13" fill="#EC5B5F"></path>
            </g>
        </g>
        <g id="in-app" transform="translate(0.000000, 91.000000)">
            <rect id="Rectangle-Copy-4" x="0" y="0" width="44" height="35"></rect>
            <g transform="translate(14.000000, 3.000000)">
                <path d="M15.6533333,2.749925 L15.6533333,3.51625 L0,3.51625 L0,2.749925 C0,1.430425 1.12533333,0.3625 2.50895238,0.3625 L13.144381,0.3625 C14.5287619,0.3625 15.6533333,1.430425 15.6533333,2.749925 Z" id="Stroke-3" stroke="#4453A3" stroke-width="1.3" stroke-linecap="round" stroke-linejoin="round"></path>
                <path d="M15.6533333,23.925 L15.6533333,26.55965 C15.6533333,27.876975 14.5287619,28.947075 13.144381,28.947075 L2.50895238,28.947075 C1.12533333,28.947075 0,27.876975 0,26.55965 L0,23.925 L15.6533333,23.925 Z" id="Stroke-7" stroke="#4453A3" stroke-width="1.3" stroke-linecap="round" stroke-linejoin="round"></path>
                <polygon id="Stroke-11" stroke="#4453A3" stroke-width="1.3" stroke-linecap="round" stroke-linejoin="round" points="0 24.10625 15.6533333 24.10625 15.6533333 3.625 0 3.625"></polygon>
                <path d="M9.10308571,26.5236175 C9.10308571,26.9941425 8.70232381,27.3769425 8.20708571,27.3769425 C7.71260952,27.3769425 7.31108571,26.9941425 7.31108571,26.5236175 C7.31108571,26.0530925 7.71260952,25.6710175 8.20708571,25.6710175 C8.70232381,25.6710175 9.10308571,26.0530925 9.10308571,26.5236175" id="Fill-12" fill="#3D4EB5"></path>
                <polygon id="Fill-14" fill="#EC5B5F" points="2.61942857 21.1178 13.2860952 21.1178 13.2860952 6.6178 2.61942857 6.6178"></polygon>
            </g>
        </g>
        <g id="web-overlays" transform="translate(106.000000, 91.000000)">
            <rect id="Rectangle" x="0" y="0" width="44" height="35"></rect>
            <g transform="translate(7.000000, 9.000000)">
                <path d="M3.69983607,15.2639649 L26.032623,15.2639649 L26.032623,1.8278993 C26.032623,1.19199766 25.5152459,0.674620609 24.8798361,0.674620609 L4.85311475,0.674620609 C4.21721311,0.674620609 3.69983607,1.19199766 3.69983607,1.8278993 L3.69983607,15.2639649 Z" id="Stroke-4" stroke="#4453A3" stroke-width="1.3" stroke-linecap="round" stroke-linejoin="round"></path>
                <path d="M18.1245212,5.13917209 C18.1148514,5.22002926 18.1098763,5.30233656 18.1098763,5.38581499 C18.1098763,6.52126014 19.0302874,7.44004215 20.1657326,7.44004215 C20.3380034,7.44004215 20.5053477,7.41883166 20.6652856,7.3788734 L20.6652295,12.0822084 C20.6652295,12.4692576 20.351459,12.7830281 19.9649016,12.7830281 L9.51604918,12.7830281 C9.1294918,12.7830281 8.81572131,12.4692576 8.81572131,12.0822084 L8.81572131,5.84024122 C8.81572131,5.45368384 9.1294918,5.13991335 9.51604918,5.13991335 Z" id="Combined-Shape" fill="#EC5B5F"></path>
                <path d="M21.4057377,5.38581499 C21.4057377,6.07138876 20.85,6.62614286 20.1654098,6.62614286 C19.4798361,6.62614286 18.9240984,6.07138876 18.9240984,5.38581499 C18.9240984,4.70024122 19.4798361,4.14548712 20.1654098,4.14548712 C20.85,4.14548712 21.4057377,4.70024122 21.4057377,5.38581499" id="Fill-10" fill="#EC5B5F"></path>
                <path d="M0.491606557,15.4283888 C0.305704918,15.4283888 0.135540984,15.5336347 0.0519344262,15.6998642 C-0.0306885246,15.8660937 -0.0134754098,16.0647822 0.0971803279,16.2142904 C0.887016393,17.2741265 2.00734426,17.8815035 3.17095082,17.8815035 L26.5620984,17.8815035 C27.7257049,17.8815035 28.845541,17.2741265 29.6358689,16.2142904 C29.7465246,16.0647822 29.7642295,15.8660937 29.6811148,15.6998642 C29.5975082,15.5336347 29.4273443,15.4283888 29.2409508,15.4283888 L0.491606557,15.4283888 Z" id="Fill-1" stroke="#4453A3" stroke-width="1.3"></path>
            </g>
        </g>
        <g id="web-push" transform="translate(159.000000, 91.000000)">
            <rect id="Rectangle-Copy-6" x="0" y="0" width="44" height="35"></rect>
            <g transform="translate(6.000000, 9.000000)">
                <path d="M26.2671511,1.8278993 C26.2671511,1.19199766 25.745113,0.674620609 25.1039787,0.674620609 L4.89683651,0.674620609 C4.25520603,0.674620609 3.73316792,1.19199766 3.73316792,1.8278993 L3.73316792,15.2639649 L3.73316792,15.2639649 L26.2671511,15.2639649 C26.2671511,12.3059207 26.2671511,10.0873876 26.2671511,8.60836548" id="Stroke-4" stroke="#4453A3" stroke-width="1.3" stroke-linecap="round" stroke-linejoin="round"></path>
                <path d="M0.496035445,15.4283888 C0.308459016,15.4283888 0.136762074,15.5336347 0.0524023039,15.6998642 C-0.0309649978,15.8660937 -0.0135968099,16.0647822 0.0980558263,16.2142904 C0.895007532,17.2741265 2.02542844,17.8815035 3.19951794,17.8815035 L26.8013965,17.8815035 C27.975486,17.8815035 29.1054107,17.2741265 29.9028587,16.2142904 C30.0145113,16.0647822 30.0323757,15.8660937 29.9485122,15.6998642 C29.8641524,15.5336347 29.6924555,15.4283888 29.5043828,15.4283888 L0.496035445,15.4283888 Z" id="Fill-1" stroke="#4453A3" stroke-width="1.3"></path>
                <path d="M30.8239774,6.98929638 L15.4091811,6.98929638 C14.7924808,6.98929638 14.2918919,6.49407249 14.2918919,5.88198294 L14.2918919,4.15675906 C14.2918919,3.54556503 14.7924808,3.04944563 15.4091811,3.04944563 L30.8239774,3.04944563 C31.4411295,3.04944563 31.9412666,3.54556503 31.9412666,4.15675906 L31.9412666,5.88198294 C31.9412666,6.49407249 31.4411295,6.98929638 30.8239774,6.98929638" id="Fill-5" fill="#EC5B5F"></path>
            </g>
        </g>
        <g id="email" transform="translate(212.000000, 91.000000)">
            <rect id="Rectangle-Copy-7" x="0" y="0" width="44" height="35"></rect>
            <g transform="translate(10.000000, 10.000000)" stroke-linecap="round" stroke-linejoin="round" stroke-width="1.3">
                <path d="M1.16644444,15.7197793 L23.6397778,15.7197793 C24.1308889,15.7197793 24.5286667,15.3241931 24.5286667,14.836469 L24.5286667,1.15812414 C24.5286667,0.671503448 24.1308889,0.275917241 23.6397778,0.275917241 L1.16644444,0.275917241 C0.675888889,0.275917241 0.277555556,0.671503448 0.277555556,1.15812414 L0.277555556,14.836469 C0.277555556,15.3241931 0.675888889,15.7197793 1.16644444,15.7197793 Z" id="Stroke-1" stroke="#4453A3"></path>
                <line x1="0.277777778" y1="14.8367448" x2="8.76833333" y2="7.99757241" id="Stroke-3" stroke="#4453A3"></line>
                <line x1="24.2393333" y1="14.8367448" x2="15.7482222" y2="7.99757241" id="Stroke-5" stroke="#4453A3"></line>
                <path d="M0.277777778,1.94769655 L11.9355556,9.8025931 C12.2305556,10.0012138 12.5766667,10.0012138 12.8705556,9.8025931 L24.5283333,1.94769655" id="Stroke-7" stroke="#EC5B5F"></path>
            </g>
        </g>
        <g id="Engagecast" transform="translate(0.000000, 136.000000)">
            <rect id="Rectangle-Copy-4" x="0" y="0" width="44" height="35"></rect>
            <g transform="translate(13.000000, 3.000000)" id="Artboard" stroke-linejoin="round" stroke-width="1.3">
                <g id="Group-27" transform="translate(0.000000, 0.365854)">
                    <path d="M17.352,11.195122 L17.352,14.4878049 C17.352,19.2439024 13.536,23.1219512 8.856,23.1219512 C4.176,23.1219512 0.36,19.2439024 0.36,14.4878049 L0.36,10.902439" id="Stroke-3_1_" stroke="#4453A3" stroke-linecap="round"></path>
                    <path d="M8.856,20.4878049 C6.048,20.4878049 3.6,18.5121951 2.952,15.7317073 C2.736,14.9268293 2.808,14.1219512 2.808,13.3902439 C2.808,11.1219512 2.808,8.85365854 2.808,6.51219512 C2.808,3.14634146 5.472,0.365853659 8.856,0.365853659 C12.168,0.365853659 14.904,3.07317073 14.904,6.51219512 C14.904,8.63414634 14.904,10.7560976 14.904,12.8780488 C14.904,14.2682927 14.976,15.5121951 14.4,16.7560976 C13.464,19.0243902 11.304,20.4878049 8.856,20.4878049 Z" id="Stroke-7_1_" stroke="#4453A3" stroke-linecap="round"></path>
                    <line x1="3.024" y1="10.6829268" x2="14.76" y2="10.6829268" id="Stroke-9_1_" stroke="#EC5B5F"></line>
                    <line x1="5.256" y1="9" x2="5.256" y2="12.5853659" id="Stroke-11_1_" stroke="#EC5B5F" stroke-linecap="round"></line>
                    <line x1="7.56" y1="7.75609756" x2="7.56" y2="13.902439" id="Stroke-13_1_" stroke="#EC5B5F" stroke-linecap="round"></line>
                    <line x1="9.864" y1="6.14634146" x2="9.864" y2="15.5121951" id="Stroke-15_1_" stroke="#EC5B5F" stroke-linecap="round"></line>
                    <line x1="12.096" y1="9.2195122" x2="12.096" y2="12.3658537" id="Stroke-17_1_" stroke="#EC5B5F" stroke-linecap="round"></line>
                    <line x1="8.856" y1="23.1219512" x2="8.856" y2="28.4634146" id="Stroke-21_1_" stroke="#4453A3" stroke-linecap="round"></line>
                    <line x1="13.392" y1="28.4634146" x2="4.392" y2="28.4634146" id="Stroke-25" stroke="#4453A3" stroke-linecap="round"></line>
                </g>
            </g>
        </g>
        <g id="Group-2" transform="translate(212.000000, 136.000000)">
            <rect id="Rectangle-Copy-4" x="0" y="0" width="44" height="35"></rect>
            <g id="Group" transform="translate(10.000000, 4.000000)" stroke-linecap="round" stroke-linejoin="round" stroke-width="1.3">
                <path d="M19,24.3 C18.9,24.3 18.9,24.3 19,24.3 C18.9,24.5 18.9,24.6 18.9,24.6 C18.6,25.1 18.2,25.4 17.7,25.8 C16.8,26.4 15.9,26.6 14.9,26.5 C13.8,26.4 12.6,26 11.4,25.4 C10.6,25 9.7,24.5 8.9,23.9 C7.9,23.2 6.9,22.3 6.1,21.4 C5.1,20.4 4.3,19.5 3.7,18.6 C2.7,17.3 2,16.2 1.6,15.1 C1.3,14.3 1.1,13.6 1,12.9 L0.9,12.2 L0.9,11.3 L1,10.7 C1.1,10 1.4,9.4 1.8,8.8 C2,8.5 2.3,8.1 2.8,7.8 C3.1,7.5 3.5,7.6 3.8,7.9 C4.3,8.4 4.7,8.8 5.2,9.3 L6.2,10.3 C6.4,10.5 6.6,10.8 6.9,11 C7.3,11.4 7.3,11.8 6.9,12.2 C6.6,12.5 6.3,12.8 6,13.1 L5.7,13.4 C5.6,13.5 5.6,13.5 5.5,13.6 L5.4,13.7 C5.1,13.9 5.1,14.4 5.2,14.7 C5.8,15.8 6.6,17.3 7.7,18.6 C9.3,20.5 10.9,21.4 12.4,22.2 C12.7,22.4 13.1,22.3 13.3,22.1 L14.4,20.9 C14.5,20.8 14.7,20.6 14.8,20.5 C15,20.3 15.4,20.1 15.8,20.4 C15.9,20.5 16.1,20.6 16.2,20.8 L16.3,20.9 C16.8,21.4 17.2,21.8 17.7,22.3 C18.1,22.8 18.6,23.2 19,23.7 C19.1,23.8 19.2,24 19.3,24.2 L19,24.3 Z" id="Shape" stroke="#4453A3"></path>
                <path d="M24.7,9.8 C24.7,10.9 23.8,11.9 22.7,11.9 L17.5,11.9 C17.3,11.9 17.1,12 17,12.1 L13.6,15.6 C13.6,15.6 13.5,15.7 13.5,15.6 C13.4,15.6 13.4,15.5 13.4,15.5 L13.4,12.6 C13.4,12.2 13.1,11.8 12.6,11.8 L11.7,11.8 C10.6,11.8 9.7,10.9 9.7,9.7 L9.7,2.1 C9.7,1 10.6,0 11.7,0 L22.8,0 C23.3,0 23.8,0.2 24.2,0.6 C24.6,1 24.8,1.5 24.8,2.1 L24.8,9.8 L24.7,9.8 Z" id="Shape" stroke="#EC5B5F" fill="#FFFFFF" fill-rule="nonzero"></path>
                <line x1="12.9" y1="3.8" x2="21.1" y2="3.8" id="Shape" stroke="#EC5B5F" fill="#FFFFFF" fill-rule="nonzero"></line>
                <line x1="12.9" y1="7.6" x2="18.1" y2="7.6" id="Shape" stroke="#EC5B5F" fill="#FFFFFF" fill-rule="nonzero"></line>
            </g>
        </g>
        <g id="Group-4" transform="translate(159.000000, 136.000000)">
            <rect id="Rectangle-Copy-4" x="0" y="0" width="44" height="35"></rect>
            <g id="Group" transform="translate(10.000000, 6.000000)" fill="#FFFFFF" fill-rule="nonzero" stroke-linecap="round" stroke-linejoin="round" stroke-width="1.3">
                <path d="M2.32142857,17.3333333 L12.5892857,16.2666667 L12.5,11.7333333 L12.5,0 L6.60714286,0 C3.30357143,0 0.714285714,2.66666667 0.714285714,5.86666667 L0.714285714,11.7333333 L2.32142857,17.3333333 Z" id="Shape" stroke="#4453A3"></path>
                <path d="M12.0535714,9.68888889 L12.0535714,9.68888889 C12.2321429,9.68888889 12.3214286,9.77777778 12.3214286,9.95555556 L12.3214286,11.7333333 L13.8392857,11.7333333 L22.6785714,11.7333333 L24.1964286,11.7333333 L24.1964286,5.86666667 C24.1964286,2.57777778 21.5178571,2.52637417e-14 18.3035714,2.52637417e-14 L12.4107143,2.52637417e-14 L12.4107143,1.77777778 C12.4107143,1.95555556 12.3214286,2.04444444 12.1428571,2.04444444 L12.1428571,2.04444444 C10,2.04444444 8.30357143,3.73333333 8.30357143,5.86666667 C8.21428571,8 9.91071429,9.68888889 12.0535714,9.68888889 Z" id="Shape" stroke="#4453A3"></path>
                <path d="M22.4107143,11.8222222 C22.2321429,11.8222222 22.1428571,11.7333333 22.1428571,11.5555556 L22.1428571,11.5555556 C22.1428571,9.42222222 20.4464286,7.73333333 18.3035714,7.73333333 C16.1607143,7.73333333 14.4642857,9.42222222 14.4642857,11.5555556 L14.4642857,11.5555556 C14.4642857,11.7333333 14.375,11.8222222 14.1964286,11.8222222 L12.4107143,11.8222222 L12.4107143,13.3333333 L12.4107143,22.1333333 L12.4107143,23.6444444 L18.3035714,23.6444444 C21.6071429,23.6444444 24.1964286,20.9777778 24.1964286,17.7777778 L24.1964286,11.9111111 L22.4107143,11.9111111 L22.4107143,11.8222222 Z" id="Shape" stroke="#4453A3"></path>
                <path d="M12.7678571,13.9555556 L12.7678571,13.9555556 C12.5892857,13.9555556 12.5,13.8666667 12.5,13.6888889 L12.5,11.9111111 L10.9821429,11.9111111 C10.8035714,14.2222222 8.92857143,16 6.60714286,16 C4.28571429,16 2.32142857,14.2222222 2.23214286,11.9111111 L0.714285714,11.9111111 L0.714285714,17.7777778 C0.714285714,21.0666667 3.39285714,23.6444444 6.60714286,23.6444444 L12.5,23.6444444 L12.5,21.8666667 C12.5,21.6888889 12.5892857,21.6 12.7678571,21.6 L12.7678571,21.6 C14.9107143,21.6 16.6071429,19.9111111 16.6071429,17.7777778 C16.6071429,15.6444444 14.8214286,13.9555556 12.7678571,13.9555556 Z" id="Shape" stroke="#4453A3"></path>
                <ellipse id="Oval" stroke="#EC5B5F" cx="5.17857143" cy="5.42222222" rx="1.42857143" ry="1.42222222"></ellipse>
                <ellipse id="Oval" stroke="#EC5B5F" cx="18.0357143" cy="4.8" rx="1.42857143" ry="1.42222222"></ellipse>
                <ellipse id="Oval" stroke="#EC5B5F" cx="19.6428571" cy="17.0666667" rx="1.42857143" ry="1.42222222"></ellipse>
                <ellipse id="Oval" stroke="#EC5B5F" cx="6.33928571" cy="18.6666667" rx="1.42857143" ry="1.42222222"></ellipse>
            </g>
        </g>
        <g id="Group-5" transform="translate(106.000000, 136.000000)">
            <rect id="Rectangle-Copy-4" x="0" y="0" width="44" height="35"></rect>
            <g id="Group" transform="translate(8.000000, 4.000000)">
                <line x1="0.45" y1="18.6967742" x2="26.64" y2="18.6967742" id="Shape" stroke="#4453A3" stroke-width="1.3" stroke-linecap="round" stroke-linejoin="round"></line>
                <path d="M18.9,9.12258065 L18.9,10.8387097 L8.1,10.8387097 L8.1,9.12258065 L0.27,9.12258065 L0.27,21.7677419 C0.27,24.7483871 2.7,27.1870968 5.67,27.1870968 L21.33,27.1870968 C24.3,27.1870968 26.73,24.7483871 26.73,21.7677419 L26.73,9.12258065 L18.9,9.12258065 Z" id="Shape" stroke="#4453A3" stroke-width="1.3" stroke-linecap="round" stroke-linejoin="round"></path>
                <g transform="translate(3.600000, 16.258065)" id="Shape">
                    <g fill-rule="nonzero">
                        <polygon stroke="#4453A3" stroke-width="1.3" fill="#FFFFFF" stroke-linecap="round" stroke-linejoin="round" points="4.77 6.0516129 2.88 7.40645161 1.26 6.0516129 1.26 0.812903226 4.77 0.812903226"></polygon>
                        <line x1="0.36" y1="4.24516129" x2="5.58" y2="4.24516129" fill="#606060"></line>
                    </g>
                    <g stroke="#4453A3" stroke-linecap="round" stroke-linejoin="round" stroke-width="1.3">
                        <polygon points="4.77 6.0516129 2.88 7.40645161 1.26 6.0516129 1.26 0.812903226 4.77 0.812903226"></polygon>
                        <line x1="0.36" y1="4.24516129" x2="5.58" y2="4.24516129"></line>
                    </g>
                </g>
                <g transform="translate(17.100000, 16.258065)" id="Shape" stroke="#4453A3" stroke-linecap="round" stroke-linejoin="round" stroke-width="1.3">
                    <polygon fill="#FFFFFF" fill-rule="nonzero" points="4.32 6.0516129 2.52 7.40645161 0.81 6.0516129 0.81 0.812903226 4.32 0.812903226"></polygon>
                    <line x1="0" y1="4.24516129" x2="5.22" y2="4.24516129"></line>
                </g>
                <path d="M17.82,6.50322581 L9.18,6.50322581 C8.91,6.50322581 8.64,6.59354839 8.37,6.86451613 C8.1,7.13548387 8.01,7.31612903 8.01,7.67741935 L8.01,10.9290323 L18.81,10.9290323 L18.81,7.67741935 C18.81,7.40645161 18.72,7.13548387 18.45,6.86451613 C18.36,6.59354839 18.09,6.50322581 17.82,6.50322581 L17.82,6.50322581 Z" id="_458486336_1_" stroke="#4453A3" stroke-width="1.3" stroke-linecap="round" stroke-linejoin="round"></path>
                <path d="M10.98,2.07741935 L9.9,3.70322581 L9.9,6.86451613 C9.9,6.86451613 9.72,8.12903226 10.71,8.12903226 C11.79,8.12903226 11.61,6.68387097 11.61,6.68387097 C11.61,6.68387097 11.52,8.67096774 12.6,8.67096774 C13.77,8.67096774 13.68,7.04516129 13.68,7.04516129 C13.68,7.04516129 13.5,9.03225806 14.58,9.12258065 C15.84,9.21290323 15.48,7.22580645 15.48,7.22580645 C15.48,7.22580645 15.39,8.4 16.38,8.4 C17.46,8.4 17.19,6.41290323 17.19,6.41290323 C17.19,6.41290323 18.63,6.0516129 18,4.69677419 C17.55,3.70322581 16.2,3.70322581 16.02,2.98064516 C15.84,2.25806452 15.84,1.98709677 15.84,1.98709677 L10.98,1.98709677 L10.98,2.07741935 Z" id="Shape" stroke="#EC5B5F" stroke-width="1.3" fill="#FFFFFF" fill-rule="nonzero" stroke-linecap="round" stroke-linejoin="round"></path>
                <polygon id="Rectangle-path" stroke="#EC5B5F" stroke-width="1.3" fill="#FFFFFF" fill-rule="nonzero" stroke-linecap="round" stroke-linejoin="round" points="10.08 0.361290323 16.56 0.361290323 16.56 2.07741935 10.08 2.07741935"></polygon>
            </g>
        </g>
        <g id="Customers" transform="translate(53.000000, 136.000000)">
            <rect id="Rectangle-Copy-4" x="0" y="0" width="44" height="35"></rect>
            <g transform="translate(4.000000, 8.000000)" stroke-linecap="round" stroke-linejoin="round" stroke-width="1.3">
                <ellipse id="Oval" stroke="#4453A3" cx="31.5" cy="8.14285714" rx="2.88" ry="2.8952381"></ellipse>
                <ellipse id="Oval" stroke="#EC5B5F" cx="18.54" cy="4.07142857" rx="4.05" ry="4.07142857"></ellipse>
                <path d="M27.18,13.3904762 C27.99,12.9380952 28.98,12.6666667 29.97,12.6666667 C33.21,12.6666667 35.82,15.2904762 35.91,18.547619 L28.8,18.4571429" id="Shape" stroke="#4453A3"></path>
                <ellipse id="Oval" stroke="#4453A3" cx="4.95" cy="8.14285714" rx="2.88" ry="2.8952381"></ellipse>
                <path d="M9.18,13.3904762 C8.37,12.9380952 7.38,12.6666667 6.39,12.6666667 C3.15,12.6666667 0.54,15.2904762 0.45,18.547619 L7.56,18.4571429" id="Shape" stroke="#4453A3"></path>
                <path d="M26.91,18.4571429 C26.82,13.752381 23.04,10.0428571 18.45,10.0428571 C13.86,10.0428571 9.99,13.8428571 9.99,18.4571429 L26.91,18.4571429 Z" id="Shape" stroke="#4453A3"></path>
            </g>
        </g>
        <g id="sms" transform="translate(53.000000, 91.000000)">
            <rect id="Rectangle-Copy-5" x="0" y="0" width="44" height="35"></rect>
            <g transform="translate(11.000000, 9.000000)">
                <path d="M1.17816098,0.290148387 C0.682819512,0.290148387 0.280039024,0.707051613 0.280039024,1.21976129 L0.280039024,14.1263419 C0.280039024,14.6390516 0.682819512,15.0559548 1.17816098,15.0559548 L3.28238049,15.0559548 C3.4041122,15.0559548 3.5191122,15.1099548 3.59877073,15.2046 L7.48016098,17.7588581 L7.4358439,15.2046 C7.51550244,15.1099548 7.63106341,15.0559548 7.75223415,15.0559548 L21.5735512,15.0559548 C22.0688927,15.0559548 22.4722341,14.6390516 22.4722341,14.1263419 L22.4722341,1.21976129 C22.4722341,0.707051613 22.0688927,0.290148387 21.5735512,0.290148387 L1.17816098,0.290148387 Z" id="Stroke-1" stroke="#4453A3" stroke-width="1.3" stroke-linecap="round" stroke-linejoin="round"></path>
                <path d="M5.99194878,5.91967742 C5.28511951,5.91967742 4.71011951,6.51425806 4.71011951,7.24587097 C4.71011951,7.97806452 5.28511951,8.57380645 5.99194878,8.57380645 C6.69933902,8.57380645 7.27433902,7.97806452 7.27433902,7.24587097 C7.27433902,6.51425806 6.69933902,5.91967742 5.99194878,5.91967742" id="Fill-3" fill="#EC5B5F"></path>
                <path d="M11.3759683,5.91967742 C10.669139,5.91967742 10.094139,6.51425806 10.094139,7.24587097 C10.094139,7.97806452 10.669139,8.57380645 11.3759683,8.57380645 C12.0833585,8.57380645 12.6583585,7.97806452 12.6583585,7.24587097 C12.6583585,6.51425806 12.0833585,5.91967742 11.3759683,5.91967742" id="Fill-5" fill="#EC5B5F"></path>
                <path d="M16.7600439,5.91967742 C16.0532146,5.91967742 15.4782146,6.51425806 15.4782146,7.24587097 C15.4782146,7.97806452 16.0532146,8.57380645 16.7600439,8.57380645 C17.4674341,8.57380645 18.0424341,7.97806452 18.0424341,7.24587097 C18.0424341,6.51425806 17.4674341,5.91967742 16.7600439,5.91967742" id="Fill-7" fill="#EC5B5F"></path>
            </g>
        </g>
        <g id="Engagemint" transform="translate(0.000000, 181.000000)">
            <rect id="Rectangle-Copy-4" x="0" y="0" width="44" height="35"></rect>
            <g transform="translate(10.000000, 6.000000)" stroke-linecap="round" stroke-linejoin="round" stroke-width="1.3">
                <path d="M8.09931606,22.4499234 C7.94350362,18.6358407 7.78190503,14.6915091 11.6007564,10.8217224 C11.7272249,10.6935214 11.8660922,10.5804751 12,10.4600563 C11.6768028,9.29314029 11.1701024,8.19585426 10.418731,7.23250347 C6.93960859,3.30004986 4.62102023,2.07988745 4.70326606,0 C1.67546244,2.63856537 -1.73050666,8.10984079 0.99972412,15.2632938 C2.63224177,19.5406204 6.03366462,21.0712505 8.12039414,23 C8.11378141,22.8156854 8.10675538,22.6305517 8.09931606,22.4499234" id="Stroke-1" stroke="#EC5B5F"></path>
                <path d="M24,12.7189922 C22.0995715,12.1614904 16.8504189,10.9407202 13.7222475,13.9746304 C10.523009,17.0771145 10.9649312,20.1780489 11.0972627,23.9523246 C11.6874452,23.8903369 19.1527433,24.8763287 21.724632,20.2257019 C23.3546793,16.9752222 22.0995715,13.7235803 24,12.7189922" id="Stroke-3" stroke="#4453A3"></path>
            </g>
        </g>
        <g id="Web-Overlay" transform="translate(159.000000, 271.000000)">
            <rect id="Rectangle-Copy-4" x="0" y="0" width="44" height="35"></rect>
            <g transform="translate(8.000000, 8.000000)">
                <path d="M1.13237787,0 C0.507936508,0 0,0.53615625 0,1.1958125 L0,17.8035938 C0,18.46325 0.507936508,19 1.13237787,19 L3.78794884,19 L9.42703036,19 L26.8663893,19 C27.4914471,19 28,18.46325 28,17.8035938 L28,1.1958125 C28,0.53615625 27.4914471,0 26.8663893,0 L1.13237787,0 Z" id="Stroke-1" stroke="#4453A3" stroke-width="1.3" stroke-linecap="round" stroke-linejoin="round"></path>
                <path d="M7.4375,8.63636364 C6.71346282,8.63636364 6.125,9.21718408 6.125,9.9312414 C6.125,10.6458755 6.71346282,11.2272727 7.4375,11.2272727 C8.1609528,11.2272727 8.75,10.6458755 8.75,9.9312414 C8.75,9.21718408 8.1609528,8.63636364 7.4375,8.63636364 Z" id="Stroke-5" stroke="#EC5B5F" stroke-width="1.3"></path>
                <path d="M7.4375,3.45454545 C6.71346282,3.45454545 6.125,4.0353659 6.125,4.74942322 C6.125,5.46405731 6.71346282,6.04545455 7.4375,6.04545455 C8.1609528,6.04545455 8.75,5.46405731 8.75,4.74942322 C8.75,4.0353659 8.1609528,3.45454545 7.4375,3.45454545 Z" id="Stroke-5-Copy" stroke="#EC5B5F" stroke-width="1.3"></path>
                <path d="M6.86199664,16.4090909 C6.21308725,16.4090909 5.6875,15.8287273 5.6875,15.1136364 C5.6875,14.3985455 6.21308725,13.8181818 6.86199664,13.8181818 L21.1380034,13.8181818 C21.7863255,13.8181818 22.3125,14.3985455 22.3125,15.1136364 C22.3125,15.8287273 21.7863255,16.4090909 21.1380034,16.4090909 L6.86199664,16.4090909 Z" id="Fill-13" fill="#4453A3"></path>
                <line x1="11.375" y1="4.75" x2="21.875" y2="4.75" id="Stroke-7" stroke="#EC5B5F" stroke-width="1.3" stroke-linecap="round" stroke-linejoin="round"></line>
                <line x1="11.375" y1="9.93181818" x2="18.375" y2="9.93181818" id="Stroke-11" stroke="#EC5B5F" stroke-width="1.3" stroke-linecap="round" stroke-linejoin="round"></line>
            </g>
        </g>
        <g id="ebook" transform="translate(53.000000, 181.000000)">
            <rect id="Rectangle-Copy-4" x="0" y="0" width="44" height="35"></rect>
            <g transform="translate(12.000000, 4.000000)" stroke-linecap="round" stroke-linejoin="round" stroke-width="1.3">
                <path d="M2.01939231,27.8932 L19.3452,27.8932 C20.2377,27.8932 20.9605846,27.1764 20.9605846,26.2932 L20.9605846,2.0004 C20.9605846,1.1164 20.2377,0.4004 19.3452,0.4004 L2.01939231,0.4004 C1.1277,0.4004 0.404007692,1.1164 0.404007692,2.0004 L0.404007692,26.2932 C0.404007692,27.1764 1.1277,27.8932 2.01939231,27.8932 Z" id="Stroke-1" stroke="#4453A3"></path>
                <polygon id="Stroke-3" stroke="#4453A3" points="2.80107692 22.75384 18.564 22.75384 18.564 3.12984 2.80107692 3.12984"></polygon>
                <path d="M11.9775115,25.2948 C11.9775115,26.0044 11.3975885,26.578 10.6819731,26.578 C9.96716538,26.578 9.38643462,26.0044 9.38643462,25.2948 C9.38643462,24.586 9.96716538,24.0116 10.6819731,24.0116 C11.3975885,24.0116 11.9775115,24.586 11.9775115,25.2948 Z" id="Stroke-5" stroke="#4453A3"></path>
                <polygon id="Stroke-6" stroke="#EC5B5F" points="5.376 10.92024 10.3780385 10.92024 10.3780385 5.87464 5.376 5.87464"></polygon>
                <line x1="12.5959615" y1="6.90184" x2="16.9130769" y2="6.90184" id="Stroke-7" stroke="#EC5B5F"></line>
                <line x1="12.5959615" y1="10.7088" x2="16.9130769" y2="10.7088" id="Stroke-8" stroke="#EC5B5F"></line>
                <line x1="4.87870385" y1="14.51664" x2="16.9125115" y2="14.51664" id="Stroke-9" stroke="#EC5B5F"></line>
                <line x1="4.87870385" y1="18.79944" x2="16.9125115" y2="18.79944" id="Stroke-10" stroke="#EC5B5F"></line>
            </g>
        </g>
        <g id="Guide" transform="translate(106.000000, 181.000000)">
            <rect id="Rectangle-Copy-4" x="0" y="0" width="44" height="35"></rect>
            <g transform="translate(12.000000, 4.000000)">
                <path d="M3.89941973,5.03150503 L21,5.03150503 L21,26.9481844 L2.75950999,27 C1.23662153,27.0044101 0,25.7965037 0,24.3043096 L0,3.08571429" id="Stroke-1" stroke="#4453A3" stroke-width="1.3" stroke-linecap="round" stroke-linejoin="round"></path>
                <path d="M17.8888889,5.0516129 L2.32708779,5.0516129 C1.04192244,5.0516129 0,4.07656876 0,2.87389482 C0,1.67181834 1.04192244,0.696774194 2.32708779,0.696774194 L17.5,0.696774194 L17.5,4.35483871" id="Stroke-3" stroke="#4453A3" stroke-width="1.3" stroke-linecap="round" stroke-linejoin="round"></path>
                <path d="M10.6454799,22.8229965 C7.10756564,22.8229965 4.22916667,19.8520418 4.22916667,16.1996352 C4.22916667,12.5479582 7.10756564,9.57700348 10.6454799,9.57700348 C14.184101,9.57700348 17.0625,12.5479582 17.0625,16.1996352 C17.0625,19.8520418 14.184101,22.8229965 10.6454799,22.8229965 Z" id="Stroke-5" stroke="#EC5B5F" stroke-width="1.3" stroke-linecap="round" stroke-linejoin="round"></path>
                <path d="M10.2470691,14.7259825 L10.1935025,14.7488203 L10.1928492,14.7507779 C10.0334558,14.8271214 9.88320793,14.9302178 9.75059784,15.0626771 C9.61472149,15.1983989 9.50954797,15.3530435 9.43246428,15.5174758 L9.43050452,15.5174758 L9.39980169,15.5866417 C9.39914844,15.5899042 9.39718868,15.5938193 9.39588218,15.5970818 L7.77777778,19.2857143 L11.4777953,17.6975078 C11.4973928,17.6896777 11.5163371,17.6805425 11.5352814,17.6727124 L11.5849286,17.6511797 L11.5849286,17.6492221 C11.7449752,17.5722261 11.8958763,17.4697822 12.0284864,17.3373229 C12.1637095,17.2016011 12.2688831,17.047609 12.3459668,16.8831768 L12.3479265,16.8825242 L12.3812423,16.8068332 C12.3812423,16.8061807 12.3818956,16.8055282 12.3818956,16.8055282 L14,13.1142857 L10.2980227,14.7037972 C10.2810382,14.7109748 10.2647069,14.7181524 10.2470691,14.7259825 Z" id="Stroke-7" stroke="#EC5B5F" stroke-width="1.3" stroke-linecap="round" stroke-linejoin="round"></path>
                <path d="M10.475054,15.7863094 C10.703692,15.5579313 11.074739,15.5572788 11.3033771,15.7863094 C11.5320152,16.01534 11.5320152,16.3853125 11.3040303,16.6136906 C11.074739,16.8420687 10.7043453,16.8420687 10.475054,16.6136906 C10.2457626,16.3853125 10.2464159,16.01534 10.475054,15.7863094 Z" id="Path" fill="#EC5B5F"></path>
            </g>
        </g>
        <g id="Whatsapp" transform="translate(212.000000, 181.000000)">
            <rect id="Rectangle-Copy-4" x="0" y="0" width="44" height="35"></rect>
            <g transform="translate(11.000000, 7.000000)">
                <path d="M18.794528,3.19696687 C16.726704,1.13630431 13.9760172,0.00136739387 11.0460274,0 C5.00811863,0 0.094116907,4.89048418 0.0913689681,10.9008639 C0.0906819834,12.8220523 0.595615755,14.697433 1.55395944,16.3506122 L0,22 L5.80708186,20.4842439 C7.40706928,21.3532227 9.20834322,21.8106159 11.0419054,21.8112996 L11.0460274,21.8112996 C11.0467143,21.8112996 11.0460274,21.8112996 11.0460274,21.8112996 C17.0832491,21.8112996 21.9979378,16.9201318 22,10.9090683 C22.0013727,7.99720306 20.863039,5.25762944 18.794528,3.19696687 Z" id="Stroke-1" stroke="#4453A3" stroke-width="1.3" stroke-linecap="round" stroke-linejoin="round"></path>
                <path d="M16.2195355,13.5553134 C16.1486528,13.4391345 15.9608136,13.3691472 15.6779915,13.2298724 C15.3958783,13.0898978 14.0079947,12.41592 13.7492727,12.322137 C13.489842,12.2290539 13.3020028,12.1828623 13.1134547,12.4621116 C12.9256155,12.741361 12.3840715,13.3691472 12.2189148,13.5553134 C12.0544669,13.7414797 11.890019,13.7652754 11.6071969,13.6253008 C11.3250837,13.4853261 10.4149496,13.1906795 9.3361146,12.2409517 C8.49615438,11.5018857 7.92980145,10.5892512 7.76464471,10.3093019 C7.6001968,10.0307524 7.74763286,9.87957982 7.88868947,9.74030506 C8.01627836,9.61572765 8.17151152,9.41486406 8.31256813,9.2524935 C8.45362474,9.08942306 8.50040734,8.97254425 8.59468136,8.78707787 C8.68895537,8.60091162 8.64217278,8.43784119 8.57129006,8.29786656 C8.50040734,8.15859181 7.93547206,6.78614062 7.70014143,6.22764187 C7.47119025,5.68454033 7.23869493,5.75732714 7.06503227,5.74962853 C6.90129318,5.74123005 6.71203632,5.73913043 6.52419712,5.73913043 C6.33635791,5.73913043 6.03014456,5.80911775 5.77142263,6.08836712 C5.51270071,6.36691662 4.7826087,7.04159431 4.7826087,8.4140455 C4.7826087,9.78719656 5.79481393,11.1127563 5.93587054,11.2989225 C6.07692716,11.4850888 7.92696614,14.3013782 10.7601484,15.5093592 C11.4335343,15.7963072 11.9594841,15.9677761 12.369895,16.0965527 C13.0461161,16.3093142 13.6627958,16.2792196 14.1483424,16.2071327 C14.6913041,16.1273472 15.819757,15.532455 16.0550876,14.881573 C16.2904182,14.2299911 16.2904182,13.6714924 16.2195355,13.5553134 Z" id="Stroke-3" fill="#EC5B5F"></path>
            </g>
        </g>
        <g id="BFSI" transform="translate(53.000000, 226.000000)">
            <rect id="Rectangle-Copy-4" x="0" y="0" width="44" height="35"></rect>
            <g transform="translate(8.000000, 3.000000)" stroke-linecap="round" stroke-linejoin="round">
                <path d="M24.0969697,14.8285714 C24.1818182,14.5714286 24.2666667,13.5428571 24.2666667,13.2 C24.2666667,9.94285714 22.230303,6.94285714 18.7515152,4.45714286" id="Path" stroke="#EC5B5F" stroke-width="1.3"></path>
                <path d="M15.6121212,4.54285714 C12.0484848,7.02857143 10.0969697,10.0285714 10.0969697,13.2857143 C10.0969697,14.3142857 10.6909091,15.6857143 11.2,16.3714286" id="Path" stroke="#EC5B5F" stroke-width="1.3"></path>
                <path d="M18.6666667,4.54285714 C18.4969697,4.8 17.5636364,4.88571429 17.1393939,4.88571429 C16.7151515,4.88571429 15.7818182,4.71428571 15.6121212,4.54285714 C15.6121212,4.54285714 13.830303,1.2 13.9151515,1.02857143 C14.5939394,-0.171428571 15.9515152,0.0857142857 17.1393939,0.428571429 C18.9212121,0.857142857 19.6848485,0.771428571 20.0242424,0.771428571 C20.0242424,1.2 18.6666667,4.54285714 18.6666667,4.54285714 Z" id="Path" stroke="#EC5B5F" stroke-width="1.3"></path>
                <path d="M15.0181818,12.6 L15.0181818,13.2 C15.0181818,13.8857143 15.6121212,14.4857143 16.2909091,14.4857143 L17.5636364,14.4857143 C18.2424242,14.4857143 18.8363636,13.8857143 18.8363636,13.2 L18.8363636,12.8571429 C18.8363636,12.3428571 18.4969697,11.8285714 17.9878788,11.6571429 L15.9515152,10.9714286 C15.4424242,10.8 15.1030303,10.2857143 15.1030303,9.77142857 L15.1030303,9.42857143 C15.1030303,8.74285714 15.6969697,8.14285714 16.3757576,8.14285714 L17.6484848,8.14285714 C18.3272727,8.14285714 18.9212121,8.74285714 18.9212121,9.42857143 L18.9212121,10.0285714" id="Path" stroke="#EC5B5F" stroke-width="1.3"></path>
                <line x1="16.8848485" y1="8.22857143" x2="16.8848485" y2="7.02857143" id="Path" stroke="#EC5B5F" stroke-width="1.3"></line>
                <path d="M9.41818182,25.1142857 C9.67272727,24.8571429 9.92727273,24.5142857 10.6909091,24.5142857 C11.4545455,24.5142857 18.5818182,24.5142857 19.3454545,24.5142857 C20.0242424,24.5142857 23.8424242,20.6571429 24.2666667,20.1428571 C24.6909091,19.6285714 26.8121212,16.5428571 27.3212121,15.1714286 C26.9818182,14.6571429 25.9636364,14.3142857 24.8606061,14.5714286 C23.7575758,14.8285714 23.1636364,15.6 22.4,17.0571429 L19.9393939,18.5142857" id="Path" stroke="#4453A3" stroke-width="1.3"></path>
                <path d="M13.1515152,20.7428571 C13.1515152,20.7428571 17.4787879,20.7428571 18.0727273,20.7428571 C20.5333333,20.7428571 20.5333333,17.6571429 18.0727273,17.6571429 C17.4787879,17.6571429 16.5454545,17.6571429 14.8484848,17.6571429 C14.3393939,17.6571429 13.4060606,16.3714286 12.5575758,16.3714286 C12.2181818,16.3714286 10.2666667,16.3714286 9.5030303,16.3714286 C8.65454545,16.3714286 7.63636364,17.0571429 7.04242424,17.6571429 C6.10909091,18.6 4.58181818,20.1428571 4.58181818,20.1428571" id="Path" stroke="#4453A3" stroke-width="1.3"></path>
                <polygon id="Rectangle" stroke="#4453A3" stroke-width="1.29998753" transform="translate(5.381481, 24.196191) rotate(-45.000000) translate(-5.381481, -24.196191) " points="3.23344986 18.9624754 7.5827588 18.9403977 7.52951256 29.4299075 3.18020362 29.4519852"></polygon>
                <line x1="3.30909091" y1="22.0285714" x2="4.4969697" y2="23.2285714" id="Path" stroke="#4453A3" stroke-width="1.3"></line>
                <line x1="16.8848485" y1="14.4857143" x2="16.8848485" y2="15.7714286" id="Path" stroke="#EC5B5F" stroke-width="1.3"></line>
            </g>
        </g>
        <g id="EdTech" transform="translate(159.000000, 226.000000)">
            <rect id="Rectangle-Copy-4" x="0" y="0" width="44" height="35"></rect>
            <g transform="translate(12.000000, 2.000000)">
                <g id="Group" stroke="#4453A3" stroke-linecap="round" stroke-linejoin="round" stroke-width="1.3">
                    <path d="M2.28571429,9.50588235 C2.19047619,8.18823529 2.19047619,6.21176471 2.57142857,5.45882353 L1.23809524,4.70588235 C0.952380952,4.51764706 0.857142857,4.04705882 1.14285714,3.95294118 L9.61904762,0.282352941 C9.9047619,0.188235294 10.3809524,0.188235294 10.7619048,0.376470588 L19.1428571,3.95294118 C19.5238095,4.14117647 19.5238095,4.61176471 19.2380952,4.70588235 L10.7619048,8.37647059 C10.4761905,8.47058824 10,8.47058824 9.61904762,8.28235294 L2.57142857,5.36470588 L5.9047619,3.76470588" id="Path"></path>
                    <path d="M2.28571429,11.7647059 C2.28571429,14.4 4.0952381,15.7176471 2.28571429,17.4117647 L0.666666667,16.1882353 C1.80952381,15.5294118 2.19047619,13.9294118 2.28571429,11.7647059" id="Path"></path>
                    <g transform="translate(3.809524, 5.647059)" id="Path">
                        <path d="M6.38095238,5.64705882 C3.33333333,5.64705882 0.761904762,4.42352941 0.761904762,2.91764706 L0.761904762,0.752941176"></path>
                        <path d="M12,0.658823529 L12,2.82352941 C12,4.32941176 9.52380952,5.55294118 6.38095238,5.55294118"></path>
                    </g>
                    <path d="M2.38095238,9.50588235 C2.85714286,9.50588235 3.33333333,9.88235294 3.33333333,10.4470588 C3.33333333,10.9176471 2.95238095,11.3882353 2.38095238,11.3882353 C1.9047619,11.3882353 1.42857143,11.0117647 1.42857143,10.4470588 C1.42857143,9.88235294 1.9047619,9.50588235 2.38095238,9.50588235 L2.38095238,9.50588235 Z" id="Path"></path>
                </g>
                <path d="M19.2380952,31.3411765 L19.2380952,25.8823529 C19.2380952,21.6470588 15.1428571,18.1647059 10.1904762,18.1647059 C5.14285714,18.1647059 1.14285714,21.6470588 1.14285714,25.8823529 L1.14285714,31.3411765 L19.2380952,31.3411765 Z" id="Path" stroke="#4453A3" stroke-width="1.3" stroke-linecap="round" stroke-linejoin="round"></path>
                <path d="M19.2380952,31.3411765 L19.2380952,25.8823529 C19.2380952,21.6470588 15.1428571,18.1647059 10.1904762,18.1647059 C5.14285714,18.1647059 1.14285714,21.6470588 1.14285714,25.8823529 L1.14285714,31.3411765" id="Path" stroke="#4453A3" stroke-width="1.3" stroke-linecap="round" stroke-linejoin="round"></path>
                <path d="M11.9047619,18.2588235 L11.9047619,19.1058824 C11.9047619,20.0470588 11.1428571,20.8 10.1904762,20.8 L10.1904762,20.8 C9.23809524,20.8 8.47619048,20.0470588 8.47619048,19.1058824 L8.47619048,18.2588235" id="Path" stroke="#4453A3" stroke-width="1.3" stroke-linecap="round" stroke-linejoin="round"></path>
                <g id="Group" transform="translate(4.761905, 9.411765)" stroke="#4453A3" stroke-linecap="round" stroke-linejoin="round" stroke-width="1.3">
                    <path d="M0.476190476,0.470588235 L0.476190476,4.04705882 C0.476190476,6.58823529 2.57142857,8.56470588 5.04761905,8.56470588 L5.61904762,8.56470588 C8.19047619,8.56470588 10.1904762,6.49411765 10.1904762,4.04705882 L10.1904762,0.470588235" id="Path"></path>
                    <path d="M0.476190476,0.470588235 L0.476190476,4.04705882 C0.476190476,6.58823529 2.57142857,8.56470588 5.04761905,8.56470588 L5.61904762,8.56470588 C8.19047619,8.56470588 10.1904762,6.49411765 10.1904762,4.04705882 L10.1904762,0.470588235" id="Path"></path>
                </g>
                <ellipse id="Oval" fill="#EC5B5F" fill-rule="nonzero" cx="10.1904762" cy="27.1058824" rx="1" ry="1"></ellipse>
                <path d="M16.7619048,31.3411765 L3.61904762,31.3411765 L3.61904762,26.1647059 C3.61904762,24.5647059 4.85714286,23.3411765 6.47619048,23.3411765 L13.9047619,23.3411765 C15.5238095,23.3411765 16.7619048,24.5647059 16.7619048,26.1647059 L16.7619048,31.3411765 Z" id="Path" stroke="#EC5B5F" stroke-width="1.3" stroke-linecap="round" stroke-linejoin="round"></path>
            </g>
        </g>
        <g id="Travel" transform="translate(0.000000, 226.000000)">
            <rect id="Rectangle-Copy-4" x="0" y="0" width="44" height="35"></rect>
            <g transform="translate(7.000000, 3.000000)" stroke-linecap="round" stroke-linejoin="round" stroke-width="1.3">
                <path d="M15.5861111,24.2571429 L19.5472222,22.3714286 L18.3416667,21.1714286 L13.6055556,22.1142857 L10.9361111,19.1142857 L14.725,17.1428571 L16.1027778,16.4571429 L19.4611111,14.7428571 L17.6527778,12.9428571 L13.2611111,13.7142857 L11.5388889,14.0571429 L7.06111111,14.8285714 C7.06111111,14.8285714 1.55,10.2 0.775,10.9714286 C0.0861111111,11.6571429 4.65,17.2285714 4.65,17.2285714 L3.875,21.6857143 L3.53055556,23.4 L2.75555556,27.7714286 L4.56388889,29.5714286 L6.28611111,26.2285714 L6.975,24.8571429 L8.95555556,21.0857143 L11.9694444,23.7428571 L11.0222222,28.4571429 L12.2277778,29.6571429 L14.1222222,25.7142857 L15.5861111,24.2571429 Z" id="Path" stroke="#EC5B5F"></path>
                <g id="Group" transform="translate(1.722222, 0.000000)" stroke="#4453A3">
                    <path d="M20.4083333,22.3714286 C21.6138889,20.1428571 22.2166667,17.6571429 22.2166667,15.0857143 L22.2166667,15.0857143 L20.15,15.0857143" id="Path"></path>
                    <path d="M13.5194444,9.51428571 C10.9361111,9.51428571 8.61111111,8.82857143 6.45833333,7.8" id="Path"></path>
                    <path d="M20.4083333,7.8 C18.9444444,4.88571429 16.5333333,2.31428571 13.6055556,0.257142857 L13.6055556,9.51428571 C16.0166667,9.51428571 18.3416667,8.91428571 20.4083333,7.8 Z" id="Path"></path>
                    <path d="M13.5194444,0.257142857 L13.4333333,0.171428571 C10.4194444,2.22857143 8.00833333,4.8 6.54444444,7.71428571 C8.61111111,8.82857143 11.0222222,9.42857143 13.6055556,9.42857143 L13.5194444,0.257142857 L13.5194444,0.257142857 Z" id="Path"></path>
                    <path d="M5.94166667,9 C6.11388889,8.57142857 6.37222222,8.14285714 6.54444444,7.71428571 C5.08055556,6.94285714 3.78888889,6 2.66944444,4.8 C1.89444444,5.57142857 1.29166667,6.42857143 0.688888889,7.37142857" id="Path"></path>
                    <path d="M21.0111111,28.1142857 C25.4888889,25.5428571 28.5888889,20.6571429 28.5888889,15.1714286 L28.5888889,15.1714286 L22.2166667,15.1714286 L22.2166667,15.1714286 C22.2166667,17.7428571 21.6138889,20.1428571 20.4083333,22.4571429 C21.9583333,23.2285714 23.3361111,24.2571429 24.4555556,25.4571429 C23.25,24.2571429 21.9583333,23.2285714 20.4083333,22.4571429" id="Path"></path>
                    <path d="M20.4083333,7.8 C21.9583333,7.02857143 23.3361111,6 24.4555556,4.8 C23.25,6 21.8722222,7.02857143 20.4083333,7.8 C21.6138889,10.0285714 22.2166667,12.5142857 22.2166667,15.0857143 L28.5888889,15.0857143 C28.5888889,6.85714286 21.8722222,0.171428571 13.6055556,0.171428571 L13.6055556,0.171428571 L13.6055556,0.257142857 C16.5333333,2.4 18.8583333,4.97142857 20.4083333,7.8 Z" id="Path"></path>
                    <path d="M22.2166667,15.0857143 C22.2166667,12.5142857 21.6138889,10.1142857 20.4083333,7.8 C18.3416667,8.82857143 16.0166667,9.42857143 13.6055556,9.42857143" id="Path"></path>
                    <path d="M13.4333333,0.171428571 L13.5194444,0.257142857 L13.5194444,0.171428571 C9.21388889,0.171428571 5.33888889,1.97142857 2.66944444,4.88571429 C3.78888889,6.08571429 5.08055556,7.02857143 6.54444444,7.8 C8.00833333,4.88571429 10.4194444,2.31428571 13.4333333,0.171428571 Z" id="Path"></path>
                </g>
            </g>
        </g>
        <g id="E-commerce" transform="translate(106.000000, 226.000000)">
            <rect id="Rectangle-Copy-4" x="0" y="0" width="44" height="35"></rect>
            <g transform="translate(4.000000, 4.000000)">
                <polygon id="Rectangle" stroke="#4453A3" stroke-width="1.29995884" fill="#FFFFFF" fill-rule="nonzero" stroke-linecap="round" stroke-linejoin="round" transform="translate(24.286502, 4.798800) rotate(-73.787009) translate(-24.286502, -4.798800) " points="21.2404733 1.45783937 27.3228567 1.4666982 27.3325315 8.13976063 21.2501481 8.1309018"></polygon>
                <rect id="Rectangle" stroke="#4453A3" stroke-width="1.3" fill="#FFFFFF" fill-rule="nonzero" stroke-linecap="round" stroke-linejoin="round" x="13.3521739" y="0.16" width="10.0543478" height="7.12"></rect>
                <g id="Group" transform="translate(0.000000, 3.200000)" stroke="#4453A3" stroke-linecap="round" stroke-linejoin="round">
                    <path d="M0.402173913,0.16 L5.22826087,1.12 C6.43478261,1.36 7.4,2.24 7.72173913,3.44 L11.9847826,18.96 C12.226087,19.68 12.8695652,20.24 13.673913,20.24 L27.9108696,20.24 C28.7152174,20.24 29.4391304,19.68 29.6,18.88 L33.0586957,3.44 L7.72173913,3.44" id="Path" stroke-width="1.3" fill="#FFFFFF" fill-rule="nonzero"></path>
                    <line x1="0.0804347826" y1="0.16" x2="3.7" y2="0.72" id="Path" stroke-width="2"></line>
                    <ellipse id="Oval" stroke-width="1.3" cx="15.926087" cy="22.96" rx="1.52826087" ry="1.52"></ellipse>
                    <ellipse id="Oval" stroke-width="1.3" cx="25.8195652" cy="22.96" rx="1.52826087" ry="1.52"></ellipse>
                </g>
                <line x1="11.5021739" y1="19.92" x2="29.7608696" y2="19.92" id="Path" stroke="#4453A3" stroke-width="1.3"></line>
                <polygon id="Path" fill="#EC5B5F" fill-rule="nonzero" points="35.7130435 25.68 32.3347826 21.12 30.1630435 23.28 27.3478261 14.16 35.7934783 18.4 33.3804348 20.24 36.9195652 24.64"></polygon>
            </g>
        </g>
        <g id="Food" transform="translate(212.000000, 226.000000)">
            <rect id="Rectangle-Copy-4" x="0" y="0" width="44" height="35"></rect>
            <g transform="translate(9.000000, 7.000000)" id="Path" stroke-linecap="round" stroke-linejoin="round" stroke-width="1.3">
                <path d="M5.13870968,1.30434783 C0.958064516,10.9565217 5.0516129,18.7826087 5.13870968,18.8695652" stroke="#4453A3"></path>
                <path d="M9.84193548,12.8695652 C9.84193548,14.2608696 8.70967742,15.3043478 7.40322581,15.3043478 C6.00967742,15.3043478 4.96451613,14.173913 4.96451613,12.8695652 C4.96451613,11.4782609 6.09677419,10.4347826 7.40322581,10.4347826 C8.79677419,10.3478261 9.84193548,11.4782609 9.84193548,12.8695652 Z" stroke="#EC5B5F"></path>
                <path d="M18.4645161,6.52173913 C17.9419355,7.73913043 16.983871,8.60869565 15.8516129,9.13043478 C14.6322581,9.65217391 13.2387097,9.65217391 11.9322581,9.13043478 C10.7129032,8.60869565 9.66774194,7.65217391 9.14516129,6.43478261 C8.62258065,5.30434783 8.62258065,4 9.05806452,2.7826087" stroke="#EC5B5F"></path>
                <path d="M17.4193548,14.0869565 C17.1580645,13.3913043 17.1580645,12.6956522 17.3322581,12 C17.5935484,11.2173913 18.116129,10.6956522 18.8129032,10.3478261 C19.5096774,10 20.2935484,9.91304348 21.0774194,10.173913 C21.8612903,10.4347826 22.383871,10.9565217 22.7322581,11.6521739" stroke="#EC5B5F"></path>
                <path d="M0.522580645,9.65217391 C0.522580645,3.91304348 2.26451613,1.04347826 2.26451613,1.04347826 C2.52580645,0.608695652 2.78709677,0.173913043 2.87419355,0.173913043 L2.96129032,0.173913043 C2.96129032,0.173913043 3.39677419,0.347826087 3.91935484,0.52173913 L4.87741935,0.956521739 C5.4,1.13043478 6.18387097,1.47826087 6.70645161,1.73913043 L25.8677419,9.47826087 C26.3032258,9.65217391 26.5645161,9.82608696 26.5645161,9.91304348 L26.5645161,9.91304348 C26.4774194,9.91304348 26.4774194,10 26.4774194,10 C26.4774194,10 26.4774194,10.0869565 26.5645161,10.0869565 L26.5645161,10.0869565 C26.5645161,10.173913 26.3032258,10.3478261 25.8677419,10.5217391 L6.70645161,18.2608696 C6.18387097,18.4347826 5.4,18.7826087 4.87741935,19.0434783 L3.91935484,19.4782609 C3.39677419,19.6521739 2.96129032,19.826087 2.96129032,19.826087 C2.96129032,19.826087 2.96129032,19.826087 2.87419355,19.826087 C2.87419355,19.826087 2.61290323,19.4782609 2.26451613,18.9565217 C2.26451613,18.9565217 0.522580645,16 0.522580645,10.3478261 C0.522580645,10.2608696 0.522580645,10.0869565 0.522580645,10 C0.522580645,9.91304348 0.522580645,9.82608696 0.522580645,9.65217391" stroke="#4453A3"></path>
            </g>
        </g>
        <g id="OTT" transform="translate(53.000000, 271.000000)">
            <rect id="Rectangle-Copy-4" x="0" y="0" width="44" height="35"></rect>
            <g transform="translate(8.000000, 3.000000)">
                <g id="Group" stroke-linecap="round" stroke-linejoin="round" stroke-width="1.3">
                    <path d="M6.78787879,3 C10.6909091,-0.942857143 16.969697,-0.942857143 20.8727273,3" id="Path" stroke="#4453A3"></path>
                    <path d="M8.99393939,5.22857143 C11.6242424,2.57142857 15.8666667,2.57142857 18.4969697,5.22857143" id="Path" stroke="#4453A3"></path>
                    <path d="M11.5393939,7.8 C12.8121212,6.51428571 14.8484848,6.51428571 16.0363636,7.8" id="Path" stroke="#4453A3"></path>
                    <path d="M18.2424242,7.8 L26.4727273,7.8 C26.8969697,7.8 27.2363636,8.14285714 27.2363636,8.57142857 L27.2363636,23.9142857 C27.2363636,24.3428571 26.8969697,24.6857143 26.4727273,24.6857143 L1.01818182,24.6857143 C0.593939394,24.6857143 0.254545455,24.3428571 0.254545455,23.9142857 L0.254545455,8.57142857 C0.254545455,8.14285714 0.593939394,7.8 1.01818182,7.8 L9.24848485,7.8" id="Path" stroke="#4453A3"></path>
                    <path d="M11.2,12.6 L11.2,19.8857143 C11.2,19.9714286 11.2848485,20.0571429 11.4545455,19.9714286 L17.3939394,16.3714286 C17.4787879,16.2857143 17.4787879,16.2 17.3939394,16.1142857 L11.4545455,12.5142857 C11.2848485,12.3428571 11.2,12.4285714 11.2,12.6 Z" id="Path" stroke="#EC5B5F"></path>
                </g>
                <line x1="6.95757576" y1="27.6" x2="27.2363636" y2="27.6" id="Path" stroke="#4453A3" stroke-width="1.3" stroke-linecap="round" stroke-linejoin="round"></line>
                <line x1="0.339393939" y1="27.6" x2="5.43030303" y2="27.6" id="Path" stroke="#4453A3" stroke-width="1.3" stroke-linecap="round" stroke-linejoin="round"></line>
                <ellipse id="Oval" fill="#EC5A5E" fill-rule="nonzero" cx="6.19393939" cy="27.6" rx="1.61212121" ry="1.62857143"></ellipse>
            </g>
        </g>
        <g id="Classified" transform="translate(106.000000, 271.000000)">
            <rect id="Rectangle-Copy-4" x="0" y="0" width="44" height="35"></rect>
            <g transform="translate(8.000000, 4.000000)">
                <path d="M26.6,26.5090909 L1.48235294,26.5090909 C0.988235294,26.5090909 0.741176471,26.1818182 0.741176471,25.7727273 L0.741176471,0.818181818 C0.741176471,0.327272727 1.07058824,0.0818181818 1.48235294,0.0818181818 L26.6,0.0818181818 C27.0941176,0.0818181818 27.3411765,0.409090909 27.3411765,0.818181818 L27.3411765,25.7727273 C27.3411765,26.1818182 27.0117647,26.5090909 26.6,26.5090909 Z" id="Path" stroke="#4453A3" stroke-width="1.1768" stroke-linecap="round" stroke-linejoin="round"></path>
                <g id="Group" transform="translate(4.117647, 2.454545)">
                    <g id="Path">
                        <line x1="7.90588235" y1="1.55454545" x2="19.3529412" y2="1.55454545" stroke="#4453A3" stroke-width="1.3" stroke-linecap="round" stroke-linejoin="round"></line>
                        <line x1="7.90588235" y1="3.6" x2="14.2470588" y2="3.6" stroke="#4453A3" stroke-width="1.3" stroke-linecap="round" stroke-linejoin="round"></line>
                        <path d="M5.35294118,5.72727273 L0.823529412,5.72727273 C0.576470588,5.72727273 0.411764706,5.56363636 0.411764706,5.31818182 L0.411764706,0.818181818 C0.411764706,0.572727273 0.576470588,0.409090909 0.823529412,0.409090909 L5.35294118,0.409090909 C5.6,0.409090909 5.76470588,0.572727273 5.76470588,0.818181818 L5.76470588,5.31818182 C5.76470588,5.56363636 5.51764706,5.72727273 5.35294118,5.72727273 Z" stroke="#EC5B5F"></path>
                    </g>
                    <g transform="translate(0.000000, 7.363636)" id="Path">
                        <line x1="7.90588235" y1="1.88181818" x2="19.3529412" y2="1.88181818" stroke="#4453A3" stroke-width="1.3" stroke-linecap="round" stroke-linejoin="round"></line>
                        <line x1="7.90588235" y1="4.09090909" x2="14.2470588" y2="4.09090909" stroke="#4453A3" stroke-width="1.3" stroke-linecap="round" stroke-linejoin="round"></line>
                        <path d="M5.35294118,6.05454545 L0.823529412,6.05454545 C0.576470588,6.05454545 0.411764706,5.89090909 0.411764706,5.64545455 L0.411764706,1.14545455 C0.411764706,0.9 0.576470588,0.736363636 0.823529412,0.736363636 L5.35294118,0.736363636 C5.6,0.736363636 5.76470588,0.9 5.76470588,1.14545455 L5.76470588,5.64545455 C5.76470588,5.89090909 5.51764706,6.05454545 5.35294118,6.05454545 Z" stroke="#EC5B5F"></path>
                    </g>
                    <g transform="translate(0.000000, 15.545455)" id="Path">
                        <line x1="7.90588235" y1="1.47272727" x2="19.3529412" y2="1.47272727" stroke="#4453A3" stroke-width="1.3" stroke-linecap="round" stroke-linejoin="round"></line>
                        <line x1="7.90588235" y1="3.6" x2="14.2470588" y2="3.6" stroke="#4453A3" stroke-width="1.3" stroke-linecap="round" stroke-linejoin="round"></line>
                        <path d="M5.35294118,5.64545455 L0.823529412,5.64545455 C0.576470588,5.64545455 0.411764706,5.48181818 0.411764706,5.23636364 L0.411764706,0.818181818 C0.411764706,0.572727273 0.576470588,0.409090909 0.823529412,0.409090909 L5.35294118,0.409090909 C5.6,0.409090909 5.76470588,0.572727273 5.76470588,0.818181818 L5.76470588,5.31818182 C5.76470588,5.48181818 5.51764706,5.64545455 5.35294118,5.64545455 Z" stroke="#EC5B5F"></path>
                    </g>
                </g>
            </g>
        </g>
        <g id="Gaming" transform="translate(0.000000, 271.000000)">
            <rect id="Rectangle-Copy-4" x="0" y="0" width="44" height="35"></rect>
            <g transform="translate(5.000000, 4.000000)" id="Group">
                <g stroke-linecap="round" stroke-linejoin="round" stroke-width="1.3">
                    <path d="M26.605,26.240625 C23.885,26.240625 21.505,24.80625 20.23,22.359375 L19.975,21.853125 L14.11,21.853125 L13.855,22.359375 C12.58,24.721875 10.2,26.240625 7.48,26.240625 C3.485,26.240625 0.34,23.034375 0.34,19.153125 C0.34,15.1875 3.57,12.065625 7.48,12.065625 L26.605,12.065625 C30.6,12.065625 33.745,15.271875 33.745,19.153125 C33.745,23.034375 30.515,26.240625 26.605,26.240625 Z" id="Path" stroke="#4453A3"></path>
                    <g transform="translate(5.100000, 16.875000)" id="Path" stroke="#EC5B5F">
                        <line x1="2.295" y1="0.253125" x2="2.295" y2="4.3875"></line>
                        <line x1="4.335" y1="2.3625" x2="0.255" y2="2.3625"></line>
                    </g>
                    <line x1="14.28" y1="18.984375" x2="16.065" y2="18.984375" id="Path" stroke="#EC5B5F"></line>
                    <line x1="18.02" y1="18.984375" x2="19.805" y2="18.984375" id="Path" stroke="#EC5B5F"></line>
                    <path d="M17,12.065625 L17,9.61875 C17,8.775 17.68,8.015625 18.615,8.015625 L21.165,8.015625 C22.185,8.015625 23.035,7.171875 23.035,6.159375 L23.035,6.159375 C23.035,5.146875 22.185,4.303125 21.165,4.303125 L18.53,4.303125 C17.68,4.303125 16.915,3.628125 16.915,2.7 L16.915,0" id="Path" stroke="#4453A3"></path>
                </g>
                <g transform="translate(22.100000, 15.187500)" fill="#EC5B5F" fill-rule="nonzero">
                    <path d="M4.505,0.084375 C4.165,0.084375 3.91,0.16875 3.655,0.421875 C3.145,0.928125 3.145,1.6875 3.655,2.109375 C3.91,2.3625 4.165,2.446875 4.505,2.446875 C4.845,2.446875 5.1,2.3625 5.355,2.109375 C5.865,1.603125 5.865,0.84375 5.355,0.421875 C5.1,0.253125 4.845,0.084375 4.505,0.084375 Z" id="Path"></path>
                    <path d="M1.785,2.784375 C1.445,2.784375 1.19,2.86875 0.935,3.121875 C0.425,3.628125 0.425,4.3875 0.935,4.809375 C1.19,5.0625 1.445,5.146875 1.785,5.146875 C2.125,5.146875 2.38,5.0625 2.635,4.809375 C3.145,4.303125 3.145,3.54375 2.635,3.121875 C2.465,2.86875 2.125,2.784375 1.785,2.784375 Z" id="Path"></path>
                    <path d="M8.075,3.121875 C7.82,2.86875 7.565,2.784375 7.225,2.784375 C6.885,2.784375 6.63,2.86875 6.375,3.121875 C6.12,3.375 6.035,3.628125 6.035,3.965625 C6.035,4.303125 6.12,4.55625 6.375,4.809375 C6.63,5.0625 6.885,5.146875 7.225,5.146875 C7.565,5.146875 7.82,5.0625 8.075,4.809375 C8.5,4.3875 8.5,3.628125 8.075,3.121875 Z" id="Path"></path>
                    <path d="M4.505,5.484375 C4.165,5.484375 3.91,5.56875 3.655,5.821875 C3.145,6.328125 3.145,7.0875 3.655,7.509375 C3.91,7.7625 4.165,7.846875 4.505,7.846875 C4.845,7.846875 5.1,7.7625 5.355,7.509375 C5.865,7.003125 5.865,6.24375 5.355,5.821875 C5.1,5.56875 4.845,5.484375 4.505,5.484375 Z" id="Path"></path>
                </g>
            </g>
        </g>
        <g id="Facebook" transform="translate(159.000000, 181.000000)">
            <rect id="Rectangle-Copy-4" x="0" y="0" width="44" height="35"></rect>
            <g transform="translate(15.000000, 5.000000)" stroke-linecap="round" stroke-linejoin="round" stroke-width="1.3">
                <path d="M8.90135135,9.55087838 L8.90135135,6.71506757 C8.90135135,5.51912162 9.48716216,4.35425676 11.3648649,4.35425676 L13.2722973,4.35425676 L13.2722973,0.633310811 C13.2722973,0.633310811 11.5418919,0.337364865 9.88783784,0.337364865 C6.43445946,0.337364865 4.17702703,2.43128378 4.17702703,6.2197973 L4.17702703,9.55087838" id="Stroke-1" stroke="#4453A3"></path>
                <polyline id="Stroke-3" stroke="#EC5B5F" points="8.90135135 13.9216892 12.4243243 13.9216892 13.0945946 9.55074324 8.90135135 9.55074324"></polyline>
                <path d="M4.17689189,13.9216892 L4.17689189,24.4872297 C4.94648649,24.6075 5.73567568,24.6703378 6.53905405,24.6703378 C7.34310811,24.6703378 8.1322973,24.6075 8.90121622,24.4872297 L8.90121622,13.9216892" id="Stroke-5" stroke="#4453A3"></path>
                <polyline id="Stroke-7" stroke="#EC5B5F" points="4.17689189 9.55087838 0.337702703 9.55087838 0.337702703 13.9218243 4.17689189 13.9218243"></polyline>
            </g>
        </g>
        <g id="knowledge-base" transform="translate(212.000000, 271.000000)">
            <rect id="Rectangle-Copy-4" x="0" y="0" width="44" height="35"></rect>
            <g transform="translate(9.000000, 5.000000)">
                <polygon id="Stroke-1" stroke="#4350A9" stroke-linecap="round" stroke-linejoin="round" points="25.9972 23.6702 12.9222 25.2132 0.5002 23.6702 0.5002 3.0712 12.9222 4.6132 25.9972 3.0712"></polygon>
                <polygon id="Fill-3" fill="#FFFFFF" points="12.9807 4.6138 2.7887 0.4998 2.7887 21.0988 12.9807 25.2128 23.7077 21.0988 23.7077 0.4998"></polygon>
                <polygon id="Stroke-4" stroke="#FF4D5A" stroke-linecap="round" stroke-linejoin="round" points="23.7081 21.0989 12.9801 25.2129 2.7891 21.0989 2.7891 0.4999 12.9801 4.6139 23.7081 0.4999"></polygon>
                <line x1="12.9132" y1="4.5433" x2="12.9132" y2="17.6273" id="Stroke-6" stroke="#FF4D5A" stroke-linecap="round" stroke-linejoin="round"></line>
                <line x1="12.9132" y1="20.4075" x2="12.9132" y2="21.8795" id="Stroke-7" stroke="#FF4D5A" stroke-linecap="round" stroke-linejoin="round"></line>
            </g>
        </g>
        <g id="documentation" transform="translate(0.000000, 315.000000)">
            <rect id="Rectangle-Copy-4" x="0" y="0" width="44" height="35"></rect>
            <g transform="translate(11.000000, 4.000000)">
                <path d="M21.5617448,17.8380243 L21.5617448,23.6619973 C21.5617448,24.0910784 21.1998828,24.4391595 20.7545724,24.4391595 L3.39733103,24.4391595 C2.95126207,24.4391595 2.5894,24.0910784 2.5894,23.6619973 L2.5894,1.14107838 C2.5894,0.712727027 2.95126207,0.365375676 3.39733103,0.365375676 L13.8587103,0.365375676 L21.5617448,7.38683514 L21.5617448,17.8759703" id="Stroke-1" stroke="#4350A9" stroke-linecap="round" stroke-linejoin="round"></path>
                <g id="Group-6" transform="translate(0.000000, 2.119062)">
                    <path d="M19.3518069,17.8446649 L19.3518069,23.6693676 C19.3518069,24.0977189 18.9899448,24.4458 18.5446345,24.4458 L1.18663448,24.4458 C0.741324138,24.4458 0.379462069,24.0977189 0.379462069,23.6693676 L0.379462069,1.14844865 C0.379462069,0.719367568 0.741324138,0.372016216 1.18663448,0.372016216 L11.6487724,0.372016216 L19.3518069,7.39347568 L19.3518069,17.8826108" id="Fill-3" fill="#FFFFFF"></path>
                    <path d="M19.3518069,17.8446649 L19.3518069,23.6693676 C19.3518069,24.0977189 18.9899448,24.4458 18.5446345,24.4458 L1.18663448,24.4458 C0.741324138,24.4458 0.379462069,24.0977189 0.379462069,23.6693676 L0.379462069,1.14844865 C0.379462069,0.719367568 0.741324138,0.372016216 1.18663448,0.372016216 L11.6487724,0.372016216 L19.3518069,7.39347568 L19.3518069,17.8826108" id="Stroke-5" stroke="#4350A9" stroke-linecap="round" stroke-linejoin="round"></path>
                </g>
                <path d="M19.3518069,9.83588108 L12.4893241,9.83588108 C12.0432552,9.83588108 11.6821517,9.4878 11.6821517,9.06017838 L11.6821517,2.59185405" id="Stroke-7" stroke="#4350A9" stroke-linecap="round" stroke-linejoin="round"></path>
                <line x1="3.49777241" y1="15.3466541" x2="14.8346" y2="15.3466541" id="Stroke-9" stroke="#FF4D5A" stroke-linecap="round" stroke-linejoin="round"></line>
                <line x1="3.49777241" y1="12.0884838" x2="14.8346" y2="12.0884838" id="Stroke-11" stroke="#FF4D5A" stroke-linecap="round" stroke-linejoin="round"></line>
                <line x1="3.49777241" y1="8.36576757" x2="9.1328069" y2="8.36576757" id="Stroke-13" stroke="#FF4D5A" stroke-linecap="round" stroke-linejoin="round"></line>
                <line x1="3.49777241" y1="18.9953027" x2="14.8346" y2="18.9953027" id="Stroke-15" stroke="#FF4D5A" stroke-linecap="round" stroke-linejoin="round"></line>
                <line x1="3.49777241" y1="22.1786027" x2="14.8346" y2="22.1786027" id="Stroke-17" stroke="#FF4D5A" stroke-linecap="round" stroke-linejoin="round"></line>
            </g>
        </g>
        <g id="Google-Ads" transform="translate(53.000000, 315.000000)">
            <rect id="Rectangle-Copy-4" x="0" y="0" width="44" height="35"></rect>
            <g id="Group-9" transform="translate(9.000000, 6.000000)" stroke-linecap="round" stroke-linejoin="round" stroke-width="1.3">
                <path d="M8.9385,3.0219 C8.8431,3.4029 8.7585,3.7839 8.7375,4.1853 C8.7057,5.0739 8.9277,5.8995 9.3723,6.6717 L12.8523,12.6909 C12.9585,12.8709 13.0431,13.0503 13.1487,13.2201 L11.2341,16.5093 L8.5575,21.1221 C8.5155,21.1221 8.5047,21.1005 8.4945,21.0693 C8.4837,20.9841 8.5155,20.9103 8.5365,20.8251 C8.9703,19.2387 8.6109,17.8317 7.5213,16.6257 C6.8547,15.8961 6.0081,15.4833 5.0349,15.3459 C3.7659,15.1665 2.6445,15.4941 1.6395,16.2873 C1.4595,16.4247 1.3431,16.6257 1.1319,16.7313 C1.0893,16.7313 1.0683,16.7103 1.0575,16.6785 L2.5701,14.0451 L8.8647,3.1383 C8.8857,3.0963 8.9175,3.0645 8.9385,3.0219" id="Fill-4" stroke="#EC5B5F"></path>
                <path d="M8.9385,3.0219 C9.1923,2.3553 9.5415,1.7421 10.0599,1.2447 C12.1335,-0.7761 15.5607,-0.2679 16.9677,2.2713 C18.0255,4.1961 19.1469,6.0789 20.2365,7.9833 L25.6947,17.4825 C27.2079,20.1381 25.5681,23.4915 22.5639,23.9463 C20.7231,24.2217 18.9987,23.3745 18.0465,21.7245 L13.2441,13.3887 C13.2123,13.3251 13.1697,13.2723 13.1277,13.2201 C12.9585,13.0821 12.8847,12.8811 12.7785,12.7011 L9.2451,6.5763 C8.8329,5.8569 8.6421,5.0739 8.6637,4.2489 C8.6955,3.8259 8.7483,3.4029 8.9385,3.0219" id="Fill-1" stroke="#4453A3"></path>
                <path d="M1.0998,16.71024 L1.7028,16.17144 C4.2738,14.13984 8.1348,15.61044 8.6952,18.82584 C8.8326,19.59804 8.7588,20.33904 8.526,21.07944 C8.5152,21.14304 8.505,21.19584 8.484,21.25944 C8.3886,21.42804 8.304,21.60804 8.1984,21.77724 C7.2564,23.33244 5.871,24.10464 4.0512,23.98824 C1.9674,23.84064 0.3276,22.27464 0.042,20.20104 C-0.0954,19.19664 0.1056,18.25464 0.624,17.38764 C0.7296,17.19744 0.8568,17.02764 0.9732,16.83744 C1.026,16.79544 1.0044,16.71024 1.0998,16.71024" id="Fill-6" stroke="#4453A3"></path>
            </g>
        </g>
    </g>
</svg>