<svg width="58" height="40" viewBox="0 0 58 40" fill="none" xmlns="http://www.w3.org/2000/svg">
<path d="M57.3841 15.2651L46.7659 1.02062C46.3678 0.491584 45.7783 0.139557 45.1237 0.039996C44.4692 -0.0595649 43.8017 0.101265 43.2643 0.488009L40.3292 2.59579C39.7853 2.99241 39.4227 3.57035 39.3207 4.23895C39.264 4.62424 39.2867 4.99821 39.4 5.36083C38.2668 5.68947 36.4763 6.07476 34.4025 5.95011C32.544 5.84812 30.7309 5.99543 29.0198 6.39206C27.2859 5.99543 25.4841 5.83679 23.6256 5.95011C21.5632 6.06343 19.7614 5.67813 18.6282 5.36083C18.7415 4.99821 18.7642 4.61291 18.7075 4.22762C18.6055 3.55902 18.2429 2.98108 17.6989 2.58446L14.7639 0.476675C13.6534 -0.327907 12.0782 -0.089931 11.2623 1.00929L0.644049 15.2538C0.236092 15.7977 0.0774418 16.455 0.179431 17.1236C0.28142 17.7809 0.632717 18.3588 1.18799 18.7554L4.11169 20.8632C4.56497 21.1919 5.07492 21.3392 5.5962 21.3392C6.36679 21.3392 7.12604 20.9879 7.62465 20.3306L7.73797 20.172C8.63321 21.8151 9.84576 23.5489 11.3643 25.3734C11.0016 25.838 10.7977 26.3253 10.7637 26.8353C10.6617 28.2178 11.2056 29.623 12.2482 30.5975C13.0641 31.3681 14.1066 31.7761 15.1832 31.7761C15.2739 31.7761 15.3645 31.7647 15.4552 31.7534C15.6591 32.694 16.1464 33.5779 16.8604 34.2465C17.6989 35.0397 18.7755 35.4704 19.886 35.4704H19.9314C20.158 36.3316 20.6113 37.1362 21.2799 37.7481C22.0634 38.4818 23.0962 38.8909 24.1696 38.8927C24.3622 38.8927 24.5549 38.8813 24.7589 38.8473C25.5181 38.7453 26.3227 38.3374 27.1726 37.6915C30.017 38.7567 32.2721 39.2893 34.0286 39.2893C35.0371 39.2893 35.887 39.1193 36.601 38.768C38.0401 38.0654 38.6068 36.7962 38.9354 35.731C39.366 35.7763 39.774 35.8103 40.1593 35.8103C41.1565 35.8103 41.9837 35.6403 42.6863 35.3117C44.2162 34.5751 44.7941 33.2153 45.1227 32.116C45.2474 31.6741 45.2814 31.2208 45.2474 30.7675H45.4514C46.4486 30.7675 47.2758 30.5975 47.9784 30.2689C49.5083 29.5323 50.0862 28.1725 50.4035 27.0619C51.0041 24.9994 49.6443 23.1976 48.817 22.3364C49.0097 21.7358 49.429 20.7612 50.1769 19.9793L50.4262 20.3079C50.9248 20.9652 51.6841 21.3165 52.4546 21.3165C52.9759 21.3165 53.4859 21.1692 53.9391 20.8406L56.8628 18.7328C57.4181 18.3361 57.7694 17.7582 57.8714 17.1009C57.9734 16.4323 57.8147 15.7751 57.4068 15.2311L57.3841 15.2651ZM34.2552 8.22787C37.0996 8.38652 39.468 7.75192 40.6919 7.34396L48.7717 18.1662C47.5592 19.2994 46.9245 20.7386 46.6186 21.6451C44.0122 21.6905 41.9044 20.0133 39.536 18.1095C35.7964 15.1178 31.1502 11.3895 23.0477 14.8005C20.9739 15.6731 19.6027 15.2085 18.7528 13.3613C18.7528 13.35 18.7302 13.3047 18.7528 13.2367C18.7642 13.2027 18.8095 13.1347 18.9001 13.1007C20.9966 12.3414 23.2517 11.4689 25.4728 10.1883C28.0225 8.72648 31.0595 8.04655 34.2552 8.22787ZM13.778 28.943C13.2454 28.4444 12.9508 27.7078 13.0074 27.0166C13.0188 26.8239 13.5627 26.0533 15.7498 25.1014C16.4864 24.7728 17.3703 24.9881 17.8803 25.6114C18.2315 26.0533 18.3335 26.6313 18.1862 27.1639C16.883 27.8778 16.0331 28.6371 15.6138 29.4303C15.5458 29.453 15.4778 29.487 15.4212 29.4983C14.6053 29.6116 14.0386 29.2037 13.7667 28.9544L13.778 28.943ZM17.5969 30.5862C17.5969 30.3936 18.0162 29.7703 19.6367 28.9544C19.6594 28.9317 19.6821 28.9204 19.7161 28.909C19.9314 28.7957 20.1807 28.6824 20.4526 28.5577C20.702 28.4558 20.9626 28.3991 21.2232 28.3991C21.7898 28.3991 22.3451 28.6484 22.7191 29.113C23.3083 29.8383 23.2517 30.8922 22.5944 31.5608C21.6199 32.5353 20.9399 32.932 20.5093 33.0906H20.4866C20.4753 33.0906 20.4526 33.1019 20.4413 33.1133C20.43 33.1133 20.4073 33.1246 20.396 33.1246C20.294 33.1586 20.2147 33.1699 20.1467 33.1813C19.2968 33.3059 18.6848 32.864 18.3902 32.6033C17.8463 32.082 17.529 31.3001 17.5969 30.5749V30.5862ZM24.4302 36.6149C23.841 36.6942 23.2517 36.5129 22.7984 36.0823C22.4358 35.7537 22.1865 35.3117 22.0845 34.8471C22.7644 34.4618 23.4783 33.8952 24.2149 33.1473C24.5096 32.8526 24.7589 32.5127 24.9402 32.1614C25.2841 32.0544 25.652 32.0522 25.9971 32.1551C26.3422 32.258 26.6489 32.4614 26.878 32.7393C27.4333 33.4192 27.3879 34.4051 26.7533 35.0397C25.8467 35.9576 25.0082 36.5243 24.4302 36.6036V36.6149ZM48.1824 26.45C47.8878 27.4585 47.5478 27.9571 46.9585 28.2404C45.916 28.7391 43.4342 28.8184 37.5642 26.3593C36.9863 26.11 36.3177 26.3933 36.0797 26.9712C35.8417 27.5492 36.1137 28.2178 36.6916 28.4558C39.1054 29.4643 41.1452 30.1329 42.8676 30.4955C42.9923 30.8582 43.015 31.1868 42.9243 31.4928C42.6297 32.5013 42.2784 33 41.7004 33.2833C40.6579 33.7819 38.1761 33.8612 32.2947 31.4021C31.7168 31.1641 31.0482 31.4361 30.8102 32.0141C30.5723 32.592 30.8442 33.2606 31.4222 33.4986C33.4166 34.3371 35.1618 34.9377 36.669 35.323C36.397 36.0823 36.0797 36.5129 35.5811 36.7509C34.7425 37.1589 32.9067 37.3062 28.9291 35.935C29.8243 34.5071 29.7563 32.66 28.6458 31.3001C28.2498 30.8245 27.7519 30.4441 27.1889 30.1871C26.6259 29.9301 26.0122 29.8031 25.3935 29.8156C25.3028 29.0564 25.0082 28.3311 24.4982 27.6965C24.0258 27.1162 23.407 26.6727 22.7057 26.4117C22.0044 26.1507 21.2462 26.0817 20.5093 26.212C20.4186 25.4867 20.124 24.7841 19.6481 24.1949C18.4809 22.7784 16.4977 22.3024 14.8432 23.039C14.1746 23.3336 13.5967 23.6283 13.0981 23.9342C11.3869 21.8944 10.0724 19.9113 9.25648 18.1662L17.325 7.35529C18.5375 7.77458 20.9173 8.39785 23.7616 8.2392C23.9543 8.22787 24.1583 8.21653 24.3509 8.22787H24.3622C22.2885 9.41774 20.1467 10.2563 18.1409 10.9703C17.4836 11.2082 16.9397 11.7182 16.679 12.3641C16.4184 12.9874 16.4297 13.7013 16.713 14.3246C18.0729 17.2709 20.7813 18.2342 23.9429 16.9083C30.7989 14.0299 34.3685 16.8743 38.1421 19.9C40.6239 21.8831 43.1849 23.9342 46.5732 23.9342C46.7432 23.9342 46.9359 23.9116 47.1059 23.9002C47.5931 24.3988 48.4997 25.4754 48.2051 26.4726L48.1824 26.45Z" fill="#224EFF"/>
</svg>
