<svg width="52" height="44" viewBox="0 0 52 44" fill="none" xmlns="http://www.w3.org/2000/svg">
<g clip-path="url(#clip0_107_379)">
<path d="M51.1332 38.1327H48.5334V30.3327C48.5334 29.8543 48.145 29.4663 47.6665 29.4663H40.7333C40.5035 29.4663 40.2832 29.5576 40.1207 29.7201C39.9582 29.8826 39.867 30.1029 39.8669 30.3327V38.1327H36.3998V14.7331C36.3998 14.2546 36.0118 13.8662 35.5335 13.8662H28.6002C28.1217 13.8662 27.7333 14.2546 27.7333 14.7331V38.1327H24.2667V25.1327C24.2667 24.6542 23.8783 24.2663 23.3998 24.2663H16.4666C16.2369 24.2663 16.0165 24.3576 15.854 24.52C15.6916 24.6825 15.6003 24.9028 15.6002 25.1326V38.1326H12.1332V9.5331C12.1332 9.05474 11.7452 8.66626 11.2667 8.66626H4.33347C3.85501 8.66626 3.46663 9.05463 3.46663 9.5331V38.1329H0.866836C0.388477 38.1329 0 38.5213 0 38.9997C0 39.4782 0.388375 39.8662 0.866836 39.8662H51.1332C51.6115 39.8662 52 39.4782 52 38.9998C52 38.5213 51.6116 38.1329 51.1332 38.1329V38.1327Z" fill="#224EFF"/>
<path d="M19.2805 15.3039C19.6098 15.68 20.2556 15.68 20.585 15.3039L32.077 2.17046L46.5798 18.2003H43.3321C42.8541 18.2003 42.4657 18.5886 42.4657 19.0671C42.4657 19.5452 42.8541 19.9336 43.3321 19.9336H48.217C48.5567 19.9336 48.886 19.9344 49.1451 19.6673C49.4156 19.3893 49.3981 19.0271 49.3981 18.6716V13.8668C49.3981 13.3887 49.0098 13.0004 48.5313 13.0004C48.0533 13.0004 47.6648 13.3887 47.6648 13.8668V16.8172L32.7071 0.285765C32.5416 0.102952 32.3135 0.0307413 32.0573 0.000577287C31.9349 0.00138191 31.8142 0.028143 31.703 0.0790911C31.5918 0.130039 31.4926 0.204014 31.4121 0.296124L19.9307 13.4175L8.44987 0.296023C8.13441 -0.0638133 7.58659 -0.101087 7.22706 0.214366C7.054 0.36567 6.94809 0.579499 6.93263 0.808854C6.91717 1.03821 6.9934 1.26432 7.14459 1.43748L19.2805 15.3039Z" fill="#224EFF"/>
</g>
<defs>
<clipPath id="clip0_107_379">
<rect width="52" height="44" fill="white"/>
</clipPath>
</defs>
</svg>
