<?xml version="1.0" encoding="utf-8"?>
<!-- Generator: Adobe Illustrator 27.0.1, SVG Export Plug-In . SVG Version: 6.00 Build 0)  -->
<svg version="1.1" id="Layer_1" xmlns="http://www.w3.org/2000/svg" xmlns:xlink="http://www.w3.org/1999/xlink" x="0px" y="0px"
	 viewBox="0 0 37 43" style="enable-background:new 0 0 37 43;" xml:space="preserve">
<style type="text/css">
	.st0{fill:#224EFF;}
</style>
<path class="st0" d="M36.6,28.7c-0.1-0.2-0.1-0.4-0.2-0.6c-0.3-1.2-0.6-2.3-1-3.4c-1.1-2.4-3-4.6-5.6-5.5c-0.3-0.1-0.6-0.2-0.9-0.3
	c1.7-3.5,2.2-6.3,1.3-10.1c-1-3.2-2.9-5.5-5.8-7.3c-3.3-1.7-7.1-2.1-10.6-0.7c-3.3,1.7-5.5,3.8-7,7.2c-1.2,3.6-0.7,6.6,0.8,10
	c0.2,0.4,0.2,0.4,0.4,0.8c-1,0.3-1.8,0.6-2.7,1.1c-2.9,2.5-4.3,5.3-5.1,9.1c-0.5,3.1-0.7,7.1,1.2,9.8c0.3,0.3,0.5,0.5,0.7,0.8
	c0.3,0.3,0.5,0.6,0.8,0.9c2.6,2.3,4.9,2.4,8.2,2.4c0.5,0,1,0,1.5,0c1.1,0,2.1,0,3.2,0c1.4,0,2.7,0,4.1,0c1.1,0,2.2,0,3.2,0
	c0.5,0,1,0,1.6,0c1.8,0,3.6,0,5.4-0.2c2.2-0.8,3.8-1.7,5.1-3.7C37.1,36.1,37.3,32,36.6,28.7z M9,9.9c0.5-2.5,1.8-4.1,3.9-5.5
	c2.6-1.6,6.5-2,9.3-0.7c0.6,0.4,0.6,0.4,1.2,0.8c0.4,0.2,0.7,0.5,1.1,0.7c2.1,2.1,2.9,4,2.9,7c0,2.3-0.3,4.2-1.9,6
	c-2.7,2.5-4.6,3.3-8.3,3.2c-2.5-0.2-4.2-1-6.1-2.8C8.9,15.8,8.6,13.4,9,9.9z M32.5,38.3c-2.3,1.8-4.9,1.6-7.7,1.6c-0.5,0-1,0-1.6,0
	c-1.1,0-2.2,0-3.2,0c-1.4,0-2.8,0-4.1,0c-1.1,0-2.1,0-3.2,0c-0.5,0-1,0-1.5,0C6.7,40,6.7,40,4.8,38.5c-1.8-1.8-1.9-3.4-1.9-5.9
	c0-0.3,0-0.5,0-0.8c0-1.9,0.3-3.6,1.1-5.3c0.1-0.2,0.2-0.5,0.3-0.7c0.9-2,2-3.1,4-4.1c1.1-0.3,1.5-0.2,2.6,0.1
	c0.5,0.3,0.9,0.5,1.3,0.8c2.7,1.7,5.5,1.9,8.7,1.5c1.8-0.5,3.4-1.1,4.9-2.3c0.7-0.4,0.7-0.4,2-0.3c1.9,0.6,3.3,1.8,4.5,3.3
	c1.2,2.6,1.6,5.1,1.6,7.9c0,0.3,0,0.6,0,0.9C34,35.6,33.9,36.8,32.5,38.3z"/>
</svg>
