<svg width="18" height="18" viewBox="0 0 18 18" fill="none" xmlns="http://www.w3.org/2000/svg">
<path d="M11.2669 7.92214C11.2669 7.78788 11.2136 7.65911 11.1187 7.56417C11.0237 7.46923 10.895 7.41589 10.7607 7.41589H5.19195C5.05768 7.41589 4.92891 7.46923 4.83397 7.56417C4.73903 7.65911 4.6857 7.78788 4.6857 7.92214C4.6857 8.05641 4.73903 8.18518 4.83397 8.28012C4.92891 8.37506 5.05768 8.42839 5.19195 8.42839H10.7607C10.8272 8.42839 10.893 8.4153 10.9544 8.38986C11.0158 8.36442 11.0717 8.32713 11.1187 8.28012C11.1657 8.23311 11.203 8.1773 11.2284 8.11588C11.2538 8.05446 11.2669 7.98863 11.2669 7.92214ZM5.19082 9.97246C5.05655 9.97246 4.92779 10.0258 4.83285 10.1207C4.73791 10.2157 4.68457 10.3444 4.68457 10.4787C4.68457 10.613 4.73791 10.7417 4.83285 10.8367C4.92779 10.9316 5.05655 10.985 5.19082 10.985H8.14338C8.27765 10.985 8.40641 10.9316 8.50136 10.8367C8.5963 10.7417 8.64963 10.613 8.64963 10.4787C8.64963 10.3444 8.5963 10.2157 8.50136 10.1207C8.40641 10.0258 8.27765 9.97246 8.14338 9.97246H5.19082Z" fill="#0051FA"/>
<path d="M14.6025 7.95037C14.4683 7.95037 14.3395 8.0037 14.2446 8.09864C14.1496 8.19358 14.0963 8.32235 14.0963 8.45662V12.5511C14.0958 12.9194 13.9493 13.2725 13.6888 13.533C13.4284 13.7935 13.0752 13.94 12.7069 13.9404H9.32065C9.21083 13.9403 9.10397 13.9761 9.01634 14.0422L6.09246 16.2411C6.06749 16.2611 6.03704 16.2731 6.00512 16.2755C5.97319 16.2779 5.94128 16.2706 5.91359 16.2546C5.88496 16.2409 5.861 16.2191 5.84469 16.1919C5.82839 16.1647 5.82046 16.1332 5.8219 16.1016L5.87815 14.4647C5.88033 14.3968 5.86888 14.3292 5.84446 14.2659C5.82005 14.2026 5.78318 14.1448 5.73602 14.0959C5.68887 14.0471 5.6324 14.0082 5.56995 13.9816C5.5075 13.955 5.44034 13.9412 5.37246 13.941H3.02065C2.65226 13.9407 2.29904 13.7942 2.03854 13.5337C1.77805 13.2732 1.63157 12.92 1.63127 12.5516V5.85786C1.63098 5.48882 1.7771 5.13473 2.03758 4.87331C2.29805 4.61188 2.65161 4.46447 3.02065 4.46343H9.25877C9.39304 4.46343 9.52181 4.41009 9.61675 4.31515C9.71169 4.22021 9.76502 4.09144 9.76502 3.95718C9.76502 3.82291 9.71169 3.69415 9.61675 3.5992C9.52181 3.50426 9.39304 3.45093 9.25877 3.45093H3.02065C2.38312 3.45242 1.7722 3.70672 1.32192 4.15805C0.871647 4.60939 0.618773 5.22089 0.618774 5.85843V12.5516C0.619518 13.1885 0.872793 13.799 1.32306 14.2494C1.77332 14.6997 2.38381 14.9532 3.02065 14.9541H4.84821L4.80996 16.0689C4.8022 16.2916 4.85796 16.5118 4.97071 16.704C5.08346 16.8961 5.24856 17.0522 5.44671 17.154C5.61541 17.2424 5.80299 17.2887 5.99346 17.289C6.24265 17.289 6.48959 17.2086 6.69996 17.0516L9.4894 14.9541H12.7063C13.3432 14.9532 13.9537 14.6997 14.4039 14.2494C14.8542 13.799 15.1075 13.1885 15.1082 12.5516V8.45718C15.1084 8.39068 15.0954 8.3248 15.07 8.26331C15.0447 8.20183 15.0075 8.14595 14.9605 8.09888C14.9135 8.0518 14.8577 8.01445 14.7963 7.98897C14.7349 7.96348 14.669 7.95037 14.6025 7.95037Z" fill="#0051FA"/>
<path d="M17.3391 3.12801C17.2949 2.9905 17.2162 2.86661 17.1106 2.76814C17.0049 2.66967 16.8758 2.59991 16.7355 2.56551L15.4418 2.2432L14.7353 1.11257C14.422 0.609699 13.6041 0.610824 13.2913 1.11257L12.5848 2.2432L11.2911 2.56551C11.0048 2.63639 10.7787 2.84676 10.6875 3.12801C10.5964 3.40926 10.6549 3.71245 10.845 3.93914L11.7023 4.95951L11.6089 6.28926C11.5983 6.43337 11.6248 6.57778 11.6859 6.70874C11.7469 6.8397 11.8405 6.95285 11.9577 7.03739C12.0744 7.12264 12.2109 7.17664 12.3543 7.19427C12.4978 7.21189 12.6434 7.19255 12.7772 7.13807L14.0136 6.63857L15.2494 7.13807C15.5233 7.24945 15.8293 7.2112 16.069 7.03795C16.308 6.86414 16.4385 6.58457 16.4183 6.28926L16.3249 4.95951L17.1822 3.93857C17.3717 3.71245 17.4308 3.40926 17.3391 3.12801ZM15.4176 4.46507C15.333 4.56583 15.2911 4.69557 15.3006 4.82676L15.3906 6.10364L14.2037 5.62382C14.0822 5.57442 13.9461 5.57442 13.8246 5.62382L12.6383 6.10364L12.7277 4.82676C12.7366 4.69565 12.6947 4.56615 12.6107 4.46507L11.7878 3.4852L13.0298 3.17526C13.157 3.1435 13.2668 3.06365 13.3363 2.95251L14.0147 1.86745L14.6931 2.95251C14.7628 3.06389 14.8725 3.14376 14.9997 3.17526L16.2417 3.4852L15.4176 4.46507Z" fill="#0051FA"/>
</svg>
