<svg width="44" height="44" viewBox="0 0 44 44" fill="none" xmlns="http://www.w3.org/2000/svg">
<path d="M43.9483 16.9755C43.7899 16.4905 43.3137 16.1863 42.521 16.063L29.246 14.1329L23.2965 2.10066C22.926 1.37783 22.4943 1.0166 22.0008 1.0166C21.4896 1.0166 21.0576 1.37783 20.7051 2.10066L14.755 14.1329L1.47985 16.063C0.686631 16.1864 0.210549 16.4905 0.0520711 16.9755C-0.106222 17.4604 0.0963448 17.9849 0.660326 18.549L10.2861 27.9102L8.01191 41.1321C7.92391 41.7143 7.97662 42.167 8.17075 42.4938C8.36452 42.8202 8.66443 42.9832 9.06985 42.9832C9.36967 42.9832 9.72219 42.8776 10.1276 42.6652L22.0013 36.4241L33.8747 42.6652C34.2801 42.8769 34.6329 42.9832 34.9327 42.9832C35.3385 42.9832 35.6387 42.8202 35.832 42.4938C36.0254 42.167 36.0782 41.7143 35.9902 41.1321L33.7162 27.9102L43.3147 18.549C43.8967 17.9849 44.1081 17.4604 43.9483 16.9755ZM31.3618 25.4772L30.066 26.7203L30.3837 28.4656L31.9701 37.8536L23.5613 33.4109L22.0008 32.5907V7.12509L26.2054 15.6402L26.9981 17.2266L28.7441 17.4912L38.1585 18.8661L31.3618 25.4772Z" fill="#224EFF"/>
</svg>
