<svg width="12" height="15" viewBox="0 0 12 15" fill="none" xmlns="http://www.w3.org/2000/svg">
<path d="M6.08634 7.14514C7.01049 7.14514 7.81064 6.81366 8.46463 6.15967C9.11839 5.50582 9.44996 4.70578 9.44996 3.78152C9.44996 2.85753 9.1185 2.0574 8.46452 1.40331C7.81053 0.749543 7.01038 0.418091 6.08634 0.418091C5.16205 0.418091 4.36198 0.749543 3.70813 1.40342C3.05428 2.0573 2.72269 2.85745 2.72269 3.78152C2.72269 4.70578 3.05425 5.50593 3.70816 6.15981C4.36223 6.81357 5.16238 7.14514 6.08631 7.14514H6.08634ZM4.28689 1.98207C4.7886 1.48034 5.37717 1.23647 6.08634 1.23647C6.79539 1.23647 7.38405 1.48034 7.88587 1.98207C8.3876 2.48388 8.63158 3.07255 8.63158 3.78149C8.63158 4.49065 8.3876 5.07923 7.88587 5.58105C7.38405 6.08289 6.79539 6.32676 6.08634 6.32676C5.37737 6.32676 4.78884 6.08278 4.28689 5.58105C3.78505 5.07934 3.54107 4.49068 3.54107 3.78152C3.54107 3.07255 3.78505 2.48388 4.28689 1.98207ZM11.9718 11.1565C11.9529 10.8844 11.9148 10.5876 11.8586 10.2742C11.8019 9.95833 11.729 9.6598 11.6416 9.38694C11.5512 9.10491 11.4286 8.82643 11.2768 8.55951C11.1194 8.2825 10.9345 8.04127 10.7269 7.84279C10.5099 7.63514 10.2441 7.46819 9.93685 7.34637C9.63066 7.22527 9.2913 7.1639 8.92831 7.1639C8.78574 7.1639 8.64789 7.22238 8.38163 7.39574C8.19236 7.51899 8.00253 7.64137 7.81214 7.76287C7.62921 7.87945 7.38138 7.98866 7.07527 8.08753C6.77663 8.18417 6.47341 8.23318 6.174 8.23318C5.87484 8.23318 5.57159 8.18417 5.27274 8.08753C4.96698 7.98874 4.71904 7.87956 4.53641 7.76298C4.32448 7.62756 4.13273 7.50397 3.9664 7.39561C3.70036 7.22227 3.56248 7.16376 3.41994 7.16376C3.05682 7.16376 2.71759 7.22524 2.41148 7.34651C2.10441 7.46808 1.83858 7.63503 1.62133 7.8429C1.4138 8.04149 1.22884 8.28258 1.07157 8.55951C0.919972 8.8264 0.797232 9.1048 0.706868 9.38705C0.619587 9.65991 0.546625 9.95833 0.489946 10.2742C0.433677 10.5872 0.395654 10.8841 0.37678 11.1569C0.358232 11.4235 0.348877 11.7011 0.348877 11.9815C0.348877 12.7105 0.58061 13.3006 1.03758 13.7359C1.48891 14.1654 2.086 14.3832 2.81229 14.3832H9.53658C10.2627 14.3832 10.8597 14.1654 11.3112 13.7359C11.7683 13.301 12 12.7106 12 11.9814C11.9999 11.7 11.9904 11.4225 11.9718 11.1565ZM10.7469 13.143C10.4487 13.4268 10.0528 13.5648 9.53645 13.5648H2.81232C2.29591 13.5648 1.89998 13.4268 1.60186 13.1431C1.30941 12.8647 1.16728 12.4846 1.16728 11.9815C1.16728 11.7198 1.1759 11.4615 1.19319 11.2134C1.20999 10.9701 1.24441 10.7028 1.29547 10.4187C1.34585 10.1382 1.40998 9.87492 1.48627 9.63659C1.55947 9.40802 1.6593 9.18174 1.78311 8.96376C1.90126 8.75597 2.0372 8.57773 2.18722 8.43412C2.32755 8.29976 2.50443 8.18982 2.71282 8.10736C2.90555 8.03105 3.12217 7.98929 3.35731 7.98299C3.38595 7.99826 3.43701 8.02734 3.51968 8.08123C3.68792 8.19088 3.88182 8.31597 4.09621 8.45286C4.33787 8.60694 4.64916 8.74607 5.02112 8.86614C5.40137 8.9891 5.7892 9.05153 6.17414 9.05153C6.55911 9.05153 6.94702 8.9891 7.32708 8.86625C7.69933 8.74596 8.01055 8.60694 8.25253 8.45264C8.47191 8.31245 8.66038 8.19099 8.82859 8.08123C8.91129 8.02742 8.96233 7.99823 8.99099 7.98301C9.22624 7.98929 9.44284 8.03104 9.63568 8.10733C9.84398 8.18982 10.0209 8.29987 10.1612 8.4341C10.3112 8.57762 10.4471 8.75589 10.5653 8.96387C10.6892 9.18174 10.7892 9.40816 10.8622 9.63648C10.9386 9.87514 11.0029 10.1383 11.0532 10.4186C11.1041 10.7032 11.1386 10.9706 11.1554 11.2136V11.2138C11.1728 11.4608 11.1815 11.7191 11.1817 11.9815C11.1815 12.4848 11.0394 12.8647 10.747 13.143H10.7469Z" fill="#0051FA"/>
</svg>
