<svg width="21" height="27" viewBox="0 0 21 27" fill="none" xmlns="http://www.w3.org/2000/svg">
<g id="Group">
<path id="flag-star" d="M0.878845 5.32701V17.5345C0.878845 18.5 1.2968 19.4183 2.02506 20.0502L8.66979 25.8213C9.27376 26.346 10.0463 26.6349 10.8456 26.6349C11.6449 26.6349 12.4175 26.346 13.0214 25.8213L19.6662 20.0502C20.026 19.7377 20.3145 19.3513 20.5123 18.9173C20.7101 18.4832 20.8124 18.0117 20.8124 17.5345V4.66113H0.878845V5.32701ZM10.8459 7.32397C14.5158 7.32397 17.4907 10.3051 17.4907 13.9827C17.4907 17.6604 14.5158 20.6415 10.8459 20.6415C7.17606 20.6415 4.20121 17.6604 4.20121 13.9827C4.20121 10.3051 7.17606 7.32397 10.8459 7.32397ZM7.24981 13.1444C7.19291 13.1031 7.15052 13.0448 7.12876 12.9779C7.10699 12.9109 7.10696 12.8388 7.12866 12.7718C7.15037 12.7049 7.1927 12.6465 7.24957 12.6052C7.30643 12.5639 7.37491 12.5417 7.44517 12.5418H9.56085C9.63102 12.5419 9.69942 12.5197 9.75624 12.4784C9.81306 12.4371 9.85538 12.3789 9.87714 12.312L10.531 10.2958C10.5527 10.2289 10.5949 10.1707 10.6517 10.1293C10.7084 10.088 10.7768 10.0658 10.8469 10.0658C10.9171 10.0658 10.9854 10.088 11.0422 10.1293C11.099 10.1707 11.1412 10.2289 11.1629 10.2958L11.8167 12.312C11.8385 12.3789 11.8808 12.4371 11.9376 12.4784C11.9944 12.5197 12.0628 12.5419 12.133 12.5418H14.2487C14.319 12.5417 14.3874 12.5639 14.4443 12.6052C14.5012 12.6465 14.5435 12.7049 14.5652 12.7718C14.5869 12.8388 14.5869 12.9109 14.5651 12.9779C14.5433 13.0448 14.501 13.1031 14.4441 13.1444L12.733 14.3902C12.6762 14.4315 12.6339 14.4898 12.6122 14.5567C12.5905 14.6235 12.5905 14.6956 12.6121 14.7625L13.266 16.7787C13.2876 16.8456 13.2875 16.9175 13.2658 16.9843C13.2441 17.0511 13.2019 17.1093 13.1452 17.1506C13.0885 17.1919 13.0202 17.2142 12.9502 17.2143C12.8801 17.2143 12.8117 17.1922 12.755 17.151L11.0433 15.9051C10.9865 15.8638 10.9181 15.8416 10.8479 15.8416C10.7778 15.8416 10.7094 15.8638 10.6526 15.9051L8.9409 17.151C8.88413 17.1922 8.81581 17.2143 8.74571 17.2143C8.67561 17.2142 8.60733 17.1919 8.55063 17.1506C8.49393 17.1093 8.45172 17.0511 8.43004 16.9843C8.40836 16.9175 8.40831 16.8456 8.42992 16.7787L9.08376 14.7625C9.10551 14.6956 9.10553 14.6235 9.0838 14.5566C9.06206 14.4897 9.01971 14.4315 8.96282 14.3902L7.2518 13.1444H7.24981ZM20.813 1.33175V3.32938H0.878845V1.33175C0.878845 0.978549 1.01886 0.639813 1.26808 0.390061C1.51731 0.140309 1.85533 0 2.20779 0H19.4841C19.8365 0 20.1746 0.140309 20.4238 0.390061C20.673 0.639813 20.813 0.978549 20.813 1.33175Z" fill="#49AECF"/>
</g>
</svg>
