<svg width="18" height="26" viewBox="0 0 18 26" fill="none" xmlns="http://www.w3.org/2000/svg">
<g id="Group">
<g id="Group_2">
<path id="Vector" fill-rule="evenodd" clip-rule="evenodd" d="M10.2171 0.499512C10.7677 0.499998 11.2956 0.719596 11.6848 1.11003L17.3922 6.82669C17.5851 7.02021 17.7382 7.24998 17.8425 7.50283C17.9468 7.75568 18.0003 8.02665 18 8.30025V23.3939C18 23.9459 17.7812 24.4753 17.3917 24.8656C17.0022 25.2559 16.4739 25.4752 15.9231 25.4752H2.07692C1.52609 25.4752 0.997815 25.2559 0.608317 24.8656C0.218818 24.4753 0 23.9459 0 23.3939V2.58082C0 2.02882 0.218818 1.49943 0.608317 1.10911C0.997815 0.718792 1.52609 0.499512 2.07692 0.499512H10.2171ZM4.15385 6.04967H9.69231V8.82474H4.15385V6.04967ZM13.8462 11.5998V14.3749H4.15385V11.5998H13.8462ZM4.15385 19.9251V17.15H11.0769V19.9251H4.15385Z" fill="#8E34FF"/>
</g>
</g>
</svg>
