<svg width="31" height="31" viewBox="0 0 31 31" fill="none" xmlns="http://www.w3.org/2000/svg">
<g id="guide 1">
<g id="Group">
<path id="Vector" d="M25.7077 17.1545V23.8178C25.7077 27.511 22.7031 30.5157 19.0098 30.5157H15.3963C12.9394 30.5157 10.8249 29.2951 9.59499 27.1669L5.48549 20.0478C5.08703 19.3573 5.32492 18.4704 6.01564 18.0708C6.75473 17.644 7.60209 17.5171 8.40161 17.713C9.2176 17.9132 9.90269 18.4319 10.3308 19.1737L11.3501 20.9392V10.9782C11.3501 9.79546 12.3124 8.83318 13.4952 8.83318C14.678 8.83318 15.642 9.79546 15.642 10.9782V14.8031C16.0147 14.5186 16.4706 14.3647 16.9394 14.3652C17.6441 14.3652 18.2706 14.7063 18.6623 15.2318C19.0536 14.7063 19.6796 14.3652 20.3837 14.3652C21.2639 14.3652 22.0221 14.8973 22.3531 15.6563C22.7094 15.3367 23.1801 15.142 23.6953 15.142C24.805 15.142 25.7077 16.0448 25.7077 17.1544V17.1545ZM8.59221 12.2897C8.78657 12.2897 8.98237 12.2276 9.14791 12.0993C9.54437 11.792 9.61666 11.2215 9.30939 10.8251C8.58767 9.89384 8.20616 8.77572 8.20616 7.59155C8.20616 4.67422 10.5788 2.30078 13.4952 2.30078C16.4115 2.30078 18.7859 4.67422 18.7859 7.59155C18.7859 8.77572 18.4045 9.89384 17.6827 10.8251C17.3755 11.2216 17.4478 11.792 17.8443 12.0993C18.2407 12.4065 18.8112 12.3342 19.1184 11.9378C20.0892 10.6852 20.6023 9.1823 20.6023 7.59155C20.6023 3.67265 17.414 0.484375 13.4951 0.484375C9.57622 0.484375 6.3897 3.67265 6.3897 7.59155C6.3897 9.1823 6.90283 10.6852 7.87364 11.9378C7.95851 12.0475 8.06742 12.1363 8.19199 12.1973C8.31655 12.2583 8.45345 12.2899 8.59215 12.2897H8.59221Z" fill="#ED3CB5"/>
</g>
</g>
</svg>
