<svg width="34" height="28" viewBox="0 0 34 28" fill="none" xmlns="http://www.w3.org/2000/svg">
<path d="M24.0624 18.4321L28.1133 22.4146C28.9009 23.189 28.9117 24.4553 28.1374 25.243L26.829 26.5738C26.0546 27.3614 24.7884 27.3722 24.0007 26.5978L19.9498 22.6153L24.0624 18.4321Z" fill="#282A66"/>
<path d="M18.3781 18.2336L19.76 16.8517L22.5238 19.6154L21.1419 20.9973L18.3781 18.2336ZM18.9394 9.20223L22.9408 5.0196L21.5284 3.66846L17.526 7.85219L18.9394 9.20223Z" fill="#B1CCFF"/>
<path d="M5.1168 6.87646L4.21462 8.61038L8.64959 10.918L9.54818 9.18217L5.1168 6.87646Z" fill="#B1CCFF"/>
<path d="M19.7644 7.17642C18.2402 5.65223 16.2381 4.89014 14.2359 4.89014L13.5844 12.6838L14.2359 20.5196C16.2378 20.5196 18.2403 19.7573 19.7644 18.2333C21.2411 16.7566 22.0543 14.7933 22.0543 12.7049C22.0543 10.6164 21.2411 8.65312 19.7644 7.17642Z" fill="#548EFF"/>
<path d="M8.70751 7.17642C7.23075 8.65312 6.41757 10.6165 6.41757 12.7049C6.41757 14.7932 7.23081 16.7566 8.70751 18.2333C10.2318 19.7577 12.2336 20.5196 14.2359 20.5196V4.89014C12.2338 4.89014 10.2318 5.65223 8.70751 7.17642Z" fill="#548EFF"/>
<path d="M18.9394 9.20203L17.8375 9.02208L17.526 7.85193C16.5366 7.18066 15.3865 6.84375 14.2359 6.84375L13.5843 12.6837L14.2359 18.5658C15.7375 18.5658 17.239 17.9942 18.3822 16.8511C19.4898 15.7436 20.0996 14.2711 20.0996 12.7048C20.0997 11.4253 19.6922 10.2086 18.9394 9.20203Z" fill="#DBE7FF"/>
<path d="M10.0896 8.55838C9.89491 8.75341 9.714 8.96173 9.54818 9.18183V10.2763L8.64959 10.9176C8.46547 11.4955 8.37188 12.0983 8.37217 12.7048C8.37217 14.2711 8.98213 15.7436 10.0896 16.8511C11.2327 17.9942 12.7344 18.5658 14.2359 18.5658V6.84375C12.7344 6.84375 11.2328 7.41527 10.0896 8.55838Z" fill="#FFF5F5"/>
<path d="M12.946 10.9496L9.54817 9.18164C9.15265 9.70527 8.84881 10.2922 8.64958 10.9174L12.0438 12.6835L12.946 10.9496Z" fill="#B1CCFF"/>
<path d="M16.2929 11.9686L18.9394 9.20215C18.7693 8.9746 18.5831 8.75952 18.3823 8.55857C18.1198 8.29653 17.8331 8.05997 17.526 7.85205L14.8806 10.6173L16.2929 11.9686Z" fill="#B1CCFF"/>
<path d="M24.1509 5.03612L25.6227 3.74805L29.8934 8.62801L28.4216 9.91609L24.1509 5.03612Z" fill="#B1CCFF"/>
<path d="M2.93189 9.77295C4.55112 9.77295 5.86377 8.4603 5.86377 6.84107C5.86377 5.22183 4.55112 3.90918 2.93189 3.90918C1.31265 3.90918 0 5.22183 0 6.84107C0 8.4603 1.31265 9.77295 2.93189 9.77295Z" fill="#FF3377"/>
<path d="M2.93189 7.81836C3.47163 7.81836 3.90918 7.38081 3.90918 6.84107C3.90918 6.30132 3.47163 5.86377 2.93189 5.86377C2.39214 5.86377 1.95459 6.30132 1.95459 6.84107C1.95459 7.38081 2.39214 7.81836 2.93189 7.81836Z" fill="#CC295F"/>
<path d="M23.5854 5.86377C25.2046 5.86377 26.5173 4.55112 26.5173 2.93189C26.5173 1.31265 25.2046 0 23.5854 0C21.9662 0 20.6535 1.31265 20.6535 2.93189C20.6535 4.55112 21.9662 5.86377 23.5854 5.86377Z" fill="#FF3377"/>
<path d="M23.5854 3.90869C24.1251 3.90869 24.5627 3.47114 24.5627 2.9314C24.5627 2.39165 24.1251 1.9541 23.5854 1.9541C23.0457 1.9541 22.6081 2.39165 22.6081 2.9314C22.6081 3.47114 23.0457 3.90869 23.5854 3.90869Z" fill="#CC295F"/>
<path d="M30.4265 13.6821C32.0457 13.6821 33.3584 12.3695 33.3584 10.7502C33.3584 9.13101 32.0457 7.81836 30.4265 7.81836C28.8072 7.81836 27.4946 9.13101 27.4946 10.7502C27.4946 12.3695 28.8072 13.6821 30.4265 13.6821Z" fill="#FF3377"/>
<path d="M30.4265 11.7275C30.9662 11.7275 31.4038 11.29 31.4038 10.7502C31.4038 10.2105 30.9662 9.77295 30.4265 9.77295C29.8867 9.77295 29.4492 10.2105 29.4492 10.7502C29.4492 11.29 29.8867 11.7275 30.4265 11.7275Z" fill="#CC295F"/>
<path d="M19.0689 21.6882L23.2146 17.5425L24.5965 18.9244L20.4508 23.0701L19.0689 21.6882Z" fill="#414080"/>
<path d="M16.5442 10.093C16.4206 10.053 16.2897 10.0276 16.1552 10.013C14.4392 9.83853 13.9994 11.4745 13.9994 11.4745C13.9994 11.4745 13.5595 9.83853 11.8472 10.013C10.2548 10.173 9.41865 12.1798 10.462 13.8666C10.7601 14.3502 11.2255 14.87 11.7235 15.3535C12.7233 16.3242 13.8503 17.1313 13.9994 17.1313C14.2248 17.1313 16.6351 15.3245 17.5367 13.8703C18.4928 12.3252 17.8748 10.5111 16.5442 10.093Z" fill="#FC4F79"/>
<path d="M17.5367 13.8664C18.4928 12.325 17.8748 10.5109 16.5442 10.0928C16.5442 10.0928 17.8711 11.3725 17.1077 12.6885C16.3442 14.0045 13.7921 15.6405 13.4322 15.6987C13.1341 15.7459 12.3779 15.6769 11.7235 15.3569C12.7233 16.3276 13.8503 17.1347 13.9994 17.1347C14.2248 17.1311 16.6351 15.3242 17.5367 13.8664Z" fill="black" fill-opacity="0.0823529"/>
<path opacity="0.3" d="M11.5357 11.5877C11.8581 11.2057 11.9629 10.7637 11.7696 10.6005C11.5762 10.4373 11.1581 10.6147 10.8356 10.9968C10.5131 11.3788 10.4084 11.8208 10.6017 11.984C10.795 12.1471 11.2132 11.9697 11.5357 11.5877Z" fill="white"/>
</svg>
