<svg width="31" height="24" viewBox="0 0 31 24" fill="none" xmlns="http://www.w3.org/2000/svg">
<path fill-rule="evenodd" clip-rule="evenodd" d="M10.8921 4.30933L5.39998 5.91426L4.17461 10.775C4.38659 12.5603 4.72126 14.2316 5.82508 15.1673L14.9342 22.5705L16.0363 23.4184C17.6955 24.6946 19.2671 22.911 18.0057 21.5926C17.9874 21.5729 17.9687 21.5536 17.9496 21.5347C18.3754 21.8928 18.8537 21.9946 19.2724 21.9262C20.194 21.777 20.8248 20.8009 19.9768 19.8897C21.6343 21.2134 23.05 19.105 21.7516 17.9481C23.1989 18.4045 24.7757 16.5278 23.2724 14.9338C23.2619 14.9215 23.2496 14.9075 23.2374 14.8952L19.4686 9.28445L14.4138 6.04548L10.8921 4.30933Z" fill="#FFBC85"/>
<path fill-rule="evenodd" clip-rule="evenodd" d="M14.7975 22.7285C16.1992 21.2345 14.1545 19.5158 13.0244 20.5287L11.8137 21.6804C11.7997 21.6944 11.7875 21.7067 11.7734 21.7172C10.7572 22.739 12.6039 25.0668 14.1317 23.4377L14.7975 22.7285Z" fill="#FFE5C1"/>
<path fill-rule="evenodd" clip-rule="evenodd" d="M10.9131 18.445L9.63412 19.7862L9.62884 19.7933C8.98756 20.4744 9.43258 21.519 10.1913 21.9263C10.6608 22.179 11.2496 22.1896 11.7734 21.7173L13.1436 21.6963L13.0244 20.5289L13.1996 20.3639C14.5698 19.0613 12.5916 16.8107 11.048 18.3029L10.9131 18.445Z" fill="#FFE5C1"/>
<path fill-rule="evenodd" clip-rule="evenodd" d="M8.62839 16.6069L7.42995 17.8797L7.26177 18.0605C6.07912 19.3157 8.19741 21.2925 9.41859 20.011L9.62883 19.7933C9.64635 19.774 10.9306 19.6405 11.0708 19.6247L11.048 18.3028L11.458 17.8727C12.8684 16.3928 10.6643 14.4442 9.32217 15.8714L8.62839 16.6069Z" fill="#FFE5C1"/>
<path fill-rule="evenodd" clip-rule="evenodd" d="M5.82508 15.1673L5.41859 15.6079C4.16759 16.9667 6.03184 19.133 7.42996 17.8796L8.57758 17.7023L8.6284 16.6068C9.76198 15.3235 7.78564 13.0396 6.22978 14.7284L5.82508 15.1673Z" fill="#FFE5C1"/>
<path fill-rule="evenodd" clip-rule="evenodd" d="M7.54216 0.496275L1.97928 5.85246L0.39708 7.37448C-0.118018 7.86954 -0.133798 8.69639 0.3603 9.21251L2.72039 11.6738C2.85707 11.816 3.08657 11.8212 3.23027 11.6843L4.17467 10.775L10.8922 4.30933L11.7262 3.50527C11.8699 3.36835 11.8751 3.13837 11.7367 2.99443L9.3766 0.533175C8.8825 0.0169967 8.05726 0.00121632 7.54216 0.496275Z" fill="#7BACDF"/>
<path fill-rule="evenodd" clip-rule="evenodd" d="M18.1213 9.80765L16.4323 10.1939L17.0946 10.8662L22.2107 15.9538L22.2457 15.9924C22.8625 16.6455 22.9606 17.3442 22.7644 17.913C23.7753 17.5268 24.4183 16.1487 23.2724 14.9338L23.2374 14.8952L21.7025 13.3696L18.1213 9.80765ZM10.8921 4.30933L9.81634 5.3433L13.1786 7.0023L14.4138 6.04554L10.8921 4.30933Z" fill="#F5A96C"/>
<path fill-rule="evenodd" clip-rule="evenodd" d="M14.4138 6.04544L13.1786 7.0022L12.0152 7.90105C9.07696 10.1762 11.5141 12.4233 13.2575 11.6527L15.2181 10.4712L16.4323 10.1938L18.1213 9.80761L21.7025 13.3696L23.2374 14.8952C24.2028 14.5336 25.5677 13.4908 27.0412 11.1172L24.8014 6.43094L19.5703 3.9248L18.2282 4.99742C18.0075 5.17298 18.074 5.13962 17.7954 5.13086C16.788 5.09924 15.5072 5.19932 14.7555 5.78042L14.4138 6.04544Z" fill="#FFE5C1"/>
<path fill-rule="evenodd" clip-rule="evenodd" d="M14.4086 9.69016L12.448 10.8716C11.9136 11.1086 11.3126 11.0612 10.8221 10.8155C11.2478 11.6336 12.3481 12.0549 13.2574 11.6529L15.2181 10.4714L16.4323 10.194L18.1003 9.8131C17.3276 9.15125 17.1892 9.05471 15.6211 9.41459L14.4086 9.69016ZM25.8217 9.94294C24.5094 12.0549 23.2847 13.1135 22.3508 13.5769C22.2516 13.6267 22.1499 13.6712 22.046 13.7103L23.2374 14.8953C24.2028 14.5337 25.5677 13.4909 27.0412 11.1174L25.8217 9.94294Z" fill="#FED1A3"/>
<path fill-rule="evenodd" clip-rule="evenodd" d="M5.63938 2.32912C6.15448 1.83934 6.9745 1.85866 7.4668 2.37124L9.82689 4.83249C9.96357 4.97643 9.96003 5.20641 9.81639 5.34333L10.8922 4.3093L11.7262 3.50524C11.8699 3.36832 11.8751 3.13834 11.7367 2.9944L9.37659 0.533145C8.88249 0.0170266 8.05726 0.00118632 7.54216 0.496305L5.63938 2.32912Z" fill="#3987D0"/>
<path fill-rule="evenodd" clip-rule="evenodd" d="M5.00687 16.6473C5.01911 17.7972 6.36125 18.8382 7.43003 17.8797L8.18165 17.0827L8.62841 16.6069C9.09622 16.0768 9.03316 15.3781 8.69147 14.8567C8.68973 15.1621 8.58809 15.4676 8.35505 15.7327L7.55957 16.5771L7.15835 17.0055C6.37877 17.7024 5.45537 17.339 5.00687 16.6473ZM6.96923 19.2561C7.24955 20.197 8.55839 20.9151 9.41866 20.0109L9.6289 19.7932C9.63019 19.7906 9.63198 19.7882 9.63418 19.7862L10.9132 18.445C10.9564 18.3959 11.0014 18.3485 11.0481 18.3028L11.4581 17.8727C12.2185 17.0757 11.9294 16.1418 11.2899 15.673C11.4056 16.1031 11.3127 16.5999 10.8817 17.0511L10.4717 17.4811C10.4262 17.525 10.3824 17.5724 10.3368 17.6216V17.6233L9.05776 18.9646C9.05602 18.9663 9.05428 18.9681 9.05074 18.9699L8.84224 19.1893C8.27099 19.7898 7.50359 19.6756 6.96923 19.2561ZM11.8137 21.6805L12.7476 20.7939L13.0244 20.5288L13.1996 20.3638C13.9285 19.6704 13.7095 18.7084 13.1103 18.1852C13.2382 18.6434 13.1436 19.1613 12.702 19.5808L12.5286 19.7458L12.0345 20.2146L11.3161 20.8992L11.2758 20.9343C10.7519 21.4066 10.1632 21.396 9.69364 21.145C9.57739 21.0815 9.46916 21.0042 9.37126 20.915C9.48688 21.331 9.79702 21.7155 10.1912 21.9262C10.6608 22.179 11.2495 22.1895 11.7734 21.7173L11.8137 21.6805ZM14.7975 22.7285C15.4984 21.9807 15.3372 21.1783 14.8606 20.6886C14.8501 21.0204 14.7099 21.3768 14.3876 21.7191L13.7217 22.4301C12.9035 23.3008 11.9942 23.0392 11.4825 22.4511C11.4896 23.5167 12.9123 24.7386 14.1317 23.4377L14.7975 22.7285Z" fill="#FED1A3"/>
<path d="M21.7514 18.412C21.6342 18.4121 21.5213 18.3676 21.4357 18.2876L19.5679 16.5479C19.4779 16.464 19.4249 16.3478 19.4205 16.2249C19.4161 16.102 19.4607 15.9823 19.5445 15.8922C19.5859 15.8476 19.6358 15.8116 19.6912 15.7863C19.7466 15.761 19.8064 15.7469 19.8672 15.7447C19.9281 15.7425 19.9888 15.7523 20.0458 15.7736C20.1029 15.7949 20.1552 15.8272 20.1997 15.8687L22.0675 17.6084C22.1575 17.6923 22.2105 17.8085 22.2149 17.9314C22.2193 18.0544 22.1747 18.174 22.0909 18.2641C22.0476 18.3108 21.9951 18.3481 21.9366 18.3735C21.8782 18.399 21.8152 18.4121 21.7514 18.412ZM19.9766 20.3536C19.8594 20.3537 19.7465 20.3093 19.6608 20.2292L17.7913 18.4877C17.7013 18.4039 17.6483 18.2877 17.6439 18.1648C17.6396 18.0418 17.6842 17.9222 17.7679 17.8321C17.8094 17.7875 17.8592 17.7515 17.9146 17.7262C17.97 17.7009 18.0298 17.6868 18.0907 17.6846C18.1515 17.6824 18.2122 17.6922 18.2693 17.7135C18.3263 17.7348 18.3786 17.7672 18.4231 17.8087L20.2926 19.5502C20.3826 19.634 20.4356 19.7502 20.44 19.8731C20.4444 19.9961 20.3998 20.1157 20.316 20.2058C20.2727 20.2525 20.2202 20.2897 20.1618 20.3152C20.1033 20.3406 20.0403 20.3537 19.9766 20.3536ZM18.0108 22.06C17.8937 22.0601 17.7809 22.0157 17.6953 21.9359L16.7439 21.0511C16.6538 20.9673 16.6007 20.8512 16.5962 20.7283C16.5917 20.6053 16.6362 20.4856 16.7199 20.3955C16.7613 20.3509 16.8112 20.3149 16.8665 20.2895C16.9219 20.2641 16.9817 20.2499 17.0425 20.2477C17.1034 20.2455 17.1641 20.2552 17.2211 20.2765C17.2782 20.2977 17.3305 20.33 17.3751 20.3714L18.3265 21.2562C18.4166 21.34 18.4697 21.4561 18.4742 21.579C18.4787 21.702 18.4342 21.8217 18.3505 21.9118C18.3071 21.9586 18.2546 21.9959 18.1961 22.0214C18.1376 22.0469 18.0745 22.06 18.0108 22.06Z" fill="#F5A96C"/>
<path fill-rule="evenodd" clip-rule="evenodd" d="M19.5702 3.92484L25.8217 9.94283L27.0411 11.1173L27.4897 11.5491C27.6334 11.6861 27.8629 11.6808 27.9995 11.5386L29.2313 10.2535L30.3596 9.07727C30.8537 8.56115 30.8379 7.73429 30.3228 7.23923L29.2313 6.18941L23.1778 0.361028C22.6627 -0.134031 21.8375 -0.11825 21.3434 0.397868L18.9833 2.85912C18.8449 3.00306 18.8502 3.23304 18.9938 3.36996L19.5702 3.92484Z" fill="#FF6CB0"/>
<path fill-rule="evenodd" clip-rule="evenodd" d="M27.6737 8.7527L26.4419 10.0395C26.3035 10.1817 26.0758 10.1869 25.9321 10.0482L27.0412 11.1174L27.4897 11.5492C27.6334 11.6862 27.8629 11.6809 27.9996 11.5387L29.2313 10.2536L30.3597 9.07736C30.8538 8.56125 30.838 7.73439 30.3229 7.23933L28.9423 5.91039L29.0597 6.02451L28.7706 5.74539C29.2787 6.24045 29.2945 7.06383 28.8022 7.57641L27.6737 8.7527Z" fill="#FE318F"/>
</svg>
