<svg width="25" height="24" viewBox="0 0 25 24" fill="none" xmlns="http://www.w3.org/2000/svg">
<g id="Group">
<path id="Vector" d="M7.55457 0H16.0967V23.1656H7.55457V0Z" fill="#3F8EFC"/>
<path id="Vector_2" d="M7.55432 23.1656H2.10852V5.30212H7.55432V23.1656ZM16.0967 5.30212H21.5426V23.1656H16.0967V5.30212Z" fill="#2667FF"/>
<g id="Group_2">
<path id="Vector_3" d="M9.28909 2.44067H10.9214V4.07642H9.28909V2.44067ZM12.7296 2.44067H14.3619V4.07642H12.7296V2.44067ZM9.28909 5.77034H10.9214V7.40609H9.28909V5.77034ZM12.7296 5.77034H14.3619V7.40609H12.7296V5.77034ZM9.28909 9.10001H10.9214V10.7358H9.28909V9.10001ZM4.01538 7.40609H5.64768V9.04184H4.01538V7.40609ZM4.01538 11.1069H5.64768V12.7427H4.01538V11.1069ZM4.01538 14.8075H5.64768V16.4432H4.01538V14.8075ZM4.01538 18.5083H5.64768V20.1441H4.01538V18.5083ZM18.0034 7.40609H19.6357V9.04184H18.0034V7.40609ZM18.0034 11.1069H19.6357V12.7427H18.0034V11.1069ZM18.0034 14.8075H19.6357V16.4432H18.0034V14.8075ZM18.0034 18.5083H19.6357V20.1441H18.0034V18.5083ZM12.7296 9.10001H14.3619V10.7358H12.7296V9.10001ZM9.28909 12.4297H10.9214V14.0654H9.28909V12.4297ZM12.7296 12.4297H14.3619V14.0654H12.7296V12.4297ZM9.28909 15.7596H10.9214V17.3954H9.28909V15.7596ZM12.7296 15.7596H14.3619V17.3954H12.7296V15.7596ZM9.28909 19.0893H10.9214V20.725H9.28909V19.0893ZM12.7296 19.0893H14.3619V20.725H12.7296V19.0893Z" fill="#F8F9E8"/>
</g>
<path id="Vector_4" d="M23.5663 23.616H0.449493C0.33028 23.616 0.21595 23.5685 0.131654 23.484C0.0473573 23.3996 0 23.285 0 23.1655C0 23.0461 0.0473573 22.9315 0.131654 22.847C0.21595 22.7625 0.33028 22.7151 0.449493 22.7151H23.5663C23.6855 22.7151 23.7998 22.7625 23.8841 22.847C23.9684 22.9315 24.0158 23.0461 24.0158 23.1655C24.0158 23.285 23.9684 23.3996 23.8841 23.484C23.7998 23.5685 23.6855 23.616 23.5663 23.616Z" fill="#0A0A63"/>
</g>
</svg>
