<svg width="33" height="30" viewBox="0 0 33 30" fill="none" xmlns="http://www.w3.org/2000/svg">
<g id="Group">
<path id="Vector" d="M16.0147 9.47706C16.1823 13.7102 19.6019 17.2043 23.7927 17.5403C24.9661 17.6075 26.1395 17.4731 27.2123 17.1371C27.7823 16.9355 29.8944 18.0106 31.1013 18.6154C31.4031 18.7498 31.7719 18.481 31.6378 18.145C31.2019 16.9691 30.5649 15.0541 30.8667 14.7182C32.3083 13.0719 33.1464 10.8545 32.9788 8.43556C32.6771 4.20238 29.1568 0.775515 24.899 0.573935C19.9037 0.305161 15.78 4.43756 16.0147 9.47706Z" fill="#F5C0C0"/>
<path id="Vector_2" d="M23.9603 16.7341C23.6921 22.7143 18.8979 27.653 12.9638 28.1234C11.2875 28.2242 9.67829 28.0226 8.13609 27.5522C7.365 27.2835 4.38119 28.7617 2.63784 29.6352C2.23553 29.8368 1.69911 29.4337 1.90027 28.9633C2.53726 27.2835 3.40894 24.6293 3.00663 24.1254C0.961544 21.8072 -0.178338 18.6827 0.0228173 15.2558C0.458654 9.30923 5.45402 4.4713 11.4216 4.20253C18.4621 3.83296 24.2621 9.67879 23.9603 16.7341Z" fill="#FF7171"/>
<g id="Group_2">
<path id="Vector_3" d="M8.94071 12.904H15.1095C15.5118 12.904 15.8806 12.5344 15.8806 12.1312C15.8806 11.7281 15.5118 11.3585 15.1095 11.3585H8.94071C8.5384 11.3585 8.16961 11.7281 8.16961 12.1312C8.10256 12.5344 8.47135 12.904 8.94071 12.904ZM15.1095 19.3545H8.94071C8.5384 19.3545 8.16961 19.7241 8.16961 20.1273C8.16961 20.5304 8.5384 20.9 8.94071 20.9H15.1095C15.5118 20.9 15.8806 20.5304 15.8806 20.1273C15.9141 19.7241 15.5453 19.3545 15.1095 19.3545ZM18.2609 15.3229H5.75575C5.35343 15.3229 4.98465 15.6925 4.98465 16.0957C4.98465 16.4988 5.35343 16.8684 5.75575 16.8684H18.1939C18.5962 16.8684 18.965 16.4988 18.965 16.0957C19.032 15.6925 18.6632 15.3229 18.2609 15.3229Z" fill="white"/>
</g>
</g>
</svg>
