<svg width="25" height="25" viewBox="0 0 25 25" fill="none" xmlns="http://www.w3.org/2000/svg">
<path d="M8.26959 11.9678H11.7433V24.5832H8.26959V11.9678Z" fill="#FF61A9"/>
<path d="M2.43628 17.8013H5.91003V24.5834H2.43628V17.8013ZM14.1029 15.3013H17.5767V24.5834H14.1029V15.3013Z" fill="#FE318F"/>
<path d="M19.9363 8.63452H23.41V24.5833H19.9363V8.63452Z" fill="#FF61A9"/>
<path d="M24.5833 24.1667H0.833333V0.416667C0.833333 0.30616 0.789435 0.200179 0.711294 0.122039C0.633154 0.0438987 0.527174 0 0.416667 0C0.30616 0 0.200179 0.0438987 0.122039 0.122039C0.0438987 0.200179 0 0.30616 0 0.416667V24.5833C0 24.6938 0.0438987 24.7998 0.122039 24.878C0.200179 24.9561 0.30616 25 0.416667 25H24.5833C24.6938 25 24.7998 24.9561 24.878 24.878C24.9561 24.7998 25 24.6938 25 24.5833C25 24.4728 24.9561 24.3668 24.878 24.2887C24.7998 24.2106 24.6938 24.1667 24.5833 24.1667Z" fill="#3987D0"/>
<path d="M4.17291 14.1667C4.86327 14.1667 5.42291 13.6071 5.42291 12.9167C5.42291 12.2264 4.86327 11.6667 4.17291 11.6667C3.48256 11.6667 2.92291 12.2264 2.92291 12.9167C2.92291 13.6071 3.48256 14.1667 4.17291 14.1667Z" fill="#57A0D7"/>
<path d="M15.8396 12.0835C16.53 12.0835 17.0896 11.5239 17.0896 10.8335C17.0896 10.1431 16.53 9.5835 15.8396 9.5835C15.1492 9.5835 14.5896 10.1431 14.5896 10.8335C14.5896 11.5239 15.1492 12.0835 15.8396 12.0835Z" fill="#57A0D7"/>
<path d="M10.033 8.30664C10.7233 8.30664 11.283 7.747 11.283 7.05664C11.283 6.36629 10.7233 5.80664 10.033 5.80664C9.3426 5.80664 8.78296 6.36629 8.78296 7.05664C8.78296 7.747 9.3426 8.30664 10.033 8.30664Z" fill="#57A0D7"/>
<path d="M21.6729 4.56665C22.3633 4.56665 22.9229 4.00701 22.9229 3.31665C22.9229 2.62629 22.3633 2.06665 21.6729 2.06665C20.9826 2.06665 20.4229 2.62629 20.4229 3.31665C20.4229 4.00701 20.9826 4.56665 21.6729 4.56665Z" fill="#57A0D7"/>
<path d="M8.65918 7.4295L4.76043 11.7691C4.69065 11.8518 4.65581 11.9585 4.66329 12.0665C4.67076 12.1745 4.71997 12.2753 4.80049 12.3476C4.88101 12.42 4.98652 12.4581 5.09469 12.4541C5.20285 12.45 5.30518 12.404 5.38002 12.3257L9.27877 7.98617C9.34855 7.90342 9.38339 7.79676 9.37591 7.68877C9.36844 7.58079 9.31923 7.47995 9.23871 7.40761C9.15819 7.33527 9.05268 7.2971 8.94451 7.30118C8.83635 7.30527 8.73402 7.35129 8.65918 7.4295ZM11.4367 7.1745C11.3465 7.11063 11.2345 7.08521 11.1256 7.10385C11.0166 7.12249 10.9195 7.18365 10.8556 7.27387C10.7918 7.3641 10.7664 7.47601 10.785 7.58498C10.8036 7.69394 10.8648 7.79104 10.955 7.85492L14.5933 10.4324C14.638 10.4641 14.6884 10.4868 14.7418 10.499C14.7951 10.5111 14.8504 10.5127 14.9044 10.5035C14.9583 10.4942 15.0099 10.4745 15.0562 10.4453C15.1025 10.4161 15.1426 10.378 15.1742 10.3332C15.2381 10.243 15.2635 10.1311 15.2449 10.0221C15.2263 9.9131 15.1652 9.81595 15.075 9.752L11.4367 7.1745ZM21.3571 4.09575C21.2688 4.02931 21.1578 4.00064 21.0484 4.01603C20.9391 4.03142 20.8403 4.08962 20.7738 4.17783L16.5092 9.84117C16.4763 9.88488 16.4523 9.93466 16.4386 9.98764C16.4249 10.0406 16.4218 10.0958 16.4295 10.15C16.4371 10.2042 16.4554 10.2563 16.4831 10.3035C16.5109 10.3506 16.5478 10.3918 16.5915 10.4247C16.6352 10.4576 16.685 10.4816 16.738 10.4953C16.7909 10.509 16.8461 10.5121 16.9003 10.5044C16.9545 10.4968 17.0066 10.4785 17.0538 10.4507C17.1009 10.4229 17.1421 10.3861 17.175 10.3424L21.4396 4.67908C21.506 4.59083 21.5347 4.47981 21.5193 4.37042C21.5039 4.26104 21.4453 4.16224 21.3571 4.09575Z" fill="#57A0D7"/>
</svg>
