<svg width="29" height="29" viewBox="0 0 29 29" fill="none" xmlns="http://www.w3.org/2000/svg">
<g clip-path="url(#clip0_220_279)">
<path d="M15.7479 22.9188L14.5105 24.1562C14.1685 24.4982 13.615 24.4982 13.273 24.1562C12.931 23.8142 12.931 23.2607 13.273 22.9188L14.5105 21.6813C14.8518 21.34 14.8518 20.7853 14.5105 20.4439L13.3727 19.3062C13.0307 18.9642 13.0307 18.4107 13.3727 18.0688C13.7147 17.7268 14.2682 17.7268 14.6102 18.0688L15.7479 19.2065C16.7715 20.23 16.7715 21.8952 15.7479 22.9188Z" fill="#713708"/>
<path d="M17.6041 28.4874C16.9206 29.1708 15.8126 29.1708 15.1292 28.4874L8.94196 22.3001L11.4168 19.8252L17.6041 26.0124C18.2875 26.6959 18.2875 27.8039 17.6041 28.4874Z" fill="#994C0F"/>
<path d="M8.8924 14.8259L12.7286 18.6621L12.6543 21.0627L8.32322 25.3938C7.29616 26.4209 5.6132 26.3962 4.58613 25.369L2.11122 22.8941C1.0965 21.8794 1.10885 20.2336 2.13603 19.2065L6.46711 14.8754L8.8924 14.8259Z" fill="#FE318F"/>
<path d="M10.7981 16.7317L12.7286 18.6621L12.6543 21.0628L8.32324 25.3939C7.29617 26.4209 5.61321 26.3962 4.58615 25.369L3.37341 24.1563L10.7981 16.7317Z" fill="#FD0F7F"/>
<path d="M19.7672 3.50028C19.2845 3.50084 18.8924 3.10872 18.8924 2.62541L18.8918 0.874985C18.8917 0.391557 19.2832 6.12842e-07 19.7667 6.12842e-07C20.2494 -0.000565793 20.6415 0.391557 20.6415 0.874872L20.6421 2.62529C20.6422 3.10872 20.2506 3.50028 19.7672 3.50028ZM26.7672 8.75041L25.0168 8.74984C24.5334 8.74984 24.1412 8.35772 24.1419 7.87497C24.1419 7.3916 24.5335 7.0001 25.0168 7.0001L26.7672 7.00067C27.2506 7.00067 27.6428 7.39279 27.6421 7.87554C27.6421 8.35885 27.2506 8.75041 26.7672 8.75041ZM25.6475 1.88217C25.994 2.22864 25.9941 2.77313 25.6475 3.1196L23.7914 4.97577C23.4448 5.32229 22.9004 5.32224 22.5539 4.97577C22.2074 4.62924 22.2074 4.08481 22.5539 3.73834L24.4101 1.88217C24.7566 1.53564 25.301 1.53564 25.6475 1.88217Z" fill="#1BD9DE"/>
<path d="M15.1292 3.73835L23.7914 12.4005C24.0389 12.648 24.3482 15.259 24.6699 15.3086L22.2322 15.8159C18.6189 16.5336 15.1911 18.526 12.8647 20.8524L12.6544 21.0627L6.46701 14.8754L6.67737 14.6651C9.12759 12.2148 10.9342 8.97268 11.6766 5.2604L12.184 2.72363L15.1292 3.73835Z" fill="#CAE8F9"/>
<path d="M8.32316 19.2064C8.66963 19.5528 8.66969 20.0973 8.32316 20.4438L7.08573 21.6813C6.73921 22.0278 6.19472 22.0278 5.8483 21.6813C5.50178 21.3348 5.50178 20.7903 5.8483 20.4439L7.08573 19.2064C7.43226 18.8599 7.97669 18.8599 8.32316 19.2064Z" fill="#E1E4FB"/>
<path d="M19.4603 8.06934L23.7914 12.4004C24.0389 12.6479 24.3482 15.2589 24.6699 15.3085L22.2322 15.8158C18.6188 16.5335 15.1911 18.5259 12.8647 20.8523L12.6544 21.0626L9.5607 17.969L19.4603 8.06934Z" fill="#B7E0F6"/>
<path d="M8.32315 19.2065C8.66962 19.553 8.66968 20.0975 8.32315 20.444L7.08572 21.6815C6.7392 22.028 6.19471 22.0279 5.8483 21.6815L8.32315 19.2065Z" fill="#C5C9F7"/>
<path d="M15.1292 1.26338L26.2663 12.4005C26.9469 13.0811 26.9469 14.1948 26.2663 14.8754C26.192 14.9496 26.093 14.9991 25.994 15.0486C25.598 15.3209 25.1278 15.4199 24.6699 15.3084C24.3482 15.259 24.0388 15.1229 23.7913 14.8754L12.6542 3.73824C12.3696 3.45356 12.2335 3.09474 12.184 2.72352C12.1345 2.3523 12.2088 1.98096 12.3944 1.64695C12.481 1.51079 12.5428 1.37474 12.6542 1.26333C13.3348 0.582788 14.4486 0.582788 15.1292 1.26338Z" fill="#FE318F"/>
<path d="M20.6977 6.83203L26.2662 12.4005C26.9468 13.0811 26.9468 14.1949 26.2662 14.8755C26.192 14.9497 26.093 14.9992 25.9939 15.0487C25.5979 15.321 25.1277 15.4199 24.6698 15.3085C24.3481 15.2591 24.0388 15.123 23.7913 14.8755L18.2227 9.30694L20.6977 6.83203Z" fill="#FD0F7F"/>
</g>
<defs>
<clipPath id="clip0_220_279">
<rect width="29" height="29" fill="white"/>
</clipPath>
</defs>
</svg>
