<svg width="28" height="28" viewBox="0 0 28 28" fill="none" xmlns="http://www.w3.org/2000/svg">
<g clip-path="url(#clip0_220_248)">
<path d="M7.77815 15.5763C12.0739 15.5763 15.5563 12.0939 15.5563 7.79817C15.5563 3.50242 12.0739 0.0200195 7.77815 0.0200195C3.4824 0.0200195 0 3.50242 0 7.79817C0 12.0939 3.4824 15.5763 7.77815 15.5763Z" fill="#EE596B"/>
<path d="M9.00867 15.4797C8.60181 15.5444 8.19049 15.5768 7.77853 15.5768C3.48266 15.5768 0 12.0941 0 7.79827C0 3.50241 3.48266 0.0205078 7.77853 0.0205078C8.19705 0.0205078 8.60765 0.0539219 9.00867 0.117578C5.29763 0.707219 2.46105 3.92093 2.46105 7.79827C2.46105 11.6756 5.29763 14.8901 9.00867 15.4797Z" fill="#ED3A4F"/>
<path d="M10.8026 8.6444C11.3327 8.6444 11.7624 7.93034 11.7624 7.0495C11.7624 6.16865 11.3327 5.45459 10.8026 5.45459C10.2725 5.45459 9.84283 6.16865 9.84283 7.0495C9.84283 7.93034 10.2725 8.6444 10.8026 8.6444Z" fill="#21386B"/>
<path d="M4.75371 8.6444C5.28377 8.6444 5.71348 7.93034 5.71348 7.0495C5.71348 6.16865 5.28377 5.45459 4.75371 5.45459C4.22365 5.45459 3.79395 6.16865 3.79395 7.0495C3.79395 7.93034 4.22365 8.6444 4.75371 8.6444Z" fill="#21386B"/>
<path d="M10.3189 11.4343C10.2593 11.4343 10.2004 11.4218 10.1461 11.3975C10.0917 11.3731 10.0431 11.3375 10.0035 11.2931C9.43765 10.659 8.62652 10.2953 7.77815 10.2953C6.92979 10.2953 6.11866 10.659 5.55281 11.2931C5.47819 11.3767 5.37342 11.4272 5.26154 11.4336C5.14966 11.4399 5.03983 11.4016 4.95622 11.327C4.87262 11.2523 4.82207 11.1476 4.81571 11.0357C4.80936 10.9238 4.8477 10.814 4.92232 10.7304C5.64835 9.91679 6.68922 9.4502 7.77815 9.4502C8.86709 9.4502 9.90801 9.91679 10.634 10.7304C10.6883 10.7912 10.7238 10.8664 10.7363 10.947C10.7488 11.0275 10.7377 11.11 10.7044 11.1844C10.6711 11.2588 10.617 11.322 10.5486 11.3663C10.4802 11.4106 10.4004 11.4342 10.3189 11.4343Z" fill="#21386B"/>
<path d="M9.64994 27.9791C13.9457 27.9791 17.4281 24.4968 17.4281 20.201C17.4281 15.9052 13.9457 12.4229 9.64994 12.4229C5.35419 12.4229 1.8718 15.9052 1.8718 20.201C1.8718 24.4968 5.35419 27.9791 9.64994 27.9791Z" fill="#F9DA41"/>
<path d="M10.8805 27.8826C10.4736 27.9472 10.0623 27.9796 9.65033 27.9796C5.35446 27.9796 1.8718 24.497 1.8718 20.2011C1.8718 15.9052 5.35446 12.4233 9.65033 12.4233C10.0688 12.4233 10.4794 12.4568 10.8805 12.5204C7.16943 13.11 4.33284 16.3238 4.33284 20.2011C4.33284 24.0785 7.16943 27.293 10.8805 27.8826Z" fill="#EDC932"/>
<path d="M12.6858 17.707C12.1546 17.707 11.7224 18.4252 11.7224 19.3079C11.7224 20.1906 12.1546 20.9088 12.6858 20.9088C13.2169 20.9088 13.6491 20.1906 13.6491 19.3079C13.6491 18.4252 13.217 17.707 12.6858 17.707ZM6.61414 17.707C6.08296 17.707 5.65082 18.4252 5.65082 19.3079C5.65082 20.1906 6.08296 20.9088 6.61414 20.9088C7.14532 20.9088 7.57746 20.1906 7.57746 19.3079C7.57746 18.4252 7.14532 17.707 6.61414 17.707ZM13.1092 22.892H6.19075C6.07869 22.892 5.97122 22.8474 5.89198 22.7682C5.81275 22.689 5.76823 22.5815 5.76823 22.4694C5.76823 22.3574 5.81275 22.2499 5.89198 22.1707C5.97122 22.0914 6.07869 22.0469 6.19075 22.0469H13.1092C13.2213 22.0469 13.3287 22.0914 13.408 22.1707C13.4872 22.2499 13.5317 22.3574 13.5317 22.4694C13.5317 22.5815 13.4872 22.689 13.408 22.7682C13.3287 22.8474 13.2213 22.892 13.1092 22.892Z" fill="#21386B"/>
<path d="M20.2218 20.3458C24.5176 20.3458 28 16.8635 28 12.5677C28 8.27195 24.5176 4.78955 20.2218 4.78955C15.9261 4.78955 12.4437 8.27195 12.4437 12.5677C12.4437 16.8635 15.9261 20.3458 20.2218 20.3458Z" fill="#78D0B1"/>
<path d="M21.4524 20.2493C21.0455 20.3139 20.6342 20.3463 20.2222 20.3463C15.9264 20.3463 12.4437 16.8637 12.4437 12.5678C12.4437 8.27194 15.9264 4.79004 20.2223 4.79004C20.6408 4.79004 21.0514 4.82345 21.4524 4.88711C17.7414 5.4767 14.9048 8.69046 14.9048 12.5678C14.9048 16.4451 17.7413 19.6597 21.4524 20.2493Z" fill="#66B49D"/>
<path d="M23.1847 10.1758C22.6662 10.1758 22.2444 10.8767 22.2444 11.7383C22.2444 12.5999 22.6662 13.3008 23.1847 13.3008C23.7032 13.3008 24.1251 12.5999 24.1251 11.7383C24.125 10.8767 23.7032 10.1758 23.1847 10.1758ZM17.259 10.1758C16.7406 10.1758 16.3187 10.8767 16.3187 11.7383C16.3187 12.5999 16.7406 13.3008 17.259 13.3008C17.7775 13.3008 18.1994 12.5999 18.1994 11.7383C18.1994 10.8767 17.7775 10.1758 17.259 10.1758ZM20.2219 17.3026C18.7065 17.3026 17.3468 16.3999 16.7578 15.003C16.716 14.9 16.7164 14.7848 16.759 14.6821C16.8015 14.5795 16.8828 14.4977 16.9852 14.4546C17.0876 14.4114 17.2028 14.4103 17.306 14.4515C17.4092 14.4927 17.492 14.5729 17.5365 14.6747C17.9931 15.7577 19.0472 16.4576 20.2219 16.4576C21.3965 16.4576 22.4506 15.7577 22.9072 14.6747C22.9288 14.6236 22.9602 14.5772 22.9997 14.5382C23.0392 14.4992 23.0859 14.4684 23.1373 14.4475C23.1887 14.4266 23.2437 14.416 23.2992 14.4163C23.3547 14.4167 23.4096 14.4279 23.4607 14.4495C23.5119 14.4711 23.5582 14.5025 23.5972 14.5419C23.6362 14.5814 23.667 14.6282 23.688 14.6796C23.7089 14.731 23.7195 14.786 23.7191 14.8415C23.7188 14.897 23.7075 14.9519 23.6859 15.003C23.0969 16.3999 21.7372 17.3026 20.2219 17.3026Z" fill="#21386B"/>
</g>
<defs>
<clipPath id="clip0_220_248">
<rect width="28" height="28" fill="white"/>
</clipPath>
</defs>
</svg>
