<svg width="30" height="25" viewBox="0 0 30 25" fill="none" xmlns="http://www.w3.org/2000/svg">
<path fill-rule="evenodd" clip-rule="evenodd" d="M3.30841 0.720471C3.26941 0.680822 3.2386 0.63388 3.21774 0.582325C3.19688 0.53077 3.18638 0.475612 3.18684 0.42C3.1873 0.364387 3.19871 0.30941 3.22042 0.258206C3.24212 0.207003 3.2737 0.160576 3.31335 0.121577C3.353 0.0825778 3.39994 0.05177 3.4515 0.0309122C3.50305 0.0100545 3.55821 -0.000444708 3.61382 1.44337e-05C3.66943 0.000473575 3.72441 0.0118819 3.77561 0.0335881C3.82682 0.0552942 3.87324 0.0868731 3.91224 0.126522L9.66863 6.00965L13.2857 1.8963C13.3251 1.85169 13.3734 1.81586 13.4275 1.79112C13.4816 1.76637 13.5403 1.75327 13.5998 1.75266C13.6592 1.75205 13.7182 1.76394 13.7728 1.78757C13.8274 1.81119 13.8764 1.84602 13.9167 1.8898L27.1519 13.993C27.1929 14.0305 27.226 14.0757 27.2495 14.1259C27.273 14.1762 27.2864 14.2307 27.2889 14.2861C27.2913 14.3416 27.2828 14.397 27.2639 14.4491C27.245 14.5013 27.2159 14.5493 27.1785 14.5902C27.141 14.6312 27.0958 14.6643 27.0455 14.6878C26.9952 14.7113 26.9408 14.7247 26.8854 14.7272C26.8299 14.7296 26.7745 14.7211 26.7223 14.7022C26.6701 14.6833 26.6222 14.6542 26.5813 14.6168L13.6384 2.78085L10.0043 6.91301L10.0036 6.91246C9.99698 6.92007 9.99 6.92745 9.98272 6.93461C9.90264 7.01335 9.79456 7.05706 9.68226 7.05613C9.56995 7.05519 9.46262 7.00969 9.38385 6.92963L3.30841 0.720471Z" fill="#4738EA"/>
<path fill-rule="evenodd" clip-rule="evenodd" d="M26.5049 12.2147C26.5049 12.1021 26.5496 11.9941 26.6292 11.9144C26.7089 11.8348 26.8169 11.79 26.9295 11.79C27.0422 11.79 27.1502 11.8348 27.2298 11.9144C27.3095 11.9941 27.3542 12.1021 27.3542 12.2147V14.3624C27.3542 14.475 27.3095 14.5831 27.2298 14.6627C27.1502 14.7423 27.0422 14.7871 26.9295 14.7871H24.5187C24.406 14.7871 24.298 14.7423 24.2184 14.6627C24.1387 14.5831 24.094 14.475 24.094 14.3624C24.094 14.2498 24.1387 14.1418 24.2184 14.0621C24.298 13.9825 24.406 13.9377 24.5187 13.9377H26.5049V12.2147Z" fill="#4738EA"/>
<path fill-rule="evenodd" clip-rule="evenodd" d="M29.1211 25V19.0946L27.0967 17.542L25.0724 19.0946V25H29.1211Z" fill="#FF61A9"/>
<path fill-rule="evenodd" clip-rule="evenodd" d="M22.7035 24.9998V15.9823L20.6792 14.4297L18.6548 15.9823V24.9998H22.7035Z" fill="#FE318F"/>
<path fill-rule="evenodd" clip-rule="evenodd" d="M16.541 24.9999V11.3188L14.5166 9.76611L12.4923 11.3188V24.9999H16.541Z" fill="#FF61A9"/>
<path fill-rule="evenodd" clip-rule="evenodd" d="M10.5359 25.0001V12.1996L8.51158 10.647L6.48724 12.1996V25.0001H10.5359Z" fill="#FE318F"/>
<path fill-rule="evenodd" clip-rule="evenodd" d="M4.04868 25.0003V4.58487L2.02434 3.03223L0 4.58487V25.0003H4.04868Z" fill="#FF61A9"/>
</svg>
