<svg width="24" height="23" viewBox="0 0 24 23" fill="none" xmlns="http://www.w3.org/2000/svg">
<g id="Group">
<g id="Layer 2">
<path id="Vector" d="M21.533 8.81485C21.2258 8.58646 20.8573 8.45582 20.4751 8.43987C20.093 8.42391 19.7148 8.52337 19.3898 8.72536L17.0121 10.1572C16.9437 10.183 16.8684 10.183 16.8 10.1572C16.7633 10.1503 16.7285 10.1358 16.6977 10.1146C16.667 10.0934 16.641 10.066 16.6214 10.0342L13.6967 4.88844C13.5231 4.59887 13.2776 4.35926 12.9842 4.19292C12.6908 4.02657 12.3594 3.93915 12.0223 3.93915C11.6852 3.93915 11.3538 4.02657 11.0604 4.19292C10.767 4.35926 10.5215 4.59887 10.3479 4.88844L7.42326 10.0342C7.40368 10.066 7.37768 10.0934 7.34693 10.1146C7.31617 10.1358 7.28133 10.1503 7.24465 10.1572C7.17629 10.183 7.10092 10.183 7.03256 10.1572L4.61023 8.72536C4.28516 8.52337 3.90703 8.42391 3.52487 8.43987C3.14272 8.45582 2.77416 8.58646 2.46698 8.81485C2.1516 9.03905 1.91065 9.35296 1.77531 9.71594C1.63998 10.0789 1.6165 10.4743 1.70791 10.8508L3.37116 17.6744C3.41615 17.8568 3.52091 18.0188 3.66866 18.1344C3.81641 18.25 3.9986 18.3125 4.18605 18.3121H19.814C20.0014 18.3125 20.1836 18.25 20.3313 18.1344C20.4791 18.0188 20.5838 17.8568 20.6288 17.6744L22.3033 10.8284C22.3872 10.4541 22.3589 10.0632 22.2218 9.70496C22.0848 9.34671 21.8451 9.03704 21.533 8.81485Z" fill="#F69BD9"/>
<g id="Group_2">
<path id="Vector_2" d="M12 2.79659C12.7706 2.79659 13.3953 2.17055 13.3953 1.39829C13.3953 0.626038 12.7706 0 12 0C11.2294 0 10.6046 0.626038 10.6046 1.39829C10.6046 2.17055 11.2294 2.79659 12 2.79659Z" fill="#FE62CC"/>
<path id="Vector_3" d="M1.39535 8.38973C2.16598 8.38973 2.7907 7.76369 2.7907 6.99143C2.7907 6.21918 2.16598 5.59314 1.39535 5.59314C0.624719 5.59314 0 6.21918 0 6.99143C0 7.76369 0.624719 8.38973 1.39535 8.38973Z" fill="#FE62CC"/>
<path id="Vector_4" d="M22.6046 8.38973C23.3753 8.38973 24 7.76369 24 6.99143C24 6.21918 23.3753 5.59314 22.6046 5.59314C21.834 5.59314 21.2093 6.21918 21.2093 6.99143C21.2093 7.76369 21.834 8.38973 22.6046 8.38973Z" fill="#FE62CC"/>
</g>
<path id="Vector_5" d="M20.1488 19.4531C20.0715 19.3589 19.9744 19.283 19.8644 19.2307C19.7544 19.1785 19.6343 19.1513 19.5126 19.1511H4.48744C4.36573 19.1513 4.24558 19.1785 4.13558 19.2307C4.02559 19.283 3.92847 19.3589 3.85116 19.4531C3.76992 19.5427 3.7105 19.6499 3.67757 19.7663C3.64465 19.8828 3.63911 20.0053 3.6614 20.1243L3.91814 21.6568C3.94777 21.8544 4.04771 22.0346 4.19954 22.1641C4.35136 22.2936 4.54481 22.3638 4.74419 22.3615H19.2558C19.4552 22.3638 19.6486 22.2936 19.8005 22.1641C19.9523 22.0346 20.0522 21.8544 20.0819 21.6568L20.3386 20.1243C20.3609 20.0053 20.3554 19.8828 20.3224 19.7663C20.2895 19.6499 20.2301 19.5427 20.1488 19.4531Z" fill="#F69BD9"/>
</g>
</g>
</svg>
