<svg width="32" height="23" viewBox="0 0 32 23" fill="none" xmlns="http://www.w3.org/2000/svg">
<path d="M18.2632 22.625H13.7368C12.5409 21.4285 10.9189 20.7559 9.22719 20.755L0 20.75V1.875H5.6875V15.125H11.4809C13.1143 15.125 14.7183 15.6871 16 16.6878C17.2817 15.6871 18.8857 15.125 20.5191 15.125H26.3125V1.875H32V20.75H22.4014C19.7663 20.75 18.4509 22.4941 18.2632 22.625Z" fill="#FF4433"/>
<path d="M18.2632 22.625C18.451 22.4941 19.7662 20.75 22.4014 20.75H32V1.875H26.3125V15.125H20.5191C18.8857 15.125 17.2817 15.6871 16 16.6878V22.625H18.2632Z" fill="#FF4433"/>
<path d="M9.64375 0.7125L9.47506 0H3.8125V17H11.4813C12.9062 17 14.3124 17.5812 15.3438 18.5937L16 19.2687L17.875 11.5235L16 5.625C13.0001 5.625 10.3938 3.59994 9.64375 0.7125Z" fill="#D9E5FF"/>
<path d="M28.1875 0V17H20.5187C19.0938 17 17.6876 17.5812 16.6562 18.5937L16 19.2687V5.625C18.9999 5.625 21.6063 3.59994 22.3563 0.7125L22.5249 0H28.1875Z" fill="#D9E5FF"/>
<path d="M23 0H9C9.81627 3.83904 11.4212 5.17678 16.5385 6C20.383 5.08777 21.7712 3.7453 23 0Z" fill="#D9E5FF"/>
<path d="M15.95 19.2441C15.95 19.2717 15.9724 19.2941 16 19.2941C16.0276 19.2941 16.05 19.2717 16.05 19.2441H15.95ZM16.05 19.2441V0H15.95V19.2441H16.05Z" fill="black"/>
</svg>
