<?xml version="1.0" encoding="utf-8"?>
<!-- Generator: Adobe Illustrator 24.0.1, SVG Export Plug-In . SVG Version: 6.00 Build 0)  -->
<svg version="1.1" id="Layer_1" xmlns="http://www.w3.org/2000/svg" xmlns:xlink="http://www.w3.org/1999/xlink" x="0px" y="0px"
	 viewBox="0 0 24 24" style="enable-background:new 0 0 24 24;" xml:space="preserve">
<style type="text/css">
	.st0{fill:#6270F5;}
</style>
<path d="M8.6,8.2l2.7-5.4c0.3-0.6,1.1-0.6,1.3,0l2.7,5.4l6,0.9c0.6,0.1,0.9,0.8,0.4,1.3l-4.3,4.2l1,6
	c0.1,0.6-0.5,1.1-1.1,0.8L12,18.5l-5.4,2.8c-0.6,0.3-1.2-0.2-1.1-0.8l1-6l-4.4-4.2C1.8,9.9,2,9.2,2.6,9.1L8.6,8.2z M12,4.8L9.8,9.2
	C9.7,9.4,9.5,9.6,9.2,9.6l-4.9,0.7l3.5,3.4c0.2,0.2,0.3,0.4,0.2,0.7l-0.8,4.9l4.4-2.3c0.2-0.1,0.5-0.1,0.7,0l4.4,2.3l-0.8-4.9
	c0-0.2,0-0.5,0.2-0.7l3.5-3.4l-4.9-0.7c-0.2,0-0.5-0.2-0.6-0.4L12,4.8z"/>
<path d="M1.2,18.2c-0.3-0.3-0.2-0.8,0.1-1.1l2.5-2c0.3-0.3,0.8-0.2,1.1,0.1c0.3,0.3,0.2,0.8-0.1,1.1l-2.5,2
	C1.9,18.6,1.4,18.5,1.2,18.2z"/>
<path d="M22.7,17.2c0.3,0.3,0.4,0.7,0.1,1.1c-0.3,0.3-0.7,0.4-1.1,0.1l-2.5-2c-0.3-0.3-0.4-0.7-0.1-1.1
	c0.3-0.3,0.7-0.4,1.1-0.1L22.7,17.2z"/>
<path d="M1.2,3.8C0.9,4.1,1,4.6,1.3,4.8l2.5,2C4.1,7.1,4.6,7,4.8,6.7C5.1,6.4,5,5.9,4.7,5.7l-2.5-2
	C1.9,3.4,1.4,3.5,1.2,3.8z"/>
<path d="M22.7,4.8c0.3-0.3,0.4-0.7,0.1-1.1c-0.3-0.3-0.7-0.4-1.1-0.1l-2.5,2c-0.3,0.3-0.4,0.7-0.1,1.1
	c0.3,0.3,0.7,0.4,1.1,0.1L22.7,4.8z"/>
</svg>
